<svg xmlns="http://www.w3.org/2000/svg" width="29.757" height="19.496" viewBox="0 0 29.757 19.496">
  <g id="saudi_arabia_" data-name="saudi_arabia " transform="translate(0 0)">
    <path id="Path_1358" data-name="Path 1358" d="M27.528,107.772H2.229A2.229,2.229,0,0,1,0,105.543V90.5a2.229,2.229,0,0,1,2.229-2.229h25.3A2.229,2.229,0,0,1,29.757,90.5v15.039A2.229,2.229,0,0,1,27.528,107.772Z" transform="translate(0 -88.276)" fill="#1faf85"/>
    <g id="Group_116" data-name="Group 116" transform="translate(5.883 4.104)">
      <path id="Path_1359" data-name="Path 1359" d="M102.416,168.174c.051.324.247.426.417.413a.419.419,0,0,0,.377-.393v-1.112a.1.1,0,0,1,.2,0V168.2a.4.4,0,0,0,.555.375l.1-.04c.009.934-.048,1.754-.049,1.769a.2.2,0,0,0,.187.216h.015a.2.2,0,0,0,.2-.188c0-.066.067-.964.048-1.959l.061-.024a.2.2,0,0,1,.165.007.578.578,0,0,0,.667-.108l.036-.036a.6.6,0,0,0,.146-.621l-.172-.517a.2.2,0,0,0,.15-.374l-.4-.2a.2.2,0,0,0-.282.245l.325.976a.2.2,0,0,1-.049.207l-.036.036a.174.174,0,0,1-.2.032.6.6,0,0,0-.42-.042,6.975,6.975,0,0,0-.247-1.742.2.2,0,0,0-.384.128,6.953,6.953,0,0,1,.232,1.765l-.242.1V167.08a.506.506,0,0,0-1.011,0v.979l-.206-1.019a.2.2,0,1,0-.4.08Z" transform="translate(-102.142 -165.652)" fill="#f5f5f5"/>
      <path id="Path_1360" data-name="Path 1360" d="M109.362,163.2a.2.2,0,0,0,.2-.2v-.2a.2.2,0,1,0-.4,0v.2A.2.2,0,0,0,109.362,163.2Z" transform="translate(-108.699 -162.379)" fill="#f5f5f5"/>
      <path id="Path_1361" data-name="Path 1361" d="M144.159,163h.2a.2.2,0,1,0,0-.4h-.2a.2.2,0,1,0,0,.4Z" transform="translate(-141.473 -162.379)" fill="#f5f5f5"/>
      <path id="Path_1362" data-name="Path 1362" d="M106.789,214.818l-1.011.607a.2.2,0,0,0,.208.347l1.011-.607a.2.2,0,1,0-.208-.347Z" transform="translate(-105.42 -211.541)" fill="#f5f5f5"/>
      <path id="Path_1363" data-name="Path 1363" d="M119.274,169.29l0,0a.461.461,0,0,0,.093.19.4.4,0,0,0,.345.134.558.558,0,0,0,.421-.221.367.367,0,0,0,.043.025.383.383,0,0,0,.356-.012.768.768,0,0,0,.362-.712.207.207,0,0,0-.211-.192.2.2,0,0,0-.194.21s0,.243-.142.332a.492.492,0,0,1-.063-.17.2.2,0,0,0-.4.033c0,.029-.007.289-.207.311a.494.494,0,0,1,0-.265.2.2,0,0,0-.31-.214l-.113.077c-.054-1.173-.177-2.54-.179-2.557a.2.2,0,1,0-.4.037c0,.019.145,1.6.189,2.808l-.031.03a.521.521,0,0,0-.443-.348.738.738,0,0,0-.712.451.478.478,0,0,0,.155.6.674.674,0,0,0,.6.028,1.691,1.691,0,0,1-.329.624.849.849,0,0,1-.646.329.531.531,0,0,1-.393-.167,1.155,1.155,0,0,1-.214-.724.2.2,0,0,0-.191-.213.2.2,0,0,0-.213.191,1.551,1.551,0,0,0,.318,1.017.928.928,0,0,0,.677.3h.041a1.232,1.232,0,0,0,.928-.471,2.092,2.092,0,0,0,.463-1.037,2.292,2.292,0,0,1-.97,1.816,1.01,1.01,0,0,1-1.013.074.868.868,0,0,1-.445-.855.2.2,0,0,0-.4-.05,1.27,1.27,0,0,0,.667,1.268,1.375,1.375,0,0,0,.612.146,1.5,1.5,0,0,0,.793-.239,2.689,2.689,0,0,0,1.162-2.161C119.281,169.582,119.278,169.44,119.274,169.29Zm-1.219.208c-.036-.024-.008-.1,0-.116a.344.344,0,0,1,.282-.2h.016c.026,0,.095.009.124.162q0,.024.008.05C118.258,169.528,118.107,169.533,118.055,169.5Z" transform="translate(-115.179 -165.655)" fill="#f5f5f5"/>
      <path id="Path_1364" data-name="Path 1364" d="M101.99,243.47a.2.2,0,0,0-.277.072.413.413,0,0,1-.034.048l-.007-.017a1.36,1.36,0,0,1,.006-.686.2.2,0,0,0-.391-.1,1.741,1.741,0,0,0,.006.932c.093.247.235.31.339.318h.027a.531.531,0,0,0,.4-.289A.2.2,0,0,0,101.99,243.47Z" transform="translate(-101.225 -237.766)" fill="#f5f5f5"/>
      <path id="Path_1365" data-name="Path 1365" d="M175.331,164.414a.2.2,0,0,0,.125-.043l1.02-.8a.2.2,0,0,0,.033-.039.506.506,0,1,0-.581-.045l-.722.567a.2.2,0,0,0,.125.361Zm.918-1.416a.1.1,0,1,1-.1.1A.1.1,0,0,1,176.249,163Z" transform="translate(-170.833 -162.379)" fill="#f5f5f5"/>
      <path id="Path_1366" data-name="Path 1366" d="M185.448,190.442a.2.2,0,0,0-.256.128.618.618,0,0,0,.079.6.408.408,0,0,0,.3.115.887.887,0,0,0,.279-.052.2.2,0,1,0-.128-.384.7.7,0,0,1-.165.035.388.388,0,0,1,.017-.185A.2.2,0,0,0,185.448,190.442Z" transform="translate(-180.271 -188.598)" fill="#f5f5f5"/>
      <path id="Path_1367" data-name="Path 1367" d="M227.761,163.248a.2.2,0,0,0,.251-.137l.118-.4a.2.2,0,1,0-.388-.113l-.118.4A.2.2,0,0,0,227.761,163.248Z" transform="translate(-220.27 -162.241)" fill="#f5f5f5"/>
      <path id="Path_1368" data-name="Path 1368" d="M206.025,159.881a.2.2,0,1,0,.2-.349c-.041-.024-.035-.091-.034-.1a.159.159,0,0,1,.093-.135.2.2,0,1,0-.12-.386.555.555,0,0,0-.374.475A.5.5,0,0,0,206.025,159.881Z" transform="translate(-199.712 -158.897)" fill="#f5f5f5"/>
      <path id="Path_1369" data-name="Path 1369" d="M178.956,232.189a.2.2,0,0,0-.038.4.381.381,0,0,1,.038.206.2.2,0,1,0,.4,0C179.361,232.2,178.973,232.189,178.956,232.189Z" transform="translate(-174.248 -227.929)" fill="#f5f5f5"/>
      <path id="Path_1370" data-name="Path 1370" d="M234.829,208.408a.468.468,0,0,0,.076.006.691.691,0,0,0,.478-.239.2.2,0,1,0-.286-.286c-.121.121-.186.124-.2.12-.039-.006-.074-.056-.081-.07a.2.2,0,0,0-.36.183A.547.547,0,0,0,234.829,208.408Z" transform="translate(-226.689 -204.986)" fill="#f5f5f5"/>
      <path id="Path_1371" data-name="Path 1371" d="M293.983,190.96l0-.009a.2.2,0,0,0-.383.129.453.453,0,0,0,.329.315l.045,0a.5.5,0,0,0,.391-.27.2.2,0,1,0-.337-.224A.611.611,0,0,1,293.983,190.96Z" transform="translate(-282.405 -188.96)" fill="#f5f5f5"/>
      <path id="Path_1372" data-name="Path 1372" d="M205.091,171.324c0-.862-.038-1.672-.091-2.38a10.238,10.238,0,0,1,.71,1.44.2.2,0,0,0,.189.131.205.205,0,0,0,.071-.013.2.2,0,0,0,.118-.261,13.4,13.4,0,0,0-1.17-2.217c-.111-1.089-.234-1.781-.237-1.793a.2.2,0,0,0-.4.072c0,.009.065.365.141.964-.155-.231-.3-.439-.421-.61l.01,0a.2.2,0,1,0,.128-.384l-.607-.2a.2.2,0,0,0-.228.073.2.2,0,0,0-.03.062.441.441,0,0,0-.422-.1.344.344,0,0,0-.193.36,1.827,1.827,0,0,0,.14.573c.119.337.194.585.068.7a.221.221,0,0,1-.207.073c-.125-.032-.248-.2-.33-.444a.181.181,0,0,0-.016-.028,3.439,3.439,0,0,0-.062-1.119.2.2,0,1,0-.4.079,1.925,1.925,0,0,1-.106,1.441.363.363,0,0,1-.3.137.116.116,0,0,1-.1-.045,1.949,1.949,0,0,1-.107-1.14.2.2,0,0,0-.2-.231c-.348,0-.48.4-.6.745-.051.154-.146.439-.213.468-.122,0-.2-.359-.2-.607a.2.2,0,0,0-.2-.2h0a.2.2,0,0,0-.2.2c0,.466.159,1.011.607,1.011.333,0,.469-.363.582-.7a1.268,1.268,0,0,0,.229.719.519.519,0,0,0,.4.185.769.769,0,0,0,.615-.285.935.935,0,0,0,.075-.112.754.754,0,0,0,.424.318.584.584,0,0,0,.143.018.642.642,0,0,0,.44-.188.594.594,0,0,0,.068-.082.546.546,0,0,0,.149.022.818.818,0,0,0,.419-.129.2.2,0,0,0-.217-.341.429.429,0,0,1-.229.06,2.087,2.087,0,0,0-.153-.665,2.815,2.815,0,0,1-.1-.338c.017.014.033.029.048.043a.2.2,0,0,0,.286,0,.2.2,0,0,0,.029-.044c.21.289.641.9,1.084,1.6.085.86.159,1.957.159,3.16a.2.2,0,0,0,.4,0Z" transform="translate(-193.911 -165.649)" fill="#f5f5f5"/>
      <path id="Path_1373" data-name="Path 1373" d="M293.788,166.884a.2.2,0,0,0,.4,0,2.061,2.061,0,0,0-.224-.7.2.2,0,0,0-.362.181A1.8,1.8,0,0,1,293.788,166.884Z" transform="translate(-282.406 -165.658)" fill="#f5f5f5"/>
      <path id="Path_1374" data-name="Path 1374" d="M263.372,250.015a.2.2,0,0,0-.272.089.58.58,0,0,1-.084.12,1.131,1.131,0,0,1,.053-.374.2.2,0,0,0-.336-.2l-.4.4a.2.2,0,0,0,.286.286l.01-.01a.418.418,0,0,0,.108.213.37.37,0,0,0,.263.116.357.357,0,0,0,.056,0,.658.658,0,0,0,.41-.366A.2.2,0,0,0,263.372,250.015Z" transform="translate(-252.91 -244.318)" fill="#f5f5f5"/>
      <path id="Path_1375" data-name="Path 1375" d="M171.518,205.778h-1.425q.019-.075.039-.144c.568-.118.906-.3,1.006-.546a.452.452,0,0,0-.076-.454.5.5,0,0,0-.511-.218c-.287.058-.543.368-.727.864a2.325,2.325,0,0,0-1.168.505,3.135,3.135,0,0,0-.419-1.345.2.2,0,0,0-.337.224,2.921,2.921,0,0,1,.371,1.506,1.6,1.6,0,0,1-1.213,1.618c-.227,0-.327-.27-.37-.5a2.322,2.322,0,0,0,.971-1.071,1.608,1.608,0,0,0-.134-1.1l-.015-.035.013.012a.2.2,0,0,0,.286-.286c-.118-.118-.348-.3-.557-.217a.344.344,0,0,0-.193.36.86.86,0,0,0,.094.325,1.222,1.222,0,0,1,.114.839,1.712,1.712,0,0,1-.662.73.2.2,0,0,0-.153-.074h0a.2.2,0,0,0-.2.2c0,.036,0,.075,0,.115a10.644,10.644,0,0,1-1.3.712.2.2,0,0,0,.084.386.2.2,0,0,0,.084-.018,11.632,11.632,0,0,0,1.208-.647.787.787,0,0,0,.731.665,1.718,1.718,0,0,0,1.353-.989,1.177,1.177,0,0,0,.135.193,2.279,2.279,0,0,0,1.545.594.2.2,0,0,0,.014-.4.433.433,0,0,1-.252-.123.347.347,0,0,1-.066-.266c.021-.249.825-.436,1.533-.447a.2.2,0,0,0,.188-.135l.2-.569a.2.2,0,0,0-.19-.27Zm-.888-.966.015,0c.019,0,.05.009.091.064.008.01.032.045.026.061-.023.057-.163.152-.454.238C170.436,204.923,170.562,204.826,170.63,204.812Zm-1.221,2.659a1.238,1.238,0,0,1-.56-.34.86.86,0,0,1-.18-.712.6.6,0,0,1,.042-.086c.285-.026,1.046.086,1.1.3a.679.679,0,0,0-.428.528A.853.853,0,0,0,169.409,207.471Z" transform="translate(-161.134 -201.708)" fill="#f5f5f5"/>
      <path id="Path_1376" data-name="Path 1376" d="M291.715,166.815l-.2-.607a.2.2,0,0,0-.393.084c.14,1.4.4,4.117.4,4.429,0,.28-.5.832-1.3,1.235a.2.2,0,0,0,.181.362c.736-.368,1.528-1.024,1.528-1.6,0-.3-.207-2.449-.325-3.657A.2.2,0,0,0,291.715,166.815Z" transform="translate(-279.129 -165.653)" fill="#f5f5f5"/>
      <path id="Path_1377" data-name="Path 1377" d="M336.012,194.212a.2.2,0,0,0,.339-.193,1.022,1.022,0,0,1-.029-.393.205.205,0,0,0,.21-.173.2.2,0,0,0-.172-.229.365.365,0,0,0-.333.112.463.463,0,0,0-.1.217l-.234-.234a.2.2,0,0,0-.286.286Z" transform="translate(-321.739 -191.225)" fill="#f5f5f5"/>
      <path id="Path_1378" data-name="Path 1378" d="M340.972,213.3l-.758.544a.2.2,0,0,0,.236.329l.758-.544a.2.2,0,1,0-.236-.329Z" transform="translate(-326.244 -210.103)" fill="#f5f5f5"/>
      <path id="Path_1379" data-name="Path 1379" d="M352.785,225.74a.2.2,0,0,0,.018.268.562.562,0,0,1,.041.291.2.2,0,0,0,.195.209h.007a.2.2,0,0,0,.2-.195c.015-.413-.12-.564-.179-.609A.2.2,0,0,0,352.785,225.74Z" transform="translate(-338.124 -221.781)" fill="#f5f5f5"/>
      <path id="Path_1380" data-name="Path 1380" d="M325.051,171.107a.2.2,0,0,0,.2-.2c0-.3-.015-.632-.04-.978a7.38,7.38,0,0,1,.474.881.2.2,0,0,0,.186.123.2.2,0,0,0,.08-.016.2.2,0,0,0,.106-.265,11.125,11.125,0,0,0-.925-1.6c-.079-.742-.183-1.47-.264-1.991a.2.2,0,0,0,.126-.031.2.2,0,0,0,.09-.183.2.2,0,0,0,.022.058.736.736,0,0,1,.074.5.2.2,0,0,0,.157.239.214.214,0,0,0,.041,0,.2.2,0,0,0,.2-.161,1.146,1.146,0,0,0-.129-.794.2.2,0,0,0-.279-.062.2.2,0,0,0-.09.183.2.2,0,0,0-.023-.058l-.341-.531a.2.2,0,0,0-.369.144c0,.016.157.9.294,1.973-.155-.219-.31-.433-.46-.637-.024-.306-.049-.589-.07-.823a.206.206,0,0,0,.033-.013.2.2,0,0,0,.09-.271l-.2-.4a.2.2,0,0,0-.382.111c.024.241.049.509.074.789-.128-.169-.246-.323-.348-.454a.2.2,0,0,0-.041-.334l-.4-.2a.2.2,0,0,0-.248.307c.011.014.509.638,1.1,1.443a16.262,16.262,0,0,1,.075,3.018c-.018.053-.049.116-.078.118-.122.017-.414-.256-.56-.549a.282.282,0,0,0-.271-.183c-.217.013-.3.253-.456.687a2.849,2.849,0,0,1-.4.856,2.3,2.3,0,0,1-.251-.8.2.2,0,0,0,.391-.068c0-.3-.211-2.6-.329-3.857a.2.2,0,0,0,.116-.251l-.2-.607a.2.2,0,0,0-.393.083c.137,1.443.4,4.229.4,4.614l0-.01a.2.2,0,1,0-.4.057c.059.413.21,1.124.558,1.24a.337.337,0,0,0,.108.018.4.4,0,0,0,.285-.132,2.917,2.917,0,0,0,.5-1.01c.03-.084.065-.183.1-.268.186.271.509.608.837.582a.5.5,0,0,0,.433-.394,11.391,11.391,0,0,0-.007-2.525c.17.239.341.483.5.725.063.606.108,1.212.108,1.711A.2.2,0,0,0,325.051,171.107Z" transform="translate(-308.625 -165.66)" fill="#f5f5f5"/>
      <path id="Path_1381" data-name="Path 1381" d="M382.85,170.45c-.143-1.067-.343-2.3-.469-3.062a.2.2,0,0,0,.169-.036.2.2,0,0,0,.038-.283l-.367-.48a.2.2,0,0,0-.36.157c0,.021.364,2.1.587,3.758a1.9,1.9,0,0,1-.333,1.518.9.9,0,0,1-.742.276.2.2,0,0,0-.025.4c.034,0,.068,0,.1,0a1.276,1.276,0,0,0,.962-.408A2.258,2.258,0,0,0,382.85,170.45Z" transform="translate(-364.89 -166.066)" fill="#f5f5f5"/>
      <path id="Path_1382" data-name="Path 1382" d="M371.068,256.2a.2.2,0,0,0,.01.284.085.085,0,0,1,.024.042.1.1,0,0,1-.031.045.2.2,0,1,0,.286.286.459.459,0,0,0,.149-.345.481.481,0,0,0-.159-.329A.2.2,0,0,0,371.068,256.2Z" transform="translate(-355.333 -250.479)" fill="#f5f5f5"/>
      <path id="Path_1383" data-name="Path 1383" d="M156.5,327.024H155.08v-.2a.2.2,0,1,0-.4,0v.2H143.957a2.823,2.823,0,0,0,1.82.607h8.9v.4a.2.2,0,0,0,.2.2H156.5a.607.607,0,0,0,0-1.214Zm0,.809H155.08v-.2H156.7l-.036-.109a.2.2,0,0,1,.036.109A.2.2,0,0,1,156.5,327.833Z" transform="translate(-141.473 -316.872)" fill="#f5f5f5"/>
    </g>
  </g>
</svg>
