<svg id="Group_21194" data-name="Group 21194" xmlns="http://www.w3.org/2000/svg" width="109.017" height="142.369" viewBox="0 0 109.017 142.369">
  <g id="Group" transform="translate(0 0)">
    <path id="Vector" d="M9.009,28.582C15.757,16.746,23.088,9.062,27.593,5.67A65.811,65.811,0,0,1,36.761,0l-3.9,34.588L21.975,69,0,69.141S2.261,40.418,9.009,28.582Z" transform="translate(11.117 73.04)" fill="#f9d2dd"/>
    <path id="Vector-2" data-name="Vector" d="M23.459,40.4l2.632-8.3L28.6,9.963,25.579,0a1.862,1.862,0,0,0-.194.124c.035,2.932-.3,12.736-5.653,21.092-4.7,7.331-14.5,8.656-19.326,8.833-.141.318-.283.654-.406.972Z" transform="translate(17.883 75.53)" fill="#f9acc0"/>
    <path id="Vector-3" data-name="Vector" d="M3.78,41.723s5.441-3.2,8.444-17.276c1.731-8.126,0-18.213,0-18.213S23.671-.532,35.507.034a89.182,89.182,0,0,1,20.65,3.374,154.965,154.965,0,0,0-.76,17.842c0,12.03,5.264,24.978,5.264,24.978l-.848,26.851H0Z" transform="translate(31.008 69.102)" fill="#00af47"/>
    <path id="Vector-4" data-name="Vector" d="M2.526,0,0,25.349l32.221-8.532L14.273,14.079Z" transform="translate(58.812 103.512)" fill="#224bf4"/>
    <g id="Group-2" data-name="Group" transform="translate(47.737 70.248)">
      <path id="Vector-5" data-name="Vector" d="M.371,0V67.6H0V0Z" transform="translate(0 2.826)" fill="#fff"/>
      <path id="Vector-6" data-name="Vector" d="M.371,0V70.43H0V0Z" transform="translate(8.161)" fill="#fff"/>
      <path id="Vector-7" data-name="Vector" d="M.371,0V67.6H0V0Z" transform="translate(16.34 2.826)" fill="#fff"/>
      <path id="Vector-8" data-name="Vector" d="M.371,0V67.6H0V0Z" transform="translate(24.501 2.826)" fill="#fff"/>
      <path id="Vector-9" data-name="Vector" d="M.371,0V69.671H0V0Z" transform="translate(32.663 0.76)" fill="#fff"/>
    </g>
    <path id="Vector-10" data-name="Vector" d="M38.795,1.072a4.252,4.252,0,0,0-1.413,3.586,7.765,7.765,0,0,0-7.26,1.166C27.436,7.856,27.754,11,28.09,12.484c-3.568-.283-7.331,1.042-8.762,3.886a12.917,12.917,0,0,0-1.148,5.953C9.029,21.652,1.345,27.428.2,35.749s3.109,13.09,3.109,13.09l17.329,5.105s7.525.512,11.447-3.056,6.377-11.906,3.427-18.707A14.064,14.064,0,0,0,31.552,27.2a28.383,28.383,0,0,0,2.985-3.515,7.216,7.216,0,0,0,.83-6.395,10.35,10.35,0,0,0,3.586-1.254c2.544-1.378,3.2-4.257,2.579-6.748a11.148,11.148,0,0,0,2.491-.212c2.455-.53,3.445-3.586,1.8-6.642A4.589,4.589,0,0,0,38.795,1.072Z" transform="translate(47.664 0)" fill="#1f1f39"/>
    <path id="Vector-11" data-name="Vector" d="M2.029.581c-3,1.307-2.809,7.137,1.5,9.009s6.766.371,6.766.371L6.9.581S5.032-.726,2.029.581Z" transform="translate(47.209 43.788)" fill="#f9acc0"/>
    <path id="Vector-12" data-name="Vector" d="M4.854,7.186l-1.449-3A8.311,8.311,0,0,0,.1.332.175.175,0,0,1,.014.1.175.175,0,0,1,.243.014a8.363,8.363,0,0,1,3.48,4.028l1.449,3a.175.175,0,0,1-.088.23c-.018,0-.053.018-.071.018A.17.17,0,0,1,4.854,7.186Z" transform="translate(49.489 45.893)" fill="#1f1f39"/>
    <path id="Vector-13" data-name="Vector" d="M0,7.776c.088,1.855.53,8.55,2.614,12.083A12.356,12.356,0,0,0,8.3,25a.478.478,0,0,1,.3.477,56.916,56.916,0,0,1-.742,7.9c-.424,1.714-.848,3.091-1.042,3.657a.506.506,0,0,0,.124.512c.76.76,3.674,2.208,8.426,2.208,4.7,0,7.243-1.166,8.144-1.7a.526.526,0,0,0,.247-.53,67.413,67.413,0,0,1-1.254-9.239c0-2.473.247-5.953.336-7.119a.506.506,0,0,1,.406-.459c1.537-.283,7.278-1.678,6.942-6.889-.318-5.229-5.052-4.77-6.271-4.558a.5.5,0,0,0-.389.336c-.212.6-.742,2.12-1.025,3.3a.5.5,0,0,1-.972-.053,13.231,13.231,0,0,1-.141-1.819,6.364,6.364,0,0,1,.194-1.767.493.493,0,0,0-.371-.6c-1.343-.318-4.787-1.413-6.571-4.4A20.713,20.713,0,0,1,12.738.339a.5.5,0,0,0-.919-.053A10.7,10.7,0,0,1,7.138,5.02a18.812,18.812,0,0,1-6.7,2.243A.487.487,0,0,0,0,7.776Z" transform="translate(51.321 35.004)" fill="#f9d2dd"/>
    <path id="Vector-14" data-name="Vector" d="M42.255,15.952c4.31,9.574,6.218,29.748,5.812,36.991-.389,6.766-2.826,14.45-10.9,16.146-8.055,1.7-37.167,0-37.167,0V49.762L28.352,47.89,26.109,34.941S23.3,22.17,24.236,12.419C25.155,2.632,25.915,0,25.915,0S36.284,2.7,42.255,15.952Z" transform="translate(60.897 72.527)" fill="#f9d2dd"/>
    <path id="Vector-15" data-name="Vector" d="M.707.2A2,2,0,0,1,1.767.009,1.922,1.922,0,0,1,2.3.133,1.272,1.272,0,0,1,2.773.4a1.072,1.072,0,0,1,.424.936A1.193,1.193,0,0,0,2.632.61,2.431,2.431,0,0,0,1.749.362,2.306,2.306,0,0,0,.83.468,2.359,2.359,0,0,0,0,.963,1.548,1.548,0,0,1,.707.2Z" transform="translate(64.448 42.276)" fill="#1f1f39"/>
    <path id="Vector-16" data-name="Vector" d="M.565.431A1.676,1.676,0,0,1,1.555.007,1.448,1.448,0,0,1,2.1.06,1.714,1.714,0,0,1,2.6.342,1.3,1.3,0,0,1,3,1.3,1.769,1.769,0,0,0,2.42.554,1.186,1.186,0,0,0,2.014.378C1.943.378,1.872.342,1.8.342H1.59a1.7,1.7,0,0,0-.848.3A2.906,2.906,0,0,0,0,1.3,1.9,1.9,0,0,1,.565.431Z" transform="translate(54.502 42.137)" fill="#1f1f39"/>
    <path id="Vector-17" data-name="Vector" d="M.821,1.449c-.088.247-.177.477-.247.724S.433,2.65.38,2.9a1.877,1.877,0,0,0-.053.689.581.581,0,0,0,.124.283.36.36,0,0,0,.106.124l.053.053L.68,4.1a1.568,1.568,0,0,0,.654.283,5.244,5.244,0,0,0,.76.106,2.284,2.284,0,0,1-.777.071,1.794,1.794,0,0,1-.777-.23,1.082,1.082,0,0,1-.512-.689,2.162,2.162,0,0,1,.035-.83,6.188,6.188,0,0,1,.53-1.484A7.734,7.734,0,0,1,1.351,0Z" transform="translate(59.723 44.175)" fill="#1f1f39"/>
    <path id="Vector-18" data-name="Vector" d="M1.307,3.038A1.425,1.425,0,0,1,0,1.519,1.425,1.425,0,0,1,1.307,0,1.425,1.425,0,0,1,2.614,1.519,1.425,1.425,0,0,1,1.307,3.038Z" transform="translate(55.068 44.935)" fill="#1f1f39"/>
    <path id="Vector-19" data-name="Vector" d="M1.307,3.038A1.425,1.425,0,0,1,0,1.519,1.425,1.425,0,0,1,1.307,0,1.425,1.425,0,0,1,2.614,1.519,1.425,1.425,0,0,1,1.307,3.038Z" transform="translate(64.448 44.935)" fill="#1f1f39"/>
    <path id="Vector-20" data-name="Vector" d="M0,.459V20.332s6.289.371,13.832.583L7.048,0Z" transform="translate(67.769 121.283)" fill="#f9acc0"/>
    <path id="Vector-21" data-name="Vector" d="M1.307,3.038A1.425,1.425,0,0,1,0,1.519,1.425,1.425,0,0,1,1.307,0,1.425,1.425,0,0,1,2.614,1.519,1.425,1.425,0,0,1,1.307,3.038Z" transform="translate(62.204 50.552)" fill="#f95368"/>
    <path id="Vector-22" data-name="Vector" d="M10.746,44.286A3.975,3.975,0,0,1,7.319,41.76L.165,2.526A1.712,1.712,0,0,1,1.772,0H64.907a3.975,3.975,0,0,1,3.427,2.526L75.488,41.76a1.708,1.708,0,0,1-1.608,2.526Z" transform="translate(0 97.718)" fill="#aaa"/>
    <path id="Vector-23" data-name="Vector" d="M4.174,8.349A4.174,4.174,0,1,1,8.349,4.174,4.174,4.174,0,0,1,4.174,8.349Z" transform="translate(32.854 114.393)" fill="#fff"/>
    <g id="Group-3" data-name="Group" transform="translate(51.199 48.627)" opacity="0.635">
      <path id="Vector-24" data-name="Vector" d="M3.922,4.8C1.756,4.8,0,3.729,0,2.4S1.756,0,3.922,0,7.843,1.076,7.843,2.4,6.087,4.8,3.922,4.8Z" transform="translate(13.902)" fill="#f9acc0" opacity="0.635"/>
      <path id="Vector-25" data-name="Vector" d="M3.922,4.8C1.756,4.8,0,3.729,0,2.4S1.756,0,3.922,0,7.843,1.076,7.843,2.4,6.087,4.8,3.922,4.8Z" transform="translate(0 0)" fill="#f9acc0" opacity="0.635"/>
    </g>
    <path id="Vector-26" data-name="Vector" d="M5.017.707A35.821,35.821,0,0,1,.442,0,.6.6,0,0,1,.53.3C.495,1.413.336,4.84,0,7.048c1.7-.353,4.876-1.2,6.73-2.791A22.158,22.158,0,0,0,10.493.3,21.926,21.926,0,0,1,5.017.707Z" transform="translate(59.395 60.215)" fill="#f9acc0"/>
    <path id="Vector-27" data-name="Vector" d="M.109.339A.162.162,0,0,1,.021.109.162.162,0,0,1,.251.021a13.272,13.272,0,0,0,5.37.742A24.6,24.6,0,0,0,10.655.021a.157.157,0,0,1,.212.124.157.157,0,0,1-.124.212,25.75,25.75,0,0,1-5.105.76c-.3,0-.583.018-.866.018A13.128,13.128,0,0,1,.109.339Z" transform="translate(59.763 59.964)" fill="#1f1f39"/>
    <path id="Vector-28" data-name="Vector" d="M.383,4.911A5.8,5.8,0,0,0,.294,8.833V8.727A.506.506,0,0,1,.7,8.267a13.352,13.352,0,0,0,1.643-.424,11.327,11.327,0,0,1-.318-4.222A11.991,11.991,0,0,1,3.174,0S1.549,1.29.383,4.911Z" transform="translate(73.887 47.496)" fill="#f9acc0"/>
    <path id="Vector-29" data-name="Vector" d="M0,7.321A9.9,9.9,0,0,1,1.148,3.293,7.8,7.8,0,0,1,4.045.025.179.179,0,0,1,4.293.1a.179.179,0,0,1-.071.247A7.662,7.662,0,0,0,1.484,3.452,9.709,9.709,0,0,0,.371,7.321.225.225,0,0,1,.177,7.5.177.177,0,0,1,0,7.321Z" transform="translate(73.845 46.623)" fill="#1f1f39"/>
    <path id="Vector-30" data-name="Vector" d="M7.154,2.561A20.274,20.274,0,0,0,1.89,0S1.13,2.632.194,12.383C-.424,18.76.565,26.427,1.325,30.967a79.01,79.01,0,0,1,1.5-15C4.275,8.8,6.006,4.7,7.154,2.561Z" transform="translate(84.904 72.527)" fill="#f9acc0"/>
    <path id="Vector-31" data-name="Vector" d="M9.2,4.876,0,0,.919,5.476Z" transform="translate(88.295 114.782)" fill="#f9acc0"/>
    <path id="Vector-32" data-name="Vector" d="M0,.992C-.015.9.073.815.161.8L8.534,0a.178.178,0,0,1,.194.159c.018.088-.071.177-.159.194L.179,1.15h0A.188.188,0,0,1,0,.992Z" transform="translate(89.07 119.355)" fill="#1f1f39"/>
  </g>
</svg>
