<svg id="Group_42" data-name="Group 42" xmlns="http://www.w3.org/2000/svg" width="140.23" height="42.069" viewBox="0 0 140.23 42.069">
  <g id="Group_33" data-name="Group 33" transform="translate(0 0)">
    <g id="Group_31" data-name="Group 31">
      <path id="Path_56" data-name="Path 56" d="M800.337,50H679.9c-.381,0-.757,0-1.136,0-.318,0-.633.008-.954.013a13.738,13.738,0,0,0-2.08.183,6.921,6.921,0,0,0-1.974.651,6.68,6.68,0,0,0-1.681,1.224,6.494,6.494,0,0,0-1.223,1.683,6.858,6.858,0,0,0-.649,1.976,13.5,13.5,0,0,0-.186,2.078c-.01.318-.011.637-.016.956V83.305c.005.323.006.635.016.957a13.5,13.5,0,0,0,.186,2.078,6.847,6.847,0,0,0,.649,1.977,6.44,6.44,0,0,0,1.223,1.676,6.511,6.511,0,0,0,1.681,1.224,6.956,6.956,0,0,0,1.974.655,13.959,13.959,0,0,0,2.08.183c.321.007.636.011.954.011.38,0,.756,0,1.136,0H800.337c.373,0,.753,0,1.125,0,.316,0,.641,0,.957-.011a13.778,13.778,0,0,0,2.076-.183,7.065,7.065,0,0,0,1.981-.655,6.516,6.516,0,0,0,1.679-1.224,6.631,6.631,0,0,0,1.227-1.676,6.864,6.864,0,0,0,.643-1.977,14.066,14.066,0,0,0,.193-2.078c0-.323,0-.635,0-.957.008-.377.008-.752.008-1.136V59.9c0-.38,0-.757-.008-1.134,0-.318,0-.637,0-.956a14.066,14.066,0,0,0-.193-2.078,6.876,6.876,0,0,0-.643-1.976,6.717,6.717,0,0,0-2.906-2.907A7.029,7.029,0,0,0,804.5,50.2a13.563,13.563,0,0,0-2.076-.183c-.316-.005-.641-.011-.957-.013-.373,0-.752,0-1.125,0Z" transform="translate(-670 -50)" fill="#b6b6b6"/>
    </g>
    <g id="Group_32" data-name="Group 32" transform="translate(0.906 0.908)">
      <path id="Path_57" data-name="Path 57" d="M681.093,93.491c-.316,0-.625,0-.939-.011a13.17,13.17,0,0,1-1.94-.169,6.11,6.11,0,0,1-1.72-.569,5.608,5.608,0,0,1-1.45-1.056,5.516,5.516,0,0,1-1.06-1.45,5.938,5.938,0,0,1-.564-1.721,12.872,12.872,0,0,1-.173-1.946c-.007-.219-.015-.948-.015-.948V61.1s.009-.718.015-.929a12.817,12.817,0,0,1,.172-1.944,5.98,5.98,0,0,1,.564-1.725,5.576,5.576,0,0,1,1.054-1.451,5.775,5.775,0,0,1,1.456-1.062,6.054,6.054,0,0,1,1.716-.565,13.092,13.092,0,0,1,1.947-.17l.937-.013H803.783l.948.013a12.852,12.852,0,0,1,1.929.169,6.162,6.162,0,0,1,1.735.569A5.8,5.8,0,0,1,810.9,56.5a5.983,5.983,0,0,1,.556,1.712,13.484,13.484,0,0,1,.18,1.959c0,.294,0,.61,0,.924.008.39.008.76.008,1.134V84.5c0,.377,0,.745-.008,1.117,0,.337,0,.647,0,.965a13.229,13.229,0,0,1-.178,1.924,5.958,5.958,0,0,1-.561,1.734,5.687,5.687,0,0,1-1.054,1.439,5.628,5.628,0,0,1-1.453,1.062,6.1,6.1,0,0,1-1.732.571,13.021,13.021,0,0,1-1.941.169c-.3.007-.623.011-.932.011l-1.126,0Z" transform="translate(-673.232 -53.239)"/>
    </g>
  </g>
  <g id="Group_36" data-name="Group 36" transform="translate(43.745 7.591)">
    <g id="Group_34" data-name="Group 34" transform="translate(0.009 10.908)">
      <path id="Path_58" data-name="Path 58" d="M834.3,128.146h-4.924l-1.206,3.294h-2.165l4.823-12.3h2.046l4.933,12.3h-2.275Zm-4.3-1.673h3.677l-1.316-3.524q-.272-.73-.535-1.613-.238.782-.518,1.6Z" transform="translate(-826.008 -118.246)" fill="#fff"/>
      <path id="Path_59" data-name="Path 59" d="M871.024,132.144q0-1.019-.068-2.241h1.97a9.8,9.8,0,0,1,.153,1.163,3.712,3.712,0,0,1,2.8-1.333,3.159,3.159,0,0,1,2.959,1.923,5.846,5.846,0,0,1,.48,2.535,6.276,6.276,0,0,1-.548,2.742,3.92,3.92,0,0,1-1.533,1.724,4.367,4.367,0,0,1-2.275.586,5.607,5.607,0,0,1-1.843-.314v3.787l-2.1.178Zm5.514,4.683a4.178,4.178,0,0,0,.641-2.517,3.7,3.7,0,0,0-.531-2.229,1.693,1.693,0,0,0-1.414-.692,2.28,2.28,0,0,0-1.129.289,4.254,4.254,0,0,0-.985.773v4.907a3.19,3.19,0,0,0,.73.242,3.9,3.9,0,0,0,.823.089A2.18,2.18,0,0,0,876.539,136.827Z" transform="translate(-858.35 -125.87)" fill="#fff"/>
      <path id="Path_60" data-name="Path 60" d="M905.139,132.144q0-1.019-.068-2.241h1.97a9.761,9.761,0,0,1,.153,1.163,3.713,3.713,0,0,1,2.8-1.333,3.16,3.16,0,0,1,2.959,1.923,5.857,5.857,0,0,1,.48,2.535,6.279,6.279,0,0,1-.548,2.742,3.921,3.921,0,0,1-1.532,1.724,4.368,4.368,0,0,1-2.276.586,5.607,5.607,0,0,1-1.842-.314v3.787l-2.1.178Zm5.515,4.683a4.177,4.177,0,0,0,.641-2.517,3.7,3.7,0,0,0-.531-2.229,1.693,1.693,0,0,0-1.414-.692,2.28,2.28,0,0,0-1.129.289,4.257,4.257,0,0,0-.985.773v4.907a3.194,3.194,0,0,0,.73.242,3.9,3.9,0,0,0,.824.089A2.18,2.18,0,0,0,910.654,136.827Z" transform="translate(-882.897 -125.87)" fill="#fff"/>
      <path id="Path_61" data-name="Path 61" d="M941.395,130.445a5.088,5.088,0,0,1-2.089-2.152,7.069,7.069,0,0,1-.73-3.311,6.9,6.9,0,0,1,.84-3.519,5.411,5.411,0,0,1,2.288-2.173,7.143,7.143,0,0,1,3.248-.726,8.574,8.574,0,0,1,2.025.233,8.76,8.76,0,0,1,1.8.641l-.535,1.613a7.417,7.417,0,0,0-3.193-.8,4.465,4.465,0,0,0-2.245.548,3.723,3.723,0,0,0-1.5,1.609,5.645,5.645,0,0,0-.535,2.564,6.2,6.2,0,0,0,.411,2.335,3.45,3.45,0,0,0,1.3,1.613,3.936,3.936,0,0,0,2.237.594,7.429,7.429,0,0,0,1.222-.1,6.378,6.378,0,0,0,1.146-.3v-2.488h-2.844V125h4.882v5.179a10.908,10.908,0,0,1-2.212.756,10.4,10.4,0,0,1-2.305.263A6.526,6.526,0,0,1,941.395,130.445Z" transform="translate(-907.005 -117.833)" fill="#fff"/>
      <path id="Path_62" data-name="Path 62" d="M987.326,139.064a8.02,8.02,0,0,1-.145-1.214,4.047,4.047,0,0,1-1.261.981,3.75,3.75,0,0,1-1.753.4,3.3,3.3,0,0,1-1.439-.31,2.4,2.4,0,0,1-1.031-.934,2.865,2.865,0,0,1-.382-1.524,2.619,2.619,0,0,1,.959-2.127,5.054,5.054,0,0,1,3.2-.794,11.661,11.661,0,0,1,1.664.119v-.178a2.312,2.312,0,0,0-.518-1.711,2.064,2.064,0,0,0-1.486-.5,5.816,5.816,0,0,0-1.435.2,7.557,7.557,0,0,0-1.341.467l-.331-1.528a8.061,8.061,0,0,1,1.478-.467,8.567,8.567,0,0,1,1.936-.212,5.069,5.069,0,0,1,2.021.361,2.65,2.65,0,0,1,1.3,1.24,5.063,5.063,0,0,1,.467,2.365v3.642q0,.569.068,1.724Zm-1.257-1.7a3.357,3.357,0,0,0,1.07-.781v-1.7a13.555,13.555,0,0,0-1.4-.093,2.849,2.849,0,0,0-1.8.42,1.406,1.406,0,0,0-.5,1.133,1.292,1.292,0,0,0,.361,1.006,1.406,1.406,0,0,0,.981.327A2.947,2.947,0,0,0,986.069,137.366Z" transform="translate(-937.757 -125.87)" fill="#fff"/>
      <path id="Path_63" data-name="Path 63" d="M1015.266,126.954V116.129l2.089-.17v10.622a1.321,1.321,0,0,0,.2.828.775.775,0,0,0,.633.242,2.353,2.353,0,0,0,.552-.093l.246,1.5a3.556,3.556,0,0,1-.726.191,4.917,4.917,0,0,1-.811.072Q1015.266,129.323,1015.266,126.954Z" transform="translate(-962.187 -115.959)" fill="#fff"/>
      <path id="Path_64" data-name="Path 64" d="M1033.884,126.954V116.129l2.089-.17v10.622a1.321,1.321,0,0,0,.2.828.776.776,0,0,0,.633.242,2.357,2.357,0,0,0,.552-.093l.246,1.5a3.567,3.567,0,0,1-.726.191,4.919,4.919,0,0,1-.811.072Q1033.884,129.323,1033.884,126.954Z" transform="translate(-975.583 -115.959)" fill="#fff"/>
      <path id="Path_65" data-name="Path 65" d="M1056.969,134.751h-5.994q.144,2.878,2.743,2.878a5.826,5.826,0,0,0,1.32-.157,7.89,7.89,0,0,0,1.295-.42l.459,1.435a7.8,7.8,0,0,1-3.456.747,5.043,5.043,0,0,1-2.462-.552,3.539,3.539,0,0,1-1.507-1.588,5.645,5.645,0,0,1-.505-2.5,5.9,5.9,0,0,1,.535-2.615,3.891,3.891,0,0,1,1.49-1.673,4.178,4.178,0,0,1,2.2-.577,3.7,3.7,0,0,1,2.169.607,3.627,3.627,0,0,1,1.291,1.617,5.77,5.77,0,0,1,.42,2.233Zm-2.046-1.333a2.614,2.614,0,0,0-.552-1.643,1.684,1.684,0,0,0-1.316-.548,1.767,1.767,0,0,0-1.329.552,2.928,2.928,0,0,0-.692,1.639Z" transform="translate(-986.36 -125.87)" fill="#fff"/>
      <path id="Path_66" data-name="Path 66" d="M1083.252,132.2q0-.756-.068-2.3h1.961q.051.382.1.913t.064.862a7.681,7.681,0,0,1,.718-1.014,2.938,2.938,0,0,1,.823-.671,2.2,2.2,0,0,1,1.074-.259,2.976,2.976,0,0,1,.832.1l-.263,1.817a2.317,2.317,0,0,0-.679-.093,2.228,2.228,0,0,0-1.291.378,5.193,5.193,0,0,0-1.18,1.244v5.884h-2.088Z" transform="translate(-1011.057 -125.87)" fill="#fff"/>
      <path id="Path_67" data-name="Path 67" d="M1105.3,143.249a5.114,5.114,0,0,1-.756-.182l.382-1.528c.141.039.32.078.535.114a3.614,3.614,0,0,0,.612.055q1.392,0,2.089-1.792l.136-.34-3.379-9.237h2.25l1.7,5.162a16.706,16.706,0,0,1,.535,2.029q.238-.993.56-1.986l1.724-5.2h2.114l-3.371,9.28a9.519,9.519,0,0,1-1.027,2.122,3.6,3.6,0,0,1-1.3,1.2,3.891,3.891,0,0,1-1.812.39A5.678,5.678,0,0,1,1105.3,143.249Z" transform="translate(-1026.428 -126.306)" fill="#fff"/>
    </g>
    <g id="Group_35" data-name="Group 35" transform="translate(0 0)">
      <path id="Path_68" data-name="Path 68" d="M825.975,77.379h3.738l-.105.9H827.07V80.03h2.393v.846H827.07v1.937h2.673l-.092.911h-3.677Z" transform="translate(-825.975 -77.291)" fill="#fff"/>
      <path id="Path_69" data-name="Path 69" d="M843.015,80.486l-1.972-3.107h1.244l1.337,2.283,1.407-2.283h1.209l-1.955,3.067,2.117,3.278H845.14l-1.512-2.5-1.538,2.5h-1.209Z" transform="translate(-836.701 -77.291)" fill="#fff"/>
      <path id="Path_70" data-name="Path 70" d="M863.443,77.379h1.709A2.985,2.985,0,0,1,867,77.87a1.681,1.681,0,0,1,.64,1.42,2.075,2.075,0,0,1-.287,1.1,1.89,1.89,0,0,1-.8.723,2.636,2.636,0,0,1-1.179.252,4.572,4.572,0,0,1-.832-.088v2.445h-1.1Zm2.748,2.833a1.147,1.147,0,0,0,.351-.9.974.974,0,0,0-.357-.846,1.779,1.779,0,0,0-1.049-.259h-.6v2.252a4.335,4.335,0,0,0,.631.066A1.47,1.47,0,0,0,866.191,80.212Z" transform="translate(-852.935 -77.291)" fill="#fff"/>
      <path id="Path_71" data-name="Path 71" d="M882.256,77.379h1.1v5.408h2.625l-.092.938h-3.628Z" transform="translate(-866.471 -77.291)" fill="#fff"/>
      <path id="Path_72" data-name="Path 72" d="M897.783,83.188a2.653,2.653,0,0,1-1.065-1.12,3.635,3.635,0,0,1-.368-1.676,3.739,3.739,0,0,1,.392-1.755,2.763,2.763,0,0,1,1.131-1.161,3.536,3.536,0,0,1,1.742-.41,3.272,3.272,0,0,1,1.652.4,2.623,2.623,0,0,1,1.056,1.115,3.64,3.64,0,0,1,.364,1.665,3.759,3.759,0,0,1-.4,1.775,2.776,2.776,0,0,1-1.131,1.161,3.5,3.5,0,0,1-1.724.408A3.271,3.271,0,0,1,897.783,83.188Zm2.84-.778a1.869,1.869,0,0,0,.688-.85,3.165,3.165,0,0,0,.228-1.238,3.439,3.439,0,0,0-.2-1.218,1.809,1.809,0,0,0-.644-.852,1.908,1.908,0,0,0-1.139-.318,1.934,1.934,0,0,0-1.13.322,1.972,1.972,0,0,0-.7.863,3,3,0,0,0-.232,1.194,3.268,3.268,0,0,0,.219,1.231,1.872,1.872,0,0,0,.671.859,1.9,1.9,0,0,0,1.117.316A1.967,1.967,0,0,0,900.622,82.41Z" transform="translate(-876.613 -77.066)" fill="#fff"/>
      <path id="Path_73" data-name="Path 73" d="M923.3,77.379h1.985a2.648,2.648,0,0,1,1.645.434,1.478,1.478,0,0,1,.559,1.24,1.88,1.88,0,0,1-.2.887,1.963,1.963,0,0,1-.5.624,2.223,2.223,0,0,1-.613.36l1.95,2.8h-1.271L925.2,81.209H924.4v2.515h-1.1Zm1.718,3a1.534,1.534,0,0,0,.705-.156,1.153,1.153,0,0,0,.478-.438,1.239,1.239,0,0,0,.171-.655.809.809,0,0,0-.3-.7,1.48,1.48,0,0,0-.881-.221H924.4v2.169Z" transform="translate(-896.006 -77.291)" fill="#fff"/>
      <path id="Path_74" data-name="Path 74" d="M943.6,77.379h3.738l-.105.9H944.7V80.03h2.393v.846H944.7v1.937h2.673l-.092.911H943.6Z" transform="translate(-910.611 -77.291)" fill="#fff"/>
      <path id="Path_75" data-name="Path 75" d="M971.428,77.379h1.1v6.345h-1.1Z" transform="translate(-930.634 -77.291)" fill="#fff"/>
      <path id="Path_76" data-name="Path 76" d="M980.614,78.295h-1.968l.1-.916h4.939l-.1.916h-1.871v5.429h-1.1Z" transform="translate(-935.828 -77.291)" fill="#fff"/>
      <path id="Path_77" data-name="Path 77" d="M1009.876,83.188a2.653,2.653,0,0,1-1.065-1.12,3.636,3.636,0,0,1-.368-1.676,3.741,3.741,0,0,1,.392-1.755,2.759,2.759,0,0,1,1.131-1.161,3.536,3.536,0,0,1,1.742-.41,3.273,3.273,0,0,1,1.652.4,2.625,2.625,0,0,1,1.056,1.115,3.643,3.643,0,0,1,.364,1.665,3.761,3.761,0,0,1-.4,1.775,2.777,2.777,0,0,1-1.13,1.161,3.5,3.5,0,0,1-1.724.408A3.269,3.269,0,0,1,1009.876,83.188Zm2.84-.778a1.87,1.87,0,0,0,.688-.85,3.169,3.169,0,0,0,.228-1.238,3.449,3.449,0,0,0-.2-1.218,1.811,1.811,0,0,0-.644-.852,1.908,1.908,0,0,0-1.139-.318,1.934,1.934,0,0,0-1.131.322,1.968,1.968,0,0,0-.7.863,2.993,2.993,0,0,0-.232,1.194,3.265,3.265,0,0,0,.219,1.231,1.874,1.874,0,0,0,.67.859,1.9,1.9,0,0,0,1.118.316A1.967,1.967,0,0,0,1012.716,82.41Z" transform="translate(-957.268 -77.066)" fill="#fff"/>
      <path id="Path_78" data-name="Path 78" d="M1035.4,77.379h1.258l3.137,4.917q-.039-.7-.039-1.293V77.379h1.017v6.345h-1.218l-3.186-5q.048.851.048,1.507v3.488H1035.4Z" transform="translate(-976.663 -77.291)" fill="#fff"/>
    </g>
  </g>
  <g id="Group_41" data-name="Group 41" transform="translate(9.188 7.713)">
    <g id="形状_1_拷贝_25" data-name="形状 1 拷贝 25">
      <g id="Group_37" data-name="Group 37">
        <path id="Path_79" data-name="Path 79" d="M721.908,77.5H710.256c-5.489,0-7.5,2.008-7.5,7.5V96.648c0,5.489,2.008,7.5,7.5,7.5H721.9c5.489,0,7.5-2.008,7.5-7.5V85C729.4,79.508,727.4,77.5,721.908,77.5Z" transform="translate(-702.76 -77.5)" fill="#c8102e" fill-rule="evenodd"/>
      </g>
    </g>
    <g id="Group_40" data-name="Group 40" transform="translate(2.973 4.454)">
      <g id="Group_38" data-name="Group 38" transform="translate(0 8.87)">
        <path id="Path_80" data-name="Path 80" d="M715.665,125.008h.706v3.484h-.706v-1.415h-1.6v1.415h-.707v-3.484h.707v1.405h1.6ZM719.646,127c0,.566-.281.869-.792.869s-.8-.311-.8-.893V125.01h-.707V127a1.382,1.382,0,0,0,1.494,1.542,1.4,1.4,0,0,0,1.508-1.571v-1.965h-.706Zm8.168.4-.791-2.4h-.577l-.791,2.4-.77-2.394h-.752l1.214,3.482h.585l.792-2.287.792,2.287h.59l1.211-3.482h-.733Zm2.771-.411h1.285v-.634h-1.285v-.713h1.866v-.635h-2.563v3.479h2.631v-.635h-1.933Zm2.776,1.495h.7v-3.479h-.7Zm-11.612-.723-.317.726h-.722l1.535-3.482h.623l1.529,3.482h-.741l-.313-.726Zm.263-.628h1.069l-.536-1.247Z" transform="translate(-713.362 -125.008)" fill="#fff"/>
      </g>
      <g id="Group_39" data-name="Group 39" transform="translate(5.913)">
        <path id="Path_81" data-name="Path 81" d="M738.882,97.816a4.44,4.44,0,0,1-4.435-4.435h.627a3.808,3.808,0,1,0,7.617,0h.627A4.44,4.44,0,0,1,738.882,97.816Z" transform="translate(-734.447 -93.381)" fill="#fff"/>
      </g>
    </g>
  </g>
</svg>
