<svg xmlns="http://www.w3.org/2000/svg" xmlns:xlink="http://www.w3.org/1999/xlink" width="403.001" height="383" viewBox="0 0 403.001 383">
  <defs>
    <clipPath id="clip-path">
      <path id="Rectangle_4333" data-name="Rectangle 4333" d="M0,0H403a0,0,0,0,1,0,0V232A151,151,0,0,1,252,383H0a0,0,0,0,1,0,0V0A0,0,0,0,1,0,0Z" transform="translate(0.29 0.285)" fill="#34bf6c"/>
    </clipPath>
    <clipPath id="clip-path-2">
      <rect id="Rectangle_107" data-name="Rectangle 107" width="204.168" height="172.433" fill="#fff"/>
    </clipPath>
  </defs>
  <g id="Group_22532" data-name="Group 22532" transform="translate(-178.999 -466)">
    <rect id="Rectangle_4331" data-name="Rectangle 4331" width="403" height="383" transform="translate(179 466)" fill="#34bf6c"/>
    <g id="Mask_Group_66" data-name="Mask Group 66" transform="translate(178.709 465.715)" opacity="0.09" clip-path="url(#clip-path)">
      <g id="Group_22456" data-name="Group 22456" transform="translate(-25.684 71.001)">
        <path id="Path_8299" data-name="Path 8299" d="M54.81,25.927c6.262-5.418,16.938.378,16.375,8.449.493,8.095-10.254,13.7-16.471,8.33-5.7-3.754-5.678-13.116.1-16.779" transform="translate(67.934 32.064)" fill="#fff"/>
        <path id="Path_8300" data-name="Path 8300" d="M121.82,30.428c6.265-5.42,16.941.375,16.377,8.447.493,8.095-10.254,13.7-16.471,8.33-5.7-3.754-5.678-13.116.094-16.776" transform="translate(158.156 38.123)" fill="#fff"/>
        <path id="Path_8301" data-name="Path 8301" d="M90.486,49.094c18.184-8,41.014,7.274,40.592,27.1,1.244,16.354-13.538,31.159-29.7,30.925-15.462.352-29.8-12.9-30.057-28.461-.986-12.67,7.274-25.247,19.17-29.564" transform="translate(95.909 63.179)" fill="#fff"/>
        <path id="Path_8302" data-name="Path 8302" d="M47.384,63.347c16.26-3.494,31.23,14.174,25.317,29.684-4.763,15.906-27.546,20.789-38.292,8.022C22.044,88.9,30.162,65.321,47.384,63.347" transform="translate(38.305 84.687)" fill="#fff"/>
        <path id="Path_8303" data-name="Path 8303" d="M106,.447c16.26-3.5,31.23,14.172,25.317,29.681-4.763,15.908-27.546,20.789-38.292,8.024C80.655,26,88.773,2.418,106,.447" transform="translate(117.215 0.001)" fill="#fff"/>
        <path id="Path_8304" data-name="Path 8304" d="M31.93,23.535c16.26-3.5,31.23,14.172,25.317,29.681C52.483,69.124,29.7,74,18.954,61.24,6.589,49.086,14.707,25.506,31.93,23.535" transform="translate(17.497 31.085)" fill="#fff"/>
        <path id="Path_8305" data-name="Path 8305" d="M79.612,89.144c5.772-4.27,14.782-.563,16.049,6.476,1.994,7.743-6.969,15.111-14.2,11.661-7.438-2.7-8.658-14.008-1.854-18.137" transform="translate(101.161 117.575)" fill="#fff"/>
        <path id="Path_8306" data-name="Path 8306" d="M12.266,93.136c6.429-4.153,15.838,1.431,15.415,8.986.587,7.579-9.033,13.515-15.392,9.151-7.109-3.379-7.062-14.759-.023-18.137" transform="translate(9.387 123.49)" fill="#fff"/>
        <path id="Path_8307" data-name="Path 8307" d="M151.958,125.172c16.635-14.125,38.034-20.53,55.561-33.341,11.38-7.978,22.361-17.95,27.194-31.371,3.731-10.324,2.7-21.446,1.9-32.168-3.449,12.389-5.209,26.232-14.735,35.782-20.249,21.117-50.681,26.514-73.7,43.548-32.919,23.956-50.118,67.387-43.126,107.392,5.608-33.787,19.756-67.809,46.9-89.841" transform="translate(139.365 38.094)" fill="#fff"/>
        <path id="Path_8308" data-name="Path 8308" d="M113.8,166.471c-8.071,16.661-8.376,35.782-5.631,53.755,4.411-17.5,9.714-35.427,21.493-49.576,14.641-18.468,37.189-27.454,58.705-35.172,27.335-10.655,57.3-19.874,77.429-42.492,12.483-13.421,16.049-33.156,11.52-50.634-2.205,8.658-3.918,17.645-8.728,25.315-7.6,12.834-20.859,20.906-34.21,26.7-25.622,10.983-52.957,17.668-77.922,30.2-18.114,9.012-34.092,23.323-42.657,41.906" transform="translate(143.529 57.023)" fill="#fff"/>
        <path id="Path_8309" data-name="Path 8309" d="M316.518,101.363c-11.661,9.831-27.523,11.825-42.258,11.919-31.3-.633-62.553-5.4-93.877-2.886-21.4,2.112-43.407,10.676-56.547,28.414-13.257,17.363-15.181,40.568-12.06,61.5,6.664-13.233,9.362-28.578,18.935-40.381,10.746-15.04,29.4-21.774,47.279-22.712,31.253-1.2,62.577,2.933,93.783-.4,16.4-1.877,33.318-6.664,45.754-18.043,11.45-10.441,17.269-25.786,18.489-40.991-5.7,8.447-11.4,17.152-19.5,23.581" transform="translate(148.737 104.723)" fill="#fff"/>
        <path id="Path_8310" data-name="Path 8310" d="M204.882,112.46c-29.564-11-63.727-7.673-91.085,7.813C88.739,134.7,66.331,153.38,40.85,167.059,28.414,173.934,13.961,175.177,0,174.52c10.042,10.089,23.628,16.729,37.964,17.316,22.619,1.1,44.346-7.344,64.642-16.469,18.3-8,34.608-20.462,54.13-25.552,35.289-9.787,73.534-1.551,105,15.976-8.963-25.69-31.793-44.346-56.852-53.332" transform="translate(0 142.709)" fill="#fff"/>
      </g>
    </g>
    <g id="Group_22455" data-name="Group 22455" transform="translate(278.309 556)">
      <g id="Group_4839" data-name="Group 4839" clip-path="url(#clip-path-2)">
        <path id="Path_6475" data-name="Path 6475" d="M51.876,24.5c2.04-1.764,5.517.123,5.333,2.752.16,2.636-3.339,4.463-5.364,2.713a3.364,3.364,0,0,1,.031-5.465" transform="translate(-11.9 -5.616)" fill="#fff"/>
        <path id="Path_6476" data-name="Path 6476" d="M118.887,29c2.04-1.765,5.517.122,5.334,2.751.16,2.636-3.339,4.463-5.364,2.713A3.364,3.364,0,0,1,118.887,29" transform="translate(-27.703 -6.677)" fill="#fff"/>
        <path id="Path_6477" data-name="Path 6477" d="M77.506,47.631c5.922-2.606,13.358,2.369,13.22,8.826.405,5.326-4.409,10.148-9.674,10.072a9.777,9.777,0,0,1-3.546-18.9" transform="translate(-16.8 -11.066)" fill="#fff"/>
        <path id="Path_6478" data-name="Path 6478" d="M34.617,63.046c5.3-1.138,10.171,4.616,8.245,9.668-1.551,5.18-8.971,6.771-12.471,2.613-4.027-3.958-1.383-11.637,4.226-12.28" transform="translate(-6.71 -14.834)" fill="#fff"/>
        <path id="Path_6479" data-name="Path 6479" d="M93.228.145c5.3-1.139,10.171,4.616,8.245,9.667C99.922,14.993,92.5,16.582,89,12.425,84.975,8.467,87.619.787,93.228.145" transform="translate(-20.532 0)" fill="#fff"/>
        <path id="Path_6480" data-name="Path 6480" d="M19.162,23.233c5.3-1.139,10.171,4.616,8.245,9.667-1.551,5.181-8.971,6.771-12.471,2.613-4.027-3.958-1.383-11.638,4.226-12.28" transform="translate(-3.065 -5.445)" fill="#fff"/>
        <path id="Path_6481" data-name="Path 6481" d="M76.594,87.919a3.382,3.382,0,1,1,.6,5.907,3.414,3.414,0,0,1-.6-5.907" transform="translate(-17.72 -20.595)" fill="#fff"/>
        <path id="Path_6482" data-name="Path 6482" d="M8.7,92.182a3.376,3.376,0,0,1,5.021,2.927c.191,2.468-2.942,4.4-5.013,2.98A3.388,3.388,0,0,1,8.7,92.182" transform="translate(-1.644 -21.631)" fill="#fff"/>
        <path id="Path_6483" data-name="Path 6483" d="M119.291,59.844c5.418-4.6,12.387-6.686,18.1-10.859,3.706-2.6,7.283-5.846,8.857-10.217,1.215-3.362.879-6.985.619-10.477-1.123,4.035-1.7,8.543-4.8,11.654-6.595,6.877-16.506,8.635-24,14.183A36.426,36.426,0,0,0,104.015,89.1c1.826-11,6.434-22.084,15.276-29.26" transform="translate(-24.412 -6.672)" fill="#fff"/>
        <path id="Path_6484" data-name="Path 6484" d="M108.947,82.776c-2.629,5.426-2.728,11.654-1.834,17.507,1.437-5.7,3.164-11.538,7-16.146,4.768-6.015,12.112-8.942,19.119-11.455,8.9-3.47,18.661-6.473,25.218-13.839,4.065-4.371,5.227-10.8,3.752-16.491-.718,2.82-1.276,5.747-2.843,8.245-2.476,4.18-6.793,6.809-11.142,8.7-8.345,3.577-17.247,5.754-25.378,9.835-5.9,2.935-11.1,7.6-13.893,13.648" transform="translate(-25.141 -9.988)" fill="#fff"/>
        <path id="Path_6485" data-name="Path 6485" d="M177.581,85.462c-3.8,3.2-8.964,3.851-13.763,3.882-10.194-.206-20.373-1.758-30.574-.94-6.969.688-14.137,3.477-18.416,9.254-4.318,5.655-4.944,13.213-3.928,20.029,2.17-4.31,3.049-9.308,6.167-13.151,3.5-4.9,9.575-7.091,15.4-7.4,10.179-.39,20.38.955,30.544-.13,5.342-.611,10.851-2.17,14.9-5.876,3.729-3.4,5.624-8.4,6.022-13.35-1.857,2.751-3.714,5.586-6.35,7.68" transform="translate(-26.054 -18.343)" fill="#fff"/>
        <path id="Path_6486" data-name="Path 6486" d="M66.727,108.1a35.759,35.759,0,0,0-29.665,2.545C28.9,115.346,21.6,121.428,13.3,125.884c-4.05,2.239-8.757,2.644-13.3,2.43a18.763,18.763,0,0,0,12.364,5.64c7.367.359,14.443-2.392,21.053-5.364,5.961-2.607,11.271-6.664,17.629-8.322,11.493-3.187,23.949-.505,34.2,5.2-2.919-8.367-10.354-14.443-18.516-17.37" transform="translate(0 -24.997)" fill="#fff"/>
        <path id="Path_6487" data-name="Path 6487" d="M196.919,145.349h-8.868v-5.3a14.605,14.605,0,0,0-.567-4.2,9.756,9.756,0,0,0-1.64-3.256,7.13,7.13,0,0,0-2.668-2.1,8.768,8.768,0,0,0-3.7-.736,12.318,12.318,0,0,0-4.119.653,8.355,8.355,0,0,0-3.174,1.975,8.772,8.772,0,0,0-2.038,3.363,14.554,14.554,0,0,0-.715,4.811,7.18,7.18,0,0,1-.21,1.7,5.94,5.94,0,0,1-.609,1.555,3.346,3.346,0,0,1-1.009,1.113,2.417,2.417,0,0,1-1.408.421H154.133a6.909,6.909,0,0,1-2.564-.421,17.824,17.824,0,0,1-2.228-1.092,14.153,14.153,0,0,0,2.942-3.405,6.991,6.991,0,0,0,1.051-3.614,7.658,7.658,0,0,0-.567-2.963,6.349,6.349,0,0,0-1.724-2.374,8.457,8.457,0,0,0-2.879-1.6,12.486,12.486,0,0,0-4.035-.589,15.457,15.457,0,0,0-5.59,1.051,24.521,24.521,0,0,0-5.254,2.816l-.588,4.583A17.962,17.962,0,0,1,135.514,139a16.73,16.73,0,0,1,2.122,1.43,21.945,21.945,0,0,1,1.787,1.6q.841.841,1.765,1.723a19.148,19.148,0,0,1-7.9,1.6H118.115V119.333h-5.379v26.016H74.364v-5.3a14.519,14.519,0,0,0-.63-4.5,8.984,8.984,0,0,0-1.765-3.216,7.308,7.308,0,0,0-2.711-1.933,8.981,8.981,0,0,0-3.467-.653,10.833,10.833,0,0,0-4.98,1.009,8.569,8.569,0,0,0-3.09,2.585,9.591,9.591,0,0,0-1.576,3.53,17.612,17.612,0,0,0-.442,3.888v8.785q0,3.235-1.366,4.622a5.389,5.389,0,0,1-4.014,1.386l-.336,4.582a14.724,14.724,0,0,0,4.077-.567,9.484,9.484,0,0,0,3.488-1.828,9.043,9.043,0,0,0,2.438-3.342,12.685,12.685,0,0,0,.925-5.149,2.889,2.889,0,0,0-.042-.462,2.244,2.244,0,0,0-.126-.462q-.085-.252-.168-.547a2.783,2.783,0,0,0,.9.778,6.885,6.885,0,0,0,1.387.609,11.372,11.372,0,0,0,1.66.4,10.1,10.1,0,0,0,1.681.147h67.623a21.858,21.858,0,0,0,5.653-.757,25.115,25.115,0,0,0,5.359-2.1,15.082,15.082,0,0,0,3.971,2.08,15.32,15.32,0,0,0,5.107.778h11.433v0a7.373,7.373,0,0,0,3.992-.922,4.949,4.949,0,0,0,2.017-2.691,4.406,4.406,0,0,0,.861,1.239,5.856,5.856,0,0,0,1.64,1.178,10.819,10.819,0,0,0,2.5.862,15.621,15.621,0,0,0,3.446.335H202.3V119.333h-5.38Zm-127.935,0H66.841a5.774,5.774,0,0,1-4.245-1.324q-1.3-1.326-1.3-4.813a7.145,7.145,0,0,1,.274-2,4.96,4.96,0,0,1,.8-1.639,4.17,4.17,0,0,1,1.262-1.114,3.214,3.214,0,0,1,1.618-.42,3.3,3.3,0,0,1,1.765.441,3.433,3.433,0,0,1,1.156,1.178,5.228,5.228,0,0,1,.63,1.68,9.9,9.9,0,0,1,.19,1.955Zm78.278-6.137a7.16,7.16,0,0,1-1.7,2.017q-1.009-1.009-1.829-1.849t-1.64-1.533a17.151,17.151,0,0,0-1.681-1.262,10.188,10.188,0,0,0-1.953-.988,13.766,13.766,0,0,1,2.416-1.282,7.649,7.649,0,0,1,2.921-.525,4.409,4.409,0,0,1,2.943.924,3.085,3.085,0,0,1,1.092,2.48,4.251,4.251,0,0,1-.567,2.017m35.409,6.137h-2.143q-3.111,0-4.329-1.408t-1.219-4.729a5.855,5.855,0,0,1,1.135-3.719,3.448,3.448,0,0,1,2.816-1.45,3.326,3.326,0,0,1,2.69,1.281,6.209,6.209,0,0,1,1.051,3.973Z" transform="translate(-11.789 -28.143)" fill="#fff"/>
        <path id="Path_6488" data-name="Path 6488" d="M259.7,119.463q-2.333.167-4.35.462v3.363q.923.083,1.912.146t1.745.148v26.141h5.38V119.38a43.331,43.331,0,0,0-4.687.083" transform="translate(-60.22 -28.147)" fill="#fff"/>
        <path id="Path_6489" data-name="Path 6489" d="M107.185,213.776a6.338,6.338,0,0,1-2.374-1.345,4.651,4.651,0,0,1-1.24-1.913,6.789,6.789,0,0,1-.357-2.164,5.3,5.3,0,0,1,.42-2.143,4.74,4.74,0,0,1,1.155-1.639,5.222,5.222,0,0,1,1.661-1.03,5.306,5.306,0,0,1,1.933-.358,8.464,8.464,0,0,1,2.165.252,15.783,15.783,0,0,1,1.786.589l.841-4.624a13.82,13.82,0,0,0-2.185-.525,15,15,0,0,0-2.4-.189,12.1,12.1,0,0,0-4.118.694,10.7,10.7,0,0,0-3.362,1.912,9.022,9.022,0,0,0-2.27,2.942A8.41,8.41,0,0,0,98,207.976a10.518,10.518,0,0,0,.568,3.34,7.073,7.073,0,0,0,1.913,2.964H72.533v-.127a19.025,19.025,0,0,0-.777-5.3,14.667,14.667,0,0,0-2.542-4.959,15.763,15.763,0,0,0-4.645-3.929,19.048,19.048,0,0,0-7.124-2.206l-.421,4.58a15.787,15.787,0,0,1,5.275,2.27,11.962,11.962,0,0,1,3.09,3.09,9.763,9.763,0,0,1,1.45,3.382,15.846,15.846,0,0,1,.357,3.195H54.881v4.37h60.311v-4.37h-4.287a11.774,11.774,0,0,1-3.72-.5" transform="translate(-12.943 -46.639)" fill="#fff"/>
        <path id="Path_6490" data-name="Path 6490" d="M217.464,211.349H208.6v-5.3a14.6,14.6,0,0,0-.567-4.2,9.749,9.749,0,0,0-1.64-3.256,7.129,7.129,0,0,0-2.668-2.1,8.767,8.767,0,0,0-3.7-.736,12.338,12.338,0,0,0-4.119.652,8.354,8.354,0,0,0-3.174,1.975,8.778,8.778,0,0,0-2.038,3.363,14.557,14.557,0,0,0-.714,4.812,7.182,7.182,0,0,1-.21,1.7,5.949,5.949,0,0,1-.609,1.555,3.361,3.361,0,0,1-1.009,1.113,2.417,2.417,0,0,1-1.408.421h-4.371V204.2q0-2.773-.189-5.379t-.526-4.538l-5.423.714q.336,2.059.569,4.5t.23,5.465v6.389h-2.563q-2.985,0-2.984-3.279V196.387h-5.3v8.362a14.927,14.927,0,0,1-.672,5.277,2.5,2.5,0,0,1-2.522,1.618,2.423,2.423,0,0,1-2.08-1.009,5.659,5.659,0,0,1-.736-3.279V196.387H154.8v8.362a11.371,11.371,0,0,1-.274,2.543,7.091,7.091,0,0,1-.819,2.1,4.253,4.253,0,0,1-1.387,1.431,3.652,3.652,0,0,1-1.975.525h-4.2V185.375a43.527,43.527,0,0,0-4.687.083q-2.333.168-4.35.463v3.362q.924.083,1.912.146t1.745.148v26.141h10a7.216,7.216,0,0,0,2.879-.567,4.971,4.971,0,0,0,2.291-2.375,6.43,6.43,0,0,0,2.585,2.543,7.141,7.141,0,0,0,3.341.82,6.288,6.288,0,0,0,3.446-.884,7.951,7.951,0,0,0,2.438-2.562,4.989,4.989,0,0,0,2.333,2.289,9.567,9.567,0,0,0,4.1.736H185.9v0a7.383,7.383,0,0,0,3.993-.922,4.951,4.951,0,0,0,2.017-2.691,4.4,4.4,0,0,0,.861,1.24,5.855,5.855,0,0,0,1.64,1.178,10.783,10.783,0,0,0,2.5.861,15.617,15.617,0,0,0,3.446.336h22.486V185.333h-5.38Zm-14.248,0h-2.144q-3.111,0-4.329-1.409t-1.219-4.728a5.853,5.853,0,0,1,1.135-3.719,3.446,3.446,0,0,1,2.816-1.45,3.326,3.326,0,0,1,2.69,1.281,6.209,6.209,0,0,1,1.051,3.973Z" transform="translate(-32.333 -43.707)" fill="#fff"/>
        <path id="Path_6491" data-name="Path 6491" d="M259.7,185.463q-2.333.167-4.35.462v3.363q.923.083,1.912.146t1.745.148v26.141h5.38V185.38a43.323,43.323,0,0,0-4.687.083" transform="translate(-60.22 -43.712)" fill="#fff"/>
      </g>
    </g>
  </g>
</svg>
