<svg xmlns="http://www.w3.org/2000/svg" width="116.512" height="36.816" viewBox="0 0 116.512 36.816">
  <path id="Path_1" data-name="Path 1" d="M28.468-30.294a1.373,1.373,0,0,1,.55.572.909.909,0,0,1-.066.836l-3.718,5.28a.866.866,0,0,1-.517.429.971.971,0,0,1-.671-.187,8.38,8.38,0,0,0-2.376-1.254,8.508,8.508,0,0,0-2.75-.44,8.013,8.013,0,0,0-3.322.682,7.986,7.986,0,0,0-2.618,1.87,8.648,8.648,0,0,0-1.716,2.772,9.265,9.265,0,0,0-.616,3.388,9.178,9.178,0,0,0,.616,3.377,8.546,8.546,0,0,0,1.716,2.75A8.065,8.065,0,0,0,15.6-8.36a8.012,8.012,0,0,0,3.322.682,8.514,8.514,0,0,0,2.772-.451,8.523,8.523,0,0,0,2.4-1.265,1.014,1.014,0,0,1,.66-.2.9.9,0,0,1,.528.4L29.04-3.784a.866.866,0,0,1,.066.814,1.414,1.414,0,0,1-.55.55A17.468,17.468,0,0,1,24.1-.275a16.49,16.49,0,0,1-5.027.759A16.7,16.7,0,0,1,14.6-.11,16.638,16.638,0,0,1,10.582-1.8a16.917,16.917,0,0,1-3.4-2.629A17.057,17.057,0,0,1,4.554-7.821a16.438,16.438,0,0,1-1.694-4A16.7,16.7,0,0,1,2.266-16.3a16.7,16.7,0,0,1,.594-4.477,16.842,16.842,0,0,1,1.694-4.026,17.055,17.055,0,0,1,2.629-3.421,16.4,16.4,0,0,1,3.4-2.629A17.243,17.243,0,0,1,14.6-32.549a16.414,16.414,0,0,1,4.477-.605,16.513,16.513,0,0,1,4.983.737A17.107,17.107,0,0,1,28.468-30.294ZM62.392-1.628a1.963,1.963,0,0,1-.132.715,1.1,1.1,0,0,1-.44.539,1.1,1.1,0,0,1-.572.308A2.975,2.975,0,0,1,60.676,0H56.342a1.944,1.944,0,0,1-.748-.121,1.155,1.155,0,0,1-.462-.341,1.981,1.981,0,0,1-.3-.539q-.121-.319-.253-.693l-.286-.99a12.827,12.827,0,0,1-1.353,1.166A10.484,10.484,0,0,1,51.271-.5a10.362,10.362,0,0,1-1.958.726,8.48,8.48,0,0,1-2.167.275A14.392,14.392,0,0,1,43.307,0a14.22,14.22,0,0,1-3.432-1.441,14.1,14.1,0,0,1-2.893-2.244A14.44,14.44,0,0,1,34.749-6.6a14.336,14.336,0,0,1-1.441-3.465,14.72,14.72,0,0,1-.506-3.883,14.335,14.335,0,0,1,1.122-5.687,14.477,14.477,0,0,1,3.058-4.576,14.139,14.139,0,0,1,4.554-3.058,14.21,14.21,0,0,1,5.61-1.111,10.012,10.012,0,0,1,2.541.308,9.692,9.692,0,0,1,2.156.836,8.53,8.53,0,0,1,1.771,1.265A9.784,9.784,0,0,1,55-24.376l.638-2q.22-.55.363-.891a1.583,1.583,0,0,1,.308-.506.819.819,0,0,1,.407-.22,3.252,3.252,0,0,1,.682-.055h3.278a2.975,2.975,0,0,1,.572.066,1.1,1.1,0,0,1,.572.308,1.408,1.408,0,0,1,.44.55,1.773,1.773,0,0,1,.132.7Zm-21.67-12.32a8.032,8.032,0,0,0,.451,2.717A6.449,6.449,0,0,0,42.46-9.042a6.112,6.112,0,0,0,2.013,1.463,6.188,6.188,0,0,0,2.607.539,6.914,6.914,0,0,0,2.739-.539,7,7,0,0,0,2.2-1.463,6.631,6.631,0,0,0,1.463-2.189,6.982,6.982,0,0,0,.528-2.717,6.951,6.951,0,0,0-.528-2.684,7.11,7.11,0,0,0-1.463-2.244,6.933,6.933,0,0,0-2.2-1.529,6.68,6.68,0,0,0-2.739-.561,5.981,5.981,0,0,0-2.607.561,6.09,6.09,0,0,0-2.013,1.529,6.927,6.927,0,0,0-1.287,2.244A7.994,7.994,0,0,0,40.722-13.948ZM71.852-8.69a6.4,6.4,0,0,0,1.287,1,9.719,9.719,0,0,0,1.331.66,7.8,7.8,0,0,0,1.122.363,3.653,3.653,0,0,0,.66.11q.418,0,1.067-.033a5.715,5.715,0,0,0,1.243-.2,2.585,2.585,0,0,0,1.023-.539,1.326,1.326,0,0,0,.429-1.056,1.743,1.743,0,0,0-.242-.979,1.946,1.946,0,0,0-.7-.616,5.778,5.778,0,0,0-1.133-.451q-.671-.2-1.507-.462a18.116,18.116,0,0,1-4.356-1.694A9.778,9.778,0,0,1,69.355-14.8a7.2,7.2,0,0,1-1.4-2.629,10.921,10.921,0,0,1-.4-2.97,7.508,7.508,0,0,1,.726-3.322,7.335,7.335,0,0,1,2.068-2.563,9.778,9.778,0,0,1,3.212-1.65,13.93,13.93,0,0,1,4.158-.583,13.842,13.842,0,0,1,2.6.231,10.327,10.327,0,0,1,2.31.726,11.4,11.4,0,0,1,2.145,1.276,17.013,17.013,0,0,1,2.079,1.859,1.378,1.378,0,0,1,.385.825,1.14,1.14,0,0,1-.495.825q-.858.7-1.639,1.386T83.49-19.866a1.224,1.224,0,0,1-.528.275,1.069,1.069,0,0,1-.506-.011,1.483,1.483,0,0,1-.462-.22,1.907,1.907,0,0,1-.4-.374,3.828,3.828,0,0,0-1.76-1.155,6.453,6.453,0,0,0-1.848-.3,3.384,3.384,0,0,0-1.716.374,1.153,1.153,0,0,0-.594,1.144,1.223,1.223,0,0,0,.429.891,3.067,3.067,0,0,0,.946.517,8.279,8.279,0,0,0,1.188.319q.627.121,1.155.275a34.226,34.226,0,0,1,3.63,1.386,11.068,11.068,0,0,1,2.86,1.837A7.6,7.6,0,0,1,87.769-12.3a9.121,9.121,0,0,1,.671,3.7,8.5,8.5,0,0,1-.869,3.894,8.338,8.338,0,0,1-2.387,2.882,10.942,10.942,0,0,1-3.6,1.782A15.692,15.692,0,0,1,77.11.572,16.344,16.344,0,0,1,74.338.33,13.036,13.036,0,0,1,71.61-.451,12.355,12.355,0,0,1,69.1-1.837,9.837,9.837,0,0,1,66.99-3.894a2.286,2.286,0,0,1-.363-.649,1.814,1.814,0,0,1-.11-.671,1.622,1.622,0,0,1,.132-.605,1.185,1.185,0,0,1,.385-.473L69.872-9.13a1,1,0,0,1,.935-.308A3.115,3.115,0,0,1,71.852-8.69ZM101.6-25a5.9,5.9,0,0,1,1.155-1.218,8.809,8.809,0,0,1,1.694-1.075,10.813,10.813,0,0,1,2.123-.768,9.976,9.976,0,0,1,2.464-.3,9.22,9.22,0,0,1,4.345.965,8.631,8.631,0,0,1,3.036,2.633,11.652,11.652,0,0,1,1.782,3.9,18.753,18.753,0,0,1,.583,4.759v14.41a1.914,1.914,0,0,1-.363,1.265A1.432,1.432,0,0,1,117.26,0h-5.082a1.969,1.969,0,0,1-1.3-.319,1.666,1.666,0,0,1-.352-1.243V-16.1a4.272,4.272,0,0,0-.363-1.76,4.586,4.586,0,0,0-.979-1.419,4.471,4.471,0,0,0-1.441-.946A4.533,4.533,0,0,0,106-20.57a3.968,3.968,0,0,0-1.551.319,4.42,4.42,0,0,0-1.364.9,5.064,5.064,0,0,0-1.012,1.4,4.688,4.688,0,0,0-.473,1.8v14.52a2.082,2.082,0,0,1-.143.748,1.188,1.188,0,0,1-.429.572,2.013,2.013,0,0,1-.539.242A2.32,2.32,0,0,1,99.9,0H94.93a1.761,1.761,0,0,1-1.364-.462,1.766,1.766,0,0,1-.418-1.232V-34.572a1.734,1.734,0,0,1,.418-1.21,1.761,1.761,0,0,1,1.364-.462H99.9a2.3,2.3,0,0,1,1.122.352,1.188,1.188,0,0,1,.429.572,1.976,1.976,0,0,1,.143.7Z" transform="translate(-2.266 36.244)" fill="#68687a"/>
</svg>
