<svg id="mastercard" xmlns="http://www.w3.org/2000/svg" width="46.236" height="27.742" viewBox="0 0 46.236 27.742">
  <path id="Path_135" data-name="Path 135" d="M229.341,114.671a13.871,13.871,0,1,1-27.741,0h0a13.871,13.871,0,1,1,27.741,0Z" transform="translate(-183.106 -100.8)" fill="#ffb600"/>
  <path id="Path_136" data-name="Path 136" d="M215.471,100.8a13.907,13.907,0,0,1,13.871,13.871h0a13.871,13.871,0,1,1-27.741,0" transform="translate(-183.106 -100.8)" fill="#f7981d"/>
  <path id="Path_137" data-name="Path 137" d="M352.8,100.8a13.907,13.907,0,0,1,13.871,13.871h0A13.86,13.86,0,0,1,352.8,128.542" transform="translate(-320.435 -100.8)" fill="#ff8500"/>
  <path id="Path_138" data-name="Path 138" d="M13.724,100.8a13.871,13.871,0,0,0,.147,27.742,14.032,14.032,0,0,0,9.321-3.6h0a13.184,13.184,0,0,0,1.394-1.468H21.723a16.925,16.925,0,0,1-1.027-1.394h4.917a9.4,9.4,0,0,0,.807-1.468H19.889a8.747,8.747,0,0,1-.587-1.468h7.633a14.573,14.573,0,0,0,.734-4.4,18.944,18.944,0,0,0-.294-2.936H18.861a10.73,10.73,0,0,1,.367-1.468h7.633a8.746,8.746,0,0,0-.587-1.468H19.815a14.552,14.552,0,0,1,.807-1.468H25.54a6.979,6.979,0,0,0-1.1-1.468H21.723a12.506,12.506,0,0,1,1.394-1.394,13.542,13.542,0,0,0-9.321-3.6C13.8,100.8,13.8,100.8,13.724,100.8Z" transform="translate(0 -100.8)" fill="#ff5050"/>
  <path id="Path_139" data-name="Path 139" d="M0,116.124a13.86,13.86,0,0,0,13.871,13.871,14.032,14.032,0,0,0,9.321-3.6h0a13.188,13.188,0,0,0,1.394-1.468H21.723a16.923,16.923,0,0,1-1.027-1.394h4.917a9.4,9.4,0,0,0,.807-1.468H19.889A8.748,8.748,0,0,1,19.3,120.6h7.633a14.573,14.573,0,0,0,.734-4.4,18.944,18.944,0,0,0-.294-2.936H18.861a10.73,10.73,0,0,1,.367-1.468h7.633a8.746,8.746,0,0,0-.587-1.468H19.815a14.552,14.552,0,0,1,.807-1.468H25.54a6.98,6.98,0,0,0-1.1-1.468H21.723A12.507,12.507,0,0,1,23.118,106a13.543,13.543,0,0,0-9.321-3.6h-.073" transform="translate(0 -102.253)" fill="#e52836"/>
  <path id="Path_140" data-name="Path 140" d="M149.747,129.995a14.032,14.032,0,0,0,9.321-3.6h0a13.187,13.187,0,0,0,1.394-1.468H157.6a16.911,16.911,0,0,1-1.027-1.394h4.917a9.4,9.4,0,0,0,.807-1.468h-6.532a8.747,8.747,0,0,1-.587-1.468h7.633a14.573,14.573,0,0,0,.734-4.4,18.939,18.939,0,0,0-.294-2.936h-8.513a10.731,10.731,0,0,1,.367-1.468h7.633a8.746,8.746,0,0,0-.587-1.468h-6.458a14.552,14.552,0,0,1,.807-1.468h4.917a6.979,6.979,0,0,0-1.1-1.468H157.6A12.509,12.509,0,0,1,158.994,106a13.542,13.542,0,0,0-9.32-3.6H149.6" transform="translate(-135.876 -102.253)" fill="#cb2026"/>
  <g id="Group_271" data-name="Group 271" transform="translate(1.321 10.275)">
    <path id="Path_141" data-name="Path 141" d="M183.728,226.458l.22-1.248a3.177,3.177,0,0,1-.367.073c-.514,0-.587-.294-.514-.44l.44-2.569h.807l.22-1.394H183.8l.147-.881h-1.468s-.881,4.844-.881,5.431a1.1,1.1,0,0,0,1.174,1.248A2.252,2.252,0,0,0,183.728,226.458Z" transform="translate(-166.261 -219.34)" fill="#fff"/>
    <path id="Path_142" data-name="Path 142" d="M210.4,232.011a2.334,2.334,0,0,0,2.569,2.569,3.81,3.81,0,0,0,1.541-.22l.294-1.394a4.4,4.4,0,0,1-1.541.367c-1.615,0-1.321-1.174-1.321-1.174h3.009a9.517,9.517,0,0,0,.22-1.321,1.988,1.988,0,0,0-2.128-2.128C211.5,228.561,210.4,230.176,210.4,232.011Zm2.569-2.128c.807,0,.661.954.661,1.027h-1.615C212.015,230.836,212.161,229.882,212.969,229.882Z" transform="translate(-192.419 -227.24)" fill="#fff"/>
    <path id="Path_143" data-name="Path 143" d="M300.036,219.919l.294-1.615a3.607,3.607,0,0,1-1.248.367c-1.027,0-1.468-.807-1.468-1.688,0-1.761.881-2.715,1.908-2.715a2.451,2.451,0,0,1,1.321.44l.22-1.541a5.16,5.16,0,0,0-1.688-.367c-1.688,0-3.376,1.468-3.376,4.257,0,1.835.881,3.082,2.642,3.082A6.586,6.586,0,0,0,300.036,219.919Z" transform="translate(-270.167 -212.8)" fill="#fff"/>
    <path id="Path_144" data-name="Path 144" d="M89.189,227.2a5.2,5.2,0,0,0-1.761.294l-.22,1.248a4.338,4.338,0,0,1,1.615-.294c.514,0,.954.073.954.514,0,.294-.073.367-.073.367h-.661c-1.248,0-2.642.514-2.642,2.2,0,1.321.881,1.615,1.394,1.615a2.205,2.205,0,0,0,1.541-.661l-.073.587h1.321l.587-4.036A1.739,1.739,0,0,0,89.189,227.2Zm.294,3.3c0,.22-.147,1.394-1.027,1.394a.573.573,0,0,1-.587-.587c0-.367.22-.881,1.321-.881A1.156,1.156,0,0,0,89.482,230.5Z" transform="translate(-79.795 -225.879)" fill="#fff"/>
    <path id="Path_145" data-name="Path 145" d="M136.888,232.418a1.881,1.881,0,0,0,2.2-1.908c0-1.835-1.761-1.468-1.761-2.2,0-.367.294-.514.807-.514.22,0,1.027.073,1.027.073l.22-1.321a5.577,5.577,0,0,0-1.394-.147c-1.1,0-2.2.44-2.2,1.908,0,1.688,1.835,1.541,1.835,2.2,0,.44-.514.514-.881.514a4.8,4.8,0,0,1-1.321-.22l-.22,1.321C135.273,232.271,135.64,232.418,136.888,232.418Z" transform="translate(-124.118 -225.152)" fill="#fff"/>
    <path id="Path_146" data-name="Path 146" d="M431.383,214.4l-.294,1.982a2.035,2.035,0,0,0-1.394-.734c-1.321,0-2.5,1.615-2.5,3.523,0,1.174.587,2.422,1.835,2.422a1.959,1.959,0,0,0,1.394-.587l-.073.514h1.468l1.1-7.045Zm-.661,3.89c0,.807-.367,1.835-1.174,1.835-.514,0-.807-.44-.807-1.174,0-1.174.514-1.908,1.174-1.908C430.429,217.042,430.723,217.409,430.723,218.29Z" transform="translate(-389.331 -214.253)" fill="#fff"/>
    <path id="Path_147" data-name="Path 147" d="M15.794,221.446l.881-5.284.147,5.284h1.027l1.908-5.284-.807,5.284h1.541l1.174-7.045H19.244l-1.468,4.33L17.7,214.4H15.574L14.4,221.446Z" transform="translate(-14.4 -214.253)" fill="#fff"/>
    <path id="Path_148" data-name="Path 148" d="M261.615,234.525c.44-2.422.514-4.4,1.541-4.036a5.757,5.757,0,0,1,.514-1.688h-.294c-.661,0-1.174.881-1.174.881l.147-.807h-1.394L260,234.6h1.615Z" transform="translate(-237.469 -227.332)" fill="#fff"/>
    <path id="Path_149" data-name="Path 149" d="M349.189,227.2a5.2,5.2,0,0,0-1.761.294l-.22,1.248a4.339,4.339,0,0,1,1.615-.294c.514,0,.954.073.954.514,0,.294-.073.367-.073.367h-.66c-1.248,0-2.642.514-2.642,2.2,0,1.321.881,1.615,1.394,1.615a2.205,2.205,0,0,0,1.541-.661l-.073.587h1.321l.587-4.036A1.714,1.714,0,0,0,349.189,227.2Zm.367,3.3c0,.22-.147,1.394-1.028,1.394a.573.573,0,0,1-.587-.587c0-.367.22-.881,1.321-.881C349.482,230.5,349.482,230.5,349.556,230.5Z" transform="translate(-315.943 -225.879)" fill="#fff"/>
    <path id="Path_150" data-name="Path 150" d="M396.015,234.525c.44-2.422.514-4.4,1.541-4.036a5.758,5.758,0,0,1,.514-1.688h-.294c-.661,0-1.174.881-1.174.881l.147-.807h-1.394L394.4,234.6h1.615Z" transform="translate(-359.54 -227.332)" fill="#fff"/>
  </g>
  <g id="Group_272" data-name="Group 272" transform="translate(1.321 10.275)">
    <path id="Path_151" data-name="Path 151" d="M180,225.431a1.1,1.1,0,0,0,1.174,1.248,2.793,2.793,0,0,0,1.1-.22l.22-1.248a3.183,3.183,0,0,1-.367.073c-.514,0-.587-.294-.514-.44l.44-2.569h.807l.22-1.394h-.734L182.5,220" transform="translate(-164.808 -219.34)" fill="#dce5e5"/>
    <path id="Path_152" data-name="Path 152" d="M218.4,232.011c0,2.055.66,2.569,1.835,2.569a3.81,3.81,0,0,0,1.541-.22l.294-1.394a4.4,4.4,0,0,1-1.541.367c-1.615,0-1.321-1.174-1.321-1.174h3.009a9.516,9.516,0,0,0,.22-1.321,1.988,1.988,0,0,0-2.128-2.128C218.767,228.561,218.4,230.176,218.4,232.011Zm1.835-2.128c.807,0,.954.954.954,1.027h-1.908C219.281,230.836,219.427,229.882,220.235,229.882Z" transform="translate(-199.686 -227.24)" fill="#dce5e5"/>
    <path id="Path_153" data-name="Path 153" d="M307.3,219.919l.294-1.615a3.607,3.607,0,0,1-1.248.367c-1.028,0-1.468-.807-1.468-1.688,0-1.761.881-2.715,1.908-2.715a2.451,2.451,0,0,1,1.321.44l.22-1.541a5.16,5.16,0,0,0-1.688-.367c-1.688,0-2.642,1.468-2.642,4.257,0,1.835.147,3.082,1.908,3.082A6.586,6.586,0,0,0,307.3,219.919Z" transform="translate(-277.433 -212.8)" fill="#dce5e5"/>
    <path id="Path_154" data-name="Path 154" d="M87.207,230.268a4.337,4.337,0,0,1,1.615-.294c.514,0,.954.073.954.514,0,.294-.073.367-.073.367h-.661c-1.248,0-2.642.514-2.642,2.2,0,1.321.881,1.615,1.394,1.615a2.205,2.205,0,0,0,1.541-.66l-.073.587h1.321l.587-4.036c0-1.688-1.468-1.761-2.055-1.761m1.1,3.156a2.4,2.4,0,0,1-1.761,1.394.573.573,0,0,1-.587-.587c0-.367.22-.881,1.321-.881A6,6,0,0,0,90.216,231.956Z" transform="translate(-79.795 -227.332)" fill="#dce5e5"/>
    <path id="Path_155" data-name="Path 155" d="M136,232.271a6.212,6.212,0,0,0,1.688.147,1.881,1.881,0,0,0,2.2-1.908c0-1.835-1.761-1.468-1.761-2.2,0-.367.294-.514.807-.514.22,0,1.027.073,1.027.073l.22-1.321a5.576,5.576,0,0,0-1.394-.147c-1.1,0-1.468.44-1.468,1.908,0,1.688,1.1,1.541,1.1,2.2,0,.44-.514.514-.881.514" transform="translate(-124.845 -225.152)" fill="#dce5e5"/>
    <path id="Path_156" data-name="Path 156" d="M438.3,217.108a2.036,2.036,0,0,0-1.395-.734c-1.321,0-1.761,1.615-1.761,3.523,0,1.174-.147,2.422,1.1,2.422a1.959,1.959,0,0,0,1.394-.587l-.073.514h1.468l1.1-7.045m-1.908,3.816c0,.807-.661,1.835-1.468,1.835-.514,0-.807-.44-.807-1.174,0-1.174.514-1.908,1.174-1.908A1.122,1.122,0,0,1,438.23,219.016Z" transform="translate(-396.544 -214.98)" fill="#dce5e5"/>
    <path id="Path_157" data-name="Path 157" d="M15.794,221.446l.881-5.284.147,5.284h1.027l1.908-5.284-.807,5.284h1.541l1.174-7.045H19.831l-2.055,4.33L17.7,214.4H16.9l-2.5,7.045Z" transform="translate(-14.4 -214.253)" fill="#dce5e5"/>
    <path id="Path_158" data-name="Path 158" d="M260.8,234.525h1.541c.44-2.422.514-4.4,1.541-4.036a5.761,5.761,0,0,1,.514-1.688H264.1c-.661,0-1.174.881-1.174.881l.147-.807" transform="translate(-238.196 -227.332)" fill="#dce5e5"/>
    <path id="Path_159" data-name="Path 159" d="M347.207,230.268a4.337,4.337,0,0,1,1.615-.294c.514,0,.954.073.954.514,0,.294-.073.367-.073.367h-.66c-1.248,0-2.642.514-2.642,2.2,0,1.321.881,1.615,1.394,1.615a2.205,2.205,0,0,0,1.541-.66l-.073.587h1.321l.587-4.036c0-1.688-1.468-1.761-2.055-1.761m1.1,3.156a2.4,2.4,0,0,1-1.761,1.394.573.573,0,0,1-.587-.587c0-.367.22-.881,1.321-.881A6.457,6.457,0,0,0,350.216,231.956Z" transform="translate(-315.943 -227.332)" fill="#dce5e5"/>
    <path id="Path_160" data-name="Path 160" d="M395.2,234.525h1.541c.44-2.422.514-4.4,1.541-4.036a5.759,5.759,0,0,1,.514-1.688H398.5c-.66,0-1.174.881-1.174.881l.147-.807" transform="translate(-360.266 -227.332)" fill="#dce5e5"/>
  </g>
</svg>
