<svg id="Group_21195" data-name="Group 21195" xmlns="http://www.w3.org/2000/svg" width="156.897" height="161.031" viewBox="0 0 156.897 161.031">
  <rect id="illustration_2_Background_Mask_" data-name="illustration_2 (Background/Mask)" width="144.71" height="144.71" fill="none"/>
  <path id="Vector" d="M1.071,14C.311,19.942,0,26.757,0,26.757H23.045L27.433,5.372,4.319,0A106.015,106.015,0,0,0,1.071,14Z" transform="translate(22.501 133.925)" fill="#f9d2dd"/>
  <path id="Vector-2" data-name="Vector" d="M1.071,14C.311,19.942,0,26.757,0,26.757H23.045L27.433,5.372,4.319,0A106.015,106.015,0,0,0,1.071,14Z" transform="translate(22.501 133.925)" fill="#da5742"/>
  <g id="Group" transform="translate(25.058 133.925)">
    <path id="Vector-3" data-name="Vector" d="M0,6.45l22.942,8.311,1.918-9.389L1.762,0S.881,2.869,0,6.45Z" fill="#c43d28"/>
  </g>
  <path id="Vector-4" data-name="Vector" d="M22.251,55.215,0,49.842s.38-1.669,1.14-4.364c2.3-8.1,8.188-25.4,18.122-33.155C36.883-1.412,54.037-.942,67.806,1.022c17.1,2.434,29.057,18.6,32.478,23.471,4.561,6.5,9.674,17.091,9.674,17.091l-23.443,9.98,3.438,20.9H20.35v.017Z" transform="translate(25.196 88.291)" fill="#00af47"/>
  <path id="Vector-5" data-name="Vector" d="M3.4,37.408A4,4,0,0,1,.045,32.853L4.416,3.418A3.984,3.984,0,0,1,8.942.045L21.225,1.888a4,4,0,0,1,3.351,4.555L20.205,35.878a3.974,3.974,0,0,1-4.526,3.373Z" transform="translate(102.735 48.774)" fill="#b7b8d1"/>
  <path id="Vector-6" data-name="Vector" d="M3.4,37.408A4,4,0,0,1,.045,32.853L4.416,3.418A3.984,3.984,0,0,1,8.942.045L21.225,1.888a4,4,0,0,1,3.351,4.555L20.205,35.878a3.974,3.974,0,0,1-4.526,3.373Z" transform="translate(102.735 48.774)" fill="#1f1f39"/>
  <path id="Vector-7" data-name="Vector" d="M9.075,81.936a31.129,31.129,0,0,0,15.669,18.829C37.51,107.285,52.9,99.2,54.06,87.882c.967-9.493-1.9-30.878-8-45.256S30.825,12.514,24.139,5.8,7.935-.144,5.655.239s-4.2,2.1-2.85,3.651c1.33,1.53,9.139,2.295,9.139,2.295S5.966,5.368,2.286,7.419C-.322,8.88-.167,10.636.213,11.592s1.9,1.391,1.9,1.391A2.873,2.873,0,0,0,.9,15.765a2.811,2.811,0,0,0,2.85,2.312,2.164,2.164,0,0,0,0,2.1c.57,1.339,2.47,1.912,4.768,2.295,2.28.382,4.578-.382,6.288,1.912S27.249,74.2,27.249,74.2Z" transform="translate(102.653 57.936)" fill="#da5742"/>
  <path id="Vector-8" data-name="Vector" d="M.07,2.652a.253.253,0,0,1,.017-.365,6.963,6.963,0,0,1,1.227-.869A13.8,13.8,0,0,1,7.636.009a21.993,21.993,0,0,1,3.49.156.27.27,0,0,1,.225.3.269.269,0,0,1-.294.226c-.052,0-5.943-.782-9.5,1.2a5.35,5.35,0,0,0-1.123.8.655.655,0,0,1-.173.052A.277.277,0,0,1,.07,2.652Z" transform="translate(103.487 63.694)" fill="#1f1f39"/>
  <path id="Vector-9" data-name="Vector" d="M5.726,22.8.008.355A.285.285,0,1,1,.56.216L6.278,22.662a.284.284,0,0,1-.207.348H6A.3.3,0,0,1,5.726,22.8Z" transform="translate(105.812 117.436)" fill="#1f1f39"/>
  <path id="Vector-10" data-name="Vector" d="M.231,22.435a.278.278,0,0,1-.225-.33L3.825.233A.276.276,0,0,1,4.153.007a.278.278,0,0,1,.225.33L.559,22.209a.265.265,0,0,1-.276.226Z" transform="translate(47.267 121.261)" fill="#1f1f39"/>
  <g id="Group-2" data-name="Group" transform="translate(103.992 61.554)">
    <path id="Vector-11" data-name="Vector" d="M.031,2.484a.26.26,0,0,1,.1-.348A20.47,20.47,0,0,1,6.768.154c3.472-.348,4.561,0,4.6.017a.252.252,0,0,1,.155.33.249.249,0,0,1-.328.156A13.134,13.134,0,0,0,6.8.675,20.967,20.967,0,0,0,.342,2.588c0,.035-.052.035-.086.035A.249.249,0,0,1,.031,2.484Z" transform="translate(0 6.846)" fill="#1f1f39"/>
    <path id="Vector-12" data-name="Vector" d="M.031,2.484a.26.26,0,0,1,.1-.348A20.47,20.47,0,0,1,6.768.154c3.472-.348,4.561,0,4.6.017a.252.252,0,0,1,.155.33.249.249,0,0,1-.328.156A13.134,13.134,0,0,0,6.8.675,20.967,20.967,0,0,0,.342,2.588c0,.035-.052.035-.086.035A.249.249,0,0,1,.031,2.484Z" transform="translate(1.037 12.236)" fill="#1f1f39"/>
    <path id="Vector-13" data-name="Vector" d="M.031,3.906a.26.26,0,0,1,.1-.348A13.153,13.153,0,0,1,5.507,2.184C3.434,1.784,1.258,1.211.584.428A.269.269,0,0,1,.6.063.265.265,0,0,1,.964.081c.95,1.1,5.822,1.86,8.309,2.138.38.035.622.07.674.07L9.9,2.81q-.078,0-.518-.052C7.874,2.619,3.331,2.376.394,4.01a.531.531,0,0,1-.138.035A.269.269,0,0,1,.031,3.906Z" transform="translate(0.674 0)" fill="#1f1f39"/>
  </g>
  <path id="Vector-14" data-name="Vector" d="M18.174,0,0,7.737a28.057,28.057,0,0,0,3.576,7.841L18.726,2.486Z" transform="translate(111.711 132.134)" fill="#c43d28"/>
  <path id="Vector-15" data-name="Vector" d="M1.907,8.7.007.354A.3.3,0,0,1,.214.007.3.3,0,0,1,.56.215l1.9,8.345a.3.3,0,0,1-.207.348c-.035,0-.052.017-.069.017A.278.278,0,0,1,1.907,8.7Z" transform="translate(129.602 131.902)" fill="#1f1f39"/>
  <path id="Vector-16" data-name="Vector" d="M0,18.186,6.789,19.82,6.34,23.958,10.331,0Z" transform="translate(40.657 123.686)" fill="#008235"/>
  <path id="Vector-17" data-name="Vector" d="M5.753,21.7l-.138-.765,6.167-2.625L0,0Z" transform="translate(106.096 118.938)" fill="#008235"/>
  <path id="Vector-18" data-name="Vector" d="M1.164.025,1.134,22.472h-.7L.468.026Z" transform="translate(26.475 133.421) rotate(-77.983)" fill="#eaeaff"/>
  <path id="Vector-19" data-name="Vector" d="M20.04.671l0,.695L.051,1.41l0-.695Z" transform="translate(109.628 132.946) rotate(-21.881)" fill="#eaeaff"/>
  <path id="Vector-20" data-name="Vector" d="M0,40.927c.035-.174,3.731-16.882,10.953-26.218C18.174,5.355,30.664.052,30.785,0l.259.643c-.121.052-12.438,5.285-19.556,14.5C4.353,24.358.708,40.927.674,41.083Z" transform="translate(35.838 93.694)" fill="#eaeaff"/>
  <path id="Vector-21" data-name="Vector" d="M.345,41.918h0L0,41.849s0-.019.011-.051c.139-.614.3-1.287.473-2l.328.087c-.3,1.236-.46,2-.466,2.034Zm1.02-4.051h0l-.328-.087c.169-.587.34-1.2.506-1.788l.064-.228.328.1c-.189.6-.375,1.255-.57,2Zm1.192-4h0l-.328-.1c.218-.712.454-1.4.656-1.982l.328.122c-.274.786-.476,1.392-.656,1.964ZM3.9,29.939h0l-.328-.122c.2-.547.412-1.094.617-1.622l.126-.325.328.121-.132.342c-.2.523-.412,1.064-.61,1.6Zm1.538-3.878h0l-.31-.138c.176-.411.362-.827.542-1.228q.155-.346.3-.685l.311.157-.089.2c-.251.553-.51,1.124-.757,1.7ZM7.2,22.307h0l-.31-.156c.3-.586.612-1.171.985-1.843l.293.174c-.307.566-.637,1.178-.967,1.825ZM9.26,18.69h0L8.966,18.5c.358-.573.748-1.158,1.157-1.739l.277.209c-.354.5-.763,1.088-1.14,1.721Zm2.4-3.373h0l-.276-.226c.482-.6.922-1.125,1.347-1.6l.259.226q-.218.261-.435.518c-.3.353-.6.717-.895,1.081Zm2.729-3.112h0l-.241-.243.017-.017c.471-.49.957-1,1.452-1.461l.242.243c-.5.484-.978.967-1.468,1.477Zm2.989-2.886h0l-.224-.261c.485-.438,1-.881,1.59-1.356l.225.278a19.554,19.554,0,0,0-1.589,1.339Zm3.2-2.625h0l-.207-.278C20.92,6,21.5,5.592,22.06,5.2l.191.3c-.512.355-1.112.774-1.675,1.2ZM24,4.347h0l-.189-.3c.53-.329,1.157-.712,1.8-1.061l.173.3c-.6.329-1.2.7-1.77,1.055L24,4.346Zm3.593-2.034h0L27.433,2l.282-.138c.551-.27,1.071-.526,1.6-.748l.138.312c-.54.249-1.211.557-1.865.887ZM31.372.661h0L31.251.33c.643-.228.986-.33,1-.33l.087.33a.79.79,0,0,1-.09.03C32.1.408,31.8.5,31.373.66Z" transform="translate(33.747 91.955)" fill="#eaeaff"/>
  <path id="Vector-22" data-name="Vector" d="M45.331,34.686h0c-.29-.6-.619-1.229-.938-1.836l-.012-.023.311-.157.012.023c.318.608.648,1.236.938,1.837l-.31.156ZM43.4,31h0c-.3-.559-.635-1.151-1.019-1.808l.293-.174.513.9.005.009.518.913L43.4,31Zm-2.091-3.6h0l-.236-.387c-.281-.461-.571-.937-.868-1.386l.293-.191c.4.64.777,1.236,1.106,1.773l-.293.191Zm-2.228-3.529h0c-.349-.527-.762-1.143-1.174-1.721l.276-.209c.43.6.854,1.236,1.174,1.721l-.276.208Zm-2.384-3.408h0l-.018-.024c-.4-.539-.817-1.1-1.243-1.627l.277-.208.125.162c.375.487.763.99,1.136,1.507l-.276.191Zm-2.557-3.269h0l-.048-.058c-.426-.51-.866-1.038-1.3-1.523l.259-.226c.48.539.939,1.071,1.365,1.583l-.276.225Zm-2.747-3.112h0c-.471-.492-.959-1-1.451-1.477l.242-.243c.492.477.986.974,1.468,1.478l-.259.243ZM28.418,11.2h0c-.526-.477-1.061-.927-1.588-1.338l.207-.278c.535.416,1.069.867,1.59,1.339l-.207.277ZM25.17,8.606h0c-.435-.315-.9-.623-1.345-.921l-.009-.006-.356-.237.19-.3.027.017c.568.37,1.156.753,1.7,1.147l-.207.3ZM21.7,6.381h0c-.618-.366-1.263-.706-1.813-.991l.156-.313c.588.3,1.187.62,1.831.991L21.7,6.38Zm-3.68-1.9h0c-.708-.317-1.329-.584-1.9-.817l.121-.33c.7.284,1.341.559,1.918.817l-.138.33Zm-3.835-1.53h0c-.528-.187-1.086-.363-1.625-.534l-.344-.109.1-.33.407.129c.52.165,1.058.335,1.579.514l-.12.33Zm-3.956-1.2h0c-.674-.174-1.354-.332-2.02-.469L8.275.939c.752.155,1.432.314,2.021.47l-.069.347ZM6.185.9h0L5.862.855C5.272.766,4.715.682,4.146.608L4.18.261,4.3.276c.634.082,1.289.166,1.94.281L6.185.9ZM2.073.417h0C.965.353.391.348.242.348H.017L0,0H.242C.558,0,1.21.018,2.091.07L2.073.417Z" transform="translate(81.6 90.39)" fill="#eaeaff"/>
  <path id="Vector-23" data-name="Vector" d="M25.36,9.129A45.868,45.868,0,0,0,.017.7L0,0A46.581,46.581,0,0,1,25.775,8.555c12.2,8.815,20.765,27.592,20.851,27.783l-.639.3C45.9,36.442,37.4,17.839,25.36,9.129Z" transform="translate(79.181 91.259)" fill="#eaeaff"/>
  <path id="Vector-24" data-name="Vector" d="M22.251,55.215,0,49.842s.38-1.669,1.14-4.364c2.3-8.1,8.188-25.4,18.122-33.155C36.883-1.412,54.037-.942,67.806,1.022c17.1,2.434,29.057,18.6,32.478,23.471,4.561,6.5,9.674,17.091,9.674,17.091l-23.443,9.98,3.438,20.9H20.35v.017Z" transform="translate(25.196 88.291)" fill="none"/>
  <path id="Vector-25" data-name="Vector" d="M.231,22.435a.278.278,0,0,1-.225-.33L3.825.233A.276.276,0,0,1,4.153.007a.278.278,0,0,1,.225.33L.559,22.209a.265.265,0,0,1-.276.226Z" transform="translate(47.267 121.261)" fill="#1f1f39"/>
  <path id="Vector-26" data-name="Vector" d="M5.726,22.8.008.355A.285.285,0,1,1,.56.216L6.278,22.662a.284.284,0,0,1-.207.348H6A.3.3,0,0,1,5.726,22.8Z" transform="translate(105.812 117.436)" fill="#1f1f39"/>
  <path id="Vector-27" data-name="Vector" d="M13.514,9.533c7.238-.539,12.9-3.529,12.68-6.694A3.478,3.478,0,0,0,24.536.318,61.994,61.994,0,0,0,.99,2.335,3.365,3.365,0,0,0,.005,4.769C.23,7.933,6.276,10.054,13.514,9.533Z" transform="translate(62.454 88.298)" fill="#008235"/>
  <g id="Group-3" data-name="Group" transform="translate(42.458 29.179)">
    <path id="Vector-28" data-name="Vector" d="M46.38,22.858s5.908-5.372,1.71-11.7S36.084,7.315,36.084,7.315A10.832,10.832,0,0,0,24.648.03C15.509.6,16.079,11.348,16.079,11.348S14.3,8.74,10.361,10.583c-2.85,1.339-1.33,6.137-1.33,6.137s-6.858.574-8.569,7.285C-1.421,31.36,2.933,34.941,4.85,35.9a5.925,5.925,0,0,0,3.628.574A5.235,5.235,0,0,0,6.2,42.609c1.33,4.034,7.048,3.651,7.048,3.651l11.523,9.823L48.09,31.1Z" transform="translate(0 0)" fill="#ff7f2d"/>
    <path id="Vector-29" data-name="Vector" d="M4.613.076C7.256.581,8.068,3.884,6.927,7.2,5.77,10.525,1,11.516,1,11.516L0,1.728A5.446,5.446,0,0,1,4.613.076Z" transform="translate(43.512 30.71)" fill="#f9acc0"/>
    <path id="Vector-30" data-name="Vector" d="M3.028,14.413c-3.04.382-4.008,4.607-1.9,7.667s7.238,2.677,7.238,2.677a66.452,66.452,0,0,1,1.52,10.553c.38,5.946.38,4.99.38,4.99s3.248,2.869,9.726,1.53,6.1-4.416,6.1-4.416-.19-.956-.95-3.46A39.73,39.73,0,0,1,24,28.774a12.263,12.263,0,0,0,7.238-12.657A47.964,47.964,0,0,0,27.231,0H25.14s-.19,2.869-2.47,3.651-5.338-1.339-5.338-1.339a6.189,6.189,0,0,1-3.818,4.8,12.261,12.261,0,0,1-6.288.765s1.347,6.346-.38,8.258C6.846,16.134,6.086,14.031,3.028,14.413Z" transform="translate(15.124 23.971)" fill="#f9d2dd"/>
    <path id="Vector-31" data-name="Vector" d="M0,5.9A11.541,11.541,0,0,1,.5,2.669,7.444,7.444,0,0,1,2.038.078a.23.23,0,0,1,.346,0,.233.233,0,0,1,0,.348,6.761,6.761,0,0,0-1.417,2.4A11.066,11.066,0,0,0,.484,5.9a.237.237,0,0,1-.242.243A.237.237,0,0,1,0,5.9Z" transform="translate(45.741 32.429)" fill="#1f1f39"/>
    <path id="Vector-32" data-name="Vector" d="M6.342,4.661A10.79,10.79,0,0,0,3.664,1.775,9.877,9.877,0,0,0,.244.576.294.294,0,0,1,0,.245.292.292,0,0,1,.33,0,10.8,10.8,0,0,1,3.958,1.288a11.063,11.063,0,0,1,2.85,3.06.3.3,0,0,1-.086.4.2.2,0,0,1-.138.052A.275.275,0,0,1,6.342,4.661Z" transform="translate(16.354 41.355)" fill="#1f1f39"/>
    <path id="Vector-33" data-name="Vector" d="M.484,1.065A2.765,2.765,0,0,1,1.728.143,2.363,2.363,0,0,1,2.5,0a1.96,1.96,0,0,1,.777.1A1.671,1.671,0,0,1,4.388,1.1,3.074,3.074,0,0,0,3.144.839c-.086,0-.19.017-.276.017a1.547,1.547,0,0,0-.276.052.378.378,0,0,1-.138.017L2.315.961a1.69,1.69,0,0,0-.276.087,3.85,3.85,0,0,0-1.019.539A10.486,10.486,0,0,0,0,2.456,2.42,2.42,0,0,1,.484,1.065Z" transform="translate(27.308 35.354)" fill="#1f1f39"/>
    <path id="Vector-34" data-name="Vector" d="M.45.894A2.287,2.287,0,0,1,1.694.077c.121-.017.259-.052.38-.07a2.527,2.527,0,0,1,.363,0,2.422,2.422,0,0,1,.708.122,1.918,1.918,0,0,1,.639.348,3.329,3.329,0,0,1,.242.261.828.828,0,0,1,.155.33,2.072,2.072,0,0,0-.6-.156,3.139,3.139,0,0,0-.57-.035c-.19.017-.363.017-.553.052-.086,0-.19.035-.276.035l-.259.052a3.108,3.108,0,0,0-.95.435A6.836,6.836,0,0,0,0,2.216,2.074,2.074,0,0,1,.45.894Z" transform="translate(38.553 32.135)" fill="#1f1f39"/>
    <path id="Vector-35" data-name="Vector" d="M1.347,1.113a5.413,5.413,0,0,1,.553.7,3.3,3.3,0,0,1,.415.817c.017.087.052.139.069.226a1.359,1.359,0,0,1,.035.278,1.171,1.171,0,0,1-.121.539,1.9,1.9,0,0,1-.639.73A3.7,3.7,0,0,1,0,5.007a7.345,7.345,0,0,0,1.365-.956A1.732,1.732,0,0,0,1.8,3.46a.97.97,0,0,0,.052-.3.484.484,0,0,0-.017-.156.666.666,0,0,0-.052-.174,3.868,3.868,0,0,0-.346-.713,5.948,5.948,0,0,0-.449-.7C.691.939.346.487,0,0A5.908,5.908,0,0,1,1.347,1.113Z" transform="translate(34.927 34.924)" fill="#1f1f39"/>
    <path id="Vector-36" data-name="Vector" d="M8.244,0s1.52,4.99-.19,6.711S1.939,8.71.816,5.564.056,1.721.056,1.721Z" transform="translate(32.02 41.461)" fill="#f95368"/>
    <path id="Vector-37" data-name="Vector" d="M3.49.228A7.029,7.029,0,0,0,0,2.436c1.486,2.417,5.338,2.069,6.91.469A3.551,3.551,0,0,0,7.722.541,6.325,6.325,0,0,0,3.49.228Z" transform="translate(33.164 45.249)" fill="#f9acc0"/>
    <g id="Group-4" data-name="Group" transform="translate(24.201 34.547)">
      <g id="Group-5" data-name="Group" transform="translate(0 0)">
        <path id="Vector-38" data-name="Vector" d="M3.763,4.664C1.712,4.666.05,3.641.051,2.374S1.718.078,3.769.075,7.483,1.1,7.482,2.365,5.815,4.661,3.763,4.664Z" transform="translate(15.585 1.406) rotate(-12.022)" fill="#f9acc0"/>
        <path id="Vector-39" data-name="Vector" d="M3.763,4.664C1.712,4.666.05,3.641.051,2.374S1.718.078,3.769.075,7.483,1.1,7.482,2.365,5.815,4.661,3.763,4.664Z" transform="translate(0 5.319) rotate(-12.022)" fill="#f9acc0"/>
      </g>
      <path id="Vector-40" data-name="Vector" d="M.146,1.4a.29.29,0,0,1-.1-.4A.27.27,0,0,1,.422.9c.017.017,1.347.713,4.7.435A9.877,9.877,0,0,0,9.371.047a.281.281,0,0,1,.4.087.285.285,0,0,1-.086.4A10.046,10.046,0,0,1,5.156,1.925c-.553.035-1.071.052-1.52.052A7.8,7.8,0,0,1,.146,1.4Z" transform="translate(7.021 17.647)" fill="#1f1f39"/>
    </g>
    <path id="Vector-41" data-name="Vector" d="M2.117,2.628C.98,2.631.06,2.066.062,1.366S.987.1,2.124.094,4.182.655,4.18,1.355,3.255,2.625,2.117,2.628Z" transform="translate(26.017 32.476) rotate(-30.001)" fill="#1f1f39"/>
    <path id="Vector-42" data-name="Vector" d="M1.279,4.119C.578,4.119.01,3.2.011,2.064S.58.008,1.281.007s1.269.92,1.268,2.055S1.98,4.119,1.279,4.119Z" transform="translate(37.454 30.309) rotate(-86.901)" fill="#1f1f39"/>
    <path id="Vector-43" data-name="Vector" d="M46.38,22.858s5.908-5.372,1.71-11.7S36.084,7.315,36.084,7.315A10.832,10.832,0,0,0,24.648.03C15.509.6,16.079,11.348,16.079,11.348S14.3,8.74,10.361,10.583c-2.85,1.339-1.33,6.137-1.33,6.137s-6.858.574-8.569,7.285C-1.421,31.36,2.933,34.941,4.85,35.9a5.925,5.925,0,0,0,3.628.574A5.235,5.235,0,0,0,6.2,42.609c1.33,4.034,7.048,3.651,7.048,3.651l11.523,9.823L48.09,31.1Z" transform="translate(0 0)" fill="#f99a3d"/>
    <path id="Vector-44" data-name="Vector" d="M4.613.076c2.643.5,3.4,3.46,2.246,6.781S.985,11.534.985,11.534L0,1.728A5.446,5.446,0,0,1,4.613.076Z" transform="translate(43.512 30.71)" fill="#c43d28"/>
    <path id="Vector-45" data-name="Vector" d="M3.028,15.978c-3.04.382-4.008,4.607-1.9,7.667s7.238,2.677,7.238,2.677a66.452,66.452,0,0,1,1.52,10.553c.38,5.946.38,4.99.38,4.99s3.248,2.869,9.726,1.53,6.1-4.416,6.1-4.416-.19-.956-.95-3.46A39.73,39.73,0,0,1,24,30.339a12.263,12.263,0,0,0,7.238-12.657A60.544,60.544,0,0,0,26.885,0h-2.09s-.19,2.869-2.47,3.651-5.338-1.339-5.338-1.339a6.189,6.189,0,0,1-3.818,4.8,12.261,12.261,0,0,1-6.288.765s1.693,7.911-.035,9.823C6.846,17.7,6.086,15.6,3.028,15.978Z" transform="translate(15.124 22.406)" fill="#da5742"/>
    <path id="Vector-46" data-name="Vector" d="M7.428.07C1.728,2.33,0,.591,0,.591,2.09,6.329,5.58,7.424,9.536,8c-.138-.539-.38-1.443-.812-2.817A39.1,39.1,0,0,1,7.584,0" transform="translate(31.541 52.78)" fill="#c43d28"/>
    <g id="Group-6" data-name="Group" transform="translate(15.142 38.355)">
      <path id="Vector-47" data-name="Vector" d="M6.846,1.768S6.086-.336,3.028.046C-.013.429-.98,4.654,1.128,7.714c1.952,2.869,7.256,5.616,7.86,5.581A70.064,70.064,0,0,0,7.053,1.472C6.984,1.576,6.915,1.681,6.846,1.768Z" transform="translate(0 0)" fill="#c43d28"/>
    </g>
    <path id="Vector-48" data-name="Vector" d="M0,5.9A11.541,11.541,0,0,1,.5,2.669,7.444,7.444,0,0,1,2.038.078a.23.23,0,0,1,.346,0,.233.233,0,0,1,0,.348,6.761,6.761,0,0,0-1.417,2.4A11.066,11.066,0,0,0,.484,5.9a.237.237,0,0,1-.242.243A.237.237,0,0,1,0,5.9Z" transform="translate(45.741 32.429)" fill="#1f1f39"/>
    <path id="Vector-49" data-name="Vector" d="M6.342,4.661A10.79,10.79,0,0,0,3.664,1.775,9.877,9.877,0,0,0,.244.576.294.294,0,0,1,0,.245.292.292,0,0,1,.33,0,10.8,10.8,0,0,1,3.958,1.288a11.063,11.063,0,0,1,2.85,3.06.3.3,0,0,1-.086.4.2.2,0,0,1-.138.052A.275.275,0,0,1,6.342,4.661Z" transform="translate(16.354 41.355)" fill="#1f1f39"/>
    <path id="Vector-50" data-name="Vector" d="M.484,1.065A2.765,2.765,0,0,1,1.728.143,2.363,2.363,0,0,1,2.5,0a1.96,1.96,0,0,1,.777.1A1.671,1.671,0,0,1,4.388,1.1,3.074,3.074,0,0,0,3.144.839c-.086,0-.19.017-.276.017a1.547,1.547,0,0,0-.276.052.378.378,0,0,1-.138.017L2.315.961a1.69,1.69,0,0,0-.276.087,3.85,3.85,0,0,0-1.019.539A10.486,10.486,0,0,0,0,2.456,2.42,2.42,0,0,1,.484,1.065Z" transform="translate(27.308 35.354)" fill="#1f1f39"/>
    <path id="Vector-51" data-name="Vector" d="M.45.894A2.287,2.287,0,0,1,1.694.077c.121-.017.259-.052.38-.07a2.527,2.527,0,0,1,.363,0,2.422,2.422,0,0,1,.708.122,1.918,1.918,0,0,1,.639.348,3.329,3.329,0,0,1,.242.261.828.828,0,0,1,.155.33,2.072,2.072,0,0,0-.6-.156,3.139,3.139,0,0,0-.57-.035c-.19.017-.363.017-.553.052-.086,0-.19.035-.276.035l-.259.052a3.108,3.108,0,0,0-.95.435A6.836,6.836,0,0,0,0,2.216,2.074,2.074,0,0,1,.45.894Z" transform="translate(38.553 32.135)" fill="#1f1f39"/>
    <path id="Vector-52" data-name="Vector" d="M1.347,1.113a5.413,5.413,0,0,1,.553.7,3.3,3.3,0,0,1,.415.817c.017.087.052.139.069.226a1.359,1.359,0,0,1,.035.278,1.171,1.171,0,0,1-.121.539,1.9,1.9,0,0,1-.639.73A3.7,3.7,0,0,1,0,5.007a7.345,7.345,0,0,0,1.365-.956A1.732,1.732,0,0,0,1.8,3.46a.97.97,0,0,0,.052-.3.484.484,0,0,0-.017-.156.666.666,0,0,0-.052-.174,3.868,3.868,0,0,0-.346-.713,5.948,5.948,0,0,0-.449-.7C.691.939.346.487,0,0A5.908,5.908,0,0,1,1.347,1.113Z" transform="translate(34.927 34.924)" fill="#1f1f39"/>
    <path id="Vector-53" data-name="Vector" d="M8.244,0s1.52,4.99-.19,6.711S1.939,8.71.816,5.564.056,1.721.056,1.721Z" transform="translate(32.02 41.461)" fill="#fff"/>
    <path id="Vector-54" data-name="Vector" d="M3.49.228A7.029,7.029,0,0,0,0,2.436c1.486,2.417,5.338,2.069,6.91.469A3.551,3.551,0,0,0,7.722.541,6.325,6.325,0,0,0,3.49.228Z" transform="translate(33.164 45.249)" fill="#f9d2dd"/>
    <g id="Group-7" data-name="Group" transform="translate(24.201 34.547)">
      <path id="Vector-55" data-name="Vector" d="M3.763,4.664C1.712,4.666.05,3.641.051,2.374S1.718.078,3.769.075,7.483,1.1,7.482,2.365,5.815,4.661,3.763,4.664Z" transform="translate(15.585 1.406) rotate(-12.022)" fill="#c43d28"/>
      <path id="Vector-56" data-name="Vector" d="M3.763,4.664C1.712,4.666.05,3.641.051,2.374S1.718.078,3.769.075,7.483,1.1,7.482,2.365,5.815,4.661,3.763,4.664Z" transform="translate(0 5.319) rotate(-12.022)" fill="#c43d28"/>
    </g>
    <path id="Vector-57" data-name="Vector" d="M.146.9a.267.267,0,0,1-.1-.382A.283.283,0,0,1,.422.392c.017.017,1.347.7,4.7.382A8.228,8.228,0,0,0,7.8.027a.29.29,0,0,1,.38.139.293.293,0,0,1-.138.382,8.424,8.424,0,0,1-2.868.8c-.656.052-1.244.087-1.745.087A7.167,7.167,0,0,1,.146.9Z" transform="translate(31.222 52.77)" fill="#1f1f39"/>
    <path id="Vector-58" data-name="Vector" d="M3.028,14.413c-3.04.382-4.008,4.607-1.9,7.667s7.238,2.677,7.238,2.677a66.452,66.452,0,0,1,1.52,10.553c.38,5.946-.76,2.869-.76,2.869s3.628,2.869,10.106,1.53,7.618-4.416,7.618-4.416-.95,1.147-1.71-1.339A39.1,39.1,0,0,1,24,28.774a12.263,12.263,0,0,0,7.238-12.657A47.964,47.964,0,0,0,27.231,0H25.14s-.19,2.869-2.47,3.651-5.338-1.339-5.338-1.339a6.189,6.189,0,0,1-3.818,4.8,12.261,12.261,0,0,1-6.288.765s1.347,6.346-.38,8.258C6.846,16.134,6.086,14.031,3.028,14.413Z" transform="translate(15.124 23.971)" fill="none"/>
    <path id="Vector-59" data-name="Vector" d="M2.117,2.628C.98,2.631.06,2.066.062,1.366S.987.1,2.124.094,4.182.655,4.18,1.355,3.255,2.625,2.117,2.628Z" transform="translate(26.017 32.476) rotate(-30.001)" fill="#fff"/>
    <path id="Vector-60" data-name="Vector" d="M1.279,4.119C.578,4.119.01,3.2.011,2.064S.58.008,1.281.007s1.269.92,1.268,2.055S1.98,4.119,1.279,4.119Z" transform="translate(37.454 30.309) rotate(-86.901)" fill="#fff"/>
  </g>
  <path id="Vector-61" data-name="Vector" d="M23.063,25.731H20.989v-.348c.349.008.69.013,1.043.013s.681,0,1.03-.013v.347Zm2.09-.052h0l-.017-.347.123,0c.632-.017,1.285-.034,1.951-.066l.017.348c-.678.033-1.343.05-1.987.067l-.085,0Zm-6.236-.017h0c-.68-.019-1.4-.055-2.072-.1l.017-.348.426.021c.551.027,1.121.055,1.647.083l-.017.348ZM29.3,25.506h0l-.017-.348c.317-.016.644-.037.961-.057.363-.023.737-.046,1.112-.065l.018.348c-.65.048-1.288.081-1.905.113l-.168.009Zm-14.528-.07h0c-.84-.062-1.479-.11-2.072-.156l.034-.348c.687.053,1.365.1,2.073.157l-.035.347Zm18.675-.191h0l-.034-.348c.679-.048,1.4-.1,2.073-.174l.034.348c-.27.022-.541.046-.827.071-.4.036-.817.073-1.245.1Zm-22.821-.122h0c-.3-.028-.589-.054-.872-.078-.423-.037-.821-.071-1.2-.113l.034-.348c.463.037.952.084,1.47.134l.6.057-.035.347Zm26.95-.243h0l-.035-.347c.5-.042.948-.092,1.347-.135.254-.028.493-.054.709-.074l.035.348c-.505.065-1.177.133-2.055.208Zm-31.1-.157h0l-1.1-.119c-.511-.056-.818-.09-.872-.09H4.439v-.348h.1c.008,0,.778.089,1.986.209l-.052.347Zm35.242-.261h0l-.052-.347a4.084,4.084,0,0,0,1.831-.73l.208.278a4.208,4.208,0,0,1-1.986.8Zm-39.353-.5h0A4.519,4.519,0,0,1,.778,22.515l.293-.191a4.33,4.33,0,0,0,1.468,1.339l-.172.3Zm42.739-1.9h0l-.31-.156a4.155,4.155,0,0,0,.467-1.93h.345a4.612,4.612,0,0,1-.5,2.086ZM.034,20.516h0C.018,20.347,0,20.153,0,19.976v-.017l.225-1.547.345.052-.225,1.53a4.509,4.509,0,0,0,.035.487l-.345.034Zm45.141-1.147h0L44.881,17.3l.346-.052.293,2.069-.345.052ZM.864,16.378h0l-.345-.052.294-2.069.345.052L.864,16.377Zm43.706-1.13h0l-.293-2.068.345-.052.294,2.069-.345.052Zm-43.1-2.991h0l-.345-.052.293-2.069.346.052-.294,2.068Zm42.5-1.147h0l-.294-2.068.346-.052.293,2.069-.345.052ZM2.073,8.137h0l-.345-.052.294-2.069.345.052L2.073,8.136ZM43.361,6.989h0L43.067,4.92l.345-.052.294,2.069-.345.052ZM2.626,4h0L2.28,3.947a4.427,4.427,0,0,1,.777-2l.277.191A4.3,4.3,0,0,0,2.626,4ZM42.687,2.921h0a4.277,4.277,0,0,0-1.174-1.6l.225-.261A4.6,4.6,0,0,1,43,2.782l-.31.139ZM23.27,1.565h-.5c-.51,0-1.037,0-1.572-.017V1.2c.708.017,1.4.017,2.073.017v.347ZM25.36,1.53h0V1.182c.6-.015,1.356-.033,2.073-.069l.018.348c-.651.032-1.3.049-1.925.065l-.165,0Zm-6.237-.052h0c-.654-.033-1.357-.069-2.072-.1l.017-.348c.252.012.505.027.75.041.457.027.889.052,1.323.063l-.018.347Zm10.383-.121h0l-.017-.348c.666-.033,1.344-.084,2-.133L31.562.87l.034.348-.2.015c-.649.048-1.262.093-1.886.124ZM14.978,1.234h0l-.064,0c-.658-.05-1.339-.1-2.009-.169l.035-.348c.666.067,1.344.119,2,.168l.074.006-.034.347Zm18.657-.208h0L33.6.678c.712-.07,1.4-.139,2.056-.226L35.691.8c-.639.087-1.359.158-2.056.226ZM10.832.852h0C10.109.78,9.378.688,8.758.608L8.793.261c.355.046.722.088,1.076.128.321.037.652.074.979.115l-.017.347ZM4.82.834h0L4.664.521A4.548,4.548,0,0,1,6.738,0V.348h0A4.086,4.086,0,0,0,4.82.834ZM37.764.521h0L37.712.174C38.417.07,38.8,0,38.8,0h.034a4.583,4.583,0,0,1,.985.1L39.75.452a3.947,3.947,0,0,0-.9-.1c-.06.015-.429.084-1.087.174Z" transform="translate(55.86 108.629)" fill="#eaeaff"/>
  <path id="Vector-62" data-name="Vector" d="M19.089,22.463c-5.2,0-12.762-.791-14.957-1.034l-.089-.01a4.036,4.036,0,0,1-2.857-1.211A4.091,4.091,0,0,1,0,17.317v-.052l1.918-13.2a4.088,4.088,0,0,1,1.2-2.876A4.037,4.037,0,0,1,5.994,0h.052A108.5,108.5,0,0,0,19.711,1.043,84.321,84.321,0,0,0,33.428,0H33.5a4.1,4.1,0,0,1,4.077,4.069l1.917,13.213V17.3a4.091,4.091,0,0,1-1.185,2.893A4.035,4.035,0,0,1,35.449,21.4,156.168,156.168,0,0,1,19.089,22.463ZM5.977.712h0A3.406,3.406,0,0,0,2.626,4.12v.052L.691,17.351a3.406,3.406,0,0,0,3.386,3.373h.034c.05.01,9.068,1.043,14.978,1.043A159.422,159.422,0,0,0,35.38,20.724h.034A3.406,3.406,0,0,0,38.8,17.351L36.883,4.138V4.12A3.406,3.406,0,0,0,33.531.713a87.46,87.46,0,0,1-13.82,1.043A111.333,111.333,0,0,1,5.977.713Z" transform="translate(58.918 110.263)" fill="#eaeaff"/>
  <rect id="illustration_2_Background_Mask_2" data-name="illustration_2 (Background/Mask)" width="144.71" height="144.71" fill="none"/>
</svg>
