<svg id="Group_22851" data-name="Group 22851" xmlns="http://www.w3.org/2000/svg" width="145" height="160.002" viewBox="0 0 145 160.002">
  <path id="Path_6590" data-name="Path 6590" d="M310.949,164.591a.288.288,0,0,0-.2.092,16.171,16.171,0,0,1-2.891,2.374,28.988,28.988,0,0,0-3.356,2.559.287.287,0,1,0,.385.425,28.79,28.79,0,0,1,3.279-2.5,16.734,16.734,0,0,0,3.008-2.472.287.287,0,0,0-.225-.481Zm.209,2.632a.288.288,0,0,0-.157.056l-4.424,3.267a.287.287,0,1,0,.341.462l4.424-3.264a.288.288,0,0,0-.184-.521Zm-27.17-2.483a.288.288,0,0,0-.2.092,16.167,16.167,0,0,1-2.891,2.374,29,29,0,0,0-3.356,2.559.287.287,0,1,0,.385.425,28.8,28.8,0,0,1,3.279-2.5,16.731,16.731,0,0,0,3.008-2.472.287.287,0,0,0-.225-.481Zm.209,2.632a.288.288,0,0,0-.157.056l-4.424,3.267a.287.287,0,1,0,.341.462l4.424-3.264a.288.288,0,0,0-.184-.521Z" transform="translate(-247.197 -155.238)" fill="#add3d8"/>
  <path id="Path_6591" data-name="Path 6591" d="M235.858,126.594l-.083.138a11.793,11.793,0,0,0-1.062,3.5c-.314,1.616-.6,3.645-.846,5.939-.5,4.588-.87,10.238-1.112,15.745s-.356,10.866-.332,14.874c.011,2,.058,3.668.139,4.849a14.045,14.045,0,0,0,.147,1.4,2.388,2.388,0,0,0,.108.424.681.681,0,0,0,.086.166.375.375,0,0,0,.218.157,1.5,1.5,0,0,0,.314.031c.141.008.327.013.557.018.46.009,1.1.017,1.884.019,1.577,0,3.763-.009,6.357-.031,5.189-.044,12.009-.131,18.834-.234s13.653-.22,18.86-.32c2.6-.05,4.8-.095,6.391-.133.795-.019,1.437-.038,1.9-.052s.728-.022.856-.037a.385.385,0,0,0,.249-.139.655.655,0,0,0,.105-.173,2.211,2.211,0,0,0,.123-.434,13.483,13.483,0,0,0,.175-1.443c.1-1.221.17-2.945.216-5.012.091-4.135.086-9.638.04-15.17s-.136-11.091-.213-15.332c-.039-2.121-.073-3.91-.1-5.2s-.043-2.11-.043-2.217a.334.334,0,0,0-.175-.292.72.72,0,0,0-.182-.077,3.452,3.452,0,0,0-.486-.1c-.405-.059-.983-.114-1.716-.164-1.465-.1-3.551-.185-6.052-.258-5-.147-11.668-.243-18.334-.308-13.333-.13-26.666-.133-26.666-.133Zm.363.576c.2,0,13.229,0,26.459.133,6.665.065,13.33.161,18.325.308,2.5.073,4.577.159,6.028.258.725.05,1.3.1,1.672.157a3.048,3.048,0,0,1,.354.071c0,.231.016.86.04,2.054.026,1.293.063,3.086.1,5.206.077,4.24.163,9.795.209,15.323s.054,11.03-.037,15.153c-.045,2.062-.117,3.781-.216,4.979a13.117,13.117,0,0,1-.169,1.376,1.91,1.91,0,0,1-.077.29c-.093.006-.3.017-.708.03-.463.014-1.106.034-1.9.053-1.588.038-3.786.082-6.389.132-5.206.1-12.034.218-18.857.32s-13.644.19-18.83.234c-2.593.022-4.779.035-6.351.031-.786,0-1.419-.008-1.872-.018-.227,0-.408-.008-.539-.016-.074,0-.079-.006-.117-.009a2,2,0,0,1-.074-.3c-.054-.3-.1-.757-.142-1.337-.079-1.159-.124-2.818-.135-4.815-.023-3.994.088-9.348.33-14.846s.614-11.14,1.111-15.708c.248-2.284.529-4.3.837-5.89a12.031,12.031,0,0,1,.945-3.171Zm2.371,3.735-.028.27s-.41,4.1-.727,8.328c-.158,2.116-.3,4.264-.345,5.955-.025.846-.027,1.575,0,2.136a6.625,6.625,0,0,0,.068.714,1.058,1.058,0,0,0,.161.49.765.765,0,0,0,.52.28,5.745,5.745,0,0,0,.8.13c.639.067,1.494.1,2.5.114,2.012.023,4.621-.051,7.232-.182s5.221-.316,7.23-.517c1-.1,1.857-.2,2.49-.308.317-.052.575-.1.779-.157a.875.875,0,0,0,.49-.218.777.777,0,0,0,.2-.437,5.257,5.257,0,0,0,.1-.628c.052-.5.084-1.15.1-1.912.035-1.524.013-3.477-.034-5.407-.093-3.859-.28-7.623-.28-7.623l-.013-.265Zm.521.594,20.163.727c.013.248.181,3.627.271,7.343.046,1.925.068,3.876.033,5.382-.017.753-.049,1.394-.1,1.862a5.011,5.011,0,0,1-.083.558.819.819,0,0,1-.052.15,1.35,1.35,0,0,1-.222.084c-.173.045-.421.094-.727.144-.612.1-1.459.2-2.457.3-1.995.2-4.6.387-7.2.517s-5.2.2-7.2.178c-1-.011-1.842-.047-2.448-.111a5.29,5.29,0,0,1-.711-.114,1.061,1.061,0,0,1-.2-.08,1.239,1.239,0,0,1-.058-.225,6.169,6.169,0,0,1-.059-.65c-.026-.535-.024-1.253,0-2.09.049-1.674.183-3.818.341-5.93.306-4.086.677-7.8.7-8.048Zm25.073.154-.016.28s-.187,3.764-.28,7.623c-.047,1.929-.069,3.883-.034,5.407.017.762.049,1.415.1,1.912a5.192,5.192,0,0,0,.1.628.773.773,0,0,0,.2.437.811.811,0,0,0,.5.209c.2.044.465.081.78.117.63.071,1.477.128,2.475.173,2,.089,4.584.126,7.177.108s5.186-.092,7.183-.227c1-.068,1.847-.152,2.481-.253a6.034,6.034,0,0,0,.789-.169.8.8,0,0,0,.505-.289,1.085,1.085,0,0,0,.166-.453,5.365,5.365,0,0,0,.077-.635c.036-.493.042-1.126.031-1.853-.021-1.455-.119-3.287-.24-5.086-.242-3.6-.576-7.066-.576-7.066l-.024-.253-.255-.006Zm.552.591,20.31.582c.023.238.322,3.337.555,6.8.121,1.794.219,3.62.24,5.055.01.718,0,1.337-.034,1.8a4.948,4.948,0,0,1-.068.566,1.009,1.009,0,0,1-.062.209,1.086,1.086,0,0,1-.209.1,5.712,5.712,0,0,1-.711.148c-.6.1-1.443.179-2.432.246-1.978.134-4.562.21-7.146.228s-5.169-.02-7.149-.108c-.99-.044-1.829-.1-2.436-.169-.3-.034-.549-.07-.72-.108a1.258,1.258,0,0,1-.212-.07.793.793,0,0,1-.05-.145,4.831,4.831,0,0,1-.083-.557c-.049-.468-.081-1.11-.1-1.863-.035-1.507-.013-3.457.033-5.382.09-3.706.258-7.06.271-7.324Zm-4.48,19.511-.283.015-22.469,1.206,0,.275s.036,3.761.092,7.653c.028,1.946.061,3.925.1,5.484.017.779.037,1.454.055,1.967s.03.847.055,1.022a.828.828,0,0,0,.419.56,3.149,3.149,0,0,0,.791.338,15.071,15.071,0,0,0,2.531.465,71.842,71.842,0,0,0,7.476.354c2.716.009,5.443-.08,7.546-.237,1.051-.078,1.946-.173,2.611-.283a6.517,6.517,0,0,0,.822-.182.827.827,0,0,0,.521-.3,1.1,1.1,0,0,0,.166-.486,7.124,7.124,0,0,0,.086-.727c.044-.572.064-1.319.068-2.186.007-1.732-.055-3.937-.138-6.109-.168-4.343-.428-8.553-.428-8.553Zm-.539.6c.016.265.251,4.067.413,8.258.084,2.167.142,4.364.135,6.081,0,.858-.023,1.6-.064,2.146-.021.274-.047.5-.077.665a1.512,1.512,0,0,1-.064.239,1.355,1.355,0,0,1-.225.1,6.294,6.294,0,0,1-.751.16c-.635.105-1.518.2-2.559.28-2.082.155-4.8.243-7.5.234a71.378,71.378,0,0,1-7.407-.351,14.794,14.794,0,0,1-2.429-.44,2.713,2.713,0,0,1-.647-.275c-.135-.087-.161-.148-.163-.16-.013-.086-.035-.452-.053-.961s-.035-1.18-.052-1.958c-.035-1.556-.067-3.535-.1-5.481-.054-3.751-.087-7.122-.09-7.377Zm4.467.595-.016.283s-.187,3.761-.28,7.62c-.047,1.93-.069,3.883-.034,5.406.017.762.049,1.418.1,1.915a5.128,5.128,0,0,0,.1.625.78.78,0,0,0,.2.44.808.808,0,0,0,.5.207c.2.044.465.084.78.12.63.071,1.477.125,2.475.169,2,.089,4.584.126,7.177.108s5.186-.092,7.183-.228c1-.068,1.847-.151,2.481-.252a6.077,6.077,0,0,0,.789-.167.808.808,0,0,0,.505-.292,1.068,1.068,0,0,0,.166-.449,5.429,5.429,0,0,0,.077-.638c.036-.493.042-1.123.031-1.85-.021-1.455-.119-3.29-.24-5.09-.242-3.6-.576-7.063-.576-7.063l-.024-.253-.255-.009Zm.552.594,20.31.579c.023.235.322,3.335.555,6.795.121,1.794.219,3.62.24,5.055.01.718,0,1.34-.034,1.8a4.967,4.967,0,0,1-.068.567.994.994,0,0,1-.06.205,1.13,1.13,0,0,1-.211.1,5.635,5.635,0,0,1-.711.151c-.6.1-1.443.179-2.432.246-1.978.134-4.562.206-7.146.225s-5.169-.016-7.149-.1c-.99-.044-1.828-.1-2.436-.169-.3-.034-.549-.07-.72-.107a1.128,1.128,0,0,1-.212-.073.752.752,0,0,1-.05-.143,4.824,4.824,0,0,1-.083-.557c-.049-.468-.081-1.112-.1-1.865-.035-1.507-.013-3.454.033-5.379.09-3.706.258-7.06.271-7.325Z" transform="translate(-213.247 -126.593)" fill="#add3d8"/>
  <path id="Path_6592" data-name="Path 6592" d="M342.04,230.147a.359.359,0,0,0-.361.357v1.019a.358.358,0,0,0,.717,0V230.5A.358.358,0,0,0,342.04,230.147Zm-2.053,2.049a.358.358,0,0,0,0,.717h1.019a.358.358,0,0,0,0-.717Zm3.083,0a.358.358,0,0,0,0,.717h1.019a.358.358,0,0,0,0-.717Zm-1.03,1.034a.358.358,0,0,0-.361.356V234.6a.358.358,0,0,0,.717,0v-1.019A.357.357,0,0,0,342.04,233.229Z" transform="translate(-294.078 -204.659)"/>
  <path id="Path_6593" data-name="Path 6593" d="M299.963,430.054c6.642-17.837,20.028-14.07,18.375-25.211-.544-3.666-5.53-4.953-5.577-7.342-.136-6.892,4.281-9.407,4.147-16.16-3.307-19.283-24.516,1.912-16.945,19.091-2.159,5.638-2.9,37.413,0,29.622Z" transform="translate(-262.736 -309.226)" fill="#add3d8"/>
  <g id="Group_21760" data-name="Group 21760" transform="translate(40.419 93.163)">
    <path id="Path_6594" data-name="Path 6594" d="M-131.46,979.633l1.566,6.038-.8,8.094a81.367,81.367,0,0,0,12.329,1.4c5.975.125,6.162-6.955,6.162-6.955l-6.214-4.355-6.267-.363Z" transform="translate(148.578 -979.633)" fill="#a0bfce"/>
    <path id="Path_6595" data-name="Path 6595" d="M-159.411,1011.33c.954,3.39,14.44,51.274,15.3,53.25.89,2.048,1.394,1.672,1.921.738.507-.9-9.106-51.968-9.87-56.026ZM-184.1,1014.7c-3.059,10.427-13.619,48.587-14.013,50.51-.456,2.228.14,2.309,1.066,1.977.843-.3,16.965-42.607,20.079-50.18a45.786,45.786,0,0,1-7.132-2.308Zm13.788,3.018c.158,3.141,2.392,47.508,2.777,49.419.4,1.979.969,1.792,1.689,1.133.692-.633,2.917-46.7,3.093-50.361Z" transform="translate(198.94 -1001.993)" fill="#f09b00"/>
    <path id="Path_6596" data-name="Path 6596" d="M-97.321,1028.345l.031.328c.148,1.57,1.271,13.448,2.414,25.172.572,5.862,1.15,11.683,1.613,16.162.232,2.239.434,4.142.594,5.546.08.7.149,1.28.206,1.713s.1.709.135.868a5.206,5.206,0,0,0,.406,1.17,1.177,1.177,0,0,0,.557.587.836.836,0,0,0,.69-.053,2.417,2.417,0,0,0,.563-.427.329.329,0,0,0,.108-.187,1.322,1.322,0,0,0,.037-.162c.023-.121.042-.274.062-.465.039-.382.076-.913.111-1.579.069-1.332.132-3.2.188-5.434.112-4.468.2-10.4.265-16.427.134-12.055.187-24.49.194-26.321v-.284Zm.634.6,6.961.178c-.008,2.037-.059,14.1-.191,26.024-.067,6.026-.153,11.958-.265,16.42-.056,2.231-.119,4.1-.188,5.418-.034.661-.068,1.187-.1,1.551-.018.182-.038.324-.055.415-.006.031-.011.045-.015.063a2.029,2.029,0,0,1-.385.3c-.112.057-.161.057-.216.034a.66.66,0,0,1-.268-.318,4.765,4.765,0,0,1-.354-1.036c-.02-.08-.07-.377-.126-.805s-.123-1-.2-1.7c-.16-1.4-.363-3.3-.594-5.54-.463-4.476-1.042-10.3-1.613-16.161-1.128-11.57-2.212-23.028-2.383-24.841Zm18.756-4.91-.2.064-6.924,2.121.08.244s3.872,12.02,7.857,24.272c1.992,6.126,4.013,12.309,5.591,17.081.789,2.386,1.467,4.419,1.977,5.915.255.748.468,1.363.631,1.821s.272.747.342.895a5.6,5.6,0,0,0,.622,1.068,1,1,0,0,0,.594.421.643.643,0,0,0,.551-.223,2.457,2.457,0,0,0,.382-.573.332.332,0,0,0,.04-.195,1.7,1.7,0,0,0-.006-.177c-.01-.135-.03-.31-.062-.527-.064-.434-.172-1.034-.314-1.786-.284-1.5-.71-3.6-1.238-6.092-1.055-4.982-2.5-11.542-3.966-18.075-2.923-13.066-5.9-26.023-5.9-26.023Zm-.3.59c.053.229,2.953,12.839,5.85,25.786,1.462,6.532,2.909,13.09,3.962,18.068.527,2.489.955,4.583,1.238,6.078.141.747.246,1.348.308,1.767.031.21.05.376.058.488,0,.051.006.086.006.109a2.111,2.111,0,0,1-.286.435c-.091.094-.146.116-.215.106s-.186-.076-.342-.272a5.217,5.217,0,0,1-.563-.972c-.041-.087-.161-.4-.323-.849s-.374-1.064-.628-1.81c-.509-1.493-1.188-3.527-1.977-5.912-1.578-4.77-3.6-10.955-5.588-17.081-3.944-12.127-7.7-23.78-7.777-24.021Z" transform="translate(122.842 -1013.106)"/>
    <path id="Path_6597" data-name="Path 6597" d="M-142.976,988.945l-22.422.6-.082.14a7.543,7.543,0,0,0-1.125,3.395,4.726,4.726,0,0,0,.747,2.793c1.036,1.633,3,2.818,5.41,3.818h0a34.741,34.741,0,0,0,24.04.819c7.59-2.678,10.2-5.292,10.9-7.406a3.679,3.679,0,0,0-.695-3.566l-.076-.081Zm0,.654,16.452.5a2.694,2.694,0,0,1,.488,2.769c-.578,1.76-3.009,4.355-10.533,7.01a34.294,34.294,0,0,1-23.681-.808h0c-2.365-.982-4.233-2.157-5.141-3.588a3.948,3.948,0,0,1-.637-2.373,6.885,6.885,0,0,1,.981-2.922Z" transform="translate(175.077 -986.653)"/>
    <ellipse id="Ellipse_516" data-name="Ellipse 516" cx="19.736" cy="3.336" rx="19.736" ry="3.336" transform="translate(9.566 0.074)"/>
    <path id="Path_6598" data-name="Path 6598" d="M-189.426,1023.277l-.09.4s-2.98,12.958-5.9,26.024c-1.462,6.533-2.91,13.093-3.965,18.076-.527,2.491-.957,4.588-1.241,6.092-.142.752-.248,1.355-.312,1.791-.032.218-.054.393-.064.532a1.768,1.768,0,0,0-.006.189.391.391,0,0,0,.053.237,2.518,2.518,0,0,0,.4.593.725.725,0,0,0,.615.248,1.072,1.072,0,0,0,.642-.452,5.681,5.681,0,0,0,.634-1.086c.074-.156.176-.431.333-.869s.36-1.025.6-1.739c.487-1.428,1.136-3.368,1.891-5.65,1.511-4.563,3.448-10.492,5.378-16.424,3.86-11.864,7.687-23.734,7.995-24.687l.125-.385-.354-.057c-2.561-.408-6.41-2.643-6.41-2.643Zm.379.945a23.251,23.251,0,0,0,5.928,2.443c-.4,1.24-4.076,12.644-7.881,24.34-1.93,5.931-3.868,11.86-5.378,16.421-.755,2.28-1.4,4.219-1.889,5.643-.243.712-.446,1.3-.6,1.729s-.27.73-.305.8a5.191,5.191,0,0,1-.553.956c-.149.188-.252.237-.294.243s-.073,0-.153-.083a2.088,2.088,0,0,1-.257-.4c0-.021,0-.038,0-.074.008-.108.028-.272.059-.48.061-.417.166-1.015.307-1.763.282-1.494.71-3.587,1.237-6.075,1.054-4.977,2.5-11.535,3.962-18.067,2.88-12.873,5.73-25.271,5.815-25.641Z" transform="translate(201.008 -1012.535)"/>
  </g>
  <path id="Path_6599" data-name="Path 6599" d="M178.645,479.647c-6.2-1.651-25.248-2.881-24-11.792.411-2.932,6.978-4.207,6.834-6.1-.414-5.467-6.547-7.233-6.953-12.59,2.761-15.446,33,.26,24.348,14.257,3.38,4.356,10.182,13.853-.23,16.227Z" transform="translate(-154.527 -361.119)" fill="#add3d8"/>
  <path id="Path_6600" data-name="Path 6600" d="M229.651,399.875h-.024a.288.288,0,0,0-.228.148c-3.353,5.972-7.12,17.584-10.068,27.731s-5.064,18.814-5.064,18.814a.288.288,0,1,0,.56.136s2.115-8.657,5.059-18.79,6.729-21.757,10.016-27.611a.29.29,0,0,0-.25-.428Zm-37.542,16.387a.288.288,0,0,0-.154.529c6.557,4.273,11.56,11.707,14.908,18.078a81.452,81.452,0,0,1,5.046,11.666.288.288,0,0,0,.548-.178,82.03,82.03,0,0,0-5.083-11.755c-3.372-6.417-8.4-13.927-15.1-18.294a.289.289,0,0,0-.16-.046Zm42.151,8.342h-.017a.288.288,0,0,0-.108.031c-10.135,5.295-14.517,19.289-14.517,19.289a.289.289,0,1,0,.551.175s4.406-13.824,14.23-18.956a.286.286,0,0,0-.14-.54Z" transform="translate(-182.644 -328.977)" fill="#fff"/>
  <path id="Path_6601" data-name="Path 6601" d="M221.125,414.457c-5.6-3.552-24.012-10.013-20.012-20.012,1.316-3.29,8.19-3.032,8.637-5.266,1.289-6.446-4.212-10.115-2.949-16.431.713-3.567,5.844-2.574,6.53-4.634.8-2.412-.657-14.466,6.952-9.9a9.373,9.373,0,0,1,3.792,4.845c1.379,3.447-.265,7.421.843,10.743,1.363,4.089,5.148,6.092,4.424,11.165-.4,2.827-3.858,8.017-2.949,10.744C228.372,401.651,232.133,414.457,221.125,414.457Z" transform="translate(-189.221 -297.043)" fill="#2bb65e"/>
  <path id="Path_6602" data-name="Path 6602" d="M265.576,432.087a.283.283,0,0,0-.052.009.288.288,0,0,0-.2.354,87.834,87.834,0,0,1,.548,41.958.288.288,0,1,0,.554.154,88.4,88.4,0,0,0-.548-42.263A.288.288,0,0,0,265.576,432.087Z" transform="translate(-238.047 -352.991)" fill="#fff"/>
  <path id="Path_6603" data-name="Path 6603" d="M207.151,356.5a2.948,2.948,0,0,0-1.9.3,4.826,4.826,0,0,0-1.983,3.233,26.066,26.066,0,0,0-.579,4.412,18.571,18.571,0,0,1-.342,3.134,1.665,1.665,0,0,1-1.05.918c-.555.238-1.277.419-2.017.65a7.053,7.053,0,0,0-2.137.988,3.387,3.387,0,0,0-1.336,2.112c-.649,3.247.446,5.823,1.5,8.334s2.074,4.962,1.447,8.1c-.084.418-.5.773-1.191,1.1a24.453,24.453,0,0,1-2.608.921,15.544,15.544,0,0,0-2.854,1.158,4.227,4.227,0,0,0-1.967,2.038,7.657,7.657,0,0,0,.671,7.1,19.9,19.9,0,0,0,5.837,5.665c4.839,3.334,10.869,5.853,13.618,7.6l.068.043h.086c2.808,0,4.732-.828,5.958-2.189a8.216,8.216,0,0,0,1.832-5.228c.192-4.025-1.258-8.73-2.251-11.709-.4-1.208.18-3.156.976-5.136a29.368,29.368,0,0,0,1.986-5.477,8.6,8.6,0,0,0-1.472-6.142,24.361,24.361,0,0,1-2.965-5.154,14.262,14.262,0,0,1-.3-5.219,12.757,12.757,0,0,0-.545-5.539,9.678,9.678,0,0,0-3.91-4.988,7.121,7.121,0,0,0-2.568-1.019Zm-.062.566a6.619,6.619,0,0,1,2.334.948,9.074,9.074,0,0,1,3.673,4.7,12.32,12.32,0,0,1,.5,5.3,14.577,14.577,0,0,0,.336,5.431,24.286,24.286,0,0,0,3.023,5.277,7.94,7.94,0,0,1,1.389,5.757,30.884,30.884,0,0,1-1.952,5.342c-.805,2-1.495,4.014-.988,5.533.988,2.964,2.41,7.636,2.226,11.5a7.668,7.668,0,0,1-1.687,4.871c-1.095,1.216-2.816,1.979-5.474,1.992-2.882-1.806-8.773-4.273-13.5-7.531a19.439,19.439,0,0,1-5.671-5.49,7.01,7.01,0,0,1-.631-6.589,3.671,3.671,0,0,1,1.718-1.755,15.19,15.19,0,0,1,2.749-1.108,24.142,24.142,0,0,0,2.672-.948c.759-.356,1.372-.807,1.512-1.506.662-3.311-.424-5.92-1.481-8.433s-2.079-4.93-1.466-8a2.755,2.755,0,0,1,1.115-1.764,6.59,6.59,0,0,1,1.964-.9c.718-.224,1.45-.4,2.072-.671a2.235,2.235,0,0,0,1.37-1.265,16.551,16.551,0,0,0,.369-3.279,25.727,25.727,0,0,1,.56-4.31,4.363,4.363,0,0,1,1.706-2.869A2.378,2.378,0,0,1,207.089,357.067Z" transform="translate(-180.933 -296.484)" fill="#0f0603"/>
  <path id="Path_6604" data-name="Path 6604" d="M240.488,579.083c.159,7.2,10.319,7.355,3.651,19.028a28.019,28.019,0,0,0-2.7,22.272h18.731a28.019,28.019,0,0,0-2.7-22.272c-6.667-11.672,3.493-11.832,3.651-19.028H240.488Z" transform="translate(-219.165 -461.922)" fill="#f09b00"/>
  <path id="Path_6605" data-name="Path 6605" d="M218.993,579.2l.006.29a7.621,7.621,0,0,0,1.629,4.464c.89,1.218,1.967,2.264,2.811,3.419a6.743,6.743,0,0,1,1.475,4.079c.017,1.674-.575,3.789-2.226,6.636a27.572,27.572,0,0,0-2.716,22.188l.068.183h19.129l.071-.183a27.58,27.58,0,0,0-2.719-22.188c-1.651-2.848-2.243-4.963-2.226-6.636a6.745,6.745,0,0,1,1.478-4.079c.844-1.155,1.918-2.2,2.808-3.419a7.623,7.623,0,0,0,1.632-4.464l.007-.29H218.993Zm.64.571h19.945a7.151,7.151,0,0,1-1.462,3.85c-.851,1.165-1.928,2.208-2.811,3.416a7.367,7.367,0,0,0-1.586,4.409c-.018,1.812.62,4.024,2.3,6.927a26.664,26.664,0,0,1,2.731,21.516h-18.3a26.664,26.664,0,0,1,2.731-21.516c1.683-2.9,2.321-5.115,2.3-6.927a7.367,7.367,0,0,0-1.586-4.409c-.883-1.208-1.957-2.251-2.808-3.416a7.151,7.151,0,0,1-1.462-3.85Z" transform="translate(-202.968 -462.009)" fill="#2bb65e"/>
  <path id="Path_6606" data-name="Path 6606" d="M399.754,540.282l4.706,1.2.488,3.128s-2.5.484-2.681.466-3.054-.726-3.054-.726Z" transform="translate(-338.998 -434.515)" fill="#fff"/>
  <path id="Path_6607" data-name="Path 6607" d="M560.092,672.557s4.355-5.365,4.541-5.264,8.675,3.338,8.675,3.338C597.076,692.379,561.164,679.79,560.092,672.557Z" transform="translate(-460.288 -528.419)" fill="#2bb65e"/>
  <path id="Path_6608" data-name="Path 6608" d="M545.909,668.628l-.01.089c-.053.57.343,1.1.946,1.682a16.359,16.359,0,0,0,2.492,1.856,70.06,70.06,0,0,0,7.625,4.023c2.791,1.292,5.6,2.452,7.747,3.231,1.073.389,1.979.682,2.642.851a5.046,5.046,0,0,0,.816.156,1.141,1.141,0,0,0,.3-.01.4.4,0,0,0,.308-.232.642.642,0,0,0-.026-.512,4.113,4.113,0,0,0-.254-.583c-.229-.447-.572-1.016-.992-1.668-.84-1.305-1.992-2.946-3.158-4.556-2.332-3.219-4.713-6.312-4.713-6.312l-.053-.064-.075-.029s-2.123-.809-4.269-1.631c-1.073-.411-2.149-.825-2.971-1.142-.411-.159-.757-.3-1.006-.393-.124-.049-.224-.086-.295-.115s-.15-.067-.1-.041l-.065-.029s-.041-.007-.059-.008a.311.311,0,0,0-.084.007.307.307,0,0,0-.092.034.547.547,0,0,0-.1.065,2.324,2.324,0,0,0-.191.177c-.145.145-.329.349-.548.6-.438.493-1,1.155-1.558,1.82-1.114,1.331-2.207,2.673-2.207,2.673Zm.593.186c.085-.105,1.044-1.284,2.108-2.555.555-.663,1.117-1.323,1.547-1.808.215-.242.4-.442.528-.571.036-.036.052-.049.078-.073l.285.113c.251.1.6.232,1.01.391.823.318,1.9.733,2.974,1.144,2.106.807,4.114,1.573,4.19,1.6.047.061,2.354,3.058,4.656,6.236,1.163,1.6,2.312,3.241,3.141,4.529.415.644.751,1.2.964,1.617a3.783,3.783,0,0,1,.221.5,4.82,4.82,0,0,1-.71-.138c-.629-.16-1.525-.45-2.587-.836-2.125-.771-4.925-1.927-7.7-3.213a69.729,69.729,0,0,1-7.559-3.984,15.981,15.981,0,0,1-2.4-1.787,1.991,1.991,0,0,1-.741-1.17Z" transform="translate(-449.584 -525.328)"/>
  <g id="Group_21761" data-name="Group 21761" transform="translate(96.36 141.914)">
    <path id="Path_6609" data-name="Path 6609" d="M771.95,867.115c-.3,3.195,21.914,12.4,22.325,11.419.11-.261-.5-1.347-1.438-2.782a68.49,68.49,0,0,1-19.917-9.814C772.588,866.344,771.95,867.115,771.95,867.115Z" transform="translate(-771.705 -865.615)" fill="#fff"/>
    <path id="Path_6610" data-name="Path 6610" d="M772.136,864.624l-.14.173c-.331.4-.969,1.175-.969,1.175l-.048.056-.008.074c-.051.541.331,1.068.93,1.642a16.355,16.355,0,0,0,2.486,1.851A70.035,70.035,0,0,0,782,873.613c2.789,1.292,5.6,2.452,7.745,3.23,1.072.389,1.976.683,2.636.851a5.044,5.044,0,0,0,.808.153.989.989,0,0,0,.285-.008.36.36,0,0,0,.273-.2.642.642,0,0,0-.041-.515,4.855,4.855,0,0,0-.293-.64c-.263-.5-.653-1.13-1.124-1.851l-.046-.071-.084-.026a68.273,68.273,0,0,1-19.845-9.777Zm.094.637a68.235,68.235,0,0,0,19.7,9.7c.445.683.822,1.292,1.063,1.746a4.549,4.549,0,0,1,.265.576c.027.078.025.064.028.094a.451.451,0,0,1-.061,0,4.871,4.871,0,0,1-.727-.14c-.632-.161-1.529-.45-2.593-.836-2.127-.772-4.927-1.929-7.7-3.215a69.723,69.723,0,0,1-7.564-3.99,16.028,16.028,0,0,1-2.412-1.792,2,2,0,0,1-.76-1.219C771.545,866.091,771.919,865.641,772.231,865.261Z" transform="translate(-770.966 -864.624)"/>
  </g>
  <g id="Group_21762" data-name="Group 21762" transform="translate(91.407 135.305) rotate(-61.467)">
    <path id="Path_6611" data-name="Path 6611" d="M0,9.342,5.944,0,9.838,7.877,1.8,17.965Z" transform="translate(1.562 0.583)" fill="#fff"/>
    <path id="Path_6612" data-name="Path 6612" d="M1.446,0,0,1.03,2.11,4.835l2.115.636L9.047,3.83,7.6.4Z" transform="translate(4.807 5.758) rotate(61.467)" fill="#2bb65e"/>
    <path id="Path_6613" data-name="Path 6613" d="M6.281,0,0,9.871l.025.114,1.924,9.224L10.48,8.5ZM6.216,1.167,9.8,8.424,2.26,17.891.61,9.985Z" transform="translate(1.257 0)"/>
  </g>
  <path id="Path_6614" data-name="Path 6614" d="M391.834,551.934s6.794,1.264,6.794,1.475,1.211,9.216,1.211,9.216c-7.754,31.27-13.848-6.293-8-10.691Z" transform="translate(-331.682 -442.624)" fill="#2bb65e"/>
  <path id="Path_6615" data-name="Path 6615" d="M390.181,537.887l-.083.034c-.526.226-.805.829-1.025,1.635a16.35,16.35,0,0,0-.44,3.076,70.083,70.083,0,0,0,.108,8.621c.2,3.069.521,6.092.862,8.35.17,1.129.346,2.065.514,2.728a5.114,5.114,0,0,0,.252.791,1.036,1.036,0,0,0,.154.259.406.406,0,0,0,.351.16.644.644,0,0,0,.437-.268,4.146,4.146,0,0,0,.391-.5c.283-.415.619-.988.991-1.669.745-1.362,1.637-3.158,2.494-4.951,1.714-3.586,3.294-7.155,3.294-7.155l.031-.077-.009-.08s-.3-2.252-.607-4.529c-.151-1.139-.3-2.283-.416-3.156-.057-.437-.1-.806-.135-1.071-.016-.133-.031-.238-.04-.314s-.012-.163-.012-.108l-.007-.071s-.014-.039-.022-.055a.284.284,0,0,0-.046-.071.318.318,0,0,0-.074-.065.571.571,0,0,0-.1-.055,2.349,2.349,0,0,0-.246-.083c-.2-.058-.464-.122-.785-.2-.642-.15-1.492-.328-2.343-.5-1.7-.343-3.4-.662-3.4-.662Zm.12.61c.133.025,1.626.3,3.251.631.848.171,1.7.349,2.328.5.316.073.579.139.754.191.048.014.068.023.1.034.009.078.021.177.037.3.033.267.082.637.139,1.075.114.875.264,2.02.416,3.159.3,2.236.583,4.365.594,4.446-.031.07-1.562,3.528-3.254,7.069-.855,1.788-1.743,3.579-2.478,4.923-.368.672-.7,1.234-.961,1.619a3.768,3.768,0,0,1-.336.434,4.8,4.8,0,0,1-.219-.69c-.16-.629-.333-1.555-.5-2.672-.337-2.236-.659-5.247-.856-8.3a69.728,69.728,0,0,1-.111-8.544,15.971,15.971,0,0,1,.422-2.965,1.99,1.99,0,0,1,.674-1.21Z" transform="translate(-330.954 -432.096)"/>
  <g id="Group_21763" data-name="Group 21763" transform="translate(57.64 105.842)">
    <path id="Path_6616" data-name="Path 6616" d="M615.966,724.081c-2.949,1.264-.422,25.173.631,25.068.282-.028.944-1.083,1.757-2.592a68.492,68.492,0,0,1-.892-22.186c-.514-.1-1.5-.29-1.5-.29Z" transform="translate(-614.346 -723.833)" fill="#fff"/>
    <path id="Path_6617" data-name="Path 6617" d="M615.212,723.073l-.069.028c-.5.214-.779.8-1,1.6a16.324,16.324,0,0,0-.438,3.067,70.03,70.03,0,0,0,.107,8.615c.2,3.068.521,6.091.862,8.347.17,1.128.345,2.063.512,2.723a5.051,5.051,0,0,0,.25.783,1,1,0,0,0,.145.247.358.358,0,0,0,.308.143.644.644,0,0,0,.433-.283,4.869,4.869,0,0,0,.421-.563c.31-.467.68-1.113,1.089-1.871l.043-.076-.018-.084a68.29,68.29,0,0,1-.89-22.106l.028-.222-.219-.043c-.513-.1-1.5-.288-1.5-.288Zm.1.5,1.175.227a68.221,68.221,0,0,0,.892,21.943c-.388.717-.746,1.34-1.03,1.769a4.559,4.559,0,0,1-.377.508c-.055.061-.043.051-.069.069a.535.535,0,0,1-.028-.051,4.774,4.774,0,0,1-.224-.706c-.161-.632-.334-1.558-.5-2.677-.338-2.237-.66-5.252-.857-8.306a69.726,69.726,0,0,1-.109-8.551,16.011,16.011,0,0,1,.423-2.975,2,2,0,0,1,.706-1.249Z" transform="translate(-613.618 -723.073)"/>
  </g>
  <g id="Group_21764" data-name="Group 21764" transform="translate(65.141 104.396)">
    <path id="Path_6618" data-name="Path 6618" d="M-101.621,920.014l5.387-2.258,1.154,7.671-5.288,2.085Z" transform="translate(101.941 -917.348)" fill="#fff"/>
    <path id="Path_6619" data-name="Path 6619" d="M-96.986,916.1l-5.936,2.488.037.225,1.312,7.851,5.831-2.3Zm-.459.819L-96.379,924l-4.744,1.872-1.158-6.927Z" transform="translate(102.922 -916.099)"/>
  </g>
  <path id="Path_6620" data-name="Path 6620" d="M380.133,440.491s.148,3.941,2.36,5.942,22.334,14.531,22.334,14.531l9.533,27.855s15.342-6.7,16.087-7.3-15.491-28.3-16.236-28.9-17.6-21.883-17.6-21.883c-7.406.761-11.772,5.474-16.474,9.751Z" transform="translate(-324.618 -350.091)" fill="#2bb65e"/>
  <path id="Path_6621" data-name="Path 6621" d="M480.638,533.021l-15.183,2.736c2.158,1.356,3.693,2.313,3.693,2.313l3.271,9.557,9.559-12.391C481.467,534.381,481.06,533.713,480.638,533.021Z" transform="translate(-388.94 -428.838)" stroke="#000" stroke-width="0.265"/>
  <path id="Path_6622" data-name="Path 6622" d="M387.646,440.72c-3.219,1.941-5.867,4.6-8.6,7.083l-.1.09,0,.132s.108,4.022,2.454,6.145a53.374,53.374,0,0,0,4.458,3.14c2.2,1.458,4.923,3.213,7.577,4.9,5.264,3.355,10.172,6.41,10.255,6.462l9.6,28.054.287-.126s3.837-1.676,7.767-3.426c1.965-.875,3.951-1.769,5.5-2.482.773-.357,1.435-.669,1.93-.911.247-.121.452-.223.61-.308a2.227,2.227,0,0,0,.348-.209.35.35,0,0,0,.126-.228.542.542,0,0,0,0-.166,1.766,1.766,0,0,0-.083-.336,10.63,10.63,0,0,0-.415-1c-.379-.826-.956-1.962-1.672-3.31-1.432-2.7-3.416-6.233-5.446-9.772s-4.107-7.08-5.723-9.773c-.808-1.346-1.5-2.481-2.016-3.3-.258-.409-.472-.739-.634-.979-.081-.12-.149-.216-.206-.292a.832.832,0,0,0-.164-.188c.013.01-.121-.122-.283-.308s-.381-.445-.647-.763c-.531-.637-1.251-1.516-2.094-2.555-1.684-2.078-3.859-4.793-6.013-7.491-1.248-1.564-1.49-1.872-2.47-3.105l-.445.365c.957,1.2,1.219,1.538,2.465,3.1,2.154,2.7,4.33,5.416,6.016,7.5.843,1.04,1.563,1.921,2.1,2.562.267.32.489.581.656.772a3.03,3.03,0,0,0,.357.379c-.033-.027.017.02.065.083s.112.156.191.271c.156.231.366.557.621.964.512.813,1.2,1.944,2.01,3.288,1.614,2.688,3.689,6.227,5.718,9.763s4.011,7.072,5.437,9.757c.713,1.343,1.29,2.473,1.659,3.279a10.031,10.031,0,0,1,.388.942,1.34,1.34,0,0,1,.043.16c-.046.028-.067.044-.157.092-.148.079-.348.183-.591.3-.487.239-1.147.546-1.918.9-1.541.711-3.529,1.606-5.493,2.481-3.783,1.685-7.208,3.181-7.476,3.3L404.174,468.3l-.086-.056s-5.03-3.13-10.336-6.511c-2.653-1.691-5.375-3.445-7.57-4.9s-3.885-2.632-4.387-3.087c-2.017-1.825-2.232-5.4-2.244-5.616,2.75-2.508,5.373-5.117,8.542-6.993Z" transform="translate(-323.726 -357.615)"/>
  <path id="Path_6623" data-name="Path 6623" d="M436.55,422.666l-10.846.407-4.319,2.212.935.764a18.3,18.3,0,0,1,5.385-1.4s8.243,12.319,6.031,8.066c-.233-.447.249-.631.471-.3,1,1.478,1.648,2.11,2.8,3.549l15.065,1.757L422.439,447.3a27.79,27.79,0,0,0,5.793,16.115s27.288-16.062,38.132-22.933c4.006-2.846,3.723-4.6-1.479-9.93-.737-.737-21.174-7.686-21.174-7.686Z" transform="translate(-355.719 -346.075)" fill="#2bb65e"/>
  <path id="Path_6624" data-name="Path 6624" d="M405.45,422.666l-10.846.407-4.319,2.212.935.764.028-.01c-4.407,1.877-7.675,5.235-11.117,8.367,0,0,.148,3.941,2.36,5.943.24.217.694.56,1.308,1l28.438-18.488Z" transform="translate(-324.614 -346.68)" fill="#5a7983"/>
  <path id="Path_6625" data-name="Path 6625" d="M438.863,421.493l-5.693.214.166.569,5.54-.209,7.108.2c.041.014,5.088,1.73,10.266,3.551,2.6.914,5.222,1.852,7.239,2.606,1.008.377,1.865.708,2.489.966.312.129.566.24.748.327s.31.183.279.152h0c2.59,2.653,3.912,4.415,4.111,5.735a2.367,2.367,0,0,1-.474,1.823,8.867,8.867,0,0,1-2.12,1.933h0c-10.758,6.815-37.5,22.557-37.891,22.789a27.166,27.166,0,0,1-5.56-15.534l29.412-9.506-.05-.559-15.591-2.119.487.647L453.1,436.95l-28.636,9.256.008.216a28.1,28.1,0,0,0,5.864,16.295l.157.182.206-.122s27.283-16.059,38.14-22.938l.007-.005.007-.005a9.293,9.293,0,0,0,2.259-2.072,3.007,3.007,0,0,0,.573-2.239c-.241-1.6-1.661-3.38-4.271-6.054h0a1.4,1.4,0,0,0-.438-.263c-.2-.1-.46-.21-.777-.341-.635-.263-1.5-.6-2.507-.973-2.023-.756-4.648-1.694-7.249-2.609-5.2-1.83-10.313-3.567-10.313-3.567l-.042-.014-7.215-.2Z" transform="translate(-358.043 -345.183)" fill="#fff"/>
  <path id="Path_6626" data-name="Path 6626" d="M667.1,266.483c-2.059-6.594,6.02-10.732,7.033-4.759.441,2.6-1.247,5.8-7.36,6.724l.371-.986s4.6-.166,4.962-3.847-3.623-1.018-3.811,1.261S667.1,266.483,667.1,266.483Z" transform="translate(-540.711 -224.985)" fill="#add3d8"/>
  <path id="Path_6627" data-name="Path 6627" d="M674.732,258.3a3.549,3.549,0,0,0-3.107.388,6.272,6.272,0,0,0-2.494,7.426l.031.1.083.059a.9.9,0,0,0,.8.074,1.127,1.127,0,0,0,.551-.588,3.851,3.851,0,0,0,.293-1.312,3.9,3.9,0,0,1,1.952-2.629c.437-.22.788-.238.988-.1s.381.541.3,1.413a3.611,3.611,0,0,1-2.441,3.066,7.2,7.2,0,0,1-2.244.52l-.191.009-.613,1.623.486-.071c3.1-.47,5.12-1.523,6.308-2.826a4.964,4.964,0,0,0,1.293-4.23,3.545,3.545,0,0,0-1.992-2.922Zm-.216.533a2.94,2.94,0,0,1,1.638,2.485A4.358,4.358,0,0,1,675,265.067c-1,1.1-2.794,2.006-5.453,2.5l.117-.317a6.5,6.5,0,0,0,2.241-.517,4.247,4.247,0,0,0,2.789-3.544q.142-1.452-.536-1.937a1.52,1.52,0,0,0-1.579.049,4.235,4.235,0,0,0-2.269,3.1,3.394,3.394,0,0,1-.237,1.115c-.1.212-.193.275-.256.3a.168.168,0,0,1-.163-.015,5.667,5.667,0,0,1,2.26-6.613,2.985,2.985,0,0,1,2.6-.351Z" transform="translate(-542.12 -224.429)"/>
  <path id="Path_6628" data-name="Path 6628" d="M613.367,276.927s2.807,6.473,8.456,6.518a43.15,43.15,0,0,0,5.358-2.475c.659-.568,3.313-3.754,1.435-8.95C627.855,267.875,616.611,275.417,613.367,276.927Z" transform="translate(-500.455 -233.847)" fill="#add3d8"/>
  <path id="Path_6629" data-name="Path 6629" d="M620.511,267.1,605.8,274l.111.256s2.851,6.646,8.719,6.693h.055l.052-.022s1.161-.462,2.414-1c.626-.271,1.273-.563,1.817-.828a6.274,6.274,0,0,0,1.21-.693,7.067,7.067,0,0,0,1.915-3.414,10.544,10.544,0,0,0-1.222-7.7Zm-.059.72a9.95,9.95,0,0,1,1.09,7.026,6.721,6.721,0,0,1-1.736,3.125,7.315,7.315,0,0,1-1.087.61c-.53.258-1.173.547-1.8.816-1.207.522-2.26.944-2.324.97-5.2-.072-7.8-5.662-8-6.1Z" transform="translate(-494.753 -231.09)" fill="#2bb65e"/>
  <path id="Path_6630" data-name="Path 6630" d="M417.351,147.4s.492-7.584,9.933-8.848,11.064,8.848,11.064,8.848l-11.423,0Z" transform="translate(-352.674 -135.53)" fill="#fff"/>
  <path id="Path_6631" data-name="Path 6631" d="M439.589,143.453a1.372,1.372,0,0,0-1.2.049,2.172,2.172,0,0,0-.5.443c-.029.024,0,.013,0,.012a.583.583,0,0,1-.188-.1,1.419,1.419,0,0,0-1.213-.145,2.966,2.966,0,0,0-.622.237.287.287,0,1,0,.274.5,2.431,2.431,0,0,1,.49-.185.923.923,0,0,1,.73.052.957.957,0,0,0,.474.212.607.607,0,0,0,.422-.139c.193-.158.268-.3.425-.394a.811.811,0,0,1,.665-.025.287.287,0,1,0,.243-.52Zm5.87-3.383a3.311,3.311,0,0,0-.262.4c-.008.01-.005.01-.005.011a.574.574,0,0,1-.2-.062,1.418,1.418,0,0,0-1.216.112,2.972,2.972,0,0,0-.559.362.287.287,0,1,0,.373.437,2.463,2.463,0,0,1,.441-.283.922.922,0,0,1,.724-.1.957.957,0,0,0,.508.108.608.608,0,0,0,.384-.224,4.715,4.715,0,0,1,.333-.474.594.594,0,0,1,.091-.068q-.3-.117-.611-.214Z" transform="translate(-366.519 -136.753)" fill="#2bb65e"/>
  <path id="Path_6632" data-name="Path 6632" d="M426.3,137.391c-4.8.642-7.371,2.916-8.713,5.031a9.581,9.581,0,0,0-1.469,4.086l-.022.3h.308l9.575,0,11.761,0-.056-.333a14.023,14.023,0,0,0-2.035-5.012A9.124,9.124,0,0,0,426.3,137.391Zm.077.573a8.467,8.467,0,0,1,8.8,3.824,12.382,12.382,0,0,1,1.86,4.449H416.806a7.585,7.585,0,0,1,1.272-3.507C419.342,140.736,421.735,138.585,426.381,137.963Z" transform="translate(-351.731 -134.65)"/>
  <path id="Path_6633" data-name="Path 6633" d="M464.645,153.04a1.372,1.372,0,0,0-1.161.3,2.171,2.171,0,0,0-.4.538c-.024.029.005.012,0,.013a.583.583,0,0,1-.206-.063,1.419,1.419,0,0,0-1.216.112,2.973,2.973,0,0,0-.559.362.287.287,0,1,0,.374.436,2.438,2.438,0,0,1,.44-.283.923.923,0,0,1,.725-.1.956.956,0,0,0,.508.109.607.607,0,0,0,.383-.224,4.739,4.739,0,0,1,.333-.474.811.811,0,0,1,.645-.163.287.287,0,1,0,.129-.56Z" transform="translate(-385.585 -146.511)" fill="#2bb65e"/>
  <path id="Path_6634" data-name="Path 6634" d="M293.469,130.448a5.5,5.5,0,0,0-2.071,7.478c2.135,3.784,4.879,2.333,6.671,5.509a.969.969,0,0,0,1.323.369l2.475-1.4a.97.97,0,0,0,.369-1.324c-1.767-3.131.72-5.037-1.266-8.558a5.5,5.5,0,0,0-7.486-2.086l-.015.008Z" transform="translate(-257.18 -128.958)" fill="#f09b00"/>
  <path id="Path_6635" data-name="Path 6635" d="M314.376,154.788a.338.338,0,0,0-.22.072.3.3,0,0,0-.088.131.366.366,0,0,0-.024.149,5.916,5.916,0,0,1-.028.863c-.017.066-.018.039.02.023s.015.007-.1-.047a.813.813,0,0,0-.493-.114.454.454,0,0,0-.258.135.507.507,0,0,0-.116.229,2.864,2.864,0,0,0,.05.99c.005.04.007.03.007.03a1.2,1.2,0,0,1-.392-.049,5.869,5.869,0,0,1-.566-.192c-.086-.033-.161-.064-.227-.087-.033-.012-.065-.022-.1-.031a.3.3,0,0,0-.138-.018l-.122.034-.118.117s-.036.123-.036.124a.711.711,0,0,0,.005.079.266.266,0,0,0,.046.118,1.091,1.091,0,0,0,.095.128c.075.092.182.213.314.357.264.287.625.665.992,1.042.733.754,1.484,1.505,1.484,1.505a.289.289,0,0,0,.409-.408s-.75-.75-1.479-1.5c-.252-.259-.464-.483-.679-.711a1.291,1.291,0,0,0,.662.045.56.56,0,0,0,.334-.233.637.637,0,0,0,.078-.424,5.523,5.523,0,0,1-.051-.671.178.178,0,0,1,.051.02.675.675,0,0,0,.564.06.578.578,0,0,0,.318-.408c.167.39.341.8.538,1.3.521,1.33,1.04,2.752,1.04,2.752a.288.288,0,1,0,.542-.2s-.524-1.428-1.048-2.766c-.262-.669-.522-1.313-.723-1.755a3.715,3.715,0,0,0-.261-.506.582.582,0,0,0-.073-.09.264.264,0,0,0-.212-.1Z" transform="translate(-272.818 -147.848)" fill="#fff"/>
  <g id="Group_21765" data-name="Group 21765" transform="translate(41.935 16.632) rotate(-38.2)">
    <path id="Path_6636" data-name="Path 6636" d="M.919,0H3.265a.919.919,0,1,1,0,1.839H.919A.919.919,0,1,1,.919,0Z" transform="translate(0.346 0.347)" fill="#2bb65e"/>
    <path id="Path_6637" data-name="Path 6637" d="M1.264,0a1.266,1.266,0,0,0,0,2.531H3.61A1.271,1.271,0,0,0,4.878,1.268,1.274,1.274,0,0,0,3.61,0Zm0,.693H3.61a.567.567,0,0,1,.574.574.564.564,0,0,1-.574.571H1.264a.561.561,0,0,1-.571-.571A.564.564,0,0,1,1.264.693Z" transform="translate(0 0)" fill="#2bb65e"/>
  </g>
  <g id="Group_21766" data-name="Group 21766" transform="translate(40.076 15.755) rotate(-38.2)">
    <path id="Path_6638" data-name="Path 6638" d="M.919,0H5.1a.919.919,0,1,1,0,1.839H.919A.919.919,0,1,1,.919,0Z" transform="translate(0.346 0.347)" fill="#2bb65e"/>
    <path id="Path_6639" data-name="Path 6639" d="M1.264,0a1.266,1.266,0,0,0,0,2.531H5.448A1.271,1.271,0,0,0,6.716,1.268,1.274,1.274,0,0,0,5.448,0Zm0,.693H5.448a.567.567,0,0,1,.574.574.564.564,0,0,1-.574.571H1.264a.561.561,0,0,1-.571-.571A.564.564,0,0,1,1.264.693Z" transform="translate(0 0)" fill="#2bb65e"/>
  </g>
  <path id="Path_6640" data-name="Path 6640" d="M371.352,273.7s-14.006,6.175-14.825,6.92-5.139,16.757-5.139,16.757,1.638,1.117,9.012,1.341l-1.936,23.386s.372.819,1.043.3,8.581-10.468,31.437-11.837l-1.264-18.854,6.109-1.053s-5.477-11.27-6.214-12.007-9.269-4.424-9.269-4.424Z" transform="translate(-302.945 -235.504)" fill="#f09b00"/>
  <path id="Path_6641" data-name="Path 6641" d="M402.877,396.349l-9.936,2.464-12.256,9.071-.553,6.681s.372.819,1.043.3c.422-.328,3.716-4.389,11.8-7.7Z" transform="translate(-324.614 -327.117)" fill="#f42a1b"/>
  <path id="Path_6642" data-name="Path 6642" d="M426.376,273.7s-.874.386-2,.887c.793,2.489,2.791,7.292,6.687,8.487,5.319,1.633,7.32-2.317,6.9-5.266a18.3,18.3,0,0,0-.583-2.678c-1.145-.507-2.05-.9-2.05-.9Z" transform="translate(-357.969 -236.043)" fill="#f42a1b"/>
  <path id="Path_6643" data-name="Path 6643" d="M423.59,276.906l-.551.246a28.262,28.262,0,0,0,2.267,4.738,8.918,8.918,0,0,0,4.664,3.876c2.731.838,4.7.243,5.893-.988a5.576,5.576,0,0,0,1.377-4.594,23.46,23.46,0,0,0-.586-2.511c-.222-.1-.494-.222-.692-.31a26.547,26.547,0,0,1,.709,2.9,5.042,5.042,0,0,1-1.219,4.111c-1.036,1.073-2.724,1.635-5.311.841a8.375,8.375,0,0,1-4.351-3.643A27.322,27.322,0,0,1,423.59,276.906Z" transform="translate(-356.961 -238.432)" fill="#f42a1b"/>
  <path id="Path_6644" data-name="Path 6644" d="M453.04,321.675s5.372,14.219,7.162,22.856c0,0,8.215-1.791,10.849,2,0,0-1.053-16.431-3.371-26.437,0,0-8.848-4.213-14.641,1.58Z" transform="translate(-379.58 -269.186)" fill="#a0bfce"/>
  <path id="Path_6645" data-name="Path 6645" d="M447.081,264.324a11.5,11.5,0,0,0-9.729,3.045l-.132.132.068.172s5.369,14.228,7.149,22.814l.058.286.283-.065a22.093,22.093,0,0,1,4.375-.413c2.345.026,4.952.534,6.176,2.3l.591.85-.068-1.031s-1.049-16.429-3.377-26.484l-.031-.136-.123-.058A18.133,18.133,0,0,0,447.081,264.324Zm-.065.573a16.557,16.557,0,0,1,4.923,1.321c2.213,9.666,3.229,24.711,3.291,25.656a8.523,8.523,0,0,0-6.071-2.152,19.7,19.7,0,0,0-4.23.4c-1.822-8.6-6.9-22.117-7.032-22.454A10.94,10.94,0,0,1,447.016,264.9ZM433.527,246.85l-1.027,6.609s3.476,7.794,7.32,6.9,1.106-10.849,1.106-10.849Z" transform="translate(-364.095 -215.659)" fill="#fff"/>
  <path id="Path_6646" data-name="Path 6646" d="M519.474,299.58c-1.369,6.372.3,22.027.948,26.121a8.768,8.768,0,0,0-4.529,6.214s-1.685-16.326-3.37-26.437C512.523,305.478,515.156,297.473,519.474,299.58Z" transform="translate(-424.423 -254.712)" fill="#add3d8"/>
  <path id="Path_6647" data-name="Path 6647" d="M517.019,298.086a3.432,3.432,0,0,0-1.5.412,6.858,6.858,0,0,0-2.291,2.217,16.823,16.823,0,0,0-1.89,3.812l-.025.068.012.071c1.682,10.093,3.368,26.419,3.368,26.419l.567.031a8.394,8.394,0,0,1,4.363-6.01l.206-.089-.037-.222c-.322-2.029-.9-6.968-1.225-12.18s-.392-10.721.277-13.836l.046-.219-.2-.1a3.494,3.494,0,0,0-1.672-.372Zm1.238.893c-.643,3.284-.581,8.575-.262,13.673.323,5.158.886,9.944,1.216,12.06a9.044,9.044,0,0,0-4.082,5.191c-.134-1.284-1.606-15.538-3.217-25.243a15.972,15.972,0,0,1,1.8-3.618,6.374,6.374,0,0,1,2.087-2.035A2.746,2.746,0,0,1,518.256,298.978Z" transform="translate(-423.514 -253.858)" fill="#fff"/>
  <path id="Path_6648" data-name="Path 6648" d="M431.489,235.584l-.052.345-.147,9.077.034.077a23.482,23.482,0,0,0,2.251,3.839,10.867,10.867,0,0,0,2.4,2.478,3.731,3.731,0,0,0,3,.745,2.868,2.868,0,0,0,2.007-2.278,11.661,11.661,0,0,0,.206-3.784,31.344,31.344,0,0,0-.9-5.142l-.04-.145Zm.465.776,7.806,4.871a28.909,28.909,0,0,1,.856,4.9,11.282,11.282,0,0,1-.191,3.593,2.253,2.253,0,0,1-1.583,1.866,3.137,3.137,0,0,1-2.534-.656,10.407,10.407,0,0,1-2.269-2.349,22.207,22.207,0,0,1-2.152-3.667Z" transform="translate(-363.181 -207.629)"/>
  <path id="Path_6649" data-name="Path 6649" d="M431.3,236.985l-.191,6.81a12.861,12.861,0,0,0,9.283-.536c-.1-.548-.187-1-.277-1.407a10.289,10.289,0,0,0-1.852-1.813Z" transform="translate(-363.046 -208.742)" fill="#2bb65e"/>
  <path id="Path_6650" data-name="Path 6650" d="M429.932,187.661s.211,4.95,3.792,7.32,8.163,1.159,8.584.632,6.214-14.746,5.108-18.327-9.9-2-9.9-2l-5.53.316-.737,6Z" transform="translate(-362.158 -163.039)" fill="#fff"/>
  <path id="Path_6651" data-name="Path 6651" d="M417.011,161.006c.84.135,1.212.578,1.393-.948l.822-6.91a17.082,17.082,0,0,0,10.1,2.383c6-.421,12.376-6,8.268-9.848s-8.005,2.581-11.744,3.95-9.69,1.422-9.69,1.422-2.123-1.878-4.2-.513c-3.129,2.061-2.109,6.142.9,8.544-4.225,2.81-2.35,6.937.263,5.266-.726,2.845,2.122,3.24,2.04-.48-.019-.858,1.751-1.675,1.838-2.866Z" transform="translate(-347.177 -140.073)" fill="#2bb65e"/>
  <path id="Path_6652" data-name="Path 6652" d="M420.815,197.3s.069-5.847-3.118-5.768-4.015,6.426.293,7.535c.531.073.764.377.85,1.493C419.045,199.913,422.67,198.048,420.815,197.3Z" transform="translate(-350.923 -175.552)" fill="#fff"/>
  <path id="Path_6653" data-name="Path 6653" d="M421.138,201.828c-.687.351-.6,2.292.6,1.806,1.341-.461,1.238-.242,1.238-.242l.382.242-.065-.968-1.089-.856-1.024.028Z" transform="translate(-355.202 -183.296)" fill="#f09b00"/>
  <path id="Path_6654" data-name="Path 6654" d="M417.093,187.672a2.651,2.651,0,0,0-2.128,1.275,4.7,4.7,0,0,0-.726,2.647,4.525,4.525,0,0,0,.935,2.759,4.015,4.015,0,0,0,1.741,1.247c.467.2.663-.343.292-.5a3.427,3.427,0,0,1-1.583-1.1,3.965,3.965,0,0,1-.812-2.41,4.173,4.173,0,0,1,.634-2.322,2.044,2.044,0,0,1,1.663-1.016,1.894,1.894,0,0,1,1.6.763,5.027,5.027,0,0,1,.865,1.878,11.121,11.121,0,0,1,.3,1.733c.052.516.616.382.582-.042a13.634,13.634,0,0,0-.325-1.839,5.5,5.5,0,0,0-.979-2.1A2.527,2.527,0,0,0,417.093,187.672Zm18.6-.879c-.159.014-.31.166-.27.47a11.422,11.422,0,0,1-.132,1.711l.494.6a11.794,11.794,0,0,0,.22-2.42A.3.3,0,0,0,435.7,186.793Zm-1.873,8.126c-.16.509-.326,1.018-.494,1.522-.679,2.028-1.406,3.964-1.989,5.422-.292.729-.547,1.337-.741,1.779-.1.221-.181.4-.244.53s-.127.227-.105.2a1.778,1.778,0,0,1-.237.138,4.352,4.352,0,0,1-.628.219,9.342,9.342,0,0,1-2.028.3,8.923,8.923,0,0,1-5.3-1.355c-2.72-1.8-3.426-5.187-3.6-6.515-.028-.489-.653-.5-.587.011.172,1.392.9,5.017,3.868,6.984a9.481,9.481,0,0,0,5.649,1.448,9.876,9.876,0,0,0,2.155-.323,4.915,4.915,0,0,0,.718-.249,1.1,1.1,0,0,0,.447-.3,1.439,1.439,0,0,0,.172-.305c.068-.139.153-.325.253-.551.2-.451.455-1.064.749-1.8.587-1.468,1.317-3.412,2-5.453.166-.5.33-1,.488-1.5Z" transform="translate(-350.328 -171.975)"/>
  <g id="Group_21767" data-name="Group 21767" transform="translate(80.719 16.14)">
    <path id="Path_6655" data-name="Path 6655" d="M485.835,192.208a2.312,2.312,0,0,0-2.046.685,4.235,4.235,0,0,0-1.181,2.313,4.363,4.363,0,0,0,.289,2.606,2.425,2.425,0,0,0,1.662,1.435,2.319,2.319,0,0,0,2.049-.687,4.225,4.225,0,0,0,1.178-2.311,4.368,4.368,0,0,0-.286-2.608A2.426,2.426,0,0,0,485.835,192.208Zm-.085.469a1.93,1.93,0,0,1,1.32,1.163,3.9,3.9,0,0,1,.249,2.315,3.78,3.78,0,0,1-1.041,2.055,1.843,1.843,0,0,1-1.634.568,1.926,1.926,0,0,1-1.318-1.162,3.9,3.9,0,0,1-.251-2.315,3.781,3.781,0,0,1,1.043-2.055A1.839,1.839,0,0,1,485.75,192.677Z" transform="translate(-482.53 -192.169)"/>
    <path id="Path_6656" data-name="Path 6656" d="M488.283,196.933c-.329,1.814-1.65,3.072-2.951,2.81s-2.089-1.945-1.76-3.759,1.65-3.072,2.951-2.81S488.612,195.119,488.283,196.933Z" transform="translate(-483.26 -192.901)" fill="none"/>
  </g>
  <path id="Path_6657" data-name="Path 6657" d="M474.951,215.844a14.448,14.448,0,0,0,4.351.03c2.221-.36,3,.06,2.791,1.05s-2.431,2.761-4.651,2.431-2.611-3.151-2.491-3.511Z" transform="translate(-396.082 -193.803)" fill="#2bb65e"/>
  <g id="Group_21768" data-name="Group 21768" transform="translate(72.486 14.958)">
    <path id="Path_6658" data-name="Path 6658" d="M677.817,372.339a3.871,3.871,0,1,0,3.873,3.873A3.877,3.877,0,0,0,677.817,372.339Zm0,.477a3.4,3.4,0,1,1-3.4,3.4A3.393,3.393,0,0,1,677.817,372.816Z" transform="translate(-673.944 -372.339)"/>
    <path id="Path_6659" data-name="Path 6659" d="M682.183,376.94a3.634,3.634,0,1,1-3.634-3.634A3.634,3.634,0,0,1,682.183,376.94Z" transform="translate(-674.677 -373.068)" fill="none"/>
  </g>
  <g id="Group_21769" data-name="Group 21769" transform="translate(48.084 38.87)">
    <path id="Path_6660" data-name="Path 6660" d="M-95.219,742.651s-.474,11.586-.527,12.481,1.475,5.319,2.844,5.951,9.773-1.807,24.669-12.308c0,0,4.507-1.068,4.876-1.174s1.422-3.476,1.422-3.792-1.685-4.371-1.949-4.16-2.317,2.9-2.581,2.949-2.581.474-2.581.474l-.948-1.843s-.685,3.528-.843,4.055-16.22,4.95-16.22,4.95l.105-6.636Z" transform="translate(98.532 -719.069)" fill="#fff"/>
    <path id="Path_6661" data-name="Path 6661" d="M-64.695,738.473a.355.355,0,0,0-.249.068,1.59,1.59,0,0,0-.213.218c-.085.1-.187.221-.3.363-.235.284-.527.643-.816.995s-.575.7-.8.951c-.114.128-.214.235-.287.3-.032.031-.057.051-.073.064-.27.053-2.015.375-2.328.432l-1.228-2.4-.156.816s-.173.882-.363,1.829c-.185.916-.39,1.878-.459,2.127a.776.776,0,0,1-.073.038c-.112.054-.286.128-.508.212-.445.168-1.086.385-1.847.628-1.523.487-3.543,1.087-5.56,1.672-3.848,1.117-7.332,2.078-7.676,2.173l.15-6.136c-.187-.012-.375-.025-.568-.039l-.17,6.936.37-.1s4.016-1.106,8.054-2.278c2.019-.586,4.043-1.188,5.576-1.678.766-.245,1.412-.462,1.875-.637.232-.087.416-.166.557-.235a1.409,1.409,0,0,0,.184-.1.3.3,0,0,0,.173-.215c.1-.323.3-1.3.486-2.251.107-.53.136-.676.2-1.022l.668,1.3.209-.037s2.294-.419,2.586-.477a.353.353,0,0,0,.187-.092,1.5,1.5,0,0,0,.13-.114c.091-.088.2-.2.317-.336.239-.268.531-.619.822-.972s.581-.709.813-.989c.1-.126.19-.231.265-.317.047.072.092.133.154.246.188.342.422.833.647,1.342s.44,1.038.6,1.453c.08.208.146.386.191.52.022.067.04.123.05.16a.278.278,0,0,1,.007.038c0-.022-.008.062-.034.171s-.072.272-.124.45c-.1.356-.244.807-.4,1.249s-.317.879-.462,1.2a3.5,3.5,0,0,1-.191.379.252.252,0,0,1-.069.072c-.186.05-1.356.333-2.5.606l-2.3.548-.055.012-.046.034a107,107,0,0,1-17.358,10.3,31.02,31.02,0,0,1-4.876,1.782,8.63,8.63,0,0,1-1.444.256,1.731,1.731,0,0,1-.7-.059,2.776,2.776,0,0,1-.908-.967,11.746,11.746,0,0,1-.9-1.761,16.636,16.636,0,0,1-.65-1.822,5.036,5.036,0,0,1-.218-1.124c.048-.808.43-9.732.546-12.45-.2-.033-.383-.063-.57-.1-.117,2.721-.5,11.773-.548,12.51a4.406,4.406,0,0,0,.24,1.315A17.15,17.15,0,0,0-96,757.435a12.22,12.22,0,0,0,.948,1.85,3.047,3.047,0,0,0,1.151,1.176,2.015,2.015,0,0,0,.982.108,9.111,9.111,0,0,0,1.545-.271,31.547,31.547,0,0,0,4.97-1.817A107.515,107.515,0,0,0-69,748.162l2.257-.539c1.173-.28,2.351-.561,2.586-.628s.256-.183.332-.305a3.8,3.8,0,0,0,.231-.446c.157-.349.324-.8.481-1.25s.3-.91.406-1.278c.053-.184.1-.345.126-.474a1.194,1.194,0,0,0,.055-.317.55.55,0,0,0-.028-.175c-.015-.056-.034-.121-.059-.195-.049-.148-.118-.332-.2-.545-.164-.427-.384-.96-.613-1.478s-.465-1.019-.668-1.388a3.42,3.42,0,0,0-.283-.45.671.671,0,0,0-.16-.16.345.345,0,0,0-.157-.061Z" transform="translate(99.411 -718.186)"/>
    <path id="Path_6662" data-name="Path 6662" d="M-89.072,656.059a.288.288,0,0,0-.111.025s-3.125,1.36-6.281,2.814c-1.578.727-3.162,1.476-4.372,2.094-.6.309-1.116.586-1.49.813a4.884,4.884,0,0,0-.459.3.579.579,0,0,0-.277.339c-.225.75-4.917,16.459-4.917,16.459l-.083.28.28.08a61.969,61.969,0,0,0,14.6,1.721l.28,0,.308-10.483a.288.288,0,0,0-.079-.206.288.288,0,0,0-.2-.09.288.288,0,0,0-.3.277l-.289,9.9a60.882,60.882,0,0,1-13.879-1.62c.164-.55,4.61-15.434,4.828-16.161-.032.107-.009.023.08-.046a4.528,4.528,0,0,1,.4-.268c.352-.213.855-.486,1.453-.791,1.2-.611,2.776-1.359,4.35-2.084,3.148-1.451,6.272-2.811,6.272-2.811a.288.288,0,0,0,.148-.379A.288.288,0,0,0-89.072,656.059Z" transform="translate(107.062 -656.059)" fill="#f42a1b"/>
  </g>
  <path id="Path_6663" data-name="Path 6663" d="M371.505,373.726l-8.014,2.864.281-3.842Z" transform="translate(-312.067 -309.829)" fill="#2bb65e"/>
  <g id="Group_21770" data-name="Group 21770" transform="translate(91.264 52.711)">
    <path id="Path_6664" data-name="Path 6664" d="M72.528,717.908s-2.791-1.053-2.844-.685a17.392,17.392,0,0,0,0,4.055c.263.527,1.685,2.633,2.054,2.633,4.156-1.732,3.161-6.313,1.9-7.794l-1.159-1.264Z" transform="translate(-69.267 -714.101)" fill="#fff"/>
    <path id="Path_6665" data-name="Path 6665" d="M71.294,711.8l.062,3.4c-.244-.089-.508-.192-1.025-.351a8.775,8.775,0,0,0-1.01-.259,1.589,1.589,0,0,0-.4-.034.491.491,0,0,0-.209.059.4.4,0,0,0-.191.265c-.035.245-.093,1.091-.12,2-.013.455-.017.914,0,1.3a2.267,2.267,0,0,0,.148.921,13.806,13.806,0,0,0,1.013,1.558,9.723,9.723,0,0,0,.647.8,2.555,2.555,0,0,0,.289.28.517.517,0,0,0,.363.151h.055l.055-.022a4.836,4.836,0,0,0,3.156-4.236,5.871,5.871,0,0,0-1.155-4.012l0,0Zm.6,1.509.647.7L72.535,714a5.486,5.486,0,0,1,1.019,3.6,4.189,4.189,0,0,1-2.719,3.676,2.107,2.107,0,0,1-.2-.2,9.428,9.428,0,0,1-.607-.757,14.98,14.98,0,0,1-.964-1.472,3.814,3.814,0,0,1-.089-.69c-.016-.364-.013-.816,0-1.262.024-.809.08-1.511.1-1.752a.953.953,0,0,1,.145.013,8.48,8.48,0,0,1,.939.243c.693.214,1.385.474,1.385.474l.4.151-.006-.425Z" transform="translate(-68.389 -711.797)"/>
  </g>
  <path id="Path_6666" data-name="Path 6666" d="M387.666,402.2a.287.287,0,0,0-.052.009l-2.608.68a.288.288,0,1,0,.145.557l2.608-.683a.287.287,0,0,0-.092-.563Z" transform="translate(-328.124 -331.795)"/>
  <path id="Path_6667" data-name="Path 6667" d="M439.05,174.823a.288.288,0,0,0-.211.058,9.849,9.849,0,0,1-3.085,1.324c-1.094.3-2,.46-2,.46a.287.287,0,0,0,.1.566s.929-.157,2.053-.47a9.985,9.985,0,0,0,3.287-1.427.287.287,0,0,0-.146-.511Z" transform="translate(-364.862 -162.951)" fill="#fff"/>
  <path id="Path_6668" data-name="Path 6668" d="M425.564,200.209l-.046.576,2.922.237.046-.576Zm10.126.933-.04.573,1.284.089.04-.576Zm-13.85-1.094a.288.288,0,0,0,.154.554,1.2,1.2,0,0,1,1.038.1,2.024,2.024,0,0,1,.763,1.158c-.03-.018-.133-.151-.166-.167a1.019,1.019,0,0,0-.7-.083c-1.117.286-.608,2.354.625,2.127a.288.288,0,1,0-.1-.566c-.592.109-.714-.918-.379-1a.41.41,0,0,1,.3.04,1.148,1.148,0,0,1,.317.252,2.241,2.241,0,0,1,.314.453.288.288,0,0,0,.545-.148s-.027-.1-.028-.111a4.182,4.182,0,0,0-.366-1.444,2.273,2.273,0,0,0-.816-.994A1.829,1.829,0,0,0,421.841,200.048Z" transform="translate(-355.899 -181.904)"/>
  <path id="Path_6669" data-name="Path 6669" d="M432.343,336.6a.288.288,0,0,0-.265.179,9.423,9.423,0,0,1-.721,1.447,1.675,1.675,0,0,1-.413.462.153.153,0,0,1-.086.031c-.009,0-.018,0-.058-.037a2.485,2.485,0,0,0-1.038-.711.831.831,0,0,0-.616.071,1.206,1.206,0,0,0-.465.542c-.109.22-.227.48-.351.7a1.482,1.482,0,0,1-.345.443c-.04.026-.05.026-.062.024s-.042-.008-.1-.068a3.027,3.027,0,0,1-.539-1.053,5.821,5.821,0,0,0-.551-1.256.619.619,0,0,0-.314-.277.422.422,0,0,0-.265,0,.426.426,0,0,0-.185.129,1.27,1.27,0,0,0-.243.65c-.051.248-.095.524-.142.76a.183.183,0,0,1-.028.083.912.912,0,0,1-.286-.163,4.642,4.642,0,0,1-.585-.6.287.287,0,0,0-.453.354,4.828,4.828,0,0,0,.677.7,1.092,1.092,0,0,0,.64.3.556.556,0,0,0,.4-.154.756.756,0,0,0,.2-.4c.051-.256.092-.533.139-.757a.776.776,0,0,1,.037-.126,5.536,5.536,0,0,1,.416.957,3.24,3.24,0,0,0,.681,1.275.772.772,0,0,0,.44.225.68.68,0,0,0,.44-.111,1.728,1.728,0,0,0,.533-.647c.141-.251.261-.517.363-.723a.669.669,0,0,1,.234-.3.214.214,0,0,1,.188-.016,2.352,2.352,0,0,1,.779.566.689.689,0,0,0,.428.2.723.723,0,0,0,.419-.114,2,2,0,0,0,.594-.64,9.625,9.625,0,0,0,.773-1.542.288.288,0,0,0-.268-.4Zm9.427,11.112a.288.288,0,0,0-.265.179,9.428,9.428,0,0,1-.72,1.447,1.675,1.675,0,0,1-.413.462.152.152,0,0,1-.086.031c-.009,0-.018,0-.059-.037a2.486,2.486,0,0,0-1.038-.711.831.831,0,0,0-.616.071,1.206,1.206,0,0,0-.465.542c-.109.221-.227.48-.351.7a1.486,1.486,0,0,1-.345.443c-.04.026-.05.026-.062.024s-.042-.008-.1-.068a3.028,3.028,0,0,1-.539-1.053,5.819,5.819,0,0,0-.551-1.256.619.619,0,0,0-.314-.277.417.417,0,0,0-.265,0,.428.428,0,0,0-.185.129,1.269,1.269,0,0,0-.243.65c-.051.248-.095.524-.142.76a.184.184,0,0,1-.028.083.915.915,0,0,1-.286-.163,4.633,4.633,0,0,1-.585-.6.287.287,0,0,0-.453.354,4.823,4.823,0,0,0,.677.7,1.091,1.091,0,0,0,.64.3.555.555,0,0,0,.4-.154.756.756,0,0,0,.2-.4c.051-.256.092-.533.139-.757a.787.787,0,0,1,.037-.126,5.543,5.543,0,0,1,.416.957,3.237,3.237,0,0,0,.681,1.275.771.771,0,0,0,.44.225.681.681,0,0,0,.44-.111,1.728,1.728,0,0,0,.533-.646c.141-.251.261-.517.363-.724a.666.666,0,0,1,.234-.3.214.214,0,0,1,.188-.016,2.357,2.357,0,0,1,.779.567.689.689,0,0,0,.428.2.721.721,0,0,0,.419-.114,2,2,0,0,0,.594-.64,9.652,9.652,0,0,0,.773-1.543.288.288,0,0,0-.268-.4Zm-29.522,17.839a.313.313,0,0,0-.318.408,10.932,10.932,0,0,1,.434,3.532,5.7,5.7,0,0,1-.775,2.7,4.338,4.338,0,0,1-2.578,1.869.309.309,0,1,0,.176.593,5.014,5.014,0,0,0,2.929-2.134,6.29,6.29,0,0,0,.868-2.992,11.455,11.455,0,0,0-.464-3.761.31.31,0,0,0-.272-.215Z" transform="translate(-346.219 -282.336)" fill="#fff"/>
  <path id="Path_6670" data-name="Path 6670" d="M545.967,479.069a.4.4,0,0,0-.073.018l-2.867.9a.4.4,0,1,0,.242.768l2.862-.894a.405.405,0,0,0-.164-.79Z" transform="translate(-447.208 -389.018)"/>
  <g id="Group_21771" data-name="Group 21771" transform="translate(66.166 98.975)">
    <path id="Path_6671" data-name="Path 6671" d="M-90.827,896.508l5.582,17.063-4.059,1.318A24.838,24.838,0,0,1-95.331,898.2Z" transform="translate(95.619 -896.22)" fill="#add3d8"/>
    <path id="Path_6672" data-name="Path 6672" d="M-91.738,895.341a.284.284,0,0,0-.068.018l-4.5,1.687a.287.287,0,0,0-.185.268,25.177,25.177,0,0,0,6.108,16.9.288.288,0,0,0,.3.071l4.058-1.318a.288.288,0,0,0,.168-.143.288.288,0,0,0,.017-.22l-5.582-17.063a.287.287,0,0,0-.308-.2Zm-.148.659,5.4,16.505-3.584,1.164A24.274,24.274,0,0,1-95.9,897.508Z" transform="translate(96.495 -895.339)"/>
  </g>
  <path id="Path_6673" data-name="Path 6673" d="M514.647,634.532l18.916-3.353s.457-7.467.162-7.59-20.277,6.055-20.277,6.055Z" transform="translate(-425.122 -495.471)" fill="#add3d8"/>
  <path id="Path_6674" data-name="Path 6674" d="M432.389,473.588c-.017,0-.029,0-.04,0a.471.471,0,0,0-.054,0c-.029,0-.054.008-.082.013-.057.009-.125.023-.209.042-.169.04-.4.1-.691.179-.578.158-1.382.392-2.341.674-1.917.562-4.442,1.322-6.958,2.086-5.033,1.529-10.031,3.075-10.031,3.075a.288.288,0,0,0-.195.343l1.2,4.887a.288.288,0,0,0,.329.216l18.918-3.355a.288.288,0,0,0,.237-.267s.112-1.868.19-3.754c.039-.943.07-1.89.071-2.615,0-.362-.006-.668-.023-.9a2.131,2.131,0,0,0-.035-.293.616.616,0,0,0-.039-.129.293.293,0,0,0-.178-.184.659.659,0,0,0-.068-.019Zm-.258.613c0,.022,0,.03.007.055.015.2.021.5.02.855,0,.71-.03,1.651-.068,2.59-.073,1.764-.166,3.309-.179,3.516l-18.429,3.267-1.069-4.36c.248-.077,4.864-1.506,9.766-2.995,2.516-.764,5.042-1.526,6.955-2.087.957-.281,1.758-.51,2.33-.667.284-.078.511-.138.667-.175Zm-26.179-49.211a.277.277,0,0,0-.056,0,47.9,47.9,0,0,0-19.68,6.521,37.131,37.131,0,0,0-4.76,3.451c-.533.456-.937.831-1.219,1.09-.141.129-.252.23-.326.292a.2.2,0,0,0-.022.016.461.461,0,0,1-.228-.139.778.778,0,0,1-.111-.145l.293-2.959a.288.288,0,0,0-.573-.055l-.3,3.063a.289.289,0,0,0,.037.169,1.731,1.731,0,0,0,.237.32.926.926,0,0,0,.7.342.26.26,0,0,0,.209-.077,1.441,1.441,0,0,0,.126-.1c.09-.076.2-.178.342-.308.283-.26.683-.629,1.207-1.078a36.441,36.441,0,0,1,4.683-3.4,47.319,47.319,0,0,1,19.449-6.441.288.288,0,0,0-.012-.573Z" transform="translate(-323.74 -345.757)"/>
  <g id="Group_21772" data-name="Group 21772" transform="translate(38.781 35.823)">
    <path id="Path_6675" data-name="Path 6675" d="M-202.387,601.768a2.063,2.063,0,0,1-2.063,2.063,2.063,2.063,0,0,1-2.063-2.063,2.063,2.063,0,0,1,2.063-2.063A2.063,2.063,0,0,1-202.387,601.768Z" transform="translate(206.8 -599.419)" fill="#fff"/>
    <path id="Path_6676" data-name="Path 6676" d="M-205.329,598.541a2.355,2.355,0,0,0-2.352,2.349,2.358,2.358,0,0,0,2.352,2.352,2.355,2.355,0,0,0,2.349-2.352A2.353,2.353,0,0,0-205.329,598.541Zm0,.576a1.768,1.768,0,0,1,1.773,1.773,1.77,1.77,0,0,1-1.773,1.776,1.773,1.773,0,0,1-1.776-1.776A1.77,1.77,0,0,1-205.329,599.116Z" transform="translate(207.681 -598.541)" fill="#f09b00"/>
  </g>
  <path id="Path_6677" data-name="Path 6677" d="M602.952,552.169a2.351,2.351,0,1,0,2.349,2.349A2.355,2.355,0,0,0,602.952,552.169Zm0,.576a1.775,1.775,0,1,1-1.776,1.773A1.768,1.768,0,0,1,602.952,552.745Z" transform="translate(-490.824 -443.365)" fill="#2bb65e"/>
  <g id="Group_21773" data-name="Group 21773" transform="translate(89.418 33.227)">
    <path id="Path_6678" data-name="Path 6678" d="M-129.839,386.059a1.323,1.323,0,0,1-1.324,1.323,1.323,1.323,0,0,1-1.323-1.323,1.323,1.323,0,0,1,1.323-1.323A1.323,1.323,0,0,1-129.839,386.059Z" transform="translate(132.671 -384.552)" fill="#2bb65e"/>
    <path id="Path_6679" data-name="Path 6679" d="M-131.727,383.989a1.511,1.511,0,0,0-1.509,1.507A1.513,1.513,0,0,0-131.727,387a1.511,1.511,0,0,0,1.507-1.509A1.509,1.509,0,0,0-131.727,383.989Zm0,.369a1.134,1.134,0,0,1,1.138,1.138,1.136,1.136,0,0,1-1.138,1.14,1.138,1.138,0,0,1-1.14-1.14A1.136,1.136,0,0,1-131.727,384.358Z" transform="translate(133.236 -383.989)" fill="#2bb65e"/>
  </g>
  <path id="Path_6680" data-name="Path 6680" d="M533.277,210.782a.359.359,0,0,0-.361.357v1.019a.358.358,0,0,0,.717,0v-1.019A.358.358,0,0,0,533.277,210.782Zm-2.053,2.049a.358.358,0,0,0,0,.717h1.019a.358.358,0,0,0,0-.717Zm3.082,0a.358.358,0,0,0,0,.717h1.019a.358.358,0,0,0,0-.717Zm-1.03,1.034a.358.358,0,0,0-.361.356v1.019a.358.358,0,0,0,.717,0V214.22A.357.357,0,0,0,533.277,213.864Zm21.065,69.8a.359.359,0,0,0-.361.357v1.019a.358.358,0,0,0,.717,0v-1.019A.358.358,0,0,0,554.342,283.669Zm-2.053,2.049a.358.358,0,0,0,0,.717h1.019a.358.358,0,0,0,0-.717Zm3.083,0a.358.358,0,0,0,0,.717h1.019a.358.358,0,0,0,0-.717Zm-1.03,1.034a.358.358,0,0,0-.361.356v1.019a.358.358,0,0,0,.717,0v-1.019A.357.357,0,0,0,554.342,286.751Z" transform="translate(-438.256 -190.06)"/>
  <path id="Path_6681" data-name="Path 6681" d="M618.466,355.486c-.569,2.463-7.806,2.354-16.164-.243s-14.673-6.7-14.1-9.164,7.806-2.354,16.164.243S619.035,353.023,618.466,355.486Z" transform="translate(-481.454 -288.52)" fill="#a0bfce"/>
  <path id="Path_6682" data-name="Path 6682" d="M608.1,352.122a41.371,41.371,0,0,0-11.065-2.03,11.4,11.4,0,0,0-3.642.42,2.354,2.354,0,0,0-1.761,1.569,2.841,2.841,0,0,0,.849,2.38,13.4,13.4,0,0,0,2.973,2.476,43.658,43.658,0,0,0,10.457,4.659,41.366,41.366,0,0,0,11.065,2.03,11.393,11.393,0,0,0,3.642-.42,2.354,2.354,0,0,0,1.761-1.569,2.841,2.841,0,0,0-.849-2.38,13.4,13.4,0,0,0-2.973-2.476A43.659,43.659,0,0,0,608.1,352.122Zm-.129.556a43.3,43.3,0,0,1,10.344,4.6,13.031,13.031,0,0,1,2.859,2.374,2.288,2.288,0,0,1,.725,1.832c-.108.468-.567.883-1.418,1.166a11.086,11.086,0,0,1-3.5.4,41.014,41.014,0,0,1-10.944-2.008,43.289,43.289,0,0,1-10.343-4.607,13.008,13.008,0,0,1-2.857-2.373,2.294,2.294,0,0,1-.728-1.833c.108-.468.57-.882,1.421-1.165a11.062,11.062,0,0,1,3.5-.4A41.025,41.025,0,0,1,607.969,352.679Z" transform="translate(-484.034 -292.817)" fill="#2bb65e"/>
  <path id="Path_6683" data-name="Path 6683" d="M627.5,369.763c-.382,1.656-5.247,1.583-10.865-.163s-9.862-4.5-9.48-6.159,5.247-1.582,10.865.163S627.878,368.108,627.5,369.763Z" transform="translate(-495.751 -301.936)" fill="#f9f9f9"/>
  <path id="Path_6684" data-name="Path 6684" d="M622.013,366.681a27.849,27.849,0,0,0-7.456-1.367,7.687,7.687,0,0,0-2.471.287,1.658,1.658,0,0,0-1.24,1.119,2.006,2.006,0,0,0,.59,1.691,9.061,9.061,0,0,0,2.016,1.682,29.4,29.4,0,0,0,7.046,3.14,27.87,27.87,0,0,0,7.458,1.368,7.684,7.684,0,0,0,2.471-.287,1.663,1.663,0,0,0,1.24-1.122,2,2,0,0,0-.591-1.688,9.062,9.062,0,0,0-2.016-1.681A29.414,29.414,0,0,0,622.013,366.681Zm-.128.556a29.059,29.059,0,0,1,6.935,3.086,8.694,8.694,0,0,1,1.9,1.579,1.45,1.45,0,0,1,.468,1.14c-.062.266-.338.533-.9.719a7.391,7.391,0,0,1-2.328.265,27.536,27.536,0,0,1-7.336-1.349,29.036,29.036,0,0,1-6.932-3.085,8.691,8.691,0,0,1-1.9-1.579,1.454,1.454,0,0,1-.467-1.143c.061-.266.337-.53.9-.716a7.393,7.393,0,0,1,2.328-.264A27.508,27.508,0,0,1,621.885,367.237Z" transform="translate(-498.53 -304.208)"/>
  <g id="Group_21774" data-name="Group 21774" transform="translate(110.961 35.578)">
    <path id="Path_6685" data-name="Path 6685" d="M621.144,267.114c.423.828-2.477,3-6.478,4.859s-7.586,2.69-8.009,1.862,2.478-3,6.478-4.86S620.722,266.286,621.144,267.114Z" transform="translate(-606.326 -266.51)" fill="#2bb65e"/>
    <path id="Path_6686" data-name="Path 6686" d="M612.116,267.85a28.724,28.724,0,0,0-4.948,2.845,7.461,7.461,0,0,0-1.364,1.247,1.865,1.865,0,0,0-.321.563.753.753,0,0,0,.024.582.817.817,0,0,0,.466.377,2.059,2.059,0,0,0,.661.1,7.94,7.94,0,0,0,1.872-.251,29.32,29.32,0,0,0,5.4-1.957,28.729,28.729,0,0,0,4.948-2.845,7.411,7.411,0,0,0,1.359-1.248,1.871,1.871,0,0,0,.325-.561.753.753,0,0,0-.024-.582.816.816,0,0,0-.466-.377,2.081,2.081,0,0,0-.665-.105,7.924,7.924,0,0,0-1.868.253A29.321,29.321,0,0,0,612.116,267.85Zm.262.513a28.887,28.887,0,0,1,5.29-1.919,7.507,7.507,0,0,1,1.721-.236,1.573,1.573,0,0,1,.469.067c.1.036.125.068.136.09s.022.06-.01.157a1.419,1.419,0,0,1-.234.394,7.028,7.028,0,0,1-1.256,1.146,28.3,28.3,0,0,1-4.848,2.785,28.879,28.879,0,0,1-5.29,1.919,7.5,7.5,0,0,1-1.721.236,1.574,1.574,0,0,1-.47-.067c-.1-.036-.125-.068-.136-.09s-.022-.06.01-.157a1.419,1.419,0,0,1,.234-.394,7.043,7.043,0,0,1,1.256-1.146A28.3,28.3,0,0,1,612.378,268.363Z" transform="translate(-605.437 -265.639)" fill="#2bb65e"/>
  </g>
  <path id="Path_6687" data-name="Path 6687" d="M613.839,281.964c-3.541,1.457-6.078.264-8.735.5-4.668.459-4.036,7.316-2.808,6.261,1.083-1.024.905-3.244,1.835-3.163S610.485,284.25,613.839,281.964Z" transform="translate(-491.436 -242.22)" fill="#f09b00"/>
  <path id="Path_6688" data-name="Path 6688" d="M609.543,281.07a11.253,11.253,0,0,1-5.223.747,20.169,20.169,0,0,0-4.209-.391h0a4.03,4.03,0,0,0-2.774,1.422,5.261,5.261,0,0,0-1.1,2.515,5,5,0,0,0,.08,2.229,1.2,1.2,0,0,0,.422.671.6.6,0,0,0,.4.1.7.7,0,0,0,.379-.175l.007-.006,0,0a4.642,4.642,0,0,0,1.053-2.121,3.879,3.879,0,0,1,.3-.785c.1-.164.136-.189.256-.179a7.149,7.149,0,0,0,1.546-.154c.723-.123,1.628-.316,2.611-.585a20.89,20.89,0,0,0,5.872-2.506c.013-.005.024,0,.037-.009l0-.006c.017-.011.042-.013.058-.025,1.706-1.1.926-.863.285-.744ZM600.16,282a20.6,20.6,0,0,1,4.089.388,12.461,12.461,0,0,0,2.06.071,26.438,26.438,0,0,1-3.165,1.349c-.964.264-1.853.454-2.555.573a7.994,7.994,0,0,1-1.4.145.879.879,0,0,0-.8.453,4.02,4.02,0,0,0-.363.917,4.394,4.394,0,0,1-.893,1.866.239.239,0,0,1-.058.037s.01.006-.006-.006a.869.869,0,0,1-.2-.373,4.574,4.574,0,0,1-.061-1.958,4.721,4.721,0,0,1,.97-2.241A3.41,3.41,0,0,1,600.16,282Z" transform="translate(-487.474 -241.468)"/>
  <g id="Group_21775" data-name="Group 21775" transform="translate(127.871 51.796)">
    <path id="Path_6689" data-name="Path 6689" d="M-202.387,601.768a2.063,2.063,0,0,1-2.063,2.063,2.063,2.063,0,0,1-2.063-2.063,2.063,2.063,0,0,1,2.063-2.063A2.063,2.063,0,0,1-202.387,601.768Z" transform="translate(206.8 -599.419)" fill="#fff"/>
    <path id="Path_6690" data-name="Path 6690" d="M-205.329,598.541a2.355,2.355,0,0,0-2.352,2.349,2.358,2.358,0,0,0,2.352,2.352,2.355,2.355,0,0,0,2.349-2.352A2.353,2.353,0,0,0-205.329,598.541Zm0,.576a1.768,1.768,0,0,1,1.773,1.773,1.77,1.77,0,0,1-1.773,1.776,1.773,1.773,0,0,1-1.776-1.776A1.77,1.77,0,0,1-205.329,599.116Z" transform="translate(207.681 -598.541)" fill="#f09b00"/>
  </g>
  <path id="Path_6691" data-name="Path 6691" d="M289.435,243.87a.288.288,0,0,0-.2.092,16.165,16.165,0,0,1-2.891,2.374,29,29,0,0,0-3.356,2.559.287.287,0,1,0,.385.425,28.8,28.8,0,0,1,3.279-2.5,16.737,16.737,0,0,0,3.008-2.472.287.287,0,0,0-.225-.481Zm.209,2.632a.287.287,0,0,0-.157.056l-4.424,3.267a.287.287,0,0,0,.341.462l4.424-3.264a.288.288,0,0,0-.184-.521Zm24.964-1.142a.287.287,0,0,0-.2.092,16.17,16.17,0,0,1-2.891,2.374,29,29,0,0,0-3.356,2.559.287.287,0,1,0,.385.425,28.805,28.805,0,0,1,3.279-2.5,16.736,16.736,0,0,0,3.008-2.472.287.287,0,0,0-.225-.481Zm.209,2.632a.288.288,0,0,0-.157.056l-4.424,3.267a.287.287,0,1,0,.341.462L315,248.512a.288.288,0,0,0-.184-.521Z" transform="translate(-251.304 -213.862)" fill="#add3d8"/>
  <path id="Path_6692" data-name="Path 6692" d="M682.8,503.468a.288.288,0,0,0-.247.151l-.019.033-18.663,9.591a.288.288,0,0,0,.068.536l7.335,1.733,2.713,7.939-.016.026a.288.288,0,1,0,.486.308L678,518.142l5,2.41a.288.288,0,0,0,.412-.265L683.1,503.97a.355.355,0,0,0-.3-.5Zm-.262,1.376.287,14.985-6.733-3.244Zm-1.271.108-9.9,9.992-6.541-1.546Zm.1.783L675.4,516.411a.292.292,0,0,0-.031.086l-1.16,5.8-2.347-6.869ZM675.833,517.1l1.651.8-2.657,4.229Z" transform="translate(-538.414 -406.692)" fill="#3fbd6d"/>
</svg>
