<svg id="illustration" xmlns="http://www.w3.org/2000/svg" width="144.298" height="158.158" viewBox="0 0 144.298 158.158">
  <path id="Vector" d="M.365,4.025a.4.4,0,0,1-.323-.19.387.387,0,0,1,.144-.514L2.067,2.235a.379.379,0,0,1,.178-.046.334.334,0,0,1,.307.2.39.39,0,0,1-.144.515L.527,3.987A.259.259,0,0,1,.365,4.025Zm3.78-2.189a.393.393,0,0,1-.321-.19.389.389,0,0,1,.142-.515L5.847.045A.38.38,0,0,1,6.024,0a.334.334,0,0,1,.307.2.429.429,0,0,1,.027.3.347.347,0,0,1-.171.217L4.306,1.8A.249.249,0,0,1,4.145,1.835Z" transform="translate(71.401 127.661)" fill="#eaeaff"/>
  <path id="Vector-2" data-name="Vector" d="M25.117,123.175h0a.356.356,0,0,1-.359-.361.388.388,0,0,1,.341-.4,20.44,20.44,0,0,0,2.114-.172l.034,0a.37.37,0,0,1,.36.344.4.4,0,0,1-.081.281.347.347,0,0,1-.242.138C26.537,123.082,25.828,123.137,25.117,123.175Zm-2.15-.019h-.018a14.873,14.873,0,0,1-2.15-.267h-.018a.352.352,0,0,1-.231-.155.392.392,0,0,1-.055-.282.347.347,0,0,1,.411-.305h.036a13.309,13.309,0,0,0,2.06.248.386.386,0,0,1,.341.4A.4.4,0,0,1,22.967,123.155Zm6.431-.475a.37.37,0,0,1-.358-.325.384.384,0,0,1,.286-.437c.612-.1,1.229-.234,1.881-.373l.215-.046a.357.357,0,0,1,.067-.006.388.388,0,0,1,.363.292.4.4,0,0,1-.269.457c-.633.152-1.31.285-2.132.419A.062.062,0,0,1,29.4,122.68Zm-10.659-.286a.151.151,0,0,1-.09-.019c-.671-.178-1.371-.4-2.078-.666a.4.4,0,0,1-.2-.2.357.357,0,0,1-.014-.281.37.37,0,0,1,.333-.252A.3.3,0,0,1,16.8,121c.592.222,1.235.428,2.024.648a.361.361,0,0,1,.221.182.373.373,0,0,1,.029.275A.349.349,0,0,1,18.739,122.395Zm14.958-.648h-.09a.348.348,0,0,1-.34-.285.385.385,0,0,1,.041-.293.345.345,0,0,1,.228-.165c.662-.171,1.372-.384,2.058-.589a.367.367,0,0,1,.1-.015.359.359,0,0,1,.346.281.415.415,0,0,1-.031.3.358.358,0,0,1-.219.181c-.677.2-1.4.415-2.1.59ZM14.69,120.89a.333.333,0,0,1-.144-.038c-.792-.386-1.412-.719-1.953-1.048a.351.351,0,0,1-.17-.217.4.4,0,0,1,.026-.3.345.345,0,0,1,.315-.2.332.332,0,0,1,.168.045c.67.4,1.286.728,1.882,1.009a.379.379,0,0,1,.179.5A.324.324,0,0,1,14.69,120.89Zm23.056-.4a.364.364,0,0,1-.341-.267.376.376,0,0,1,.234-.476l.276-.095c.572-.2,1.163-.4,1.766-.629A.3.3,0,0,1,39.8,119a.35.35,0,0,1,.33.253.39.39,0,0,1-.214.475c-.738.269-1.432.513-2.061.724A.253.253,0,0,1,37.746,120.49Zm4.067-1.5a.37.37,0,0,1-.341-.248.4.4,0,0,1,.007-.291.368.368,0,0,1,.208-.2l.071-.029c.629-.253,1.279-.515,1.935-.79a.33.33,0,0,1,.13-.026.36.36,0,0,1,.335.236.4.4,0,0,1,0,.29.362.362,0,0,1-.192.2c-.492.206-.988.4-1.467.6l-.557.223A.163.163,0,0,1,41.813,118.987Zm-30.849-.343a.335.335,0,0,1-.215-.076c-.639-.493-1.2-.967-1.72-1.448a.405.405,0,0,1-.035-.533.349.349,0,0,1,.271-.127.338.338,0,0,1,.231.089,19.8,19.8,0,0,0,1.648,1.39.365.365,0,0,1,.144.235.419.419,0,0,1-.055.3A.3.3,0,0,1,10.964,118.644Zm116.551-.21a6.99,6.99,0,0,1-1.254-.115.353.353,0,0,1-.231-.154.394.394,0,0,1-.056-.283.349.349,0,0,1,.413-.305,6.723,6.723,0,0,0,1.148.1,6.6,6.6,0,0,0,.894-.061l.038,0a.35.35,0,0,1,.357.325.42.42,0,0,1-.074.284.322.322,0,0,1-.23.135l-.036,0A9.056,9.056,0,0,1,127.516,118.434Zm3.027-.648a.367.367,0,0,1-.341-.247.4.4,0,0,1,.2-.5,10.475,10.475,0,0,0,1.864-1.009.325.325,0,0,1,.189-.059.371.371,0,0,1,.312.174.411.411,0,0,1-.107.533,11.844,11.844,0,0,1-1.971,1.066l-.066.02A.267.267,0,0,1,130.543,117.786Zm-6.252-.19a.48.48,0,0,1-.149-.033l-.013,0a10.264,10.264,0,0,1-1.862-1.3.386.386,0,0,1-.054-.533.344.344,0,0,1,.279-.144.327.327,0,0,1,.223.087,8.772,8.772,0,0,0,1.72,1.2.376.376,0,0,1,.181.221.4.4,0,0,1-.02.292A.329.329,0,0,1,124.291,117.6Zm-78.484-.286a.355.355,0,0,1-.321-.228.409.409,0,0,1,0-.29.362.362,0,0,1,.192-.205c.589-.254,1.215-.538,1.971-.894a.362.362,0,0,1,.143-.029.341.341,0,0,1,.323.219.432.432,0,0,1,0,.29.336.336,0,0,1-.183.2c-.61.281-1.3.6-1.989.9A.185.185,0,0,1,45.807,117.31ZM7.74,115.616a.34.34,0,0,1-.269-.133,22.308,22.308,0,0,1-1.379-1.809.385.385,0,0,1-.072-.281.4.4,0,0,1,.144-.252.334.334,0,0,1,.214-.08.359.359,0,0,1,.287.155A20.354,20.354,0,0,0,7.99,114.95a.417.417,0,0,1,.091.29.358.358,0,0,1-.109.243A.26.26,0,0,1,7.74,115.616Zm42.009-.133a.33.33,0,0,1-.323-.229.381.381,0,0,1-.011-.293.408.408,0,0,1,.19-.221l.615-.307c.441-.219.893-.444,1.32-.665a.343.343,0,0,1,.162-.041.357.357,0,0,1,.321.213.4.4,0,0,1,.021.292.376.376,0,0,1-.181.221l-.515.259c-.475.24-.965.488-1.439.712A.281.281,0,0,1,49.749,115.483Zm84.449-.057a.344.344,0,0,1-.269-.134.408.408,0,0,1-.079-.289.372.372,0,0,1,.134-.244c.44-.387,1.016-.908,1.576-1.5a.332.332,0,0,1,.5,0,.387.387,0,0,1,0,.533c-.515.546-1.042,1.056-1.613,1.562h0l-.006,0A.722.722,0,0,1,134.2,115.426Zm-13.238-.668a.313.313,0,0,1-.269-.133c-.371-.453-.727-.927-1.057-1.409-.045-.067-.094-.138-.143-.209s-.1-.143-.144-.209a.411.411,0,0,1,.09-.533.352.352,0,0,1,.206-.066.347.347,0,0,1,.3.16c.077.115.171.255.286.419a11.18,11.18,0,0,0,1.021,1.352.407.407,0,0,1-.035.533A.416.416,0,0,1,120.959,114.758ZM53.637,113.5a.376.376,0,0,1-.323-.21.4.4,0,0,1-.02-.293.373.373,0,0,1,.181-.221c.63-.344,1.284-.692,1.917-1.029a.344.344,0,0,1,.162-.041.355.355,0,0,1,.321.213.39.39,0,0,1-.161.514c-.419.223-.841.455-1.248.68l-.669.367a.464.464,0,0,0-.08.01A.46.46,0,0,1,53.637,113.5Zm83.625-1.3a.361.361,0,0,1-.234-.094.394.394,0,0,1-.118-.26.389.389,0,0,1,.083-.273c.524-.668.945-1.231,1.326-1.771a.36.36,0,0,1,.288-.156.332.332,0,0,1,.213.08.4.4,0,0,1,.145.261.383.383,0,0,1-.073.272c-.393.575-.851,1.183-1.362,1.809A.4.4,0,0,1,137.261,112.207ZM5.214,111.94a.349.349,0,0,1-.305-.19,19.6,19.6,0,0,1-.985-2.075.434.434,0,0,1,0-.29.336.336,0,0,1,.184-.205.366.366,0,0,1,.142-.029.341.341,0,0,1,.324.22c.268.64.578,1.294.949,2a.4.4,0,0,1-.125.514A.327.327,0,0,1,5.214,111.94Zm52.256-.551a.376.376,0,0,1-.323-.21.428.428,0,0,1-.029-.293.35.35,0,0,1,.173-.222l.94-.542.072-.042.868-.5a.379.379,0,0,1,.178-.046.331.331,0,0,1,.306.2.43.43,0,0,1,.03.293.348.348,0,0,1-.172.222c-.211.121-.421.245-.632.368-.411.241-.834.489-1.25.716A.188.188,0,0,1,57.47,111.389Zm60.981-.325a.346.346,0,0,1-.3-.171c-.392-.652-.8-1.343-1.128-1.981a.427.427,0,0,1-.029-.292.35.35,0,0,1,.173-.221.376.376,0,0,1,.176-.045.334.334,0,0,1,.307.2c.371.7.729,1.337,1.093,1.942a.39.39,0,0,1,.048.281.4.4,0,0,1-.156.252A.594.594,0,0,1,118.45,111.065Zm-57.236-1.885a.344.344,0,0,1-.3-.19.4.4,0,0,1,.125-.514c.622-.389,1.261-.778,1.863-1.142a.337.337,0,0,1,.181-.054.342.342,0,0,1,.3.187.388.388,0,0,1,.04.288.363.363,0,0,1-.165.226c-.4.257-.811.509-1.2.753l-.658.409A.494.494,0,0,1,61.214,109.179ZM3.475,107.77a.361.361,0,0,1-.341-.267,22.492,22.492,0,0,1-.59-2.227.379.379,0,0,1,.269-.458.4.4,0,0,1,.074-.007.353.353,0,0,1,.355.293c.147.679.335,1.389.573,2.171a.421.421,0,0,1-.032.306.333.333,0,0,1-.2.17A.223.223,0,0,1,3.475,107.77Zm112.9-.7a.356.356,0,0,1-.323-.229,14.454,14.454,0,0,1-.7-2.228.389.389,0,0,1,.269-.457.4.4,0,0,1,.074-.007.367.367,0,0,1,.356.293,12.358,12.358,0,0,0,.663,2.095.416.416,0,0,1,0,.306.341.341,0,0,1-.193.188A.326.326,0,0,1,116.373,107.067Zm-51.45-.21a.329.329,0,0,1-.3-.19.381.381,0,0,1-.046-.282.4.4,0,0,1,.171-.251l.914-.6.914-.6a.324.324,0,0,1,.19-.06.37.37,0,0,1,.312.174.411.411,0,0,1-.107.533c-.208.136-.416.275-.624.414-.4.264-.8.535-1.2.785A.372.372,0,0,1,64.922,106.857Zm3.654-2.438a.346.346,0,0,1-.3-.171.412.412,0,0,1,.107-.533c.576-.4,1.144-.8,1.693-1.188l.1-.07a.353.353,0,0,1,.206-.065.346.346,0,0,1,.3.161.425.425,0,0,1,.056.288.364.364,0,0,1-.146.245c-.309.219-.628.442-.937.658-.286.2-.572.4-.853.6A.408.408,0,0,1,68.577,104.419ZM2.561,103.334h0a.064.064,0,0,0-.053-.018.369.369,0,0,1-.358-.323c-.106-.733-.178-1.508-.215-2.3a.385.385,0,0,1,.092-.281.332.332,0,0,1,.249-.119h.03a.359.359,0,0,1,.346.363c.035.76.106,1.495.215,2.247a.384.384,0,0,1-.3.437Zm112.934-.7h-.018a.382.382,0,0,1-.251-.129.36.36,0,0,1-.089-.271,8.45,8.45,0,0,1,.448-2.342.371.371,0,0,1,.34-.253.345.345,0,0,1,.125.024.4.4,0,0,1,.215.5,7.553,7.553,0,0,0-.413,2.113A.365.365,0,0,1,115.495,102.63Zm-43.353-.762a.321.321,0,0,1-.287-.171.425.425,0,0,1-.056-.288.364.364,0,0,1,.146-.245l.044-.032c.566-.42,1.152-.854,1.712-1.282a.35.35,0,0,1,.2-.065.372.372,0,0,1,.3.161.41.41,0,0,1-.089.533l-.246.188c-.493.377-1,.766-1.51,1.125A.32.32,0,0,1,72.142,101.868ZM75.636,99.2a.366.366,0,0,1-.287-.153.381.381,0,0,1-.071-.281.4.4,0,0,1,.143-.252c.565-.45,1.147-.914,1.7-1.37a.334.334,0,0,1,.214-.08.359.359,0,0,1,.287.155.388.388,0,0,1-.072.533c-.489.4-1.051.858-1.72,1.391l-.038.015A.434.434,0,0,1,75.636,99.2Zm-73.4-.439a.371.371,0,0,1-.359-.38c.018-.749.036-1.522.108-2.3a.355.355,0,0,1,.357-.343l.036,0a.343.343,0,0,1,.239.134.4.4,0,0,1,.083.284c-.052.743-.088,1.5-.107,2.247A.369.369,0,0,1,2.24,98.764Zm114.617-.418a.335.335,0,0,1-.18-.057.387.387,0,0,1-.172-.246.363.363,0,0,1,.047-.268c.336-.607.723-1.243,1.183-1.942a.345.345,0,0,1,.295-.16.355.355,0,0,1,.207.066.365.365,0,0,1,.143.234.421.421,0,0,1-.055.3l-.036.056c-.464.731-.831,1.308-1.111,1.829A.352.352,0,0,1,116.857,98.346ZM79.039,96.4a.369.369,0,0,1-.287-.153.387.387,0,0,1,.054-.533c.656-.561,1.2-1.035,1.666-1.448a.362.362,0,0,1,.231-.087.333.333,0,0,1,.271.144.389.389,0,0,1-.054.534c-.5.44-1.059.927-1.666,1.447A.289.289,0,0,1,79.039,96.4Zm40.218-1.828a.335.335,0,0,1-.215-.076.364.364,0,0,1-.144-.233.422.422,0,0,1,.054-.3c.367-.558.782-1.188,1.219-1.866a.344.344,0,0,1,.3-.161.355.355,0,0,1,.206.065.364.364,0,0,1,.144.233.422.422,0,0,1-.054.3c-.306.487-.607.939-.9,1.375q-.175.262-.339.51A.272.272,0,0,1,119.257,94.576ZM2.6,94.214H2.544a.4.4,0,0,1-.3-.437c.111-.767.237-1.529.376-2.267a.369.369,0,0,1,.363-.31.359.359,0,0,1,.067.006.347.347,0,0,1,.226.156.424.424,0,0,1,.06.3c-.142.739-.268,1.489-.376,2.228A.388.388,0,0,1,2.6,94.214Zm79.755-.743a.313.313,0,0,1-.268-.133.4.4,0,0,1,.035-.533c.521-.48,1.057-.992,1.595-1.523a.367.367,0,0,1,.248-.1.326.326,0,0,1,.254.117.417.417,0,0,1,.091.29.359.359,0,0,1-.109.243c-.592.585-1.119,1.083-1.612,1.523A.341.341,0,0,1,82.353,93.471Zm39.322-2.685a.4.4,0,0,1-.2-.057.405.405,0,0,1-.107-.533c.352-.577.7-1.194,1.093-1.942a.328.328,0,0,1,.3-.192.317.317,0,0,1,.184.058.344.344,0,0,1,.169.222.377.377,0,0,1-.043.291c-.313.583-.69,1.273-1.11,1.961A.292.292,0,0,1,121.675,90.786Zm-36.151-.4a.344.344,0,0,1-.251-.114.37.37,0,0,1-.1-.268.379.379,0,0,1,.117-.265c.479-.491,1.022-1.049,1.523-1.6a.332.332,0,0,1,.5,0,.384.384,0,0,1,0,.533c-.563.62-1.067,1.149-1.541,1.619A.411.411,0,0,1,85.524,90.387ZM3.457,89.74a.149.149,0,0,1-.089-.019.362.362,0,0,1-.221-.182.373.373,0,0,1-.029-.275c.172-.695.369-1.382.609-2.209a.354.354,0,0,1,.448-.248.335.335,0,0,1,.2.171.421.421,0,0,1,.031.306l-.025.085c-.2.685-.412,1.391-.583,2.086A.351.351,0,0,1,3.457,89.74Zm85.077-2.628a.412.412,0,0,1-.251-.1.379.379,0,0,1-.117-.265.37.37,0,0,1,.1-.268c.516-.609.979-1.158,1.415-1.695a.351.351,0,0,1,.272-.127.334.334,0,0,1,.23.089.4.4,0,0,1,.036.533c-.434.554-.886,1.09-1.433,1.732A.377.377,0,0,1,88.534,87.112Zm35.274-.286a.485.485,0,0,1-.153-.034l-.009,0a.392.392,0,0,1-.161-.515c.08-.172.175-.373.286-.59.211-.448.428-.949.627-1.447a.363.363,0,0,1,.337-.236.328.328,0,0,1,.129.026.363.363,0,0,1,.193.2.406.406,0,0,1,0,.29c-.216.565-.433,1.071-.645,1.5-.055.128-.117.25-.177.367-.039.076-.076.149-.111.223A.373.373,0,0,1,123.808,86.826ZM4.783,85.4a.3.3,0,0,1-.125-.018.4.4,0,0,1-.214-.5c.29-.815.554-1.513.806-2.132a.345.345,0,0,1,.317-.228.314.314,0,0,1,.149.038.352.352,0,0,1,.191.207.374.374,0,0,1-.012.287c-.262.643-.526,1.329-.806,2.095A.312.312,0,0,1,4.783,85.4Zm86.528-1.77a.3.3,0,0,1-.215-.076.4.4,0,0,1-.072-.533c.435-.592.869-1.224,1.254-1.828a.348.348,0,0,1,.3-.161.353.353,0,0,1,.205.065.406.406,0,0,1,.09.534c-.437.673-.859,1.284-1.29,1.866A.338.338,0,0,1,91.311,83.628Zm34.162-1.009a.211.211,0,0,1-.107-.019.333.333,0,0,1-.2-.171.418.418,0,0,1-.03-.306c.237-.779.425-1.49.573-2.171a.366.366,0,0,1,.354-.292.392.392,0,0,1,.075.007.387.387,0,0,1,.268.457c-.177.752-.375,1.5-.59,2.228A.364.364,0,0,1,125.473,82.618ZM6.485,81.209a.489.489,0,0,1-.16-.039.373.373,0,0,1-.181-.221.4.4,0,0,1,.02-.293c.111-.251.232-.5.348-.744q.079-.164.154-.322l.026-.052c.15-.3.305-.615.476-.938a.327.327,0,0,1,.3-.193.316.316,0,0,1,.185.059.339.339,0,0,1,.168.222.379.379,0,0,1-.043.292c-.165.3-.328.619-.483.952-.075.159-.154.322-.233.486-.092.191-.183.379-.268.561A.353.353,0,0,1,6.485,81.209Zm87.262-1.352a.333.333,0,0,1-.179-.057.393.393,0,0,1-.125-.515c.391-.693.728-1.359,1-1.98a.358.358,0,0,1,.322-.213.342.342,0,0,1,.161.041.392.392,0,0,1,.162.515c-.345.754-.685,1.42-1.04,2.037A.391.391,0,0,1,93.747,79.857Zm32.748-1.676h-.054a.374.374,0,0,1-.287-.439c.115-.68.209-1.415.287-2.246a.372.372,0,0,1,.361-.345l.034,0a.379.379,0,0,1,.323.419c-.084.89-.178,1.638-.287,2.285A.42.42,0,0,1,126.494,78.182ZM8.617,77.249a.35.35,0,0,1-.2-.057.388.388,0,0,1-.155-.258.371.371,0,0,1,.065-.277c.384-.593.812-1.22,1.272-1.866a.346.346,0,0,1,.283-.148.377.377,0,0,1,.218.072.4.4,0,0,1,.072.533c-.381.518-.734,1.048-1.075,1.56l-.179.268A.368.368,0,0,1,8.617,77.249Zm86.993-1.5a.283.283,0,0,1-.125-.019.392.392,0,0,1-.215-.494,17.185,17.185,0,0,0,.483-1.752c.018-.067.032-.134.045-.2s.027-.133.045-.2a.367.367,0,0,1,.356-.293.4.4,0,0,1,.074.007.389.389,0,0,1,.269.457c-.018.067-.032.134-.045.2s-.027.134-.045.2a16.27,16.27,0,0,1-.519,1.848A.332.332,0,0,1,95.61,75.744Zm31.3-2.113a.371.371,0,0,1-.359-.382v-.628c0-.522-.016-1.034-.032-1.529l0-.089a.362.362,0,0,1,.076-.256.381.381,0,0,1,.263-.144l.03,0a.373.373,0,0,1,.346.363c.036.55.055,1.107.055,1.657v.647A.384.384,0,0,1,126.907,73.632ZM11.232,73.612a.362.362,0,0,1-.233-.1.405.405,0,0,1-.035-.533c.432-.552.885-1.088,1.433-1.732a.337.337,0,0,1,.261-.124.329.329,0,0,1,.241.1.379.379,0,0,1,.117.265.37.37,0,0,1-.1.268c-.505.576-.976,1.153-1.416,1.695A.292.292,0,0,1,11.232,73.612ZM96.72,71.347c-.035,0-.072,0-.09-.019a.386.386,0,0,1-.251-.476c.173-.67.378-1.392.627-2.209a.372.372,0,0,1,.352-.263.315.315,0,0,1,.1.015.4.4,0,0,1,.234.476c-.213.678-.43,1.429-.627,2.171A.352.352,0,0,1,96.72,71.347Zm-82.586-1.1a.344.344,0,0,1-.251-.114.386.386,0,0,1,0-.533c.322-.354.652-.7,1-1.069q.259-.272.521-.55a.357.357,0,0,1,.258-.114.314.314,0,0,1,.244.114.4.4,0,0,1,.108.285.348.348,0,0,1-.108.248q-.278.3-.554.585c-.338.355-.657.691-.969,1.034A.341.341,0,0,1,14.134,70.242ZM126.673,69.1v0c0-.018-.018-.018-.035-.018a.372.372,0,0,1-.359-.323c-.1-.687-.227-1.383-.411-2.189a.4.4,0,0,1,.041-.3.329.329,0,0,1,.21-.161.336.336,0,0,1,.093-.013.347.347,0,0,1,.337.281,22.075,22.075,0,0,1,.43,2.284.377.377,0,0,1-.056.271.385.385,0,0,1-.247.168ZM17.216,67.043a.38.38,0,0,1-.269-.115.368.368,0,0,1-.1-.267.379.379,0,0,1,.117-.266l.286-.283c.42-.415.855-.844,1.307-1.279a.369.369,0,0,1,.248-.1.325.325,0,0,1,.253.117.4.4,0,0,1-.017.533c-.3.294-.595.584-.883.865q-.357.347-.693.678A.416.416,0,0,1,17.216,67.043ZM98.081,67a.286.286,0,0,1-.125-.019.358.358,0,0,1-.191-.2.408.408,0,0,1-.005-.294c.255-.707.541-1.373.818-2.017l.042-.1a.357.357,0,0,1,.321-.212.341.341,0,0,1,.162.041.372.372,0,0,1,.181.219.4.4,0,0,1-.019.294c-.291.656-.574,1.354-.842,2.075A.394.394,0,0,1,98.081,67Zm27.482-2.342a.37.37,0,0,1-.341-.247,14.239,14.239,0,0,0-.9-2.018.39.39,0,0,1,.144-.515.38.38,0,0,1,.177-.045.332.332,0,0,1,.307.2,18.368,18.368,0,0,1,.932,2.114.406.406,0,0,1,0,.29.363.363,0,0,1-.193.2A.249.249,0,0,1,125.563,64.663ZM20.387,63.958a.313.313,0,0,1-.269-.133.4.4,0,0,1-.089-.29.352.352,0,0,1,.124-.243c.2-.181.393-.364.59-.548.339-.316.688-.642,1.04-.955a.338.338,0,0,1,.231-.089.349.349,0,0,1,.271.127.4.4,0,0,1-.035.533c-.509.469-1.085,1-1.612,1.5A.416.416,0,0,1,20.387,63.958Zm79.558-1.066a.326.326,0,0,1-.179-.057.385.385,0,0,1-.172-.246.361.361,0,0,1,.047-.268c.334-.609.715-1.226,1.2-1.942a.358.358,0,0,1,.287-.157.336.336,0,0,1,.215.08.4.4,0,0,1,.143.252.381.381,0,0,1-.071.281c-.4.585-.8,1.213-1.165,1.866A.345.345,0,0,1,99.945,62.892Zm-76.3-1.923a.317.317,0,0,1-.269-.133.4.4,0,0,1,.036-.533c.53-.489,1.088-.986,1.627-1.467l.021-.019a.334.334,0,0,1,.23-.089.351.351,0,0,1,.272.127.408.408,0,0,1-.036.534c-.274.244-.548.492-.813.732l-.01.009c-.268.242-.545.493-.824.742A.355.355,0,0,1,23.647,60.969Zm99.838-.267a.366.366,0,0,1-.287-.153,11.954,11.954,0,0,0-1.415-1.637.379.379,0,0,1-.117-.266.368.368,0,0,1,.1-.267.338.338,0,0,1,.261-.125.327.327,0,0,1,.24.105,13.341,13.341,0,0,1,1.486,1.732.388.388,0,0,1-.071.533A.352.352,0,0,1,123.485,60.7Zm-20.961-1.466a.345.345,0,0,1-.251-.115.384.384,0,0,1,0-.533,14.345,14.345,0,0,1,1.648-1.542.335.335,0,0,1,.214-.08.36.36,0,0,1,.288.156.388.388,0,0,1-.072.533,14.423,14.423,0,0,0-1.558,1.466A.415.415,0,0,1,102.525,59.236ZM26.944,58.018a.315.315,0,0,1-.269-.133.388.388,0,0,1,.054-.533q.3-.271.606-.535l.006-.006c.342-.3.7-.612,1.036-.925A.328.328,0,0,1,28.6,55.8a.342.342,0,0,1,.278.145.387.387,0,0,1-.054.533q-.284.253-.568.5l-.007.006c-.354.311-.721.633-1.073.958A.541.541,0,0,1,26.944,58.018Zm93.389-.4a.4.4,0,0,1-.2-.057,12.7,12.7,0,0,0-1.845-1.048.356.356,0,0,1-.192-.21.37.37,0,0,1,.013-.285.345.345,0,0,1,.317-.228.314.314,0,0,1,.148.037,14.038,14.038,0,0,1,1.935,1.1.405.405,0,0,1,.107.533A.342.342,0,0,1,120.332,57.618Zm-14.386-1.1a.376.376,0,0,1-.323-.21.391.391,0,0,1,.162-.514,11.473,11.473,0,0,1,2.041-.876.371.371,0,0,1,.1-.015.36.36,0,0,1,.345.262.392.392,0,0,1-.233.476,12.321,12.321,0,0,0-1.934.819A.194.194,0,0,1,105.946,56.513Zm10.463-.723a.126.126,0,0,1-.09-.019,15.194,15.194,0,0,0-1.595-.38c-.161-.038-.307-.057-.448-.076a.4.4,0,0,1-.3-.437.382.382,0,0,1,.377-.326l.036,0c.085.01.17.026.253.041s.145.027.213.035c.569.114,1.13.249,1.666.4a.392.392,0,0,1-.107.762Zm-6.379-.59a.361.361,0,0,1-.358-.343.423.423,0,0,1,.071-.281.321.321,0,0,1,.233-.138,13.636,13.636,0,0,1,1.82-.119c.126,0,.255,0,.383,0a.335.335,0,0,1,.253.116.382.382,0,0,1,.087.283.361.361,0,0,1-.347.364h-.029c-.124,0-.25-.005-.375-.005a15.3,15.3,0,0,0-1.721.1c.008.009.008.012.007.014S110.045,55.2,110.03,55.2Zm-79.79-.114a.315.315,0,0,1-.269-.133.389.389,0,0,1,.054-.534l.687-.611.961-.855a.336.336,0,0,1,.23-.089.35.35,0,0,1,.272.128.389.389,0,0,1,.083.273.394.394,0,0,1-.118.26l-.382.339-.007.006c-.42.373-.834.741-1.259,1.12A.469.469,0,0,1,30.24,55.086Zm3.3-2.933a.313.313,0,0,1-.269-.133.405.405,0,0,1,.035-.533c.581-.519,1.146-1.039,1.63-1.485a.336.336,0,0,1,.23-.089.35.35,0,0,1,.272.128.4.4,0,0,1-.035.533c-.506.466-1.038.94-1.551,1.4l-.1.086A.289.289,0,0,1,33.537,52.153Zm3.26-2.989a.319.319,0,0,1-.269-.133.405.405,0,0,1,.036-.533c.534-.5,1.026-.965,1.5-1.419l.11-.105a.353.353,0,0,1,.24-.1.317.317,0,0,1,.261.134.4.4,0,0,1,.089.29.352.352,0,0,1-.124.243c-.438.432-.9.864-1.4,1.322l-.216.2A.328.328,0,0,1,36.8,49.164ZM40,46.1a.385.385,0,0,1-.269-.114.373.373,0,0,1-.1-.269.378.378,0,0,1,.117-.264c.258-.255.511-.511.756-.757.277-.28.539-.544.8-.8a.336.336,0,0,1,.248-.107.349.349,0,0,1,.254.107.406.406,0,0,1,0,.533c-.475.488-1.013,1.04-1.576,1.581A.263.263,0,0,1,40,46.1Zm3.081-3.179a.345.345,0,0,1-.251-.115.386.386,0,0,1,0-.533c.481-.512.976-1.069,1.469-1.656a.338.338,0,0,1,.262-.125.325.325,0,0,1,.24.105.379.379,0,0,1,.117.266.368.368,0,0,1-.1.267c-.471.538-.973,1.111-1.486,1.676A.294.294,0,0,1,43.084,42.919ZM46,39.548a.362.362,0,0,1-.233-.1.41.41,0,0,1-.127-.282.346.346,0,0,1,.091-.251c.545-.687.966-1.249,1.326-1.771a.358.358,0,0,1,.287-.155.336.336,0,0,1,.215.08.4.4,0,0,1,.144.261.384.384,0,0,1-.074.272c-.366.524-.8,1.1-1.361,1.809A.34.34,0,0,1,46,39.548Zm2.579-3.656a.393.393,0,0,1-.2-.057.4.4,0,0,1-.108-.533c.429-.725.775-1.36,1.058-1.942a.356.356,0,0,1,.322-.213.342.342,0,0,1,.161.041.4.4,0,0,1,.161.515c-.278.558-.654,1.289-1.092,2A.35.35,0,0,1,48.584,35.892Zm1.935-4.055a.322.322,0,0,1-.125-.019.4.4,0,0,1-.215-.5,12.189,12.189,0,0,0,.52-2.132.379.379,0,0,1,.375-.325l.038,0a.4.4,0,0,1,.3.437,12.044,12.044,0,0,1-.556,2.267A.364.364,0,0,1,50.519,31.837ZM11.752,28.561h0a.381.381,0,0,1,0-.761,16.513,16.513,0,0,0,2.1-.191.321.321,0,0,1,.06-.006.393.393,0,0,1,.3.6.385.385,0,0,1-.249.168A19.01,19.01,0,0,1,11.752,28.561ZM9.6,28.41H9.548a9.705,9.705,0,0,1-2.15-.629.394.394,0,0,1-.2-.5.363.363,0,0,1,.337-.235.331.331,0,0,1,.129.026,9.355,9.355,0,0,0,1.988.591.4.4,0,0,1,.3.437A.369.369,0,0,1,9.6,28.41Zm6.4-.5a.351.351,0,0,1-.341-.286.384.384,0,0,1,.041-.294.342.342,0,0,1,.228-.163c.615-.163,1.331-.358,2.043-.609a.37.37,0,0,1,.1-.015.36.36,0,0,1,.345.262.392.392,0,0,1-.234.476c-.756.256-1.483.452-2.1.609A.183.183,0,0,1,16,27.914Zm35.166-.552h-.036a.377.377,0,0,1-.358-.343,8.658,8.658,0,0,0-.448-2.132.38.38,0,0,1,.007-.277.4.4,0,0,1,.208-.219.3.3,0,0,1,.118-.024A.385.385,0,0,1,51,24.62a10.086,10.086,0,0,1,.484,2.322A.379.379,0,0,1,51.164,27.362ZM5.679,26.676a.32.32,0,0,1-.214-.076,9.61,9.61,0,0,1-1.255-1.218,3.689,3.689,0,0,1-.34-.419.405.405,0,0,1,.035-.533.338.338,0,0,1,.231-.089.349.349,0,0,1,.271.127l.323.4A9.69,9.69,0,0,0,5.894,26.01a.4.4,0,0,1,.072.533A.413.413,0,0,1,5.679,26.676ZM20.1,26.6a.367.367,0,0,1-.341-.247.383.383,0,0,1,.014-.29.394.394,0,0,1,.2-.2l.555-.217c.463-.18.943-.367,1.452-.584a.331.331,0,0,1,.129-.026.363.363,0,0,1,.337.235.394.394,0,0,1-.2.5c-.8.339-1.442.593-2.024.8A.242.242,0,0,1,20.1,26.6Zm4.013-1.656a.377.377,0,0,1-.144-.723c.331-.143.668-.293.994-.438s.663-.295.994-.438a.331.331,0,0,1,.13-.026.363.363,0,0,1,.336.236.407.407,0,0,1-.006.293.36.36,0,0,1-.192.2c-.686.316-1.377.613-1.988.876a.218.218,0,0,0-.05.008A.3.3,0,0,1,24.113,24.944ZM2.83,23.287a.368.368,0,0,1-.3-.172A20.3,20.3,0,0,1,1.416,21.1a.39.39,0,0,1,.161-.514.341.341,0,0,1,.162-.041.355.355,0,0,1,.321.212,18.433,18.433,0,0,0,1.058,1.924.422.422,0,0,1,.054.3.364.364,0,0,1-.144.233A.29.29,0,0,1,2.83,23.287Zm25.26-.115a.351.351,0,0,1-.323-.228.408.408,0,0,1,.005-.293.362.362,0,0,1,.192-.2c.646-.3,1.3-.58,1.936-.854l.051-.022a.328.328,0,0,1,.129-.026.363.363,0,0,1,.337.236.394.394,0,0,1-.2.5l-.069.03c-.629.271-1.279.551-1.92.846a.475.475,0,0,0-.086.011A.339.339,0,0,1,28.09,23.172Zm21.6-.057a.346.346,0,0,1-.3-.171,9.458,9.458,0,0,0-1.309-1.695.387.387,0,0,1,0-.533.332.332,0,0,1,.5,0A11.828,11.828,0,0,1,50,22.545a.411.411,0,0,1-.107.533l-.03.008A.593.593,0,0,1,49.695,23.115ZM32.067,21.459a.37.37,0,0,1-.341-.247.394.394,0,0,1,.2-.5c.5-.209.971-.39,1.422-.565l.6-.235a.3.3,0,0,1,.118-.024.35.35,0,0,1,.33.253.375.375,0,0,1-.013.285.343.343,0,0,1-.2.19c-.568.208-1.169.447-1.8.7l-.2.08A.108.108,0,0,1,32.067,21.459Zm14.547-1.466a.612.612,0,0,1-.18-.039,7.406,7.406,0,0,0-1.916-.78.389.389,0,0,1-.269-.457.367.367,0,0,1,.356-.293.4.4,0,0,1,.074.007,7.967,7.967,0,0,1,2.1.857.39.39,0,0,1,.144.515A.345.345,0,0,1,46.614,19.993Zm-10.481-.039a.35.35,0,0,1-.34-.267.387.387,0,0,1,.251-.476c.749-.233,1.484-.426,2.113-.59a.4.4,0,0,1,.074-.007.369.369,0,0,1,.357.293.389.389,0,0,1-.269.457c-.692.164-1.385.356-2.061.572A.341.341,0,0,1,36.133,19.955Zm-35.2-.761a.347.347,0,0,1-.34-.267,16.663,16.663,0,0,1-.484-2.285.386.386,0,0,1,.3-.439.321.321,0,0,1,.06-.006.374.374,0,0,1,.353.329A13.294,13.294,0,0,0,1.29,18.7a.393.393,0,0,1-.234.476A.322.322,0,0,1,.931,19.194ZM40.379,19h-.035a.361.361,0,0,1-.359-.343.38.38,0,0,1,.323-.419,15.043,15.043,0,0,1,1.845-.119c.121,0,.241,0,.359,0a.331.331,0,0,1,.249.12.382.382,0,0,1,.091.28.359.359,0,0,1-.346.363l-.031,0q-.161,0-.326,0a13.782,13.782,0,0,0-1.77.12ZM.358,14.7A.378.378,0,0,1,0,14.3a17.3,17.3,0,0,1,.233-2.324.356.356,0,0,1,.345-.311.36.36,0,0,1,.3.162.392.392,0,0,1,.055.282A15.66,15.66,0,0,0,.7,14.319.373.373,0,0,1,.358,14.7Zm.771-4.495a.223.223,0,0,1-.107-.018.353.353,0,0,1-.2-.182.411.411,0,0,1-.032-.294A21.491,21.491,0,0,1,1.612,7.54a.376.376,0,0,1,.341-.219A.363.363,0,0,1,2.1,7.35a.419.419,0,0,1,.179.514,19.787,19.787,0,0,0-.789,2.075A.4.4,0,0,1,1.128,10.206Zm1.81-4.131a.3.3,0,0,1-.18-.057A.392.392,0,0,1,2.633,5.5c.313-.538.733-1.242,1.219-1.923a.36.36,0,0,1,.288-.156.332.332,0,0,1,.213.08.4.4,0,0,1,.145.261.383.383,0,0,1-.073.272c-.411.582-.808,1.211-1.182,1.867A.325.325,0,0,1,2.939,6.074ZM5.482,2.4a.361.361,0,0,1-.233-.1.405.405,0,0,1-.035-.533A21.649,21.649,0,0,1,6.712.119L6.735.1A.353.353,0,0,1,6.976,0a.32.32,0,0,1,.262.133.4.4,0,0,1,.088.291A.351.351,0,0,1,7.2.666,18.966,18.966,0,0,0,5.732,2.285.349.349,0,0,1,5.482,2.4Z" transform="translate(0)" fill="#5db571"/>
  <path id="Vector-3" data-name="Vector" d="M31.888,23.23c1.791,8.759,2.329,10.853,2.329,10.853H12L0,0,25.439,1.714S30.1,14.471,31.888,23.23Z" transform="translate(100.626 119.367)" fill="#f9d2dd"/>
  <path id="Vector-4" data-name="Vector" d="M0,0,2.866,8l25.618,2.666c-1.362-4.208-3.045-8.949-3.045-8.949Z" transform="translate(100.626 119.367)" fill="#f9acc0"/>
  <path id="Vector-5" data-name="Vector" d="M18.452,44.13,13.615,76.88h83.3L90.827,49.652l20.064-1.9s-8.6-30.465-25.8-40.366-41.92-9.33-57.326-1.333C18.273,10.98,2.866,28.707,0,44.13Z" transform="translate(17.144 76.57)" fill="#00af47"/>
  <path id="Vector-6" data-name="Vector" d="M18.452,44.12,13.615,76.87h83.3L90.827,49.642l20.064-1.9s-4.658-27.419-25.8-40.366C68.147-3.006,43.407-1.464,27.767,6.039,16.66,11.37,4.479,24.7,0,44.12Z" transform="translate(17.144 76.58)" fill="#00af47"/>
  <path id="Vector-7" data-name="Vector" d="M27,28.2a.873.873,0,0,1-.351-.074L17.088,23.97a.3.3,0,0,0-.179,0L9.026,27.207a3.677,3.677,0,0,1-1.413.284,3.987,3.987,0,0,1-3.674-2.682L.266,14.659A4.275,4.275,0,0,1,2.523,9.251L24.433.284A3.682,3.682,0,0,1,25.848,0,3.96,3.96,0,0,1,29.52,2.682l3.673,10.149a4.363,4.363,0,0,1-.074,3.2,4.056,4.056,0,0,1-2.183,2.212l-4.694,1.923a.276.276,0,0,0-.141.145.259.259,0,0,0,0,.2l2.15,5.9a1.315,1.315,0,0,1-.024.958,1.206,1.206,0,0,1-.657.66h-.018a.022.022,0,0,0-.017.009.023.023,0,0,1-.018.01A.994.994,0,0,1,27,28.2ZM14.651,10.452l-3.564.151c-.024.007-.049.011-.073.015a.471.471,0,0,0-.142.042.674.674,0,0,0-.372.376.718.718,0,0,0,0,.539l2.491,6.874a.647.647,0,0,0,.606.458h.038l4.032-.153a.149.149,0,0,0,.089-.019.359.359,0,0,0,.179-.437l-2.651-7.407A.68.68,0,0,0,14.651,10.452ZM19.357,7.2a.651.651,0,0,0-.424.162L16.21,9.8a.747.747,0,0,0-.18.762l2.688,7.407.006.012a.367.367,0,0,0,.048.083.3.3,0,0,0,.236.113.288.288,0,0,0,.194-.075l3.1-2.761a.648.648,0,0,0,.162-.8L19.972,7.652a.42.42,0,0,0-.075-.143c-.011-.016-.022-.031-.032-.047A.637.637,0,0,0,19.357,7.2Z" transform="translate(8.656 55.011)" fill="#fff"/>
  <g id="Group" transform="translate(107.85 35.019)">
    <path id="Vector-8" data-name="Vector" d="M0,2.628a1.441,1.441,0,0,0,1.344-.952A1.655,1.655,0,0,0,1.057,0L.2,2.19A4.708,4.708,0,0,1,0,2.628Z" transform="translate(23.624 13.402)" fill="#fff"/>
    <path id="Vector-9" data-name="Vector" d="M3.449,1.74,3.4.445c-.036-.457-.3-.59-.609-.267l-.9.838L.744.692C.35.6.153.845.314,1.245L.762,2.463.1,3.606c-.215.381-.072.647.34.59l1.2-.152.734,1.047c.251.343.52.267.627-.171l.287-1.295,1.129-.514c.376-.19.412-.514.054-.743Z" transform="translate(17.559 10.615)" fill="#fff"/>
    <path id="Vector-10" data-name="Vector" d="M.557,2.771a2.836,2.836,0,0,1,.161-.514L1.6.01A1.415,1.415,0,0,0,.109.943,1.642,1.642,0,0,0,.557,2.771Z" transform="translate(14.702 9.622)" fill="#fff"/>
    <path id="Vector-11" data-name="Vector" d="M7.041,30.683A.982.982,0,0,1,6.48,30.5l-.286-.115a1.008,1.008,0,0,1-.553-.549,1.127,1.127,0,0,1-.021-.821l2.526-6.95L2.557,19.78a4.374,4.374,0,0,1-2.293-5.5L4.437,2.72A4.013,4.013,0,0,1,8.183,0,3.792,3.792,0,0,1,9.616.282l24.274,9.94a4.349,4.349,0,0,1,2.292,5.483L31.991,27.264a4.036,4.036,0,0,1-3.742,2.72,3.794,3.794,0,0,1-1.435-.282l-8.9-3.656L7.429,30.6A.9.9,0,0,1,7.041,30.683Zm7.525-11.065a.589.589,0,0,0-.543.391.658.658,0,0,0,0,.481.609.609,0,0,0,.322.338l4.066,1.789a.565.565,0,0,0,.227.048.589.589,0,0,0,.543-.391.659.659,0,0,0,0-.48.608.608,0,0,0-.323-.339l-1.486-.666.824-2.113a4.288,4.288,0,0,0,1.271.193,4.374,4.374,0,0,0,3.154-1.355,2.463,2.463,0,0,0,.793.131,2.66,2.66,0,0,0,2.449-1.731,2.839,2.839,0,0,0-.9-3.313l.376-.97a.924.924,0,0,0-.448-1.181L18.053,7.423a.809.809,0,0,0-.329-.07.841.841,0,0,0-.781.546l-.359.933a2.47,2.47,0,0,0-.59-.072,2.655,2.655,0,0,0-2.455,1.729,2.9,2.9,0,0,0,1.38,3.655,4.909,4.909,0,0,0,2.2,4.056l-.842,2.132-1.486-.666A.565.565,0,0,0,14.566,19.618Z" transform="translate(0)" fill="#fff"/>
  </g>
  <path id="Vector-12" data-name="Vector" d="M4.694,19.764l.752.209L10.534,0,0,16.756H5.141Z" transform="translate(30.455 103.944)" fill="#008235"/>
  <path id="Vector-13" data-name="Vector" d="M.015,24.106C.373,16.87,5.748,13.824,7.9,13.633a5.971,5.971,0,0,1,3.583.762s.9-12.186,8.241-13.9,10.928,1.333,12.9,4.379,1.791,4.76,1.791,4.76,2.866-2.475,7.882-.381,3.583,8,3.583,8,3.941-1.142,5.912,5.712S47.13,41.242,44.622,42.956,5.748,37.815,5.748,37.815-.343,31.341.015,24.106Z" transform="translate(45.971 8.626)" fill="#1f1f39"/>
  <path id="Vector-14" data-name="Vector" d="M3.017.592C-.566,2.306-.924,7.447,1.763,10.684s9.495,2.475,9.495,2.475L9.431,1.43A6.021,6.021,0,0,0,3.017.592Z" transform="translate(47.09 42.993)" fill="#f9acc0"/>
  <path id="Vector-15" data-name="Vector" d="M8.241.592c3.583,1.714,3.941,6.855,1.254,10.092S0,13.159,0,13.159L1.827,1.43A6.021,6.021,0,0,1,8.241.592Z" transform="translate(84.7 42.993)" fill="#f9acc0"/>
  <path id="Vector-16" data-name="Vector" d="M5.543,6.958A7.806,7.806,0,0,0,4.164,3.493,7.807,7.807,0,0,0,.2.561a.285.285,0,0,1-.2-.343A.267.267,0,0,1,.33.008,8.261,8.261,0,0,1,4.612,3.169,7.937,7.937,0,0,1,6.1,6.939a.318.318,0,0,1-.287.3A.285.285,0,0,1,5.543,6.958Z" transform="translate(51.55 46.813)" fill="#1f1f39"/>
  <path id="Vector-17" data-name="Vector" d="M.146,6.438a.32.32,0,0,1-.125-.381A17.434,17.434,0,0,1,2.762,1.983,5.871,5.871,0,0,1,5.592,0a.267.267,0,0,1,.3.228.281.281,0,0,1-.215.324A5.726,5.726,0,0,0,3.138,2.383,17.166,17.166,0,0,0,.5,6.3a.247.247,0,0,1-.233.171A.317.317,0,0,1,.146,6.438Z" transform="translate(86.65 47.009)" fill="#1f1f39"/>
  <path id="Vector-18" data-name="Vector" d="M1.462,24.6A20.165,20.165,0,0,0,8.987,35.071a41.266,41.266,0,0,1-.537,8.188,19.828,19.828,0,0,1-1.433,4.76S8.27,50.875,14.9,50.875c7.166,0,9.136-2.856,9.136-2.856A38.829,38.829,0,0,1,22.781,42.5a55.235,55.235,0,0,1-.179-7.235s5.554-.762,7.7-9.14a44.866,44.866,0,0,0,1.075-15.8S20.81,12.032,17.227,7.462,10.061-1.677,4.866.608.029,8.6.029,8.6-.329,17.935,1.462,24.6Z" transform="translate(56.169 31.552)" fill="#f9d2dd"/>
  <path id="Vector-19" data-name="Vector" d="M2.03,2.616C.945,2.645.08,2.115.1,1.431S1.009.169,2.095.14s1.951.5,1.933,1.185S3.116,2.587,2.03,2.616Z" transform="translate(61.495 38.816) rotate(-30.001)" fill="#1f1f39"/>
  <path id="Vector-20" data-name="Vector" d="M1.612,4A1.837,1.837,0,0,1,0,2,1.837,1.837,0,0,1,1.612,0,1.837,1.837,0,0,1,3.225,2,1.837,1.837,0,0,1,1.612,4Z" transform="translate(64.797 46.06)" fill="#1f1f39"/>
  <path id="Vector-21" data-name="Vector" d="M1.612,4A1.837,1.837,0,0,1,0,2,1.837,1.837,0,0,1,1.612,0,1.837,1.837,0,0,1,3.225,2,1.837,1.837,0,0,1,1.612,4Z" transform="translate(76.62 46.06)" fill="#1f1f39"/>
  <path id="Vector-22" data-name="Vector" d="M2.6,1.523A3.817,3.817,0,0,0,5.112,0,2.59,2.59,0,0,1,3.5,3.047,2.639,2.639,0,0,1,.1,0,2.793,2.793,0,0,0,2.6,1.523Z" transform="translate(69.895 53.105)" fill="#f95368"/>
  <path id="Vector-23" data-name="Vector" d="M.1,4.189c.537,1.142,1.971.571,1.971.571S.638,4.379.638,3.237A13.945,13.945,0,0,1,1.355,0S-.437,3.047.1,4.189Z" transform="translate(70.966 46.631)" fill="#1f1f39"/>
  <g id="Group-2" data-name="Group" transform="translate(56.556 41.871)">
    <path id="Vector-24" data-name="Vector" d="M6.9,14.662A7.132,7.132,0,0,1,0,7.331,7.132,7.132,0,0,1,6.9,0a7.132,7.132,0,0,1,6.9,7.331A7.132,7.132,0,0,1,6.9,14.662ZM6.9.571a6.577,6.577,0,0,0-6.36,6.76A6.576,6.576,0,0,0,6.9,14.09a6.576,6.576,0,0,0,6.359-6.759A6.576,6.576,0,0,0,6.9.571Z" transform="translate(0)" fill="#1f1f39"/>
    <path id="Vector-25" data-name="Vector" d="M6.9,14.662A7.132,7.132,0,0,1,0,7.331,7.132,7.132,0,0,1,6.9,0a7.132,7.132,0,0,1,6.9,7.331A7.132,7.132,0,0,1,6.9,14.662ZM6.9.571a6.577,6.577,0,0,0-6.36,6.76A6.576,6.576,0,0,0,6.9,14.09a6.576,6.576,0,0,0,6.359-6.759A6.576,6.576,0,0,0,6.9.571Z" transform="translate(17.198)" fill="#1f1f39"/>
    <path id="Vector-26" data-name="Vector" d="M0,.267A9.163,9.163,0,0,1,2.257,0,4.552,4.552,0,0,1,4.12.286L3.905.8A4.436,4.436,0,0,0,2.275.571,7.58,7.58,0,0,0,.125.819Z" transform="translate(13.471 4.893)" fill="#1f1f39"/>
  </g>
  <path id="Vector-27" data-name="Vector" d="M.358,8.188C.233,8.759.125,9.273,0,9.749c.107-.038.215-.057.322-.1C8.062,7.483,12.236,4.665,14.457,2.494c0-1.333.036-2.3.036-2.3s-2.15,1.333-7.345,1.142A15.26,15.26,0,0,1,.9,0,44.055,44.055,0,0,1,.358,8.188Z" transform="translate(64.259 66.624)" fill="#f9acc0"/>
  <g id="Group-3" data-name="Group" transform="translate(59.243 50.439)">
    <path id="Vector-28" data-name="Vector" d="M3.493,4.57C1.564,4.57,0,3.547,0,2.285S1.564,0,3.493,0,6.987,1.023,6.987,2.285,5.423,4.57,3.493,4.57Z" transform="translate(18.452 0)" fill="#f9acc0"/>
    <path id="Vector-29" data-name="Vector" d="M3.493,4.57C1.564,4.57,0,3.547,0,2.285S1.564,0,3.493,0,6.987,1.023,6.987,2.285,5.423,4.57,3.493,4.57Z" transform="translate(0 0)" fill="#f9acc0"/>
  </g>
  <path id="Vector-30" data-name="Vector" d="M7.345,24.753l5.983-.533L0,0Z" transform="translate(100.626 101.468)" fill="#008235"/>
  <path id="Vector-31" data-name="Vector" d="M.134.542a.289.289,0,0,1-.09-.4.255.255,0,0,1,.376-.1A10.754,10.754,0,0,0,5.652,1.342a.286.286,0,0,1,0,.571A11.206,11.206,0,0,1,.134.542Z" transform="translate(64.968 66.615)" fill="#1f1f39"/>
  <path id="Vector-32" data-name="Vector" d="M46.414,9.888c1-.914.86-2.894.43-4.113a12.208,12.208,0,0,0-1.415-2.4A2.21,2.21,0,0,1,45.25.882C45.895-.051,47.794-.2,49.281.235a5.45,5.45,0,0,1,2.705,1.618,11.055,11.055,0,0,1,2.15,4,5.767,5.767,0,0,1,5.912,0A3.326,3.326,0,0,1,61.3,8.708a4.128,4.128,0,0,1,2.866,1.333c1.29,1.371.358,3.427.358,3.427a3.718,3.718,0,0,1,.609,4.227c-.788,1.485-3.726,5.122-9.495,8.3-8.635,4.76-26.675,16.185-39.125,17.556-8.044.876-19.169-2.094-15.944-17.9S5.05,6.233,5.05,6.233H23.86l-2.884,12S45.411,10.8,46.414,9.888Z" transform="translate(12.829 114.467)" fill="#f9d2dd"/>
  <path id="Vector-33" data-name="Vector" d="M.016,4.092A.3.3,0,0,1,.177,3.73L10.657.017A.27.27,0,0,1,11,.188a.3.3,0,0,1-.161.362L.356,4.263a.153.153,0,0,1-.09.019A.271.271,0,0,1,.016,4.092Z" transform="translate(23.058 132.412)" fill="#1f1f39"/>
  <path id="Vector-34" data-name="Vector" d="M.037,3.771a.317.317,0,0,1,.09-.4L5.232.039a.277.277,0,0,1,.376.1.317.317,0,0,1-.09.4L.413,3.866A.4.4,0,0,1,.269,3.9.3.3,0,0,1,.037,3.771Z" transform="translate(68.737 122.888)" fill="#1f1f39"/>
  <path id="Vector-35" data-name="Vector" d="M.037,3.771a.317.317,0,0,1,.09-.4L5.232.039a.277.277,0,0,1,.376.1.317.317,0,0,1-.09.4L.413,3.866A.4.4,0,0,1,.269,3.9.3.3,0,0,1,.037,3.771Z" transform="translate(71.783 127.839)" fill="#1f1f39"/>
  <path id="Vector-36" data-name="Vector" d="M1.63.829A8.779,8.779,0,0,1,0,5.608C2.9,5.38,4.694,2.429,5.679.087A6.334,6.334,0,0,0,1.63.829Z" transform="translate(65.334 119.471)" fill="#f9acc0"/>
  <path id="Vector-37" data-name="Vector" d="M20.476,0H1.666S1.164,1.428,0,6.436L19.975,2.114Z" transform="translate(16.194 120.7)" fill="#f9acc0"/>
  <path id="Vector-38" data-name="Vector" d="M.194,4.719A.371.371,0,0,1,.051,4.2l1.971-4A.33.33,0,0,1,2.5.054a.371.371,0,0,1,.143.514l-1.971,4a.4.4,0,0,1-.322.19A.5.5,0,0,1,.194,4.719Z" transform="translate(71.787 110.611)" fill="#eaeaff"/>
  <g id="Group-4" data-name="Group" transform="translate(26.101 87.564)">
    <path id="Vector-39" data-name="Vector" d="M1.626,6.774.014.491A.384.384,0,0,1,.265.015.356.356,0,0,1,.712.281L2.325,6.565a.384.384,0,0,1-.251.476.252.252,0,0,1-.107.019A.35.35,0,0,1,1.626,6.774Z" transform="translate(24.547 1.323)" fill="#eaeaff"/>
    <path id="Vector-40" data-name="Vector" d="M.222,6.633a.4.4,0,0,1-.2-.5l2.15-5.9A.356.356,0,0,1,2.64.026a.4.4,0,0,1,.2.5l-2.15,5.9a.379.379,0,0,1-.34.228A.288.288,0,0,1,.222,6.633Z" transform="translate(33.69 11.822)" fill="#eaeaff"/>
    <path id="Vector-41" data-name="Vector" d="M2.547,5.7.039.555A.393.393,0,0,1,.2.041.349.349,0,0,1,.683.212L3.192,5.353a.393.393,0,0,1-.161.514.5.5,0,0,1-.161.038A.375.375,0,0,1,2.547,5.7Z" transform="translate(17.733 26.469)" fill="#eaeaff"/>
    <path id="Vector-42" data-name="Vector" d="M.107,3.5a.384.384,0,0,1,0-.533L2.795.114a.332.332,0,0,1,.5,0,.384.384,0,0,1,0,.533L.609,3.5a.344.344,0,0,1-.251.114A.344.344,0,0,1,.107,3.5Z" transform="translate(60.014 38.658)" fill="#eaeaff"/>
    <path id="Vector-43" data-name="Vector" d="M2.949,4.429.082.621A.385.385,0,0,1,.136.087a.334.334,0,0,1,.5.057L3.5,3.953a.385.385,0,0,1-.054.533.254.254,0,0,1-.215.1A.367.367,0,0,1,2.949,4.429Z" transform="translate(58.57 53.688)" fill="#eaeaff"/>
    <path id="Vector-44" data-name="Vector" d="M.151,4.692a.406.406,0,0,1-.09-.533l2.687-4a.353.353,0,0,1,.5-.1A.406.406,0,0,1,3.34.6L.653,4.6a.34.34,0,0,1-.287.171A.331.331,0,0,1,.151,4.692Z" transform="translate(39.942 58.261)" fill="#eaeaff"/>
    <path id="Vector-45" data-name="Vector" d="M.237,6.079a.4.4,0,0,1-.215-.5L1.814.252A.36.36,0,0,1,2.28.024a.4.4,0,0,1,.215.5L.7,5.85a.368.368,0,0,1-.34.248A.288.288,0,0,1,.237,6.079Z" transform="translate(74.878 48.363)" fill="#eaeaff"/>
    <path id="Vector-46" data-name="Vector" d="M0,7.045V.381A.371.371,0,0,1,.358,0,.371.371,0,0,1,.717.381V7.045a.371.371,0,0,1-.358.381A.371.371,0,0,1,0,7.045Z" transform="translate(62.164 12.381)" fill="#eaeaff"/>
    <path id="Vector-47" data-name="Vector" d="M.908,4.088.013.47A.369.369,0,0,1,.263.013.344.344,0,0,1,.693.28l.9,3.618a.369.369,0,0,1-.251.457.153.153,0,0,1-.09.019A.35.35,0,0,1,.908,4.088Z" transform="translate(49.091 0.011)" fill="#eaeaff"/>
    <path id="Vector-48" data-name="Vector" d="M.237,4.365a.4.4,0,0,1-.215-.5L1.276.252A.36.36,0,0,1,1.742.024a.4.4,0,0,1,.215.5L.7,4.137a.368.368,0,0,1-.34.248A.288.288,0,0,1,.237,4.365Z" transform="translate(72.908 0)" fill="#eaeaff"/>
    <path id="Vector-49" data-name="Vector" d="M.179,4.589,0,.4A.387.387,0,0,1,.34,0,.381.381,0,0,1,.717.362L.9,4.551a.388.388,0,0,1-.358.4h0A.366.366,0,0,1,.179,4.589Z" transform="translate(0 13.524)" fill="#eaeaff"/>
  </g>
  <path id="Vector-50" data-name="Vector" d="M5.434,1.72.293.749A.37.37,0,0,1,.006.311a.352.352,0,0,1,.412-.3L5.56.978a.37.37,0,0,1,.287.438.353.353,0,0,1-.34.3Z" transform="translate(114.593 103.575)" fill="#eaeaff"/>
  <path id="Vector-51" data-name="Vector" d="M0,2.306a.379.379,0,0,1,.322-.419L20.317,0a.368.368,0,0,1,.394.343.379.379,0,0,1-.322.419L.4,2.629a.062.062,0,0,1-.036.019A.376.376,0,0,1,0,2.306Z" transform="translate(106.589 120.546)" fill="#eaeaff"/>
  <path id="Vector-52" data-name="Vector" d="M0,1.085a.387.387,0,0,1,.34-.4L19.921,0A.381.381,0,0,1,20.3.362a.387.387,0,0,1-.34.4l-19.6.685A.367.367,0,0,1,0,1.085Z" transform="translate(17.467 116.606)" fill="#eaeaff"/>
  <path id="Vector-53" data-name="Vector" d="M.195,19.019a.262.262,0,0,1-.179-.343L4.853.207a.249.249,0,0,1,.322-.19.262.262,0,0,1,.179.343L.517,18.829a.257.257,0,0,1-.251.209A.1.1,0,0,1,.195,19.019Z" transform="translate(36.44 101.566)" fill="#1f1f39"/>
  <path id="Vector-54" data-name="Vector" d="M7.175,25.124.009.371A.306.306,0,0,1,.188.01.281.281,0,0,1,.529.2L7.694,24.953a.306.306,0,0,1-.179.362.185.185,0,0,1-.09.019A.267.267,0,0,1,7.175,25.124Z" transform="translate(100.276 101.078)" fill="#1f1f39"/>
</svg>
