<svg id="Polygon_7" data-name="Polygon 7" xmlns="http://www.w3.org/2000/svg" width="38" height="38" viewBox="0 0 38 38">
  <path id="Path_8628" data-name="Path 8628" d="M19,36.678,13.953,24.321l-.079-.194-.194-.079L1.322,19l12.357-5.047.194-.079.079-.194L19,1.322l5.047,12.357.079.194.194.079L36.678,19,24.321,24.047l-.194.079-.079.194Z" fill="#fff"/>
  <path id="Path_8629" data-name="Path 8629" d="M19,2.645,14.257,14.257,2.645,19l11.612,4.743L19,35.355l4.743-11.612L35.355,19,23.743,14.257,19,2.645M19,0l5.51,13.49L38,19,24.51,24.51,19,38,13.49,24.51,0,19l13.49-5.51Z" fill="#34bf6c"/>
</svg>
