<svg id="Polygon_4" data-name="Polygon 4" xmlns="http://www.w3.org/2000/svg" width="66" height="66" viewBox="0 0 66 66">
  <path id="Path_8630" data-name="Path 8630" d="M33,64.678l-9.107-22.3-.079-.194-.194-.079L1.322,33l22.3-9.107.194-.079.079-.194L33,1.322l9.107,22.3.079.194.194.079L64.678,33l-22.3,9.107-.194.079-.079.194Z" fill="#fff"/>
  <path id="Path_8631" data-name="Path 8631" d="M33,2.645,24.2,24.2,2.645,33,24.2,41.8,33,63.355,41.8,41.8,63.355,33,41.8,24.2,33,2.645M33,0l9.57,23.43L66,33,42.57,42.57,33,66,23.43,42.57,0,33l23.43-9.57Z" fill="#34bf6c"/>
</svg>
