<svg xmlns="http://www.w3.org/2000/svg" width="24" height="24" viewBox="0 0 24 24">
  <path id="language" d="M21,21H19.287l-.658-1.846h-3L14.966,21H13.307l3.04-8h1.6Zm-2.814-3.12-1.049-3.018L16.083,17.88ZM8.722,5.843l.125-.562-1.02-.2-.1.464a4.437,4.437,0,0,0-1.083-.019c.009-.249.023-.494.045-.728H7.829V3.833h-1A5.112,5.112,0,0,1,6.959,3.3l-1-.3a7.043,7.043,0,0,0-.2.833H4.629V4.8H5.643c-.027.312-.043.637-.048.964A2.122,2.122,0,0,0,4,7.668,1.483,1.483,0,0,0,5.709,9.15,3.356,3.356,0,0,0,8.388,6.842a1.025,1.025,0,0,1,.548,1.286c-.185.436-.725.852-1.757.831V10A2.728,2.728,0,0,0,9.894,8.531,2.081,2.081,0,0,0,8.722,5.843Zm-1.342.71a3.493,3.493,0,0,1-.648,1c-.041-.3-.07-.628-.086-.978a3.632,3.632,0,0,1,.734-.02Zm-1.758.336A9.564,9.564,0,0,0,5.77,8.094c-.927.169-.963-.744-.148-1.2ZM21,12a1,1,0,0,1,1,1v8a1,1,0,0,1-1,1H13a1,1,0,0,1-1-1V13a1,1,0,0,1,1-1Zm0-2H13a3,3,0,0,0-3,3v8a3,3,0,0,0,3,3h8a3,3,0,0,0,3-3V13A3,3,0,0,0,21,10ZM8,13a4.923,4.923,0,0,1,.1-1H3a1,1,0,0,1-1-1V3A1,1,0,0,1,3,2h8a1,1,0,0,1,1,1V8.1A4.988,4.988,0,0,1,13,8h1V3a3,3,0,0,0-3-3H3A3,3,0,0,0,0,3v8a3,3,0,0,0,3,3H8Z" fill="#5fbd74"/>
</svg>
