<svg id="snapchat" xmlns="http://www.w3.org/2000/svg" width="17.466" height="16.754" viewBox="0 0 17.466 16.754">
  <path id="Path_16351" data-name="Path 16351" d="M14.982,14.464c.714-.114,2.2-.384,2.246-1.1a.4.4,0,0,0-.327-.414h0c-2.2-.37-3.59-2.906-3.376-3.413.154-.367.843-.509,1.146-.628,1.452-.582.827-1.578-.031-1.578-.386,0-.845.419-1.268.222.131-2.23.364-3.8-1.214-5.321a4.822,4.822,0,0,0-7.62,1.5,9.947,9.947,0,0,0-.192,3.825A1.352,1.352,0,0,1,3.326,7.4c-.743-.354-2.014.808-.277,1.507.752.3,1.464.386,1.067,1.209a5.813,5.813,0,0,1-.851,1.349C1.63,13.4.141,12.606.532,13.534h0c.248.59,1.567.827,2.2.929.175.334.048,1.1.645,1.1a5.706,5.706,0,0,1,1.89-.1c1.291.22,2.757,2.95,6,.62h0a2.753,2.753,0,0,1,2.678-.576c1.078.212.779-.545,1.03-1.042Z" transform="translate(-0.127 -0.613)" fill="#ffeb3b"/>
  <path id="Path_16352" data-name="Path 16352" d="M8.692,17.227c.012,0-.024,0-.062,0a4.113,4.113,0,0,1-2.524-.987c-2.233-1.608-3.238.833-3.777-1.591-3.087-.548-2.481-2.07-1.7-2.2A3.739,3.739,0,0,0,2.86,11.094a4.11,4.11,0,0,0,.872-1.555c-.073-.175-.732-.344-.945-.43-2.2-.885-.633-2.743.567-2.174a1.7,1.7,0,0,0,.48.161,9.039,9.039,0,0,1,.243-3.652,5.137,5.137,0,0,1,9.31,0,8.957,8.957,0,0,1,.242,3.636c.356-.089.753-.415,1.386-.153.99.36,1.236,1.7-.607,2.275-.167.055-.617.2-.675.338a4.364,4.364,0,0,0,3.1,2.914.757.757,0,0,1,.63.795c-.052.924-1.407,1.241-2.327,1.4-.135.609-.234,1.132-.907,1.132-1.15-.068-1.514-.515-2.87.461a4,4,0,0,1-2.668.981ZM10.864,15.7c1.647-1.184,2.048-.744,3.365-.648.158,0,.045-.271.384-1.055.288-.057,1.917-.287,2.11-.74h0l-.01-.089a5.219,5.219,0,0,1-3.563-3.034c-.727-1.5,1.279-1.484,1.8-2.026.211-.221.06-.415-.2-.508-.435-.18-.581.194-1.26.225a1.35,1.35,0,0,1-.626-.19c.162-2.268.384-3.865-1.088-5.284A4.458,4.458,0,0,0,4.744,3.735c-.4.9-.219,2.729-.146,3.91a1.475,1.475,0,0,1-1.557-.054c-.28-.133-1.26.327.016.842.343.138,1.121.285,1.346.826.346.834-1.338,3.523-3.651,3.911h0l-.012.09c.205.489,2.033.716,2.106.739a3.792,3.792,0,0,1,.309,1c.077.262.723-.257,2.052-.025,1.389.236,2.749,2.817,5.658.734Z" transform="translate(0.001 -0.479)" fill="#212121"/>
</svg>
