<svg xmlns="http://www.w3.org/2000/svg" width="23.927" height="16.753" viewBox="0 0 23.927 16.753">
  <g id="youtube" transform="translate(0 0)">
    <path id="Path_16353" data-name="Path 16353" d="M23.434,2.622A3,3,0,0,0,21.326.513C19.453,0,11.963,0,11.963,0S4.474,0,2.6.493A3.059,3.059,0,0,0,.493,2.622,31.588,31.588,0,0,0,0,8.377a31.472,31.472,0,0,0,.493,5.755A3,3,0,0,0,2.6,16.241c1.892.512,9.362.512,9.362.512s7.49,0,9.362-.493a3,3,0,0,0,2.109-2.109A31.589,31.589,0,0,0,23.927,8.4a29.983,29.983,0,0,0-.493-5.775Zm0,0" transform="translate(0 0)" fill="red"/>
    <path id="Path_16354" data-name="Path 16354" d="M204.969,109.659l6.228-3.587-6.228-3.587Zm0,0" transform="translate(-195.39 -97.695)" fill="#fff"/>
  </g>
</svg>
