<svg xmlns="http://www.w3.org/2000/svg" xmlns:xlink="http://www.w3.org/1999/xlink" width="169.219" height="192.416" viewBox="0 0 169.219 192.416">
  <defs>
    <clipPath id="clip-path">
      <path id="Path_8495" data-name="Path 8495" d="M58.77,22.756h-.615S53.194-7.86,71.383-18.066s43.7-12.176,57.545,0,9.76,40.822,9.76,40.822h3.762a42.77,42.77,0,0,1,42.77,42.77v57.646a42.77,42.77,0,0,1-42.77,42.77H58.77A42.77,42.77,0,0,1,16,123.172V65.526A42.77,42.77,0,0,1,58.77,22.756Z" transform="translate(-0.08 21.953)" fill="#88daa9"/>
    </clipPath>
    <clipPath id="clip-path-2">
      <rect id="Rectangle_3636" data-name="Rectangle 3636" width="196.35" height="313.918" fill="none"/>
    </clipPath>
    <clipPath id="clip-path-4">
      <rect id="Rectangle_3623" data-name="Rectangle 3623" width="160.75" height="21.166" fill="none"/>
    </clipPath>
    <clipPath id="clip-path-5">
      <rect id="Rectangle_3633" data-name="Rectangle 3633" width="54.13" height="28.012" fill="none"/>
    </clipPath>
    <clipPath id="clip-path-6">
      <rect id="Rectangle_3629" data-name="Rectangle 3629" width="29.792" height="9.837" fill="none"/>
    </clipPath>
    <clipPath id="clip-path-7">
      <rect id="Rectangle_3630" data-name="Rectangle 3630" width="18.344" height="24.785" fill="none"/>
    </clipPath>
    <clipPath id="clip-path-8">
      <rect id="Rectangle_3631" data-name="Rectangle 3631" width="4.718" height="17.381" fill="none"/>
    </clipPath>
    <clipPath id="clip-path-9">
      <rect id="Rectangle_3632" data-name="Rectangle 3632" width="9.525" height="16.591" fill="none"/>
    </clipPath>
    <clipPath id="clip-path-10">
      <rect id="Rectangle_3634" data-name="Rectangle 3634" width="3.399" height="12.863" fill="none"/>
    </clipPath>
  </defs>
  <g id="Mask_Group_74" data-name="Mask Group 74" transform="translate(-15.92 4.522)" clip-path="url(#clip-path)">
    <g id="Group_22568" data-name="Group 22568" transform="translate(-11.21 -4.522)">
      <g id="Group_22429" data-name="Group 22429" clip-path="url(#clip-path-2)">
        <g id="Group_22428" data-name="Group 22428">
          <g id="Group_22427" data-name="Group 22427" clip-path="url(#clip-path-2)">
            <g id="Group_22408" data-name="Group 22408" transform="translate(29.804 292.752)" opacity="0.2">
              <g id="Group_22407" data-name="Group 22407">
                <g id="Group_22406" data-name="Group 22406" clip-path="url(#clip-path-4)">
                  <path id="Path_8021" data-name="Path 8021" d="M19.509,202.212c0,5.845,35.985,10.584,80.374,10.584s80.377-4.739,80.377-10.584S144.273,191.63,99.883,191.63s-80.374,4.737-80.374,10.582" transform="translate(-19.509 -191.63)" fill="#1d1d1b"/>
                </g>
              </g>
            </g>
            <path id="Path_8022" data-name="Path 8022" d="M78.008,146.68a70.216,70.216,0,0,0,10.336-.452,18.625,18.625,0,0,0,16-14.7,109.087,109.087,0,0,0,2.046-23.551,118.528,118.528,0,0,1-28.378,4.872,118.553,118.553,0,0,1-28.38-4.872,109.183,109.183,0,0,0,2.047,23.551,18.625,18.625,0,0,0,16,14.7,70.215,70.215,0,0,0,10.336.452" transform="translate(26.183 56.977)" fill="#3c3c3b"/>
            <path id="Path_8023" data-name="Path 8023" d="M78.007,112.845a118.6,118.6,0,0,0,28.378-4.872q.034,2.729-.043,5.432a118.477,118.477,0,0,1-28.336,4.861,118.477,118.477,0,0,1-28.336-4.861q-.073-2.7-.044-5.432a118.628,118.628,0,0,0,28.38,4.872" transform="translate(26.183 56.977)" fill="#575756"/>
            <rect id="Rectangle_3624" data-name="Rectangle 3624" width="7.603" height="5.633" transform="translate(100.388 169.611)" fill="#878787"/>
            <path id="Path_8024" data-name="Path 8024" d="M82.4,114.979H84v-6.114l-1.6.394Z" transform="translate(43.48 57.448)" fill="#3c3c3b"/>
            <path id="Path_8025" data-name="Path 8025" d="M54.559,114.979h-1.6v-6.114l1.6.394Z" transform="translate(27.944 57.448)" fill="#3c3c3b"/>
            <path id="Path_8026" data-name="Path 8026" d="M76.334,116.31h1.6V110.2l-1.6.229Z" transform="translate(40.281 58.15)" fill="#3c3c3b"/>
            <path id="Path_8027" data-name="Path 8027" d="M60.622,116.31h-1.6V110.2l1.6.229Z" transform="translate(31.143 58.15)" fill="#3c3c3b"/>
            <path id="Path_8028" data-name="Path 8028" d="M34.458,194.278c-2.311-1.074-4.776-2.2-6.022-4.042l.781-1.471,7.166,2.736Z" transform="translate(15.006 99.61)" fill="#3c3c3b"/>
            <path id="Path_8029" data-name="Path 8029" d="M28.948,189.524C39.2,199.04,47.878,204.14,53.8,204.94l1.15-1.787L30.364,187.326Z" transform="translate(15.276 98.851)" fill="#3c3c3b"/>
            <path id="Path_8030" data-name="Path 8030" d="M29.591,189.1c2.538,4.323,21.713,16.255,25.013,15.15.787-1.227-.55-3.717-3.5-7.215-.292-.345-.6-.7-.924-1.066-.225-.255-.463-.516-.7-.788-.318-.35-.643-.7-.984-1.062l-.006,0c-.228-.247-.469-.5-.713-.756l-.008,0c-.335-.35-.684-.706-1.043-1.077-.863-.882-1.781-1.791-2.759-2.742-8.48-8.243-13.1-2.415-14.371-.437" transform="translate(15.615 97.754)" fill="#634e42"/>
            <path id="Path_8031" data-name="Path 8031" d="M38.471,190.858a.6.6,0,0,0,.316.455.586.586,0,0,0,.344.064l3.949-.452c-.335-.348-.684-.7-1.043-1.077l-3.04.344a.6.6,0,0,0-.526.666" transform="translate(20.299 100.182)" fill="#3c3c3b"/>
            <path id="Path_8032" data-name="Path 8032" d="M39.619,192.177a.59.59,0,0,0,.3.413.575.575,0,0,0,.388.063c.733-.142,1.519-.235,2.284-.322.521-.066,1.069-.134,1.6-.214-.318-.348-.643-.7-.982-1.06l-.006,0c-.249.031-.5.067-.752.1-.784.087-1.592.188-2.362.335a.594.594,0,0,0-.469.7" transform="translate(20.901 100.817)" fill="#3c3c3b"/>
            <path id="Path_8033" data-name="Path 8033" d="M40.766,193.412a.587.587,0,0,0,.307.434.613.613,0,0,0,.371.063l3.767-.577c-.292-.345-.6-.7-.924-1.068l-3.026.469a.6.6,0,0,0-.495.68" transform="translate(21.508 101.456)" fill="#3c3c3b"/>
            <path id="Path_8034" data-name="Path 8034" d="M29.233,220.591c.3-.713,2.863-4.733,3.214-5.434,15.809-31.739,31.787-63.3,49.065-94.268,3.4-6.044,12.935-2.024,10.954,4.617-1.12,3.751-3.382,7.4-5.029,10.929-6.65,14.249-13.1,28.588-19.107,43.121q-9.645,23.333-19.258,46.676c-.046.112-.1.219-.147.328-4.3.1-11.085-.3-19.692-5.969" transform="translate(15.426 62.227)" fill="#3c3c3b"/>
            <path id="Path_8035" data-name="Path 8035" d="M108,197.683c-2.409.828-4.97,1.72-7.143,1.256l-.455-1.6,7.063-2.99Z" transform="translate(52.982 102.556)" fill="#3c3c3b"/>
            <path id="Path_8036" data-name="Path 8036" d="M100.577,199.129c13.989-.241,23.777-2.571,28.6-6.092l-.408-2.085-28.693,5.611Z" transform="translate(52.809 100.764)" fill="#3c3c3b"/>
            <path id="Path_8037" data-name="Path 8037" d="M100.246,198.468c4.824,1.361,26.918-3.317,28.534-6.4-.283-1.43-2.971-2.3-7.522-2.78-.449-.046-.915-.087-1.405-.128-.339-.029-.691-.052-1.053-.081-.472-.031-.952-.06-1.445-.084h-.008c-.335-.02-.686-.037-1.037-.052l-.008,0c-.484-.02-.984-.035-1.5-.054-1.231-.037-2.524-.058-3.888-.066-11.827-.072-11.125,7.334-10.668,9.638" transform="translate(52.793 99.644)" fill="#634e42"/>
            <path id="Path_8038" data-name="Path 8038" d="M108.555,192.07a.6.6,0,0,0,.836-.081l2.536-3.063c-.483-.02-.984-.035-1.5-.052l-1.954,2.353a.6.6,0,0,0,.083.843" transform="translate(57.168 99.668)" fill="#3c3c3b"/>
            <path id="Path_8039" data-name="Path 8039" d="M110.277,192.233a.6.6,0,0,0,.828-.136c.429-.608.93-1.222,1.424-1.815.328-.408.677-.836,1-1.259-.472-.031-.95-.06-1.444-.084l-.008,0c-.16.194-.316.4-.477.588-.5.6-1.017,1.239-1.471,1.879a.592.592,0,0,0,.144.825" transform="translate(58.06 99.702)" fill="#3c3c3b"/>
            <path id="Path_8040" data-name="Path 8040" d="M111.949,192.315a.586.586,0,0,0,.524.1.614.614,0,0,0,.312-.212l2.316-3.026c-.449-.046-.915-.086-1.405-.128l-1.858,2.434a.6.6,0,0,0,.112.834" transform="translate(58.952 99.759)" fill="#3c3c3b"/>
            <path id="Path_8041" data-name="Path 8041" d="M108.231,232.385c-.277-.724-1.213-5.4-1.445-6.144C96.2,192.4,85.867,158.568,76.877,124.263c-1.737-6.711,7.927-10.42,11.1-4.256,1.79,3.48,2.687,7.68,3.943,11.364,5.075,14.884,10.355,29.692,16.088,44.337q9.205,23.509,18.441,47c.044.112.082.226.122.339-3.453,4.342-9.2,8.179-18.337,9.334" transform="translate(40.458 61.67)" fill="#3c3c3b"/>
            <path id="Path_8042" data-name="Path 8042" d="M87.139,108.146c1.028.131,2.041.249,3.068.338,7.779.675,15.572-.322,23.291-1.453.338-.06.691-.1,1.028-.162l1.247-.176a26.111,26.111,0,0,1,.587-2.657c1.717-6.12,5.518-11.624,7.118-17.816,3.6-13.972-3.815-24.452-2.993-38.863.292-5.124-3.537-9.2-2.7-18.844C119.134,12.6,114.409,8.8,105.528,4.105A37.47,37.47,0,0,0,87.2.011h-.115A37.476,37.476,0,0,0,68.754,4.105c-8.88,4.7-13.6,8.5-12.255,24.408.836,9.641-2.994,13.72-2.7,18.844.822,14.411-12.57,24.985-8.974,38.956,1.6,6.193,5.4,11.7,7.119,17.818a26.094,26.094,0,0,1,.587,2.657l1.247.176c.339.058.691.1,1.028.162,7.719,1.129,21.49,2.033,29.269,1.358,1.028-.089,2.041-.206,3.065-.338" transform="translate(23.33 0.001)" fill="#ededed"/>
            <path id="Path_8043" data-name="Path 8043" d="M117.567,114.014l.026-.029a1.9,1.9,0,0,1,2.686-.13l11.446,10.39a1.9,1.9,0,0,1,.13,2.686l-.024.029a1.9,1.9,0,0,1-2.687.13L117.7,116.7a1.9,1.9,0,0,1-.13-2.686" transform="translate(61.779 59.82)" fill="#ffcf9f"/>
            <path id="Path_8044" data-name="Path 8044" d="M118.261,112.042l.023-.031a1.9,1.9,0,0,1,2.66-.4l12.426,9.194a1.9,1.9,0,0,1,.4,2.66l-.021.031a1.9,1.9,0,0,1-2.66.4L118.66,114.7a1.9,1.9,0,0,1-.4-2.66" transform="translate(62.209 58.701)" fill="#ffcf9f"/>
            <path id="Path_8045" data-name="Path 8045" d="M115.955,115.778l.029-.027a1.9,1.9,0,0,1,2.687-.034l10.029,9.773a1.9,1.9,0,0,1,.034,2.69l-.026.028a1.9,1.9,0,0,1-2.689.034l-10.029-9.774a1.9,1.9,0,0,1-.035-2.689" transform="translate(60.905 60.778)" fill="#ffcf9f"/>
            <path id="Path_8046" data-name="Path 8046" d="M114.5,117.364l.026-.021a1.687,1.687,0,0,1,2.38.176l6.627,7.675a1.691,1.691,0,0,1-.174,2.383l-.026.021a1.687,1.687,0,0,1-2.382-.176l-6.626-7.674a1.69,1.69,0,0,1,.174-2.385" transform="translate(60.112 61.705)" fill="#ffcf9f"/>
            <path id="Path_8047" data-name="Path 8047" d="M106.449,98.406,122.3,112.649c1.771-.936,3.161-1.489,4.841-.6a5.4,5.4,0,0,1,1.074.752l2.984,2.709-.8,1.632,4.224,4.148a36.375,36.375,0,0,1-11.82,9.14l-5.243-5.7a5.518,5.518,0,0,1-1.734-4.566L99.39,106.184Z" transform="translate(52.448 51.928)" fill="#f5c08c"/>
            <path id="Path_8048" data-name="Path 8048" d="M123.7,108.831a14.548,14.548,0,0,0,6.476,2.1c2.1.139,2.651,4.695-2.544,3.737-1.5-.278-4.067-.636-5.232-1.653a6.533,6.533,0,0,1-7.44,2.915l2.808-9.191c1.328-.463,3.86.6,5.932,2.091" transform="translate(60.664 56.268)" fill="#ffcf9f"/>
            <path id="Path_8049" data-name="Path 8049" d="M120.887,112.482a7.728,7.728,0,0,1,5.523-1.418l2.105,3.55-.5,3.2c-2.376,2.227-5.74,3.769-8.311,1.163l-.014-.017-18.12-16.446,3.731-4.108Z" transform="translate(53.597 51.928)" fill="#ffcf9f"/>
            <path id="Path_8050" data-name="Path 8050" d="M79.589,74.533l13.563,30.991,3.7,8.474.342.776a8.591,8.591,0,0,0,15.738-6.891l-1.955-4.464L95.341,67.643a8.6,8.6,0,1,0-15.752,6.89" transform="translate(41.617 32.974)" fill="#fff"/>
            <path id="Path_8051" data-name="Path 8051" d="M129.46,115.132,116.11,126.147,95.438,106.241l-2.017-1.94a8.5,8.5,0,0,1-2.154-9.044,8.579,8.579,0,0,1,3.178-4.186,8.606,8.606,0,0,1,10.892.855Z" transform="translate(47.904 47.241)" fill="#fff"/>
            <path id="Path_8052" data-name="Path 8052" d="M95.375,113.974l-2.017-1.939a8.8,8.8,0,0,1-2.292-3.712c.061-1.787.107-3.56.138-5.332.168-9.4.061-18.791-.306-28.125A164.267,164.267,0,0,1,94.382,98.8c.428,5.026.718,10.1.993,15.17" transform="translate(47.967 39.507)" fill="#ededed"/>
            <path id="Path_8053" data-name="Path 8053" d="M55.192,38.561c1.561-5.573.924-12.049,4.539-16.571a17.38,17.38,0,0,1,6.78-4.688,38.143,38.143,0,0,1,19.8-3.275,27.972,27.972,0,0,1,17.7,9A22.17,22.17,0,0,1,109.2,41.9c-.634,2.913.49,1.425-.309,4.29-.637,3.773-3,10.338-2.347,13.062,1.671,6.989,2.221,14-2.473,19.444,1.384-3.283,2.66-6.907,1.708-10.341a26.185,26.185,0,0,0-2.142-4.626,14.912,14.912,0,0,1-2.053,2.42c.623,2.061,1.271,4.2.791,6.282A18.951,18.951,0,0,1,100.51,76.5a5.835,5.835,0,0,0-.691,4.314A8.691,8.691,0,0,1,98.69,75.74c.05-1.758.335-3.514.246-5.272-.027-.519-.087-1.034-.16-1.551a10.224,10.224,0,0,0-1.8,2.571c-1.772,3.816-.189,8.7-2.415,12.267-1.641,2.638-4.889,3.761-7.942,4.331A39.59,39.59,0,0,1,69.5,87.5c.478-4.722.846-9.838-1.186-14.02-.081.138-.136.29-.225.425-.932,1.431-2.215,2.6-3.256,3.958a6.526,6.526,0,0,0-1.615,4.724c-1.372-2.284-.639-5.245.536-7.632.764-1.551,1.7-3.051,2.369-4.635-.8-.872-1.661-1.69-2.505-2.519-.558,1.363-1.184,2.707-1.752,4.056-1.321,3.138-2.342,6.658-1.331,9.907C58.371,77.422,58.179,73.6,59,68.823c.321-1.87.959-3.317,1.419-5.157C58.206,60.4,56.59,54,56.59,50.052c0-1.784-1.991-4.11-2.534-5.808-.852-2.647.387-3,1.137-5.683" transform="translate(28.373 7.278)" fill="#dadada"/>
            <rect id="Rectangle_3625" data-name="Rectangle 3625" width="18.074" height="27.642" transform="translate(101.28 76.099)" fill="#deab7d"/>
            <path id="Path_8054" data-name="Path 8054" d="M148.887,241.216c-3.161,2.185-23.236,13.108-26.169,13.138a8.977,8.977,0,0,0-5.775,2.169,10.186,10.186,0,0,1-1.68,1.085,14.021,14.021,0,0,1-10.463.794,19.382,19.382,0,0,0-2.094-.6,14.113,14.113,0,0,0-5.622-.244c-3.728.626-6.264,2.6-11.122,1.986-1.022-.122-2.032-.306-3.04-.489h-.015c-2.168-.412-4.323-.932-6.523-1.314a32.852,32.852,0,0,0-7.119-.611q-1.327.046-2.75.229c-.808.122-1.633.275-2.475.489-2.414.6-14.916-6.51-15.925-6.707-14.524-2.852-13.548-8.5-17.077-11.2,12.985-27.88,18.259-54.838,19.8-87.072v-.031q.665-13.268.978-26.46c.017-.321.017-.657.017-.978.166-6.584.243-13.153.228-19.753,0-1.787,0-3.59-.031-5.377a83.424,83.424,0,0,1,.7-9.441v-.015a73.032,73.032,0,0,0,.689-10.556c1.344-6.89,1.8-9.105,4.948-12.7.535-.611-.458-.535.153-1.085a20.692,20.692,0,0,1,8.648-4.659l16.879-4.262c2.246.917,16.942,2.536,19.22,1.573,0,0,11.746,5.286,14.206,7.562.6.55,1.161,1.146,1.711,1.757a20.788,20.788,0,0,1,4.965,13.031q-.321,10.22-.489,20.074c-.137,8.983-.168,17.737-.107,26.307v.825c.367,46.427,13.419,82.74,25.329,112.53" transform="translate(16.378 30.373)" fill="#fff"/>
            <path id="Path_8055" data-name="Path 8055" d="M66.646,55.4c5.923,1.775,11.947,2.935,18.074,1.146l.3,3.725c-4.015,2.777-14.3,1.984-19.39-.936Z" transform="translate(34.634 29.235)" fill="#f6f6f6"/>
            <rect id="Rectangle_3626" data-name="Rectangle 3626" width="4.583" height="27.285" transform="translate(109.85 88.571)" fill="#f6f6f6"/>
            <path id="Path_8056" data-name="Path 8056" d="M86.029,217.515a4.652,4.652,0,0,0,.275.917,10.126,10.126,0,0,0,1.68-1.085,8.976,8.976,0,0,1,5.776-2.169c-1.467-27.835-6.586-55.532-5.53-83.382-1.467,16.453-2.933,33-1.621,49.467.521,6.645,1.5,13.276,1.285,19.921a65.659,65.659,0,0,1-1.451,11.427,12.427,12.427,0,0,0-.414,4.9" transform="translate(45.335 69.548)" fill="#ededed"/>
            <path id="Path_8057" data-name="Path 8057" d="M74.17,206.4a18.34,18.34,0,0,0,.154,3.025,14.106,14.106,0,0,1,5.62.244c3.729-19.952,3.286-40.53,3.743-60.879a174.36,174.36,0,0,1-6.982,45.846c-1.129,3.865-2.4,7.745-2.536,11.763" transform="translate(39.135 78.514)" fill="#ededed"/>
            <path id="Path_8058" data-name="Path 8058" d="M61.386,220c2.2.382,4.354.9,6.522,1.314a65.815,65.815,0,0,1-1.329-24.428c.886-6.63,2.812-13.138,3.225-19.83.367-5.576-.336-11.167-1.024-16.713q-1.925-15.628-3.865-31.257-.115,10.931-.214,21.846c-.076,6.875-.138,13.78-.886,20.624C62.043,187.78,56.574,204.6,61.386,220" transform="translate(31.373 68.118)" fill="#ededed"/>
            <path id="Path_8059" data-name="Path 8059" d="M71.979,174.571a63.027,63.027,0,0,0,.07-12.417q-.564-9.3-1.124-18.592c3,11.274,6.027,23.036,3.723,34.472-1.835,9.11-6.948,17.341-8.485,26.506-1.962-10.081,4.406-19.794,5.816-29.969" transform="translate(34.718 75.757)" fill="#ededed"/>
            <path id="Path_8060" data-name="Path 8060" d="M53.263,185.327c.565,5.3,1.818,10.74,1.7,15.98q1.421-.183,2.75-.229c.779-3.392.306-6.936.046-11.947-.443-8.494-2.475-16.85-2.871-25.344a60.2,60.2,0,0,0-1.621,21.541" transform="translate(27.931 86.429)" fill="#ededed"/>
            <path id="Path_8061" data-name="Path 8061" d="M45.129,208.891a9.871,9.871,0,0,1,3.636,1.65,5.064,5.064,0,0,0,.61.367c.306-4.629-.273-9.456-.243-14.116.092-17.691,9.149-35.061,5.851-52.446-.794,12.68-4.828,24.886-7.579,37.276-1.986,8.922-3.283,18.271-2.275,27.269" transform="translate(23.63 76.171)" fill="#ededed"/>
            <path id="Path_8062" data-name="Path 8062" d="M62.606,71.94C60.953,83.816,51.44,86.9,49.772,98.149c-2.434,16.4-.254,36.139-5.773,47.1q.665-13.268.978-26.458c.017-.322.017-.658.017-.979.167-6.584.243-13.152.228-19.753,0-1.787,0-3.59-.031-5.377a83.42,83.42,0,0,1,.7-9.441v-.015c2.567-2.214,6-3.514,8.158-6.445a12.6,12.6,0,0,1,8.555-4.838" transform="translate(23.218 37.962)" fill="#ededed"/>
            <path id="Path_8063" data-name="Path 8063" d="M69.885,63.118a8.593,8.593,0,0,0-12.02,1.8l-26.119,35.31a8.593,8.593,0,0,0,13.818,10.22l26.119-35.31a8.593,8.593,0,0,0-1.8-12.018" transform="translate(15.863 32.418)" fill="#fff"/>
            <path id="Path_8064" data-name="Path 8064" d="M97.835,86.846A52.857,52.857,0,0,1,73.843,132.7,100.373,100.373,0,0,0,97.835,86.846" transform="translate(38.967 45.828)" fill="#ededed"/>
            <path id="Path_8065" data-name="Path 8065" d="M82.249,132.375q6.242-18.243,12.483-36.484a52.194,52.194,0,0,1-12.483,36.484" transform="translate(43.402 50.601)" fill="#ededed"/>
            <path id="Path_8066" data-name="Path 8066" d="M32.483,109.994l.041-.017a2.146,2.146,0,0,1,2.8,1.453,67.136,67.136,0,0,0,6.129,13.056,2.291,2.291,0,0,1-.692,3.068l-.037.024a2.134,2.134,0,0,1-3.046-.706,71.34,71.34,0,0,1-6.511-13.651,2.585,2.585,0,0,1,1.315-3.226" transform="translate(16.37 57.959)" fill="#f2bc88"/>
            <path id="Path_8067" data-name="Path 8067" d="M22.163,126.28a.7.7,0,1,1-1.332-.289l1.085-5.025a.7.7,0,1,1,1.332.287Z" transform="translate(10.98 63.466)" fill="#fff"/>
            <path id="Path_8068" data-name="Path 8068" d="M35.786,129.221a.7.7,0,1,1-1.332-.287l1.085-5.026a.7.7,0,1,1,1.332.287Z" transform="translate(18.169 65.018)" fill="#fff"/>
            <path id="Path_8069" data-name="Path 8069" d="M76.391,137.891,67.83,177.538a4.038,4.038,0,0,1-4.8,3.086L3.181,167.7a4.029,4.029,0,0,1-3.089-4.791l8.56-39.645a4.038,4.038,0,0,1,4.792-3.1l59.851,12.921a4.048,4.048,0,0,1,3.1,4.8" transform="translate(0 63.362)" fill="#432918"/>
            <path id="Path_8070" data-name="Path 8070" d="M74.459,137.891l-2.88,13.338a7.9,7.9,0,0,1-9.383,6.051L9.88,145.985a7.882,7.882,0,0,1-6.039-9.38l2.878-13.338a4.038,4.038,0,0,1,4.792-3.1l59.851,12.921a4.048,4.048,0,0,1,3.1,4.8" transform="translate(1.932 63.362)" fill="#52321d"/>
            <path id="Path_8071" data-name="Path 8071" d="M26.3,150.163l-2.832-.611a1.842,1.842,0,0,1-1.41-2.189L24.422,136.4l6.43,1.389-2.366,10.967a1.842,1.842,0,0,1-2.189,1.41" transform="translate(11.616 71.976)" fill="#c5c5c5"/>
            <rect id="Rectangle_3627" data-name="Rectangle 3627" width="1.679" height="7.561" transform="matrix(0.211, -0.977, 0.977, 0.211, 33.846, 216.199)" fill="#9d9d9c"/>
            <path id="Path_8072" data-name="Path 8072" d="M31.642,142.909l-9.31-2.01a1.275,1.275,0,0,1-.978-1.517l.474-2.2a1.278,1.278,0,0,1,1.517-.979l9.311,2.01a1.278,1.278,0,0,1,.979,1.517l-.477,2.2a1.275,1.275,0,0,1-1.517.979" transform="translate(11.253 71.859)" fill="#b2b2b2"/>
            <path id="Path_8073" data-name="Path 8073" d="M27.475,145.812a1.039,1.039,0,0,1-1.237.8l-2.909-.628a1.039,1.039,0,0,1-.8-1.236l.657-3.054,4.945,1.066Z" transform="translate(11.878 74.77)" fill="#fff"/>
            <path id="Path_8074" data-name="Path 8074" d="M29,139.446a.81.81,0,1,1-.62-.962.81.81,0,0,1,.62.962" transform="translate(14.458 73.067)" fill="#3c3c3b"/>
            <path id="Path_8075" data-name="Path 8075" d="M23.848,138.333a.81.81,0,1,1-.622-.962.811.811,0,0,1,.622.962" transform="translate(11.739 72.48)" fill="#3c3c3b"/>
            <path id="Path_8076" data-name="Path 8076" d="M26.934,143.185a.333.333,0,0,1-.394.255l-3.023-.654a.331.331,0,1,1,.141-.648l3.022.654a.332.332,0,0,1,.255.393" transform="translate(12.271 75.002)" fill="#b2b2b2"/>
            <path id="Path_8077" data-name="Path 8077" d="M26.759,144a.334.334,0,0,1-.394.255l-3.023-.654a.331.331,0,1,1,.141-.648l3.023.652a.333.333,0,0,1,.254.394" transform="translate(12.179 75.43)" fill="#b2b2b2"/>
            <path id="Path_8078" data-name="Path 8078" d="M26.584,144.809a.335.335,0,0,1-.394.255l-3.023-.654a.331.331,0,1,1,.141-.648l3.022.652a.333.333,0,0,1,.255.394" transform="translate(12.087 75.859)" fill="#b2b2b2"/>
            <path id="Path_8079" data-name="Path 8079" d="M44.379,127.026a1.912,1.912,0,0,1-2.482-.273,17.639,17.639,0,0,0-18.232-3.935,1.908,1.908,0,0,1-2.373-.776,1.776,1.776,0,0,1,1.27-2.3,20.905,20.905,0,0,1,21.608,4.666,1.776,1.776,0,0,1,.209,2.618" transform="translate(11.166 62.539)" fill="#432918"/>
            <path id="Path_8080" data-name="Path 8080" d="M35.526,114.176l.038.006a2.04,2.04,0,0,1,1.653,2.366l-2.145,11.974a2.041,2.041,0,0,1-2.366,1.653l-.04-.008a2.041,2.041,0,0,1-1.651-2.365l2.146-11.974a2.038,2.038,0,0,1,2.365-1.653" transform="translate(16.35 60.233)" fill="#f2bc88"/>
            <path id="Path_8081" data-name="Path 8081" d="M33.539,111.231l.043.008a2.1,2.1,0,0,1,1.772,2.386l-2.881,16.247a2.106,2.106,0,0,1-2.486,1.632l-.044-.008a2.106,2.106,0,0,1-1.774-2.386l2.883-16.249a2.1,2.1,0,0,1,2.487-1.63" transform="translate(14.849 58.677)" fill="#f2bc88"/>
            <path id="Path_8082" data-name="Path 8082" d="M30.882,110.211l.041.006a2.062,2.062,0,0,1,1.693,2.373l-2.883,16.247a2.061,2.061,0,0,1-2.4,1.647l-.043-.008a2.061,2.061,0,0,1-1.691-2.373l2.883-16.247a2.061,2.061,0,0,1,2.4-1.645" transform="translate(13.49 58.141)" fill="#f2bc88"/>
            <path id="Path_8083" data-name="Path 8083" d="M27.389,113.415l.035.006a1.811,1.811,0,0,1,1.468,2.1l-2,10.816a1.81,1.81,0,0,1-2.1,1.467l-.037-.006a1.812,1.812,0,0,1-1.467-2.1l2-10.815a1.812,1.812,0,0,1,2.1-1.468" transform="translate(12.274 59.833)" fill="#f2bc88"/>
            <rect id="Rectangle_3628" data-name="Rectangle 3628" width="10.911" height="10.518" transform="translate(40.689 172.676) rotate(-79.937)" fill="#ffc994"/>
            <path id="Path_8084" data-name="Path 8084" d="M25.328,124.871l.035.008a1.811,1.811,0,0,0,2.1-1.467l-.115.652A2.041,2.041,0,0,0,29,126.43l.041,0a2.034,2.034,0,0,0,2.363-1.651l-.107.607a2.04,2.04,0,0,0,1.653,2.363l.041.009a2.039,2.039,0,0,0,2.363-1.653,2.037,2.037,0,0,0,1.653,2.363l.041.009a2.041,2.041,0,0,0,2.365-1.653l.73-4.119.13-.733.729-4.1a6,6,0,0,0-4.863-6.959l-3.957-.7a6,6,0,0,0-6.957,4.861l-.729,4.1-.13.735-.507,2.861a1.807,1.807,0,0,0,1.467,2.1" transform="translate(12.577 58.111)" fill="#ffc994"/>
            <path id="Path_8085" data-name="Path 8085" d="M41.759,126.27l7.886-30.5A8.593,8.593,0,1,0,33,91.466l-8.381,32.415Z" transform="translate(12.994 44.865)" fill="#fff"/>
            <path id="Path_8086" data-name="Path 8086" d="M56.086,25.718c.072-.015.145-.02.217-.032a5.39,5.39,0,0,1,4.606,1.7L60,41.151a4.235,4.235,0,0,1-.519.153c-3.162.689-6.484-2.243-7.423-6.546s.866-8.35,4.027-9.039" transform="translate(27.34 13.523)" fill="#ffc994"/>
            <path id="Path_8087" data-name="Path 8087" d="M87.842,27.613A5.393,5.393,0,0,1,92.631,26.5c.069.021.141.034.208.06,3.052,1.08,4.333,5.321,2.863,9.473s-5.136,6.642-8.187,5.562a4.289,4.289,0,0,1-.5-.217Z" transform="translate(45.917 13.887)" fill="#ffc994"/>
            <path id="Path_8088" data-name="Path 8088" d="M96.491,31.88a9.654,9.654,0,0,0,.379-1.262,10.445,10.445,0,0,1-.6,3.256c-1.471,4.152-5.136,6.642-8.185,5.562a4.2,4.2,0,0,1-.5-.217l.108-1.819c3.366.926,7.258-1.485,8.8-5.52" transform="translate(46.217 16.157)" fill="#f2bb88"/>
            <path id="Path_8089" data-name="Path 8089" d="M88.85,36.726a4.338,4.338,0,0,0,.16-1.062c-.026-.406-.017-.825-.09-1.3-.046-.463-.136-.976-.18-1.522a6.894,6.894,0,0,1,.015-1.771,4.208,4.208,0,0,1,.668-1.757,2.9,2.9,0,0,1,1.465-1.126,2.757,2.757,0,0,1,2.878.716,2.477,2.477,0,0,1,.631,1.841c-.05.46-.22.668-.283.649-.092-.021-.086-.255-.177-.623a2.418,2.418,0,0,0-.758-1.276,1.96,1.96,0,0,0-1.928-.286,2.471,2.471,0,0,0-1.332,2.043,11.067,11.067,0,0,0,.049,2.519c.032-.012.053-.029.09-.04a1.692,1.692,0,0,1,1.948,2.353c-.223.425-.533.521-.645.423-.133-.107-.122-.348-.165-.62a1.442,1.442,0,0,0-1.1-1.323c-.032-.012-.063-.021-.093-.031.015.409,0,.822-.023,1.2a4.464,4.464,0,0,1-.354,1.282,2.826,2.826,0,0,1-1.263,1.431,1.164,1.164,0,0,1-.5.151c-.119.012-.183,0-.194-.04-.075-.179.826-.513,1.176-1.835" transform="translate(46.263 14.801)" fill="#dba97b"/>
            <path id="Path_8090" data-name="Path 8090" d="M51.872,29.419a8.518,8.518,0,0,0,.254,1.332,9.028,9.028,0,0,0,7.99,6.638L60,39.15a4.305,4.305,0,0,1-.519.151c-3.162.689-6.487-2.241-7.423-6.545a10.345,10.345,0,0,1-.185-3.338" transform="translate(27.341 15.524)" fill="#f2bb88"/>
            <path id="Path_8091" data-name="Path 8091" d="M56.243,26.307A15.088,15.088,0,0,0,56.4,28.14l.82,13.5-.156,3.323.678,10.639.061.365c.5,4.447,5.031,8.989,8.806,11.769l7.287,5.408a5.908,5.908,0,0,0,3.483,1.1H87.917a5.908,5.908,0,0,0,3.483-1.1l4.708-5.041c3.758-2.78,6.865-7.689,7.37-12.136l.044-.365,1.543-10.8.353-2.475,2.017-14.146a12.627,12.627,0,0,0-1.315-7.929,9.56,9.56,0,0,0-5.483-4.537,73.083,73.083,0,0,0-19.31-3.376c-.229-.015-.46-.015-.687-.015s-.443,0-.674.015c-6.308.183-10.477,1.361-16.771,3.332-4.371,1.36-7,5.652-6.951,10.633" transform="translate(29.679 6.505)" fill="#ffc994"/>
            <path id="Path_8092" data-name="Path 8092" d="M53.811,27.915a2.765,2.765,0,0,1,2.945-.351,2.915,2.915,0,0,1,1.314,1.3,4.244,4.244,0,0,1,.441,1.826,6.883,6.883,0,0,1-.208,1.76c-.112.535-.264,1.033-.368,1.486a13.028,13.028,0,0,0-.255,1.279,4.422,4.422,0,0,0,.027,1.072c.18,1.355,1.033,1.8.938,1.968-.017.037-.084.043-.2.017a1.221,1.221,0,0,1-.475-.214A2.825,2.825,0,0,1,56.9,36.48a4.458,4.458,0,0,1-.191-1.315c.029-.379.063-.79.128-1.195-.032.006-.064.012-.1.02a1.729,1.729,0,0,0-.82.38,1.763,1.763,0,0,0-.432.794c-.078.264-.1.506-.241.594-.124.084-.419-.05-.585-.5a1.69,1.69,0,0,1,2.227-2.09.844.844,0,0,1,.083.05,11.138,11.138,0,0,0,.365-2.493,2.47,2.47,0,0,0-1.068-2.194,1.958,1.958,0,0,0-1.948.043,2.417,2.417,0,0,0-.912,1.17c-.136.353-.157.585-.254.594-.064.012-.2-.215-.2-.677a2.47,2.47,0,0,1,.856-1.749" transform="translate(27.944 14.402)" fill="#dba97b"/>
            <path id="Path_8093" data-name="Path 8093" d="M56.579,15.428a21.462,21.462,0,0,1,3.793-4.69A30.379,30.379,0,0,1,76.224,3.391L75.9,3.313c-.39-.07-.768-.171-1.121-.211l-.516-.084-.48-.044a6.484,6.484,0,0,0-.846-.041,3.694,3.694,0,0,0-.658.02c-.376.027-.585.041-.585.041s.154-.134.466-.365a3.041,3.041,0,0,1,.6-.373,4.892,4.892,0,0,1,.869-.377l.532-.168c.186-.047.382-.079.587-.119a8.963,8.963,0,0,1,1.312-.136,12.208,12.208,0,0,1,2.919.316c.344.084.671.174.99.267.1-.231,3.069-2.266,2.919-1.91a7.822,7.822,0,0,0-.414,1.239c-.038.141-.083.309-.128.481a7.34,7.34,0,0,1,1.818-.687,6.118,6.118,0,0,1,2.169-.141l.435.06.38.1a2.8,2.8,0,0,1,.582.214c.307.147.461.238.461.238l-.5.1a3.711,3.711,0,0,0-.551.144l-.332.095-.357.141a11.777,11.777,0,0,0-1.633.788l-.063.037a34.671,34.671,0,0,1,11.86,2.75,23.5,23.5,0,0,1,10.535,8.638,21.2,21.2,0,0,1,3.23,12.348L109.7,41.467c-.831-7.394-6.484-16.259-7.8-17.756a9.24,9.24,0,0,0-4.766-2.886c-.555-.136-1.109-.263-1.665-.385-7.037.5-12.758,5.469-19.828,6.071,1.355-.716,2.742-1.557,4.161-2.4-6.314,1.988-12.628,3.6-18.94,1.436a9.265,9.265,0,0,0-.848,2.339,8.991,8.991,0,0,0-.188,1.338l-.767,11.643a5.387,5.387,0,0,0-4.608-1.7l-.813-12.483a21.423,21.423,0,0,1,2.935-11.253" transform="translate(28.308 0.046)" fill="#3c3c3b"/>
            <path id="Path_8094" data-name="Path 8094" d="M72.782,40.83c1.234.1,2.8.345,4.49.354.322,0,.634-.018.946-.034a.145.145,0,0,1,.06-.023c5.677-1.259,2.3-9.354,2.015-15.349,1.83,3.941,6.646,12.6,2.021,17.319-.949.97-2.939,1.412-5.041,1.424A10,10,0,0,1,72.23,43.1c-1.149-.709-1.76-1.4-1.642-1.83.124-.446.964-.545,2.194-.438" transform="translate(37.241 13.603)" fill="#dba97b"/>
            <path id="Path_8095" data-name="Path 8095" d="M93.425,28.878C86.9,26.5,81.7,24.322,77.144,25.2c.138.877-.344,4.782.376,5.425,4.89-4.41,12.555.24,15.9-1.749" transform="translate(40.692 13.194)" fill="#dba97b"/>
            <path id="Path_8096" data-name="Path 8096" d="M61.818,28.8c6.526-2.382,11.911-4.322,16.461-3.44-.136.875.72,4.424,0,5.067-4.89-4.41-13.111.362-16.461-1.627" transform="translate(32.621 13.269)" fill="#dba97b"/>
            <g id="Group_22423" data-name="Group 22423" transform="translate(83.051 5.741)" opacity="0.2">
              <g id="Group_22422" data-name="Group 22422">
                <g id="Group_22421" data-name="Group 22421" clip-path="url(#clip-path-5)">
                  <g id="Group_22411" data-name="Group 22411" transform="translate(7.506 9.003)" style="mix-blend-mode: screen;isolation: isolate">
                    <g id="Group_22410" data-name="Group 22410">
                      <g id="Group_22409" data-name="Group 22409" clip-path="url(#clip-path-6)">
                        <path id="Path_8097" data-name="Path 8097" d="M73.029,15c-3.017.927-7.16.86-8.856-2.244C70.7,16.289,77.244,6.874,83.945,10.5c-3.329.269-6.065,2.351-9.023,3.747,4.559-1.816,9.14-3.482,14.146-2.363-9.55,1.648-20.1,12.092-29.792,5.384C64.138,18.318,68.6,16.758,73.029,15" transform="translate(-59.277 -9.651)" fill="#dadada"/>
                      </g>
                    </g>
                  </g>
                  <g id="Group_22414" data-name="Group 22414" style="mix-blend-mode: screen;isolation: isolate">
                    <g id="Group_22413" data-name="Group 22413">
                      <g id="Group_22412" data-name="Group 22412" clip-path="url(#clip-path-7)">
                        <path id="Path_8098" data-name="Path 8098" d="M72.707,3.758C61.59,7.554,54.853,16.8,54.653,28.545A21.238,21.238,0,0,1,72.707,3.758" transform="translate(-54.364 -3.758)" fill="#dadada"/>
                      </g>
                    </g>
                  </g>
                  <g id="Group_22417" data-name="Group 22417" transform="translate(1.329 10.631)" style="mix-blend-mode: screen;isolation: isolate">
                    <g id="Group_22416" data-name="Group 22416">
                      <g id="Group_22415" data-name="Group 22415" clip-path="url(#clip-path-8)">
                        <path id="Path_8099" data-name="Path 8099" d="M55.712,28.1A20.167,20.167,0,0,1,59.95,10.717,75.874,75.874,0,0,0,55.712,28.1" transform="translate(-55.234 -10.717)" fill="#dadada"/>
                      </g>
                    </g>
                  </g>
                  <g id="Group_22420" data-name="Group 22420" transform="translate(44.605 3.572)" style="mix-blend-mode: screen;isolation: isolate">
                    <g id="Group_22419" data-name="Group 22419">
                      <g id="Group_22418" data-name="Group 22418" clip-path="url(#clip-path-9)">
                        <path id="Path_8100" data-name="Path 8100" d="M92.976,22.687A28.981,28.981,0,0,0,83.561,6.1a16.133,16.133,0,0,1,9.415,16.591" transform="translate(-83.561 -6.096)" fill="#dadada"/>
                      </g>
                    </g>
                  </g>
                </g>
              </g>
            </g>
            <g id="Group_22426" data-name="Group 22426" transform="translate(109.663 40.609)" opacity="0.3">
              <g id="Group_22425" data-name="Group 22425">
                <g id="Group_22424" data-name="Group 22424" clip-path="url(#clip-path-10)">
                  <path id="Path_8101" data-name="Path 8101" d="M72.933,39.431a1.23,1.23,0,0,0,1.453-.849c.021-.141.061-.95.11-2.094s.2-2.608.316-4.084c.061-.735.124-1.467.18-2.149.037-.686.072-1.324.1-1.868.055-1.086.092-1.8.092-1.8s-.2.692-.5,1.737c-.147.519-.322,1.127-.509,1.783-.206.649-.429,1.346-.651,2.046-.437,1.4-.9,2.842-1.21,3.97s-.5,1.951-.524,2.1a1.17,1.17,0,0,0,1.14,1.218" transform="translate(-71.783 -26.582)" fill="#fff"/>
                </g>
              </g>
            </g>
            <path id="Path_8102" data-name="Path 8102" d="M80.492,28.5a3.153,3.153,0,0,0,6.247,0,3.153,3.153,0,0,0-6.247,0" transform="translate(42.475 13.603)" fill="#936037"/>
            <path id="Path_8103" data-name="Path 8103" d="M81.437,28.111a1.681,1.681,0,1,0,1.681-1.592,1.637,1.637,0,0,0-1.681,1.592" transform="translate(42.974 13.994)" fill="#3c3c3b"/>
            <path id="Path_8104" data-name="Path 8104" d="M83.134,28.422a.589.589,0,1,0,.59-.59.59.59,0,0,0-.59.59" transform="translate(43.869 14.687)" fill="#fff"/>
            <path id="Path_8105" data-name="Path 8105" d="M81.067,26.917a.831.831,0,1,0,.831-.831.83.83,0,0,0-.831.831" transform="translate(42.779 13.765)" fill="#fff"/>
            <path id="Path_8106" data-name="Path 8106" d="M77.306,30.01c.2.17.5.032.868-.29a13.208,13.208,0,0,1,1.543-1.247,11.523,11.523,0,0,1,6.114-1.329c2.539-.024,5.132,1.413,6.8,1.853,3.118,1.086,3.049-1.3.822-2.226a24.872,24.872,0,0,0-7.713-2.414c-3.121-.512-7.108-.312-8.491,1.317-.677.834-.142,4.169.058,4.336" transform="translate(40.588 12.722)" fill="#3c3c3b"/>
            <path id="Path_8107" data-name="Path 8107" d="M65.232,28.5a3.152,3.152,0,0,0,6.245,0,3.152,3.152,0,0,0-6.245,0" transform="translate(34.423 13.603)" fill="#936037"/>
            <path id="Path_8108" data-name="Path 8108" d="M66.176,28.111a1.681,1.681,0,1,0,1.68-1.592,1.637,1.637,0,0,0-1.68,1.592" transform="translate(34.921 13.994)" fill="#3c3c3b"/>
            <path id="Path_8109" data-name="Path 8109" d="M67.873,28.422a.589.589,0,1,0,.59-.59.59.59,0,0,0-.59.59" transform="translate(35.816 14.687)" fill="#fff"/>
            <path id="Path_8110" data-name="Path 8110" d="M65.679,26.929a.865.865,0,1,0,.865-.865.865.865,0,0,0-.865.865" transform="translate(34.659 13.754)" fill="#fff"/>
            <path id="Path_8111" data-name="Path 8111" d="M78.771,30.01c-.2.17-.5.032-.868-.29a13.168,13.168,0,0,0-1.541-1.247,11.532,11.532,0,0,0-6.115-1.329c-2.539-.024-5.132,1.413-6.8,1.853-3.116,1.086-3.049-1.3-.822-2.226a24.874,24.874,0,0,1,7.712-2.414c3.123-.512,7.11-.312,8.492,1.317.677.834.142,4.169-.058,4.336" transform="translate(32.201 12.722)" fill="#3c3c3b"/>
            <path id="Path_8112" data-name="Path 8112" d="M44.212,87.93a81.276,81.276,0,0,0,4.771,12.581c.536-.611,6.534-5.918,7.147-6.468-2.889-7.654-4.384-12.393-3.529-20.4.6-5.53,3.193-10.724,3.621-16.285.275-3.666,3.309-6.916,5.587-9.786,2.046-2.6,3.457-1.115,5.321-3.85,1.833-2.7.428-8.19,2.46-10.741s3.773-3.025,7.044-3.01c3.055.032,9.782,2.134,12.837,2.149,3.055-.015,5.2-2.017,8.259-2.047,3.269-.015,11.89.529,13.939,3.1,2.017,2.567.076,7.348,1.91,10.052,1.864,2.735,1.048.907,3.109,3.5,2.278,2.872,1.713,6.966,1.988,10.633.426,5.561,3.025,10.755,3.636,16.285.856,8.081-5.128,19.811-8.033,27.541.6.55,1.5,3.6,2.053,4.213,1.593-4.817,6.331-14.782,7.461-19.182,3.589-13.963-3.819-24.443-2.994-38.865.29-5.118-3.544-9.2-2.7-18.836C119.437,12.6,114.716,8.809,105.84,4.1A37.431,37.431,0,0,0,87.508.009h-.122A37.431,37.431,0,0,0,69.053,4.1C60.177,8.809,55.457,12.6,56.8,28.516c.84,9.64-2.994,13.719-2.69,18.836.811,14.421-13.5,26.614-9.9,40.577" transform="translate(23.022 0)" fill="#fff"/>
            <path id="Path_8113" data-name="Path 8113" d="M92.233,18.726c-.327,2.27-1.493,4.608-.655,6.743.6,1.546,2.146,2.583,2.721,4.139.9,2.443-.834,5.341.26,7.7a12.394,12.394,0,0,0,1.7,2.256,3.072,3.072,0,0,1,.785,2.612,4.886,4.886,0,0,0-2.42-2.733c-1.063-.655-1.024-1.632-1.8-2.608-1.784-2.232-.027-5.587-1.535-8.016-1.16-1.865-5.608-2.467-6.647-4.4a6.508,6.508,0,0,1-.249-4.73c.419-1.563,1.129-3.034,1.549-4.6A13.086,13.086,0,0,0,84.9,5.709a19.824,19.824,0,0,1,5.536,5.521,11.277,11.277,0,0,1,1.8,7.5" transform="translate(44.362 3.013)" fill="#ededed"/>
            <path id="Path_8114" data-name="Path 8114" d="M80.717,23.687c1.208-2.55-.015-5.668.862-8.349A35.661,35.661,0,0,1,83.248,12a8.12,8.12,0,0,0-.157-6.862c-.006,2.252-1.61,4.155-3.225,5.724s-3.411,3.158-4.009,5.329c-.558,2.029.032,4.285-.761,6.235-.866,2.133-3.118,3.3-5.2,4.293a19.028,19.028,0,0,0,6.01.237,6.432,6.432,0,0,0,4.806-3.265" transform="translate(36.886 2.71)" fill="#ededed"/>
            <path id="Path_8115" data-name="Path 8115" d="M64.574,17.486a26,26,0,0,1-.716,5.132c-.709,2.1-2.345,3.776-3.149,5.843-1.141,2.933-.51,6.4-1.969,9.186-1.276,2.438-3.871,3.842-6.315,5.1a12.2,12.2,0,0,0,4.125-9.285c-.035-1.951-.544-3.873-.55-5.824a22.669,22.669,0,0,1,.781-5.125,17.953,17.953,0,0,1,2.047-5.752c2.336-3.637,6.92-5.122,9.918-8.236a16.306,16.306,0,0,0-4.171,8.958" transform="translate(27.664 4.5)" fill="#ededed"/>
            <path id="Path_8116" data-name="Path 8116" d="M72.764,13.438a9.094,9.094,0,0,0-1.894,5.237,4.857,4.857,0,0,0,2.848,4.5A5.514,5.514,0,0,0,75.7,18.954c.125-1.6-.066-3.233.215-4.817.249-1.387.849-2.687,1.149-4.064A4.658,4.658,0,0,0,76.4,6.056a6.277,6.277,0,0,1-1.115,3.99c-.747,1.195-1.706,2.241-2.518,3.391" transform="translate(37.397 3.196)" fill="#ededed"/>
            <path id="Path_8117" data-name="Path 8117" d="M114.749,22.069a2.4,2.4,0,0,1-.361-.027,195.236,195.236,0,0,0-61.172,0,2.291,2.291,0,0,1-.717-4.527,199.791,199.791,0,0,1,62.6,0,2.291,2.291,0,0,1-.356,4.554" transform="translate(26.684 7.941)" fill="#3c3c3b"/>
            <path id="Path_8118" data-name="Path 8118" d="M114.749,19.308a2.221,2.221,0,0,1-.361-.029,195.328,195.328,0,0,0-61.172,0,2.291,2.291,0,1,1-.717-4.525,199.745,199.745,0,0,1,62.6,0,2.291,2.291,0,0,1-.356,4.554" transform="translate(26.684 6.483)" fill="#3c3c3b"/>
            <path id="Path_8119" data-name="Path 8119" d="M80.155,46.07c.011.467-1.845,2.143-4.076,1.907-2.237-.2-3.961-2.224-3.859-2.68.1-.487,1.881-.541,4.038-.35,2.156.231,3.888.625,3.9,1.123" transform="translate(38.108 23.664)" fill="#dba97b"/>
            <path id="Path_8120" data-name="Path 8120" d="M83.683,43.462c-.031.26-.885.4-2.275.7a24.282,24.282,0,0,1-5.712.617,8.854,8.854,0,0,1-2.3-.414,7.656,7.656,0,0,1-1.036-.437l-.457-.293c-.118-.073-.046-.041-.067-.058l-.018-.032c-.2-.347-.257-.1-.655.8-.3.7-.883.991-.949.8-.069-.168.031-.4.064-1.063a8.919,8.919,0,0,1,.192-1.538,1.352,1.352,0,0,1,.547-.929c.332-.223.683.1,1.088.18l.335.252a1.749,1.749,0,0,0,.318.192l.347.176a7.994,7.994,0,0,0,.8.26,9.793,9.793,0,0,0,1.887.275c2.043.086,4.039-.142,5.509-.079,1.482.026,2.412.345,2.382.59" transform="translate(37.038 21.92)" fill="#c4986e"/>
            <path id="Path_8121" data-name="Path 8121" d="M79,38.567c-2.047,0-9.308.038-12.258,4.4-1.815,2.683-3.373,5.6-1.868,12.785,4.019,5.714,9.655,8.308,14.278,8.308s10.888-2.573,12.512-9.542c.654-4.472.733-6.241.477-8.075-1.019-7.3-9.93-7.872-13.14-7.872m.052,11.826c-1.361-.053-1.37,2.339-3.278,2.5-7.128.613-7.377-6.41-5.555-8.072a5.282,5.282,0,0,1,1.986-1.1,24.019,24.019,0,0,1,6.946-.805,24.03,24.03,0,0,1,6.948.805,5.271,5.271,0,0,1,1.986,1.1c1.821,1.662,2.4,5.491.3,7.351l-.024.015a4.19,4.19,0,0,1-3.864.972c-1.3-.419-1.147-2.71-2.507-2.658Z" transform="translate(33.913 20.352)" fill="#3c3c3b"/>
          </g>
        </g>
      </g>
    </g>
  </g>
</svg>
