<svg xmlns="http://www.w3.org/2000/svg" xmlns:xlink="http://www.w3.org/1999/xlink" width="158.266" height="191.354" viewBox="0 0 158.266 191.354">
  <defs>
    <clipPath id="clip-path">
      <path id="Path_8495" data-name="Path 8495" d="M49.621,22.756h0S38.989-5.375,56-15.58s52.664-14.661,65.617-2.486,9.128,40.822,9.128,40.822h3.518c22.092,0,40,19.149,40,42.77v57.646c0,23.621-17.909,42.77-40,42.77H56c-22.092,0-40-19.149-40-42.77V65.526C16,41.9,27.529,22.756,49.621,22.756Z" transform="translate(10.874 21.953)" fill="#88daa9"/>
    </clipPath>
    <clipPath id="clip-path-2">
      <rect id="Rectangle_4353" data-name="Rectangle 4353" width="88.893" height="268.671" fill="none"/>
    </clipPath>
    <clipPath id="clip-path-3">
      <rect id="Rectangle_4352" data-name="Rectangle 4352" width="88.892" height="268.671" fill="none"/>
    </clipPath>
    <clipPath id="clip-path-4">
      <rect id="Rectangle_4351" data-name="Rectangle 4351" width="88.893" height="13.772" fill="none"/>
    </clipPath>
  </defs>
  <g id="Mask_Group_74" data-name="Mask Group 74" transform="translate(-26.874 3.46)" clip-path="url(#clip-path)">
    <g id="Group_22563" data-name="Group 22563" transform="translate(53.111 3.887)">
      <g id="Group_22562" data-name="Group 22562" clip-path="url(#clip-path-2)">
        <g id="Group_22561" data-name="Group 22561">
          <g id="Group_22560" data-name="Group 22560" clip-path="url(#clip-path-3)">
            <g id="Group_22559" data-name="Group 22559" transform="translate(0 254.899)" opacity="0.3">
              <g id="Group_22558" data-name="Group 22558">
                <g id="Group_22557" data-name="Group 22557" clip-path="url(#clip-path-4)">
                  <path id="Path_8468" data-name="Path 8468" d="M88.894,143.962c0,3.8-19.9,6.886-44.447,6.886S0,147.765,0,143.962s19.9-6.886,44.447-6.886,44.447,3.083,44.447,6.886" transform="translate(0 -137.076)" fill="#1e1e1e"/>
                </g>
              </g>
            </g>
            <path id="Path_8469" data-name="Path 8469" d="M87.814,85.824c0,8.242-19.5,14.921-43.554,14.921S1.109,94.065,1.109,85.824C6.764,79.044,20.2,10.41,44.26,10.41S76.4,75.016,87.814,85.824" transform="translate(0.953 8.948)" fill="#035e51"/>
            <path id="Path_8470" data-name="Path 8470" d="M40,182.573H27.743L25.783,87H42.936Z" transform="translate(22.162 74.785)" fill="#63574c"/>
            <path id="Path_8471" data-name="Path 8471" d="M16.26,182.573H28.512L30.472,87H13.32Z" transform="translate(11.449 74.785)" fill="#6e6256"/>
            <path id="Path_8472" data-name="Path 8472" d="M13.635,98.609l-.761-4.777A5.673,5.673,0,0,0,9.241,89.8c-2.821-1.086-5.848-.041-6.763,2.332l-1.116,2.9c-.913,2.375.632,5.181,3.453,6.267s5.17,1.806,6.084-.569l.166-.43.718-.115c1.132-.18,1.962-.883,1.852-1.571" transform="translate(0.945 76.817)" fill="#ffcb97"/>
            <path id="Path_8473" data-name="Path 8473" d="M40.638,98.609l.761-4.777A5.673,5.673,0,0,1,45.032,89.8c2.821-1.086,5.848-.041,6.763,2.332l1.116,2.9c.913,2.375-.632,5.181-3.453,6.267s-5.17,1.806-6.084-.569l-.166-.43-.718-.115c-1.132-.18-1.962-.883-1.852-1.571" transform="translate(34.921 76.817)" fill="#f3b783"/>
            <path id="Path_8474" data-name="Path 8474" d="M43.293,63.766H17.108V39.7H43.293Z" transform="translate(14.705 34.126)" fill="#f3b783"/>
            <path id="Path_8475" data-name="Path 8475" d="M79.578,65.96c0-8.085-9.166-15.007-22.162-17.878l-.292-1.5-13,5.562L30.94,46.578l-.424,1.532C17.59,51,8.488,57.9,8.488,65.96c0,6.947-7.472,48.607-7.472,55.762,0,4.919,4.71,5.235,12.34,10.043L22.836,78.3,14.62,184.794a88.542,88.542,0,0,0,29.412,4.8,88.531,88.531,0,0,0,29.411-4.8L65.23,78.3l9.478,53.462c7.63-4.809,12.342-5.125,12.342-10.043,0-7.156-7.472-48.815-7.472-55.762" transform="translate(0.873 40.036)" fill="#f7f7f7"/>
            <path id="Path_8476" data-name="Path 8476" d="M59.694,65.96c0-8.085-9.166-15.007-22.162-17.878l-.292-1.5-13,5.562s-.095,129.555-.095,137.458a88.531,88.531,0,0,0,29.411-4.8L45.346,78.3l9.478,53.462c7.63-4.809,12.342-5.125,12.342-10.043,0-7.156-7.472-48.815-7.472-55.762" transform="translate(20.757 40.036)" fill="#e5e4e3"/>
            <path id="Path_8477" data-name="Path 8477" d="M18.261,135.925l-3.753,3.009c-4.7,1.519-3.41,6.834-3.41,6.834H30.6v-6.791c0-.258-4.688-3.051-12.34-3.051" transform="translate(9.4 116.834)" fill="#1e1e1e"/>
            <path id="Path_8478" data-name="Path 8478" d="M39.168,135.925l3.753,3.009c4.7,1.519,3.41,6.834,3.41,6.834h-19.5v-6.791c0-.258,4.688-3.051,12.34-3.051" transform="translate(23.06 116.834)" fill="#000100"/>
            <path id="Path_8479" data-name="Path 8479" d="M74.886,44.958c0,23.847-20.34,38.405-34.543,38.405C26.114,83.363,5.8,68.8,5.8,44.958S21.266,1.779,40.343,1.779,74.886,21.111,74.886,44.958" transform="translate(4.985 1.529)" fill="#ffcb97"/>
            <path id="Path_8480" data-name="Path 8480" d="M58.919,44.958c0,23.847-20.34,38.405-34.543,38.405V1.779c19.077,0,34.543,19.332,34.543,43.179" transform="translate(20.952 1.529)" fill="#f3b783"/>
            <path id="Path_8481" data-name="Path 8481" d="M20.76,27.207a2.8,2.8,0,1,1-2.8-2.8,2.8,2.8,0,0,1,2.8,2.8" transform="translate(13.036 20.982)" fill="#000100"/>
            <path id="Path_8482" data-name="Path 8482" d="M26.518,21.019a1.748,1.748,0,0,1-1.748,1.748H14.048a1.748,1.748,0,1,1,0-3.5H24.77a1.748,1.748,0,0,1,1.748,1.748" transform="translate(10.572 16.564)" fill="#000100"/>
            <path id="Path_8483" data-name="Path 8483" d="M30.012,27.207a2.8,2.8,0,1,0,2.8-2.8,2.8,2.8,0,0,0-2.8,2.8" transform="translate(25.797 20.982)" fill="#000100"/>
            <path id="Path_8484" data-name="Path 8484" d="M28.24,21.019a1.748,1.748,0,0,0,1.748,1.748H40.71a1.748,1.748,0,1,0,0-3.5H29.988a1.748,1.748,0,0,0-1.748,1.748" transform="translate(24.274 16.564)" fill="#000100"/>
            <path id="Path_8485" data-name="Path 8485" d="M21.16,37.717v.017c0,4.628,3.306,6.334,3.834,6.334h3.44c.528,0,3.834-1.705,3.834-6.334v-.017Z" transform="translate(18.188 32.42)" fill="#fffcfb"/>
            <path id="Path_8486" data-name="Path 8486" d="M29.663,32.846l-3.674,2.073-3.674-2.073Z" transform="translate(19.18 28.232)" fill="#f3b783"/>
            <path id="Path_8487" data-name="Path 8487" d="M53.056,5.2l.006-.007a29.438,29.438,0,0,0-4.048-1.77L48.98,3.41h0a28.148,28.148,0,0,0-9.4-1.631c-15.393,0-28.431,12.593-32.894,29.981,13.216,3.766,28.6-2.3,39.166-15.122a38.058,38.058,0,0,1-15.3,16.126C41.6,33.4,52.7,26.3,59.25,14.74A37.734,37.734,0,0,1,47.2,32.082c7.831-.857,15.042-5.584,20.189-12.742A37.169,37.169,0,0,0,53.056,5.2" transform="translate(5.747 1.529)" fill="#000100"/>
            <path id="Path_8488" data-name="Path 8488" d="M68.5,18.839a32.141,32.141,0,0,0-58.518,0c.751-.292-1.789,6.282-2.637,8.8C5.3,33.717,10.076,31.5,15.774,27.12S27.95,21.277,35.723,22.53,46.345,21.7,53.856,21.7s11,10.118,15.765,10.077c4.573-.041-1.646-13.136-1.123-12.933" transform="translate(5.897)" fill="#067e72"/>
            <path id="Path_8489" data-name="Path 8489" d="M53.671,18.839A32.221,32.221,0,0,0,24.411,0c-.1,0-.2,0-.3.006V22.88c5.517.311,8.545-1.185,14.919-1.185,7.513,0,11,10.118,15.765,10.077,4.573-.041-1.646-13.136-1.123-12.933" transform="translate(20.724)" fill="#037063"/>
            <path id="Path_8490" data-name="Path 8490" d="M11.595,15.719S1.513,81.454,1.109,86.7C14.821,88.31,22.081,74.6,20.063,60.081S11.191,25.8,18.048,18.139c.4-6.049-3.63-14.921-6.453-2.419" transform="translate(0.953 8.075)" fill="#067e72"/>
            <path id="Path_8491" data-name="Path 8491" d="M46.128,15.719S56.211,81.454,56.614,86.7C42.9,88.31,35.642,74.6,37.66,60.081S46.532,25.8,39.676,18.139c-.4-6.049,3.63-14.921,6.453-2.419" transform="translate(32.084 8.075)" fill="#037063"/>
            <path id="Path_8492" data-name="Path 8492" d="M40,12.4c17.007-.121,31.1,3.933,33.626,13.452a45.291,45.291,0,0,0,.405-5.945C74.033,8.1,58.8,3.139,40,3.271S5.97,7.063,5.97,20.388A45.1,45.1,0,0,0,6.346,26.1C8.787,15.553,22.923,12.521,40,12.4" transform="translate(5.131 2.81)" fill="#191919"/>
            <path id="Path_8493" data-name="Path 8493" d="M9.725,142.891l17.642,3.687V50.949l-4.822-3.821a45.02,45.02,0,0,0-11.656,4.318L13.8,90.022Z" transform="translate(8.359 40.509)" fill="#067e72"/>
            <path id="Path_8494" data-name="Path 8494" d="M46.728,142.9,42.65,90.032l2.319-38.913a45.976,45.976,0,0,0-11.161-4l-4.721,3.827v95.644Z" transform="translate(25.001 40.499)" fill="#037063"/>
          </g>
        </g>
      </g>
    </g>
  </g>
</svg>
