<svg xmlns="http://www.w3.org/2000/svg" width="469.746" height="396.316" viewBox="0 0 469.746 396.316">
  <g id="Group_22472" data-name="Group 22472" transform="translate(121.5 14.59)" opacity="0.48">
    <path id="Path_8323" data-name="Path 8323" d="M57.759,27.358c10.506-9.089,28.415.634,27.47,14.174.827,13.58-17.2,22.987-27.632,13.973-9.565-6.3-9.525-22,.161-28.147" transform="translate(-0.789 55.334)" fill="#36af67" opacity="0.06"/>
    <path id="Path_8324" data-name="Path 8324" d="M124.767,31.86c10.509-9.092,28.419.63,27.474,14.17.827,13.58-17.2,22.987-27.632,13.973-9.565-6.3-9.526-22,.157-28.143" transform="translate(195.969 68.547)" fill="#36af67" opacity="0.06"/>
    <path id="Path_8325" data-name="Path 8325" d="M103.529,50.564c30.505-13.422,68.8,12.2,68.1,45.462,2.086,27.435-22.712,52.272-49.832,51.878-25.939.59-49.989-21.649-50.422-47.745-1.653-21.255,12.2-42.353,32.158-49.6" transform="translate(60.222 123.187)" fill="#36af67" opacity="0.06"/>
    <path id="Path_8326" data-name="Path 8326" d="M60.214,63.65c27.277-5.861,52.39,23.778,42.471,49.8-7.99,26.683-46.21,34.874-64.238,13.458C17.7,106.518,31.322,66.96,60.214,63.65" transform="translate(-65.406 170.096)" fill="#36af67" opacity="0.06"/>
    <path id="Path_8329" data-name="Path 8329" d="M82.645,90.374c9.683-7.164,24.8-.945,26.923,10.864,3.346,12.989-11.69,25.349-23.814,19.563-12.478-4.527-14.524-23.5-3.11-30.426" transform="translate(71.675 241.819)" fill="#36af67" opacity="0.06"/>
    <path id="Path_8327" data-name="Path 8327" d="M118.825.75C146.1-5.115,171.215,24.524,161.3,50.542,153.305,77.229,115.085,85.416,97.058,64,76.314,43.614,89.933,4.056,118.825.75" transform="translate(106.687 -14.59)" fill="#36af67" opacity="0.06"/>
    <path id="Path_8328" data-name="Path 8328" d="M44.759,23.838C72.036,17.973,97.149,47.612,87.23,73.63c-7.99,26.687-46.21,34.874-64.238,13.462C2.248,66.7,15.867,27.144,44.759,23.838" transform="translate(-110.781 53.199)" fill="#36af67" opacity="0.06"/>
    <path id="Path_8330" data-name="Path 8330" d="M15.853,94.1c10.785-6.967,26.569,2.4,25.86,15.076.984,12.714-15.154,22.672-25.821,15.351C3.966,118.854,4.044,99.763,15.853,94.1" transform="translate(-128.472 254.717)" fill="#36af67" opacity="0.06"/>
  </g>
</svg>
