<svg xmlns="http://www.w3.org/2000/svg" xmlns:xlink="http://www.w3.org/1999/xlink" width="484.754" height="334.643" viewBox="0 0 484.754 334.643">
  <defs>
    <clipPath id="clip-path"/>
  </defs>
  <g id="Mask_Group_66" data-name="Mask Group 66" transform="translate(25.684 -71.001)" opacity="0.09" clip-path="url(#clip-path)">
    <g id="Group_22456" data-name="Group 22456" transform="translate(-25.684 71.001)">
      <path id="Path_8299" data-name="Path 8299" d="M54.81,25.927c6.262-5.418,16.938.378,16.375,8.449.493,8.095-10.254,13.7-16.471,8.33-5.7-3.754-5.678-13.116.1-16.779" transform="translate(67.934 32.064)" fill="#fff"/>
      <path id="Path_8300" data-name="Path 8300" d="M121.82,30.428c6.265-5.42,16.941.375,16.377,8.447.493,8.095-10.254,13.7-16.471,8.33-5.7-3.754-5.678-13.116.094-16.776" transform="translate(158.156 38.123)" fill="#fff"/>
      <path id="Path_8301" data-name="Path 8301" d="M90.486,49.094c18.184-8,41.014,7.274,40.592,27.1,1.244,16.354-13.538,31.159-29.7,30.925-15.462.352-29.8-12.9-30.057-28.461-.986-12.67,7.274-25.247,19.17-29.564" transform="translate(95.909 63.179)" fill="#fff"/>
      <path id="Path_8302" data-name="Path 8302" d="M47.384,63.347c16.26-3.494,31.23,14.174,25.317,29.684-4.763,15.906-27.546,20.789-38.292,8.022C22.044,88.9,30.162,65.321,47.384,63.347" transform="translate(38.305 84.687)" fill="#fff"/>
      <path id="Path_8303" data-name="Path 8303" d="M106,.447c16.26-3.5,31.23,14.172,25.317,29.681-4.763,15.908-27.546,20.789-38.292,8.024C80.655,26,88.773,2.418,106,.447" transform="translate(117.215 0.001)" fill="#fff"/>
      <path id="Path_8304" data-name="Path 8304" d="M31.93,23.535c16.26-3.5,31.23,14.172,25.317,29.681C52.483,69.124,29.7,74,18.954,61.24,6.589,49.086,14.707,25.506,31.93,23.535" transform="translate(17.497 31.085)" fill="#fff"/>
      <path id="Path_8305" data-name="Path 8305" d="M79.612,89.144c5.772-4.27,14.782-.563,16.049,6.476,1.994,7.743-6.969,15.111-14.2,11.661-7.438-2.7-8.658-14.008-1.854-18.137" transform="translate(101.161 117.575)" fill="#fff"/>
      <path id="Path_8306" data-name="Path 8306" d="M12.266,93.136c6.429-4.153,15.838,1.431,15.415,8.986.587,7.579-9.033,13.515-15.392,9.151-7.109-3.379-7.062-14.759-.023-18.137" transform="translate(9.387 123.49)" fill="#fff"/>
      <path id="Path_8307" data-name="Path 8307" d="M151.958,125.172c16.635-14.125,38.034-20.53,55.561-33.341,11.38-7.978,22.361-17.95,27.194-31.371,3.731-10.324,2.7-21.446,1.9-32.168-3.449,12.389-5.209,26.232-14.735,35.782-20.249,21.117-50.681,26.514-73.7,43.548-32.919,23.956-50.118,67.387-43.126,107.392,5.608-33.787,19.756-67.809,46.9-89.841" transform="translate(139.365 38.094)" fill="#fff"/>
      <path id="Path_8308" data-name="Path 8308" d="M113.8,166.471c-8.071,16.661-8.376,35.782-5.631,53.755,4.411-17.5,9.714-35.427,21.493-49.576,14.641-18.468,37.189-27.454,58.705-35.172,27.335-10.655,57.3-19.874,77.429-42.492,12.483-13.421,16.049-33.156,11.52-50.634-2.205,8.658-3.918,17.645-8.728,25.315-7.6,12.834-20.859,20.906-34.21,26.7-25.622,10.983-52.957,17.668-77.922,30.2-18.114,9.012-34.092,23.323-42.657,41.906" transform="translate(143.529 57.023)" fill="#fff"/>
      <path id="Path_8309" data-name="Path 8309" d="M316.518,101.363c-11.661,9.831-27.523,11.825-42.258,11.919-31.3-.633-62.553-5.4-93.877-2.886-21.4,2.112-43.407,10.676-56.547,28.414-13.257,17.363-15.181,40.568-12.06,61.5,6.664-13.233,9.362-28.578,18.935-40.381,10.746-15.04,29.4-21.774,47.279-22.712,31.253-1.2,62.577,2.933,93.783-.4,16.4-1.877,33.318-6.664,45.754-18.043,11.45-10.441,17.269-25.786,18.489-40.991-5.7,8.447-11.4,17.152-19.5,23.581" transform="translate(148.737 104.723)" fill="#fff"/>
      <path id="Path_8310" data-name="Path 8310" d="M204.882,112.46c-29.564-11-63.727-7.673-91.085,7.813C88.739,134.7,66.331,153.38,40.85,167.059,28.414,173.934,13.961,175.177,0,174.52c10.042,10.089,23.628,16.729,37.964,17.316,22.619,1.1,44.346-7.344,64.642-16.469,18.3-8,34.608-20.462,54.13-25.552,35.289-9.787,73.534-1.551,105,15.976-8.963-25.69-31.793-44.346-56.852-53.332" transform="translate(0 142.709)" fill="#fff"/>
    </g>
  </g>
</svg>
