<svg xmlns="http://www.w3.org/2000/svg" xmlns:xlink="http://www.w3.org/1999/xlink" width="283.519" height="359.553" viewBox="0 0 283.519 359.553">
  <defs>
    <clipPath id="clip-path">
      <rect id="Rectangle_75" data-name="Rectangle 75" width="283.519" height="359.553" transform="translate(-101.576 105.778)" fill="#f5ecff"/>
    </clipPath>
  </defs>
  <g id="Mask_Group_77" data-name="Mask Group 77" transform="translate(101.576 -105.778)" clip-path="url(#clip-path)">
    <path id="Path_8627" data-name="Path 8627" d="M51.688,2.881C57.792,1,64.354,1.6,70.735,1.715Q140.078,3.373,209.421,5.04C215,5.214,220.888,7.459,224.54,12c3.561,4.3,4.778,9.908,5.112,15.221l.044,1.806c-.067,5.218-1.427,10.579-4.971,14.4a21.1,21.1,0,0,1-15.118,6.3c-13.339-.249-26.678-.707-40.011-.894-3.8,22.509-6.462,45.352-6.157,68.405a170.721,170.721,0,0,0,2.2,26.174c1.292,8.714,3.658,17.45,7.985,25.323,3.162,5.55,7.545,10.951,13.641,13.375,6.041,2.539,12.907,1.8,18.5-.911a25.766,25.766,0,0,0,11.226-10.054c1.5-2.514,1.561-5.566,1.787-8.444.155-2.087-.351-4.176-.325-6.266a2.054,2.054,0,0,1,2.593-1.921c2.494.5,4.429,2.442,5.952,4.4a30.179,30.179,0,0,1,5.827,17.979,38.643,38.643,0,0,1-5.969,21.052c-7.229,11.283-19.539,18.658-32.721,21.364a49.231,49.231,0,0,1-29.779-2.979,44.366,44.366,0,0,1-19.3-16.872c-5.353-8.344-8.131-17.99-9.417-27.582-4.071-23.246-4.346-46.744-4.3-70.078.148-18,.99-35.958,2.079-53.878q-18.454-.456-36.9-.89c1.712,36.37,3.3,72.746,5.495,109.115a109.714,109.714,0,0,1-.467,21.639c-1.356,9.823-4.3,19.6-10.2,27.512-3.816,4.994-9.108,9.209-15.535,10.325-6.03,1.094-12.473-.879-17.508-4.57a30.022,30.022,0,0,1-10.767-12.124c-2.555-5.419-2.782-11.532-1.868-17.211,1.03-7,3.845-13.445,6.49-19.877,2.638-5.785,5.394-11.518,8-17.313,3.694-9.5,4.917-19.807,5.9-29.992a372.4,372.4,0,0,0,.939-37.907c-.42-10.182-.769-20.416-2.641-30.531-5.347-1.751-10.963-1.164-16.328-.49-11.5,1.774-22.489,5.536-33.132,9.876-3.591,1.309-7.25,3.169-11.265,2.663a2.805,2.805,0,0,1-2.283-2.292l0-.147c.271-4.536,3.117-8.194,5.413-11.843A166.54,166.54,0,0,1,22.578,23.043C30.621,14.388,40.016,6.314,51.688,2.881Z" transform="translate(24.276 142.837) rotate(47)" fill="#1e1e39" opacity="0.1"/>
  </g>
</svg>
