<svg xmlns="http://www.w3.org/2000/svg" width="36.61" height="21.14" viewBox="0 0 36.61 21.14">
  <g id="Group_22444" data-name="Group 22444" transform="matrix(0.966, 0.259, -0.259, 0.966, 5.007, -4.534)">
    <path id="Path_8291" data-name="Path 8291" d="M3.494,6.987c1.2-1.019,2.743-1.481,4.007-2.4A4.983,4.983,0,0,0,9.463,2.32,5.556,5.556,0,0,0,9.6,0,5.463,5.463,0,0,1,8.537,2.581C7.076,4.1,4.882,4.493,3.222,5.721a8.066,8.066,0,0,0-3.11,7.745,10.4,10.4,0,0,1,3.383-6.48" transform="translate(17.517 0)" fill="#34bf6c"/>
    <path id="Path_8292" data-name="Path 8292" d="M.519,8.952a6.594,6.594,0,0,0-.406,3.877,8.781,8.781,0,0,1,1.55-3.576A9,9,0,0,1,5.9,6.716c1.971-.768,4.132-1.433,5.584-3.065A3.944,3.944,0,0,0,12.312,0a6.228,6.228,0,0,1-.63,1.826A5.106,5.106,0,0,1,9.215,3.752C7.367,4.544,5.4,5.026,3.6,5.929A6.541,6.541,0,0,0,.519,8.952" transform="translate(18.04 2.379)" fill="#34bf6c"/>
    <path id="Path_8293" data-name="Path 8293" d="M14.86,1.7a4.679,4.679,0,0,1-3.048.86,67.509,67.509,0,0,0-6.771-.208A5.687,5.687,0,0,0,.964,4.4a5.861,5.861,0,0,0-.87,4.435A14.794,14.794,0,0,1,1.459,5.925a4.4,4.4,0,0,1,3.41-1.638c2.254-.086,4.513.212,6.764-.029a5.788,5.788,0,0,0,3.3-1.3A4.461,4.461,0,0,0,16.267,0,7.233,7.233,0,0,1,14.86,1.7" transform="translate(18.695 8.375)" fill="#34bf6c"/>
    <path id="Path_8294" data-name="Path 8294" d="M14.777.466a7.919,7.919,0,0,0-6.569.564C6.4,2.07,4.784,3.417,2.946,4.4A5.5,5.5,0,0,1,0,4.942,4.155,4.155,0,0,0,2.738,6.191,10.345,10.345,0,0,0,7.4,5,27.334,27.334,0,0,1,11.3,3.16a10.206,10.206,0,0,1,7.573,1.152,6.612,6.612,0,0,0-4.1-3.846" transform="translate(0 13.149)" fill="#34bf6c"/>
  </g>
</svg>
