<svg width="103" height="40" viewBox="0 0 103 40" fill="none" xmlns="http://www.w3.org/2000/svg">
<mask id="mask0_48_1624" style="mask-type:luminance" maskUnits="userSpaceOnUse" x="0" y="0" width="103" height="40">
<path d="M102.921 0.115967H0V39.902H102.921V0.115967Z" fill="white"/>
</mask>
<g mask="url(#mask0_48_1624)">
<path d="M14.4072 1.68797L14.3882 1.63297L11.5742 2.64897C11.5307 2.66566 11.4929 2.69446 11.4652 2.73197C11.438 2.76928 11.4223 2.81381 11.4202 2.85997C11.4181 2.91727 11.4005 2.97292 11.3692 3.02097C11.3373 3.06934 11.2932 3.10834 11.2412 3.13397C11.1889 3.16055 11.1306 3.17296 11.072 3.16998C11.0134 3.16699 10.9566 3.14872 10.9072 3.11697C10.8637 3.09168 10.8135 3.08024 10.7633 3.08417C10.7131 3.0881 10.6653 3.10721 10.6262 3.13897C9.87088 3.6423 9.11455 4.14464 8.35722 4.64597C8.32469 4.65921 8.29587 4.68014 8.27322 4.70697C8.25086 4.73345 8.2354 4.76506 8.22822 4.79897L14.4072 1.68797ZM28.0912 37.517L28.1112 37.566L30.5992 36.466C30.6344 36.4497 30.6645 36.4241 30.6862 36.392C30.7078 36.36 30.7199 36.3225 30.7212 36.284C30.7216 36.23 30.7349 36.1768 30.7601 36.129C30.7852 36.0812 30.8213 36.04 30.8656 36.009C30.9098 35.978 30.9608 35.958 31.0143 35.9507C31.0678 35.9434 31.1223 35.949 31.1732 35.967C31.2312 35.9762 31.2907 35.9711 31.3462 35.952C31.4013 35.9331 31.4508 35.9008 31.4902 35.858C32.1422 35.312 32.7972 34.771 33.4452 34.222C33.5562 34.128 33.6952 34.049 33.7332 33.88L28.0912 37.517ZM28.3832 29.984C28.3972 30.043 28.3132 30.191 28.4382 30.236C28.5632 30.281 28.6202 30.136 28.6952 30.063C29.0232 29.737 29.3412 29.403 29.6722 29.078C29.7882 28.964 29.7882 28.884 29.6722 28.772C29.3542 28.472 29.0462 28.157 28.7292 27.852C28.6772 27.801 28.6292 27.697 28.5462 27.736C28.4632 27.775 28.4862 27.873 28.4812 27.949C28.4482 28.613 28.4182 29.277 28.3812 29.983M35.1812 32.296L35.2162 32.32C35.2304 32.3145 35.2436 32.3068 35.2552 32.297L37.2652 29.717C37.2894 29.6872 37.3045 29.6511 37.3088 29.613C37.3131 29.5749 37.3063 29.5363 37.2892 29.502C37.2723 29.4642 37.2636 29.4233 37.2636 29.382C37.2636 29.3406 37.2723 29.2997 37.2892 29.262C37.306 29.224 37.3306 29.19 37.3612 29.162C37.3922 29.1336 37.4286 29.1118 37.4682 29.098C37.5286 29.0702 37.5827 29.0304 37.6272 28.981C37.672 28.9322 37.706 28.8747 37.7272 28.812C38.1482 27.812 38.5742 26.818 38.9962 25.826C39.1072 25.566 39.2142 25.298 39.3232 25.035L39.2832 25.019L35.1832 32.29M17.2512 38.856V38.879C17.6682 38.921 18.0842 38.966 18.5022 39.007C19.2836 39.089 20.0655 39.1723 20.8482 39.257C20.9054 39.27 20.965 39.2679 21.0212 39.251C21.0773 39.2344 21.128 39.2034 21.1682 39.161C21.2228 39.1012 21.2978 39.0639 21.3785 39.0565C21.4591 39.0491 21.5396 39.0721 21.6042 39.121C21.6495 39.1517 21.7011 39.1718 21.7552 39.18C21.8094 39.188 21.8648 39.1839 21.9172 39.168C22.3832 39.068 22.8502 38.975 23.3172 38.879L25.8352 38.365V38.339L17.2582 38.859M26.1362 1.61697C26.1042 1.59297 26.0932 1.57897 26.0802 1.57597L22.8172 0.88497C22.772 0.873152 22.7245 0.873152 22.6792 0.88497C22.6338 0.896045 22.5921 0.918797 22.5582 0.95097C22.5323 0.981734 22.5005 1.00698 22.4647 1.0252C22.4288 1.04343 22.3897 1.05426 22.3496 1.05706C22.3095 1.05986 22.2692 1.05457 22.2312 1.0415C22.1931 1.02842 22.1581 1.00784 22.1282 0.98097C22.0549 0.915124 21.9667 0.868104 21.8712 0.84397C21.775 0.820444 21.6745 0.820444 21.5782 0.84397C20.2822 0.91697 18.9822 0.98297 17.6822 1.07797C17.2607 1.07868 16.8399 1.11413 16.4242 1.18397L26.1362 1.61697ZM22.1762 8.01697C22.1452 7.95397 22.1002 7.96397 22.0652 7.95897L17.2252 7.14597C16.9442 7.09797 16.9182 7.12697 16.9822 7.40597C17.0342 7.62497 17.0882 7.84497 17.1382 8.06397C17.1895 8.22769 17.2954 8.36888 17.4382 8.46397C17.5828 8.55988 17.7552 8.60492 17.9282 8.59197C18.9522 8.45497 19.9772 8.32397 21.0012 8.19197C21.3912 8.14097 21.7802 8.08397 22.1772 8.02797M12.7942 27.829C12.7852 27.809 12.7772 27.787 12.7662 27.766C12.1242 26.4586 11.4826 25.151 10.8412 23.843C10.7762 23.711 10.7162 23.768 10.6492 23.843C10.3672 24.138 10.0912 24.443 9.80222 24.725C9.65522 24.871 9.68322 24.968 9.82122 25.108C10.4862 25.785 11.1402 26.473 11.7972 27.158L12.4822 27.87C12.5372 27.926 12.5902 27.991 12.6822 27.941C12.7302 27.917 12.7952 27.903 12.7942 27.829ZM29.9702 28.738C30.0436 28.7102 30.107 28.6611 30.1522 28.597C30.8812 27.859 31.6062 27.118 32.3402 26.386C32.4632 26.263 32.5052 26.18 32.3942 26.015C32.2832 25.85 32.1632 25.875 32.0132 25.94C31.4402 26.192 30.8652 26.44 30.2922 26.689C29.8712 26.874 29.4512 27.059 29.0332 27.25C28.7662 27.37 28.7332 27.559 28.9332 27.75C29.2292 28.0433 29.5256 28.3356 29.8222 28.627C29.8601 28.6782 29.9134 28.716 29.9742 28.735M6.27522 6.63597C6.23401 6.65324 6.1945 6.67433 6.15722 6.69897L3.72322 9.25697C3.6949 9.28868 3.67466 9.32676 3.66422 9.36797C3.65409 9.40902 3.65409 9.45192 3.66422 9.49297C3.67342 9.53548 3.67342 9.57946 3.66422 9.62197C3.65611 9.66471 3.63908 9.70527 3.61422 9.74097C3.5876 9.77742 3.55351 9.80776 3.51422 9.82997C3.47629 9.85289 3.43411 9.86786 3.39022 9.87397C3.33643 9.88498 3.28686 9.91098 3.24722 9.94897C3.20794 9.98664 3.18048 10.0349 3.16822 10.088C2.65022 11.4173 2.13188 12.744 1.61322 14.068C1.53922 14.256 1.46422 14.444 1.39222 14.633C1.37222 14.682 1.33522 14.744 1.40122 14.779C1.46722 14.814 1.51522 14.753 1.54922 14.701C1.58322 14.649 1.59522 14.62 1.61922 14.579L5.71922 7.58897C5.89722 7.28897 6.06622 6.98897 6.26922 6.63597M27.8822 2.10097L27.8512 2.14797L29.2422 3.27497C31.4582 5.05564 33.6749 6.8353 35.8922 8.61397C35.9602 8.66797 36.0382 8.79697 36.1252 8.71397C36.2122 8.63097 36.0752 8.55097 36.0252 8.48897C35.2132 7.5303 34.3989 6.57564 33.5822 5.62497C33.551 5.57506 33.5067 5.53462 33.4542 5.50797C33.4014 5.48101 33.3424 5.46858 33.2832 5.47197C33.2118 5.47824 33.1405 5.45873 33.0822 5.41697C33.0237 5.3744 32.9836 5.31109 32.9702 5.23997C32.9537 5.17653 32.9229 5.11769 32.8802 5.06797C32.837 5.01765 32.783 4.97767 32.7222 4.95097L28.6752 2.56397L27.8822 2.10097ZM7.96722 22.938C8.02722 23.086 8.01822 23.238 8.13422 23.356C8.54422 23.7666 8.94955 24.182 9.35022 24.602C9.46822 24.725 9.55022 24.712 9.65922 24.593C9.95022 24.276 10.2452 23.962 10.5482 23.653C10.5924 23.6152 10.6212 23.5625 10.6292 23.505C10.6369 23.4474 10.623 23.389 10.5902 23.341C10.1982 22.5536 9.80922 21.7643 9.42322 20.973C9.40645 20.9213 9.37393 20.8762 9.33022 20.844C9.28612 20.8113 9.2331 20.7928 9.17822 20.791C9.03222 20.78 9.00722 20.878 8.96222 20.964C8.65155 21.564 8.34188 22.167 8.03322 22.773C8.00522 22.827 7.98722 22.887 7.96722 22.935M32.2432 25.017C32.2712 24.903 32.1892 24.864 32.1082 24.829L29.9352 23.861C29.8082 23.803 29.7352 23.814 29.6912 23.961C29.3852 24.949 29.0692 25.935 28.7632 26.922C28.7452 26.977 28.6982 27.047 28.7632 27.095C28.8282 27.143 28.8832 27.084 28.9412 27.06L30.0532 26.578L31.9702 25.742C32.0702 25.699 32.1882 25.663 32.1862 25.524C32.1784 25.3533 32.198 25.1825 32.2442 25.018M32.8442 24.262C32.8302 24.227 32.8112 24.175 32.7862 24.128C32.6312 23.821 32.4752 23.516 32.3202 23.209L31.1022 20.782C31.0522 20.682 31.0022 20.582 30.8602 20.601C30.7312 20.615 30.7222 20.714 30.6962 20.801C30.4242 21.661 30.1572 22.523 29.8792 23.381C29.8262 23.545 29.8792 23.62 30.0262 23.681C30.6672 23.957 31.3182 24.212 31.9352 24.532C32.0625 24.6196 32.2185 24.6554 32.3712 24.632C32.5233 24.6082 32.6604 24.527 32.7542 24.405C32.7902 24.366 32.8402 24.341 32.8402 24.26L32.8442 24.262ZM30.0012 29.11C29.9012 29.11 29.8662 29.178 29.8182 29.227C29.4849 29.5603 29.1546 29.8953 28.8272 30.232C28.7794 30.2903 28.7452 30.3587 28.7272 30.432C28.7082 30.5061 28.7064 30.5835 28.722 30.6584C28.7376 30.7333 28.7702 30.8036 28.8172 30.864C28.8646 30.9252 28.9251 30.9751 28.9942 31.01C30.4482 31.5973 31.9029 32.1833 33.3582 32.768C33.4212 32.793 33.4952 32.85 33.5522 32.774C33.6092 32.698 33.5422 32.629 33.4872 32.574C33.3282 32.412 33.1652 32.252 33.0042 32.091L30.1042 29.191C30.0652 29.163 30.0252 29.136 29.9972 29.108L30.0012 29.11ZM39.5572 22.71H39.5802C39.6002 22.116 39.6182 21.523 39.6422 20.93C39.6642 20.388 39.6972 19.846 39.7192 19.303C39.7432 18.714 39.7612 18.125 39.7832 17.536C39.7899 17.4854 39.7816 17.4339 39.7592 17.388C39.7372 17.3419 39.7025 17.303 39.6592 17.276C39.62 17.2532 39.586 17.2226 39.5592 17.186C39.5324 17.1497 39.5137 17.1081 39.5042 17.064C39.4947 17.0201 39.4947 16.9748 39.5042 16.931C39.514 16.8868 39.5331 16.8452 39.5602 16.809C39.5931 16.7568 39.6122 16.6972 39.6159 16.6357C39.6196 16.5741 39.6076 16.5127 39.5812 16.457C39.4512 16.09 39.3262 15.722 39.2022 15.357C38.7476 14.0156 38.2939 12.6746 37.8412 11.334C37.8202 11.271 37.8212 11.149 37.7072 11.183C37.6182 11.209 37.6702 11.303 37.6802 11.368C37.8802 12.6086 38.0836 13.8493 38.2902 15.09C38.5356 16.568 38.7822 18.046 39.0302 19.524L39.5632 22.712M15.3032 38.512L15.3352 38.461L5.10522 31.898C5.11487 31.9328 5.12864 31.9664 5.14622 31.998C6.33088 33.1533 7.51555 34.3113 8.70022 35.472C8.73373 35.5098 8.77931 35.5349 8.82922 35.543C8.87943 35.5511 8.93091 35.542 8.97522 35.517C9.1122 35.4509 9.26384 35.4211 9.41563 35.4304C9.56743 35.4397 9.7143 35.4877 9.84222 35.57C9.96936 35.651 10.0728 35.7641 10.1422 35.898C10.21 36.0304 10.2411 36.1785 10.2322 36.327C10.2285 36.3885 10.2466 36.4494 10.2832 36.499C10.3208 36.5484 10.374 36.5836 10.4342 36.599C11.6882 37.0903 12.9412 37.584 14.1932 38.08C14.5602 38.225 14.9292 38.365 15.2932 38.508M13.7682 20.293C13.7682 20.223 13.7242 20.2 13.6882 20.172C13.5952 20.1135 13.5108 20.0425 13.4372 19.961C13.3868 19.8865 13.3129 19.8312 13.2272 19.804C13.1406 19.7765 13.0473 19.779 12.9622 19.811C12.5622 19.892 12.1622 19.959 11.7622 20.031C11.1292 20.145 10.4962 20.255 9.86222 20.371C9.81119 20.3745 9.76163 20.3896 9.71722 20.415C9.67346 20.4396 9.63585 20.4738 9.60722 20.515C9.5792 20.5567 9.56142 20.6044 9.55534 20.6543C9.54925 20.7042 9.55504 20.7548 9.57222 20.802C9.95922 21.602 10.3552 22.396 10.7472 23.193C10.8062 23.312 10.8732 23.32 10.9602 23.222C11.0472 23.124 11.1492 23.012 11.2472 22.911L13.6652 20.411C13.7092 20.369 13.7422 20.326 13.7682 20.293ZM22.8492 8.21697C22.7912 8.12997 22.7062 8.15297 22.6352 8.16197C22.3202 8.20297 22.0062 8.24897 21.6922 8.29297L17.8712 8.79297C17.7712 8.80697 17.6712 8.81597 17.6352 8.94597C17.6209 8.99476 17.6237 9.04701 17.6432 9.09397C17.663 9.14148 17.6982 9.18094 17.7432 9.20597C18.6139 9.90464 19.4842 10.6046 20.3542 11.306C20.4682 11.393 20.5322 11.393 20.6212 11.271C21.3319 10.2923 22.0482 9.3153 22.7702 8.33997C22.7972 8.30297 22.8222 8.26397 22.8512 8.21897M4.28222 30.097L4.32422 30.125L5.75922 28.638C6.90588 27.4446 8.05322 26.252 9.20122 25.06C9.22871 25.0421 9.25137 25.0177 9.26722 24.989C9.28297 24.9603 9.29124 24.9282 9.29124 24.8955C9.29124 24.8628 9.28297 24.8306 9.26722 24.802C9.25137 24.7732 9.22871 24.7489 9.20122 24.731C8.83022 24.359 8.46822 23.978 8.10122 23.604C7.83422 23.336 7.74622 23.354 7.56822 23.696L4.86822 28.959C4.67422 29.339 4.48055 29.7196 4.28722 30.101M30.4232 8.87597C30.4149 8.90642 30.4149 8.93852 30.4232 8.96897C30.4323 8.99946 30.4492 9.02704 30.4722 9.04897C31.1002 9.94897 31.7322 10.858 32.3542 11.767C32.3693 11.7961 32.3904 11.8217 32.4162 11.842C32.4421 11.8627 32.4721 11.8776 32.5042 11.886C32.5364 11.8942 32.5699 11.8956 32.6026 11.8901C32.6353 11.8845 32.6665 11.8723 32.6942 11.854C33.6352 11.454 34.5752 11.048 35.5192 10.654C35.7472 10.56 35.8472 10.463 35.7192 10.229C35.686 10.1678 35.6714 10.0983 35.6772 10.029C35.7042 9.78497 35.5772 9.71597 35.3502 9.68197C34.0012 9.46397 32.6552 9.23197 31.3062 9.00897C31.0132 8.95997 30.7182 8.92197 30.4252 8.87697M24.7252 21.286C24.7452 21.364 24.8022 21.362 24.8422 21.38C25.4636 21.658 26.0856 21.9346 26.7082 22.21C27.5912 22.602 28.4762 22.99 29.3562 23.387C29.5612 23.48 29.6502 23.441 29.7072 23.226C29.7962 22.904 29.9072 22.588 30.0072 22.273C30.1726 21.753 30.3366 21.233 30.4992 20.713C30.5702 20.485 30.5202 20.43 30.2792 20.453C30.2312 20.453 30.1852 20.469 30.1382 20.476L26.5562 21.01L24.7252 21.286ZM27.2022 2.34197C27.0973 2.3826 27.0128 2.46315 26.9672 2.56597C26.1512 3.7413 25.3372 4.91764 24.5252 6.09497C24.1562 6.62897 23.7912 7.16497 23.4252 7.69497C23.3492 7.80397 23.3122 7.88597 23.5062 7.90597C24.3352 7.99297 25.1642 8.08497 25.9942 8.18797C26.2212 8.21697 26.3122 8.16497 26.3492 7.92797C26.5492 6.54097 26.7732 5.15397 26.9872 3.76797C27.0522 3.30497 27.1242 2.83997 27.2022 2.34197ZM26.2312 8.59697C26.2672 8.37897 26.0912 8.40297 25.9692 8.38997C25.1692 8.29597 24.3692 8.20997 23.5762 8.11997C23.3092 8.08997 23.2412 8.16997 23.3172 8.42597C23.4602 8.91097 23.6082 9.39297 23.7522 9.87797L24.9762 13.968C25.0132 14.091 25.0462 14.208 25.2242 14.191C25.4022 14.174 25.3892 14.054 25.4072 13.938C25.5752 12.84 25.7439 11.742 25.9132 10.644C26.0186 9.9593 26.1246 9.27697 26.2312 8.59697ZM27.4382 2.48197L27.3872 2.49397C27.2939 3.10664 27.1999 3.7183 27.1052 4.32897C26.9152 5.55697 26.7239 6.78364 26.5312 8.00897C26.5052 8.17197 26.5462 8.25597 26.7312 8.27497C27.7082 8.37497 28.6862 8.49297 29.6632 8.59897C29.9142 8.62597 29.9522 8.56997 29.8582 8.34397L28.2142 4.37597C27.9542 3.74464 27.6956 3.1133 27.4382 2.48197ZM3.48222 30.192L3.55122 30.182C2.68922 25.726 1.82922 21.271 0.971218 16.817L0.882218 16.826V17.117C0.892218 17.517 0.911218 17.917 0.913218 18.323C0.925218 20.176 0.913218 22.029 0.961218 23.882C0.953703 23.9497 0.962269 24.0182 0.986218 24.082C1.011 24.147 1.05074 24.2052 1.10222 24.252C1.13382 24.276 1.16035 24.306 1.18026 24.3403C1.20017 24.3747 1.21307 24.4126 1.21822 24.452C1.22331 24.4913 1.22053 24.5313 1.21006 24.5696C1.19959 24.6079 1.18163 24.6437 1.15722 24.675C1.11737 24.7268 1.09454 24.7897 1.09185 24.8551C1.08917 24.9204 1.10676 24.985 1.14222 25.04C1.34222 25.473 1.53722 25.907 1.73322 26.34L3.48222 30.195M26.5962 8.45797C26.4502 8.42197 26.4472 8.55797 26.4292 8.67297C26.1879 10.2143 25.9486 11.756 25.7112 13.298C25.6702 13.558 25.6352 13.818 25.5962 14.078C25.5872 14.144 25.5962 14.202 25.6652 14.233C25.6955 14.2502 25.731 14.2559 25.7652 14.249C25.8004 14.2411 25.8312 14.22 25.8512 14.19C25.8932 14.134 25.9402 14.079 25.9802 14.023C27.2149 12.385 28.4489 10.7456 29.6822 9.10497C29.7372 9.03097 29.8412 8.95397 29.8072 8.86697C29.7632 8.75297 29.6292 8.81597 29.5302 8.79597C29.4757 8.78537 29.4206 8.77769 29.3652 8.77297L26.5962 8.45797ZM16.4672 23.95C16.5272 24.0242 16.6115 24.0748 16.7052 24.093C17.7952 24.482 18.8932 24.856 19.9742 25.267C20.1251 25.3366 20.2954 25.3518 20.4562 25.31C20.6176 25.2697 20.7594 25.1733 20.8562 25.038C21.8169 23.9306 22.7722 22.819 23.7222 21.703C23.7722 21.645 23.8882 21.592 23.8112 21.492C23.7342 21.392 23.6502 21.472 23.5732 21.499C21.5772 22.185 19.5819 22.8716 17.5872 23.559C17.2212 23.685 16.8572 23.814 16.4692 23.949M20.1822 25.587C20.1009 25.5143 20.0013 25.4653 19.8942 25.445C18.7432 25.036 17.5942 24.63 16.4412 24.219C16.297 24.1525 16.133 24.1432 15.9822 24.193C15.8343 24.2405 15.7101 24.3428 15.6352 24.479C15.1612 25.2123 14.6852 25.9456 14.2072 26.679C13.9406 27.0923 13.6739 27.5056 13.4072 27.919C13.3742 27.97 13.3182 28.025 13.3592 28.087C13.4162 28.169 13.4872 28.103 13.5512 28.087C13.5966 28.073 13.6412 28.0566 13.6852 28.038L18.4692 26.238C19.0312 26.026 19.5932 25.81 20.1802 25.585M23.0702 8.35397C23.0427 8.35582 23.0162 8.36478 22.9932 8.37997C22.9704 8.39522 22.9521 8.41628 22.9402 8.44097C22.2182 9.41997 21.5012 10.396 20.7802 11.374C20.6802 11.515 20.7092 11.594 20.8402 11.699C21.9482 12.581 23.0612 13.459 24.1482 14.367C24.4082 14.585 24.5232 14.376 24.6962 14.305C24.8862 14.228 24.7962 14.087 24.7592 13.968C24.2712 12.3373 23.7809 10.7076 23.2882 9.07897C23.2152 8.83497 23.1392 8.59297 23.0652 8.35397M21.2442 25.754L21.2202 25.815C21.4642 25.988 21.7102 26.155 21.9532 26.326L27.6052 30.3C27.6942 30.361 27.7742 30.491 27.9152 30.4C27.9868 30.3686 28.0487 30.3185 28.0942 30.255C28.1391 30.1921 28.1657 30.118 28.1712 30.041C28.1932 29.297 28.2362 28.554 28.2712 27.81C28.2852 27.502 28.1952 27.383 27.8982 27.31L22.4272 26.017C22.0352 25.925 21.6412 25.838 21.2482 25.748M8.87322 20.659C8.82522 20.441 8.80622 20.259 8.56622 20.139C7.80722 19.766 7.06622 19.359 6.31722 18.965L1.97122 16.68C1.90422 16.645 1.81722 16.566 1.75722 16.637C1.68322 16.724 1.80422 16.767 1.85022 16.816C2.32522 17.316 2.80622 17.816 3.28422 18.31L4.99422 20.093C5.81555 20.9476 6.63789 21.801 7.46122 22.653C7.64622 22.843 7.78122 22.818 7.90522 22.586C8.21055 21.998 8.51288 21.4086 8.81222 20.818C8.83619 20.7674 8.85755 20.7157 8.87622 20.663M26.1822 37.824C26.1479 37.6954 26.0706 37.5825 25.9632 37.504C25.6082 37.135 25.2522 36.769 24.9032 36.404C23.9346 35.3866 22.9679 34.3686 22.0032 33.35C21.9623 33.2985 21.9046 33.2631 21.8402 33.25C21.775 33.2363 21.7071 33.2458 21.6482 33.277C21.4743 33.3468 21.2877 33.3797 21.1004 33.3735C20.9131 33.3673 20.7291 33.3222 20.5602 33.241C20.5334 33.2218 20.5027 33.2088 20.4702 33.203C20.4373 33.1955 20.4031 33.1955 20.3702 33.203C20.3382 33.2113 20.3085 33.2267 20.2832 33.248C20.2583 33.2689 20.2384 33.2952 20.2252 33.325C19.8362 33.874 19.4372 34.416 19.0422 34.961C18.8732 35.193 18.8752 35.19 19.1422 35.284L25.0262 37.41C25.4022 37.545 25.7792 37.678 26.1812 37.82M36.7992 11.332C36.8222 11.251 36.7392 11.213 36.6402 11.184C36.442 11.1247 36.2623 11.0155 36.1182 10.867C36.068 10.8055 35.9967 10.7648 35.9182 10.753C35.8409 10.7396 35.7614 10.7545 35.6942 10.795C34.7502 11.203 33.8026 11.603 32.8512 11.995C32.6592 12.076 32.6102 12.148 32.7442 12.332C33.0442 12.747 33.3352 13.177 33.6332 13.6C34.2662 14.511 34.9022 15.42 35.5332 16.335C35.5688 16.4052 35.6255 16.4625 35.6952 16.499C35.7654 16.5362 35.8453 16.5512 35.9242 16.542C36.0722 16.516 36.0372 16.352 36.0532 16.248C36.2022 15.295 36.3442 14.348 36.4882 13.397C36.5882 12.723 36.6882 12.048 36.8012 11.327M11.4192 32.499C11.7012 32.599 11.9472 32.683 12.1922 32.771C14.2882 33.529 16.3836 34.2883 18.4782 35.049C18.5193 35.071 18.5662 35.0801 18.6125 35.0751C18.6589 35.0701 18.7027 35.0512 18.7382 35.021C18.7613 35.001 18.78 34.9765 18.7932 34.949C19.1982 34.383 19.6052 33.817 20.0252 33.261C20.1462 33.102 20.1912 32.986 20.0252 32.828C19.9332 32.7416 19.8673 32.631 19.8352 32.509C19.7802 32.249 19.6192 32.218 19.3852 32.225C17.6446 32.279 15.9042 32.3276 14.1642 32.371C13.3452 32.392 12.5262 32.407 11.7062 32.427C11.6036 32.4157 11.5003 32.4416 11.4152 32.5M10.1242 32.108C10.2862 31.916 10.6092 31.96 10.7742 31.701C11.3452 30.801 11.9342 29.919 12.5122 29.027C12.5702 28.94 12.6902 28.849 12.5922 28.717C12.4942 28.585 12.3662 28.61 12.2292 28.646L9.58222 29.337L4.62122 30.617C4.50522 30.647 4.29822 30.646 4.30322 30.763C4.30322 30.912 4.51422 30.886 4.63722 30.914C5.92522 31.1986 7.21388 31.4796 8.50322 31.757C9.03122 31.872 9.55922 31.984 10.1262 32.104M26.2942 14.563C26.3282 14.552 26.3742 14.54 26.4182 14.522C26.7102 14.4 27.0019 14.277 27.2932 14.153L32.1052 12.111C32.2622 12.045 32.2682 11.981 32.1782 11.851C31.8782 11.431 31.5872 11.005 31.2892 10.58C30.9502 10.092 30.6152 9.60097 30.2712 9.11797C30.1452 8.94497 30.0582 8.94497 29.9212 9.11297C29.8212 9.23397 29.7342 9.36297 29.6392 9.48797C28.4672 11.054 27.2942 12.6206 26.1202 14.188C26.0682 14.257 25.9622 14.325 26.0442 14.428C26.0711 14.4696 26.1078 14.504 26.1512 14.528C26.1952 14.5513 26.2444 14.5634 26.2942 14.563ZM33.9942 30.863H33.9002C33.9002 30.163 33.9062 29.463 33.9002 28.769C33.8942 28.075 33.8632 27.39 33.8532 26.697C33.8532 26.512 33.7952 26.454 33.5952 26.497C33.362 26.5621 33.113 26.5397 32.8952 26.434C32.7172 26.334 32.6142 26.391 32.4902 26.521C31.7569 27.2723 31.0166 28.0216 30.2692 28.769C30.1512 28.887 30.1332 28.969 30.2612 29.094C31.3586 30.1773 32.4479 31.2653 33.5292 32.358C33.6652 32.496 33.7572 32.478 33.8842 32.367C33.9243 32.33 33.9552 32.2841 33.9742 32.233C33.9932 32.1822 33.9997 32.1277 33.9932 32.074V30.85M22.8532 7.83797C22.8532 7.76697 22.7932 7.75097 22.7532 7.71697L19.8432 5.20297L16.0762 1.95297C16.0052 1.89197 15.9432 1.81697 15.8282 1.87497C15.6972 1.94097 15.7392 2.03997 15.7632 2.13497C16.1102 3.64097 16.4632 5.14497 16.8032 6.65097C16.8129 6.72417 16.8484 6.79152 16.9032 6.84097C16.9582 6.89141 17.0288 6.92142 17.1032 6.92597C18.9446 7.2293 20.7852 7.53564 22.6252 7.84497C22.6994 7.87212 22.7814 7.86888 22.8532 7.83597M35.5202 18.036C35.4992 17.842 35.2452 17.857 35.1412 17.718C35.0702 17.624 34.9832 17.693 34.9092 17.737C33.8092 18.394 32.7162 19.054 31.6162 19.707C31.4342 19.815 31.2532 19.907 31.3302 20.165C31.3368 20.2369 31.3153 20.3085 31.2702 20.365C31.2412 20.4062 31.2251 20.455 31.2238 20.5054C31.2226 20.5558 31.2363 20.6054 31.2632 20.648C31.8379 21.79 32.4092 22.9336 32.9772 24.079C32.9976 24.1378 33.0379 24.1877 33.0912 24.22C33.1455 24.2529 33.2093 24.2663 33.2722 24.258C33.4301 24.233 33.5919 24.2499 33.7412 24.307C33.9012 24.385 33.9572 24.343 33.9982 24.177C34.4172 22.477 34.8472 20.771 35.2702 19.068C35.3542 18.733 35.4322 18.402 35.5202 18.039V18.036ZM10.8642 32.517C11.1222 32.817 11.3302 33.059 11.5412 33.297L14.6282 36.813C15.0282 37.272 15.4282 37.735 15.8412 38.189C15.8733 38.2437 15.9201 38.2884 15.9762 38.318C16.0326 38.3479 16.0961 38.362 16.1599 38.3587C16.2236 38.3553 16.2853 38.3347 16.3382 38.299C16.3903 38.2636 16.4316 38.2145 16.4572 38.157C17.1042 37.273 17.7452 36.385 18.3972 35.505C18.5192 35.339 18.5132 35.251 18.3032 35.199C18.2422 35.183 18.1842 35.156 18.1252 35.135L10.8662 32.517M15.6992 38.454L15.7472 38.401L14.9952 37.546L10.8742 32.84C10.7742 32.723 10.6872 32.597 10.4862 32.632C10.4305 32.6323 10.3758 32.617 10.3282 32.588C10.2813 32.5589 10.2437 32.5169 10.2202 32.467C10.1832 32.4119 10.1344 32.3657 10.0772 32.332C10.0195 32.2976 9.95501 32.2765 9.88822 32.27C8.44488 31.9566 7.00188 31.641 5.55922 31.323C5.12122 31.223 4.68122 31.138 4.24222 31.044C4.23622 31.058 4.23022 31.073 4.22322 31.086L15.7032 38.454M26.1822 38.102C26.1839 38.0825 26.1869 38.0631 26.1912 38.044C26.0912 38.006 25.9912 37.966 25.8842 37.929L23.1102 36.929C21.7232 36.429 20.3352 35.929 18.9502 35.429C18.9212 35.4129 18.8892 35.403 18.8562 35.3997C18.8232 35.3964 18.7898 35.3999 18.7582 35.41C18.7269 35.42 18.6979 35.4363 18.6732 35.458C18.6488 35.4793 18.629 35.5056 18.6152 35.535C18.3632 35.903 18.0962 36.26 17.8332 36.621C17.4112 37.2036 16.9879 37.7856 16.5632 38.367C16.5321 38.3965 16.5108 38.4349 16.5022 38.477C16.4939 38.5191 16.4988 38.5627 16.5162 38.602C16.5602 38.689 16.6362 38.689 16.7162 38.683C17.2312 38.652 17.7472 38.624 18.2622 38.592C19.6742 38.505 21.0852 38.413 22.4962 38.327C23.4162 38.272 24.3362 38.227 25.2572 38.174C25.5642 38.156 25.8702 38.131 26.1782 38.108M34.9602 17.308C35.0202 17.058 34.8052 17.048 34.6132 17.015L29.4032 16.117C28.5266 15.967 27.6496 15.815 26.7722 15.661C26.6382 15.638 26.5192 15.636 26.4662 15.796C26.4262 15.919 26.3522 16.019 26.4982 16.143C27.6482 17.134 28.7822 18.143 29.9382 19.126C30.2322 19.376 30.4662 19.741 30.9722 19.682C31.1311 19.6836 31.2883 19.6494 31.4322 19.582L32.7912 18.761L34.8012 17.548C34.8852 17.498 35.0012 17.461 34.9632 17.288M36.4162 17.268C36.2382 17.549 36.3812 17.844 36.5222 18.143C37.1182 19.4143 37.7106 20.6856 38.2992 21.957L39.1492 23.777C39.2062 23.898 39.2492 24.048 39.4292 23.992C39.5922 23.942 39.5182 23.801 39.5032 23.692C39.4712 23.469 39.4302 23.247 39.3942 23.025L38.5052 17.697C38.2862 16.365 38.0712 15.032 37.8532 13.697C37.7292 12.939 37.5992 12.182 37.4742 11.423C37.4532 11.288 37.4062 11.223 37.2432 11.235C37.0492 11.249 36.9912 11.335 36.9652 11.508C36.7522 12.951 36.5212 14.392 36.3182 15.837C36.2632 16.231 36.0862 16.637 36.3752 17.025C36.4082 17.068 36.3952 17.145 36.4112 17.262M4.26522 30.495C4.93222 30.322 5.53722 30.173 6.14322 30.016L12.1822 28.443C12.4912 28.362 12.5442 28.208 12.3282 27.984C11.4392 27.062 10.5462 26.146 9.66222 25.221C9.51722 25.07 9.43422 25.094 9.30722 25.232C8.93522 25.632 8.55422 26.032 8.17122 26.426C7.04522 27.5966 5.91755 28.766 4.78822 29.934C4.62622 30.101 4.47322 30.276 4.27222 30.494M24.6822 21.085L24.7292 21.08L30.1292 20.28C30.2292 20.264 30.3562 20.266 30.3742 20.107C30.3922 19.948 30.4632 19.838 30.2912 19.698C29.6252 19.145 28.9792 18.571 28.3272 17.998C27.6919 17.4486 27.0569 16.897 26.4222 16.343C26.4037 16.318 26.3798 16.2975 26.3522 16.2831C26.3247 16.2687 26.2942 16.2608 26.2631 16.2598C26.2321 16.2588 26.2012 16.2649 26.1728 16.2776C26.1444 16.2903 26.1192 16.3092 26.0992 16.333C25.9998 16.4302 25.8818 16.5064 25.7522 16.557C25.6216 16.6076 25.4822 16.6318 25.3422 16.628C25.1322 16.617 25.0672 16.715 25.0422 16.895C24.9532 17.438 24.8572 17.981 24.7632 18.525C24.6372 19.251 24.5092 19.978 24.3842 20.705C24.3712 20.7498 24.3692 20.7971 24.3782 20.843C24.3874 20.8889 24.4073 20.9321 24.4362 20.969C24.4654 21.0059 24.5027 21.0357 24.5452 21.056C24.5881 21.0758 24.635 21.0857 24.6822 21.085ZM15.2322 17.603C15.2112 17.758 15.3872 17.783 15.4662 17.879C15.5812 18.022 15.6662 17.998 15.7722 17.85C17.2529 15.8306 18.7376 13.815 20.2262 11.803C20.3592 11.623 20.3262 11.533 20.1632 11.403C19.3052 10.724 18.4542 10.037 17.6022 9.35197C17.3852 9.17897 17.2812 9.20697 17.2022 9.47497C17.1852 9.53497 17.1702 9.59497 17.1552 9.65497C16.5999 11.9343 16.0456 14.2136 15.4922 16.493C15.4032 16.855 15.3212 17.218 15.2312 17.6M16.0452 32.117V32.088C16.4112 32.088 16.7762 32.094 17.1452 32.088C17.9242 32.073 18.7042 32.047 19.4832 32.036C19.6682 32.036 19.7392 31.962 19.7502 31.792C19.7572 31.65 19.6422 31.633 19.5552 31.592C18.5672 31.1066 17.5789 30.6226 16.5902 30.14C15.5742 29.642 14.5586 29.142 13.5432 28.64C13.4812 28.609 13.4212 28.571 13.3432 28.621C12.9947 28.7948 12.7057 29.0684 12.5132 29.407C12.4441 29.5385 12.3645 29.6642 12.2752 29.783C11.8179 30.4836 11.3599 31.1836 10.9012 31.883C10.8652 31.9237 10.8436 31.9752 10.8398 32.0294C10.836 32.0836 10.8502 32.1376 10.8802 32.183C10.9472 32.283 11.0422 32.255 11.1372 32.251C11.7732 32.228 12.4092 32.202 13.0442 32.185C14.0442 32.158 15.0442 32.137 16.0502 32.114M23.5632 21.279V21.233C23.4952 21.214 23.4292 21.192 23.3632 21.178C22.8732 21.078 22.3862 20.978 21.8942 20.871C19.9516 20.459 18.0102 20.0453 16.0702 19.63C16.0107 19.611 15.9464 19.6131 15.8882 19.636C15.8307 19.6586 15.7829 19.7007 15.7532 19.755C15.6007 19.9859 15.3847 20.1679 15.1312 20.279C14.9912 20.337 14.9672 20.415 15.0052 20.552C15.2792 21.532 15.5432 22.514 15.8162 23.499C15.8982 23.79 16.0752 23.867 16.3732 23.764L20.6732 22.285C21.6386 21.9516 22.6052 21.6183 23.5732 21.285M34.6292 25.114C34.6762 25.109 34.7292 25.105 34.7712 25.098C36.1042 24.898 37.4422 24.691 38.7772 24.483C39.0352 24.443 39.0982 24.283 38.9832 24.037C38.0732 22.0536 37.1639 20.07 36.2552 18.086C36.1492 17.855 35.9962 17.81 35.8052 17.967C35.7162 18.043 35.7162 18.167 35.6892 18.267C35.2102 20.189 34.7602 22.12 34.2362 24.031C34.1112 24.488 34.3582 24.742 34.5032 25.071C34.5242 25.121 34.5792 25.12 34.6282 25.113M15.6632 23.817C15.656 23.7604 15.6453 23.7043 15.6312 23.649C15.3772 22.721 15.1252 21.792 14.8632 20.865C14.7432 20.44 14.7312 20.458 14.2852 20.391C14.1981 20.3723 14.1075 20.3779 14.0232 20.407C13.9394 20.4358 13.8653 20.4874 13.8092 20.556C12.9019 21.5106 11.9896 22.4616 11.0722 23.409C11.0235 23.4472 10.9904 23.502 10.9792 23.563C10.9681 23.6237 10.9799 23.6864 11.0122 23.739C11.6749 25.0723 12.3352 26.4056 12.9932 27.739C13.1022 27.96 13.1302 27.962 13.2602 27.762C14.0302 26.578 14.8022 25.3933 15.5762 24.208C15.6485 24.0908 15.6798 23.9529 15.6652 23.816M9.43322 19.416H9.42422V19.648C9.42422 19.735 9.41922 19.821 9.42422 19.908C9.42238 19.9506 9.4306 19.9931 9.44822 20.032C9.4662 20.0709 9.49289 20.1051 9.52622 20.132C9.56009 20.1595 9.59974 20.179 9.64222 20.189C9.68469 20.1985 9.72875 20.1985 9.77122 20.189C10.8272 20.004 11.8822 19.815 12.9382 19.629C13.0852 19.603 13.1382 19.553 13.0932 19.394C13.0057 19.1296 13.0019 18.8446 13.0822 18.578C13.1636 18.3099 13.3243 18.0728 13.5432 17.898C13.6952 17.769 13.6872 17.68 13.5782 17.536C12.3809 15.9233 11.1822 14.307 9.98222 12.687C9.92222 12.606 9.88222 12.478 9.73122 12.52C9.58022 12.562 9.61222 12.686 9.60922 12.79C9.58588 13.6746 9.56255 14.558 9.53922 15.44C9.50122 16.758 9.46522 18.0816 9.43122 19.411L9.43322 19.416ZM35.5822 9.51697C35.6312 9.52897 35.6822 9.48197 35.7142 9.39897C35.7534 9.28867 35.804 9.18277 35.8652 9.08297C35.9452 8.96497 35.9182 8.89297 35.8132 8.81197C35.4652 8.54097 35.1232 8.26297 34.7792 7.98697C32.4926 6.14497 30.2052 4.3033 27.9172 2.46197C27.8422 2.40097 27.7622 2.26197 27.6662 2.33397C27.5702 2.40597 27.6752 2.51797 27.7102 2.60397C28.4836 4.4833 29.2586 6.3613 30.0352 8.23797C30.0793 8.35589 30.1547 8.45959 30.2532 8.53797C30.3525 8.61666 30.4708 8.66772 30.5962 8.68597C31.8022 8.89697 33.0082 9.09297 34.2162 9.29297C34.6542 9.36697 35.0942 9.43597 35.5822 9.51497M20.6822 26.235H20.6912C20.7382 27.055 20.7802 27.875 20.8352 28.695C20.8712 29.267 20.9242 29.838 20.9562 30.411C20.9672 30.577 21.0342 30.631 21.2062 30.636C21.4703 30.6336 21.7289 30.7109 21.9482 30.858C22.1653 31.0038 22.3316 31.2135 22.4242 31.458C22.434 31.4945 22.4514 31.5286 22.4752 31.558C22.4993 31.5878 22.5292 31.6123 22.5632 31.63C22.5977 31.6478 22.6354 31.6583 22.6741 31.6611C22.7128 31.6638 22.7516 31.6587 22.7882 31.646C23.9162 31.461 25.0452 31.283 26.1742 31.103L27.5852 30.878C27.6532 30.867 27.7372 30.872 27.7632 30.791C27.7892 30.71 27.7232 30.648 27.6632 30.599C27.6322 30.575 27.5992 30.553 27.5632 30.531L24.1452 28.117L21.0522 25.942C20.9712 25.885 20.8932 25.8 20.7752 25.855C20.6572 25.91 20.6922 26.028 20.6862 26.123V26.239M34.0572 26.972C34.0572 27.244 34.0852 27.515 34.0942 27.785C34.1372 29.125 34.1672 30.467 34.2002 31.809C34.2082 32.156 34.2002 32.156 34.5552 32.156C34.6186 32.1525 34.6822 32.1613 34.7422 32.182C34.9342 32.26 35.0312 32.174 35.1162 32.015C35.3522 31.576 35.5992 31.141 35.8452 30.707L39.0452 25.04C39.0767 25.0001 39.095 24.9514 39.0975 24.9007C39.1 24.85 39.0866 24.7997 39.0592 24.757C38.9912 24.657 38.9002 24.675 38.8052 24.689L34.7532 25.305C34.6901 25.3077 34.6302 25.3337 34.5852 25.378C34.5406 25.4216 34.5145 25.4806 34.5122 25.543C34.4953 25.7479 34.4064 25.9403 34.2612 26.086C34.1796 26.1583 34.1177 26.2502 34.0812 26.353C34.0453 26.4553 34.0363 26.5652 34.0552 26.672C34.0632 26.772 34.0552 26.872 34.0552 26.972M34.9552 16.872C35.1552 16.88 35.2452 16.693 35.3702 16.581C35.4532 16.507 35.3152 16.408 35.2622 16.327C34.3732 15.039 33.4792 13.758 32.6012 12.465C32.5831 12.4195 32.5547 12.3787 32.5182 12.346C32.4814 12.313 32.4377 12.2887 32.3902 12.275C32.3426 12.2611 32.2925 12.258 32.2435 12.266C32.1946 12.2739 32.148 12.2927 32.1072 12.321C30.3482 13.08 28.5822 13.821 26.8202 14.575C26.6822 14.634 26.5112 14.662 26.4272 14.784C26.3432 14.906 26.4982 15.024 26.5032 15.153C26.5065 15.1681 26.5088 15.1835 26.5102 15.199C26.4982 15.391 26.6162 15.445 26.7872 15.472C27.3042 15.559 27.8192 15.645 28.3372 15.737L32.8462 16.511C33.5462 16.631 34.2402 16.747 34.9572 16.868M13.5002 28.339C13.5578 28.4214 13.6412 28.4823 13.7372 28.512C14.5112 28.8926 15.2859 29.2716 16.0612 29.649C17.2332 30.223 18.4046 30.7986 19.5752 31.376C19.7372 31.457 19.8422 31.476 19.9302 31.289C20.0596 31.0511 20.2668 30.865 20.5172 30.762C20.5911 30.7362 20.6532 30.6847 20.6922 30.617C20.7307 30.5501 20.7432 30.4714 20.7272 30.396C20.6692 29.496 20.6272 28.596 20.5682 27.704C20.5342 27.155 20.5022 26.604 20.4542 26.057C20.4252 25.735 20.3922 25.727 20.0912 25.841L14.8672 27.817C14.4162 27.99 13.9672 28.164 13.4972 28.341M27.0432 37.641C27.0432 37.735 27.0492 37.799 27.1162 37.827C27.2162 37.869 27.2812 37.791 27.3512 37.747C29.2766 36.5076 31.2019 35.267 33.1272 34.025C33.5882 33.725 33.5842 33.73 33.4932 33.208C33.4877 33.1509 33.465 33.0969 33.4282 33.053C33.3906 33.0088 33.3409 32.9765 33.2852 32.96C32.9672 32.839 32.6532 32.706 32.3372 32.578L28.8302 31.163C28.5302 31.042 28.3362 31.163 28.2732 31.479C27.9346 33.1763 27.5946 34.874 27.2532 36.572C27.1822 36.939 27.1082 37.303 27.0422 37.642L27.0432 37.641ZM27.7542 31.054L26.8332 31.204C25.4762 31.419 24.1192 31.637 22.7612 31.847C22.6162 31.87 22.5612 31.921 22.5482 32.066C22.531 32.3971 22.3912 32.71 22.1562 32.944C22.1337 32.9586 22.1152 32.9786 22.1024 33.0022C22.0896 33.0257 22.0829 33.0521 22.0829 33.079C22.0829 33.1058 22.0896 33.1322 22.1024 33.1558C22.1152 33.1793 22.1337 33.1994 22.1562 33.214C22.5772 33.647 22.9912 34.088 23.4072 34.525C24.3692 35.5416 25.3309 36.5553 26.2922 37.566C26.3922 37.676 26.4872 37.771 26.6752 37.719C26.8632 37.667 26.8532 37.519 26.8752 37.391C27.0632 36.463 27.2462 35.533 27.4312 34.604C27.6432 33.5373 27.8559 32.4706 28.0692 31.404C28.1132 31.181 28.0092 31.052 27.7472 31.052M16.5452 6.82497C16.6862 6.83697 16.6082 6.67997 16.5812 6.55797C16.2442 5.10497 15.9042 3.65797 15.5732 2.20197C15.5332 2.02897 15.4612 1.94197 15.2732 1.95597C15.1525 1.96201 15.0332 1.92674 14.9352 1.85597C14.8739 1.81267 14.8008 1.78941 14.7257 1.78941C14.6507 1.78941 14.5775 1.81267 14.5162 1.85597C13.5442 2.35064 12.5699 2.84197 11.5932 3.32997L7.96822 5.15197C7.90222 5.18597 7.80122 5.20297 7.82622 5.30897C7.84622 5.39597 7.93422 5.38497 8.00422 5.39597C8.44222 5.47197 8.88022 5.54897 9.31922 5.62397L13.9192 6.39497C14.7572 6.53497 15.5972 6.66997 16.5432 6.82397M24.1852 14.75C24.1782 14.614 24.0852 14.561 24.0072 14.5C22.9222 13.625 21.8342 12.755 20.7512 11.877C20.5812 11.739 20.4942 11.755 20.3642 11.934C19.3342 13.352 18.2922 14.762 17.2542 16.174C16.7912 16.805 16.3302 17.437 15.8602 18.063C15.7052 18.271 15.8742 18.423 15.9492 18.573C16.0242 18.723 16.1492 18.582 16.2392 18.546C17.5386 18.036 18.8356 17.522 20.1302 17.004C21.3529 16.5186 22.5752 16.032 23.7972 15.544C23.8692 15.515 23.9752 15.502 23.9872 15.419C24.0025 15.1837 24.0709 14.955 24.1872 14.75M15.9672 19.224C15.9162 19.397 16.0112 19.424 16.1222 19.45L23.5372 21.01C23.679 21.0282 23.8226 20.9952 23.9422 20.917C24.0606 20.8403 24.1467 20.7229 24.1842 20.587C24.4042 19.326 24.6192 18.063 24.8422 16.803C24.8522 16.7743 24.8563 16.744 24.8543 16.7137C24.8522 16.6835 24.844 16.654 24.8302 16.627C24.8162 16.5997 24.7968 16.5756 24.7732 16.556C24.7497 16.5362 24.7225 16.5213 24.6932 16.512C24.4537 16.4063 24.2581 16.2212 24.1392 15.988C23.9902 15.688 23.9862 15.688 23.6732 15.815C21.2292 16.789 18.7862 17.77 16.3382 18.728C16.0522 18.84 15.9272 18.975 15.9672 19.228M28.1232 27.159C28.2305 27.1518 28.3331 27.112 28.4172 27.045C28.5003 26.9788 28.5605 26.8882 28.5892 26.786C28.8742 25.873 29.1642 24.961 29.4462 24.047C29.5602 23.679 29.6462 23.736 29.2122 23.547L24.8392 21.618C24.6789 21.5525 24.5027 21.5365 24.3332 21.572C24.1647 21.607 24.0106 21.692 23.8912 21.816C22.9346 22.9266 21.9792 24.0386 21.0252 25.152C20.8372 25.372 20.8672 25.452 21.1502 25.52L27.9452 27.131C28.0072 27.146 28.0692 27.154 28.1232 27.164M9.24522 11.424C9.23522 11.393 9.21922 11.337 9.20222 11.29C8.71155 9.80664 8.22055 8.3233 7.72922 6.83997C7.64022 6.57397 7.54222 6.31097 7.46222 6.03997C7.41022 5.86197 7.26222 5.82897 7.11822 5.79997C6.97422 5.77097 6.95022 5.89997 6.90122 5.97897C6.70122 6.29897 6.51822 6.62297 6.32922 6.94597C4.87122 9.44064 3.41355 11.9343 1.95622 14.427C1.86722 14.574 1.72522 14.71 1.73022 14.879C1.73022 15.014 1.92222 15.073 1.99722 15.19C2.00779 15.2017 2.01717 15.2144 2.02522 15.228C2.10022 15.413 2.21522 15.38 2.36522 15.309C3.63322 14.714 4.90422 14.128 6.17422 13.536C7.06288 13.1233 7.95155 12.707 8.84022 12.287C8.92922 12.246 9.05122 12.224 9.03022 12.087C9.01292 11.9949 9.01911 11.9 9.04822 11.811C9.07792 11.7214 9.12947 11.6406 9.19822 11.576C9.2176 11.5569 9.23172 11.5331 9.23922 11.507C9.24622 11.4808 9.24622 11.4532 9.23922 11.427M9.38222 12.837H9.40222V12.743C9.40222 12.406 9.26722 12.323 8.95822 12.466C8.80022 12.539 8.64322 12.614 8.48522 12.689C6.48922 13.6183 4.49355 14.5463 2.49822 15.473C2.31122 15.56 2.18122 15.652 2.19222 15.883C2.19088 16.0249 2.14468 16.1628 2.06022 16.277C1.97122 16.414 2.01322 16.477 2.14922 16.543C2.60722 16.775 3.06122 17.018 3.51622 17.256L8.74722 20.004C9.02022 20.147 9.21022 20.045 9.21822 19.744C9.24722 18.713 9.28022 17.682 9.30722 16.651C9.33722 15.38 9.36022 14.108 9.38722 12.837M17.0012 9.42897C16.9945 9.36819 16.9754 9.30942 16.945 9.25631C16.9147 9.20319 16.8739 9.15684 16.825 9.12012C16.7761 9.08339 16.7202 9.05707 16.6607 9.04277C16.6012 9.02847 16.5395 9.0265 16.4792 9.03697C14.5152 9.88497 12.5506 10.7316 10.5852 11.577C10.3262 11.688 10.0782 11.777 10.1282 12.117C10.1296 12.1484 10.1197 12.1793 10.1002 12.204C10.0002 12.33 10.0582 12.426 10.1402 12.535C10.5942 13.142 11.0402 13.756 11.4932 14.367C12.2512 15.393 13.0122 16.418 13.7652 17.447C13.7967 17.5092 13.8507 17.5571 13.9162 17.581C13.9807 17.6051 14.0517 17.6051 14.1162 17.581C14.3403 17.5213 14.5753 17.5151 14.8022 17.563C14.9642 17.592 15.0292 17.554 15.0692 17.397C15.1952 16.844 15.3362 16.297 15.4692 15.743C15.8806 14.0516 16.2912 12.3603 16.7012 10.669C16.8012 10.246 16.9012 9.82297 17.0012 9.43097M7.90122 5.59597C7.86272 5.59137 7.82369 5.59582 7.78722 5.60897C7.74923 5.62146 7.71488 5.64309 7.68722 5.67197C7.66098 5.7003 7.64209 5.73464 7.63222 5.77197C7.62307 5.80874 7.62307 5.8472 7.63222 5.88397C7.65144 5.96707 7.67582 6.0489 7.70522 6.12897C8.24622 7.75197 8.79122 9.37397 9.32622 10.999C9.40522 11.239 9.44522 11.484 9.78922 11.46C9.83691 11.4654 9.88168 11.4857 9.91722 11.518C9.95914 11.5481 10.0091 11.5652 10.0607 11.567C10.1123 11.5688 10.1633 11.5552 10.2072 11.528L15.9892 9.02797C16.3437 8.94147 16.6576 8.73561 16.8782 8.44497C16.9302 8.35397 16.9872 8.29197 16.9592 8.18497C16.8862 7.89097 16.8152 7.59597 16.7592 7.29897C16.7521 7.22213 16.7164 7.15076 16.6592 7.09897C16.6016 7.04658 16.5271 7.01675 16.4492 7.01497C14.0652 6.62497 11.6822 6.22964 9.30022 5.82897L7.90122 5.59597ZM16.6892 1.39597H16.4032C16.2502 1.39597 16.2102 1.51397 16.1522 1.61297C16.0942 1.71197 16.1792 1.77097 16.2412 1.82597C16.4292 1.99264 16.6189 2.1593 16.8102 2.32597L21.1402 6.05297C21.7302 6.56097 22.3172 7.07097 22.9122 7.57497C23.1382 7.76697 23.1452 7.75997 23.3072 7.52497C23.4692 7.28997 23.6252 7.05997 23.7852 6.83197L26.8362 2.41697C27.0542 2.09997 26.9632 1.88297 26.5692 1.85997C25.6492 1.80597 24.7282 1.77297 23.8062 1.73697C22.9722 1.68797 22.1362 1.64697 21.3062 1.61897C19.7652 1.55997 18.2282 1.47297 16.6862 1.40097M1.21222 16.955C1.21822 16.986 1.22922 17.031 1.23722 17.077C1.35455 17.677 1.47288 18.279 1.59222 18.883C1.85888 20.2696 2.12555 21.6563 2.39222 23.043C2.66622 24.469 2.94222 25.8946 3.22022 27.32L3.75322 30.065C3.76922 30.145 3.75922 30.265 3.86122 30.28C3.96322 30.295 3.99322 30.186 4.03122 30.114C4.14822 29.894 4.25922 29.671 4.37422 29.449C5.36355 27.529 6.35355 25.609 7.34422 23.689C7.41922 23.546 7.48522 23.417 7.35122 23.266C7.3226 23.2278 7.30575 23.1821 7.30273 23.1345C7.29971 23.0869 7.31065 23.0394 7.33422 22.998C7.39122 22.883 7.34322 22.814 7.26622 22.733C6.38955 21.823 5.51455 20.911 4.64122 19.997C3.70788 19.023 2.77122 18.0503 1.83122 17.079C1.74222 16.992 1.65322 16.899 1.56422 16.819C1.52706 16.7902 1.48285 16.7719 1.43622 16.766C1.38935 16.7599 1.34171 16.7665 1.29822 16.785C1.22122 16.808 1.22422 16.876 1.22622 16.958M38.6112 9.83597C38.6199 10.0353 38.5819 10.2339 38.5002 10.416C38.4181 10.5994 38.2949 10.7616 38.1402 10.89C38.0803 10.9315 38.0367 10.9927 38.0172 11.063C37.9976 11.1328 38.004 11.2075 38.0352 11.273C38.6226 12.9963 39.2072 14.7203 39.7892 16.445C39.8039 16.4966 39.8291 16.5446 39.8632 16.586C39.898 16.6275 39.9409 16.6615 39.9892 16.686C40.0409 16.7025 40.0877 16.7318 40.1252 16.771C40.1624 16.8099 40.1889 16.8578 40.2022 16.91C40.2159 16.9617 40.2159 17.0162 40.2022 17.068C40.1881 17.12 40.1609 17.1675 40.1232 17.206C40.0382 17.3271 39.9937 17.472 39.9962 17.62C39.9612 18.651 39.9282 19.682 39.8882 20.713C39.8482 21.69 39.7992 22.665 39.7552 23.641C39.7357 23.8671 39.7901 24.0934 39.9102 24.286C39.9561 24.3585 39.9785 24.4435 39.9742 24.5293C39.9699 24.615 39.9392 24.6974 39.8862 24.765C39.8507 24.8103 39.8065 24.848 39.7562 24.876C39.6326 24.9581 39.5389 25.0781 39.4892 25.218C38.9712 26.4446 38.4492 27.67 37.9232 28.894C37.8915 28.9465 37.8752 29.0068 37.8761 29.0682C37.877 29.1295 37.895 29.1894 37.9282 29.241C37.9603 29.2903 37.9785 29.3474 37.9808 29.4062C37.9831 29.465 37.9694 29.5233 37.9412 29.575C37.9127 29.6269 37.871 29.6704 37.8202 29.701C37.7688 29.7321 37.7103 29.7493 37.6502 29.751C37.5962 29.7544 37.5438 29.7705 37.4972 29.798C37.4512 29.8254 37.4124 29.8634 37.3842 29.909C36.7522 30.727 36.1212 31.546 35.4842 32.359C35.4368 32.4093 35.4077 32.4741 35.4013 32.5429C35.395 32.6118 35.4118 32.6808 35.4492 32.739C35.5319 32.9111 35.5618 33.1039 35.5352 33.293C35.5086 33.4826 35.4268 33.6603 35.3002 33.804C35.1712 33.9476 35.0041 34.0517 34.8182 34.104C34.6307 34.1578 34.4318 34.1578 34.2442 34.104C34.1665 34.0765 34.0827 34.0713 34.0022 34.089C33.9222 34.1062 33.8487 34.1457 33.7902 34.203L31.5702 36.045C31.4954 36.1007 31.4458 36.1837 31.4322 36.276C31.4331 36.3319 31.4201 36.3873 31.3944 36.437C31.3688 36.4868 31.3312 36.5294 31.2851 36.5612C31.239 36.593 31.1858 36.6128 31.1302 36.6191C31.0745 36.6253 31.0182 36.6177 30.9662 36.597C30.8735 36.5769 30.7766 36.5896 30.6922 36.633C29.6429 37.0996 28.5932 37.5663 27.5432 38.033C27.4617 38.0598 27.3872 38.1046 27.3252 38.164C27.264 38.2229 27.2171 38.2951 27.1882 38.375C27.1641 38.4376 27.1258 38.4937 27.0762 38.539C27.0263 38.5852 26.9664 38.6194 26.9012 38.639C26.836 38.6582 26.7672 38.6625 26.7 38.6516C26.6329 38.6407 26.569 38.6149 26.5132 38.576C26.4549 38.5376 26.389 38.5122 26.32 38.5015C26.2509 38.4908 26.1804 38.4951 26.1132 38.514C24.7686 38.7933 23.4229 39.07 22.0762 39.344C21.9985 39.3535 21.924 39.3805 21.8582 39.423C21.793 39.4652 21.7386 39.522 21.6992 39.589C21.677 39.6286 21.6463 39.6627 21.6092 39.689C21.5716 39.7157 21.5286 39.7338 21.4832 39.742C21.4374 39.7504 21.3903 39.7487 21.3452 39.737C21.3004 39.7252 21.2588 39.7037 21.2232 39.674C20.9922 39.423 20.6902 39.452 20.4082 39.42C19.2322 39.287 18.0542 39.167 16.8762 39.043C16.7897 39.0198 16.6987 39.0198 16.6122 39.043C16.5262 39.0657 16.4479 39.1109 16.3852 39.174C16.332 39.2251 16.2671 39.2625 16.1962 39.283C16.1249 39.3037 16.0497 39.3068 15.9769 39.2922C15.9041 39.2776 15.836 39.2456 15.7782 39.199C15.7212 39.1529 15.6766 39.0935 15.6482 39.026C15.6162 38.9601 15.5713 38.9012 15.5162 38.853C15.4604 38.8041 15.3955 38.7667 15.3252 38.743C13.8126 38.1503 12.3002 37.5553 10.7882 36.958C10.7142 36.929 10.6382 36.903 10.5682 36.871C10.5202 36.8329 10.4652 36.8047 10.4062 36.788C10.2867 36.7534 10.1584 36.7674 10.0492 36.827C9.99554 36.8563 9.94827 36.8961 9.91022 36.944C9.76298 37.0809 9.57108 37.1598 9.3701 37.1661C9.16912 37.1723 8.97268 37.1055 8.81722 36.978C8.65812 36.861 8.54521 36.6918 8.49822 36.5C8.45205 36.3091 8.47545 36.1081 8.56422 35.933C8.60285 35.874 8.61751 35.8024 8.60522 35.733C8.591 35.6617 8.5498 35.5986 8.49022 35.557C7.05688 34.167 5.62722 32.7736 4.20122 31.377C4.15659 31.3231 4.09818 31.2823 4.03222 31.259C3.96583 31.2355 3.89442 31.23 3.82522 31.243C3.74669 31.257 3.66591 31.2512 3.59022 31.226C3.51374 31.2015 3.44486 31.1578 3.39022 31.099C3.33806 31.0425 3.30122 30.9737 3.28322 30.899C3.2659 30.8228 3.26901 30.7435 3.29222 30.669C3.31574 30.5958 3.3245 30.5187 3.31798 30.4422C3.31145 30.3656 3.28978 30.2911 3.25422 30.223L1.30122 25.917C1.19522 25.683 1.09122 25.448 0.985218 25.217C0.920357 25.0405 0.804435 24.8873 0.652218 24.777C0.612501 24.7549 0.578308 24.7242 0.552218 24.687C0.527714 24.6507 0.511822 24.6094 0.505756 24.566C0.49969 24.5227 0.50361 24.4786 0.517218 24.437C0.53092 24.3954 0.553822 24.3575 0.584218 24.326C0.644146 24.25 0.688433 24.1629 0.714521 24.0697C0.740609 23.9765 0.747984 23.879 0.736218 23.783C0.730218 22.401 0.736218 21.02 0.703218 19.639C0.688218 18.717 0.675218 17.792 0.676218 16.864C0.679171 16.8061 0.667838 16.7484 0.643218 16.696C0.618514 16.6433 0.581467 16.5973 0.535218 16.562C0.381247 16.4508 0.264475 16.2957 0.200218 16.117C0.137972 15.9395 0.131689 15.7472 0.182218 15.566C0.221509 15.3741 0.31975 15.1993 0.463218 15.066C0.609597 14.9296 0.794196 14.8413 0.992218 14.813C1.04229 14.8033 1.08846 14.7792 1.12505 14.7437C1.16165 14.7082 1.18707 14.6627 1.19822 14.613C1.79822 13.0796 2.40055 11.5433 3.00522 10.004C3.04355 9.9111 3.04355 9.80684 3.00522 9.71397C2.9786 9.66136 2.96642 9.60262 2.96993 9.54377C2.97345 9.48491 2.99252 9.42804 3.02522 9.37897C3.05837 9.32922 3.10385 9.28891 3.15722 9.26197C3.21069 9.23213 3.27098 9.21663 3.33222 9.21697C3.44274 9.20886 3.54572 9.15791 3.61922 9.07497L6.41922 6.11997C6.50022 6.03297 6.57822 5.94697 6.66522 5.86697C6.73717 5.81442 6.79238 5.74218 6.82422 5.65897C6.85587 5.57638 6.86248 5.48629 6.84322 5.39997C6.83484 5.33037 6.84307 5.25978 6.86722 5.19397C6.89217 5.12961 6.93151 5.07181 6.98222 5.02497C7.03528 4.97488 7.09932 4.9379 7.16922 4.91697C7.23825 4.89627 7.31107 4.89149 7.38222 4.90297C7.44361 4.91523 7.50682 4.91523 7.56822 4.90297C7.62896 4.88941 7.68641 4.86391 7.73722 4.82797C8.64922 4.21797 9.56288 3.6113 10.4782 3.00797C10.5938 2.94234 10.6868 2.84336 10.7452 2.72397C10.772 2.64423 10.8287 2.57794 10.9032 2.53897C10.9788 2.49905 11.0666 2.48905 11.1492 2.51097C11.2823 2.53763 11.4203 2.52226 11.5442 2.46697C12.4416 2.13364 13.3376 1.80497 14.2322 1.48097C14.3892 1.42497 14.4832 1.36297 14.4502 1.16397C14.4142 0.945179 14.4613 0.720839 14.5822 0.53497C14.7057 0.34895 14.8921 0.21368 15.1072 0.15397C15.33 0.0849437 15.5703 0.100613 15.7822 0.19797C15.9924 0.294055 16.1582 0.466325 16.2462 0.67997C16.3352 0.91097 16.4462 0.94797 16.6792 0.93197C18.3822 0.82497 20.0822 0.73297 21.7822 0.63797C21.833 0.638085 21.8831 0.627166 21.9292 0.60597C21.9735 0.58489 22.0127 0.554538 22.0442 0.51697C22.0739 0.469646 22.1152 0.430736 22.1642 0.40397C22.2137 0.376925 22.2693 0.362752 22.3257 0.362752C22.3822 0.362752 22.4377 0.376925 22.4872 0.40397C22.5362 0.430736 22.5776 0.469646 22.6072 0.51697C22.6987 0.625937 22.8273 0.697181 22.9682 0.71697C24.2582 0.99097 25.5482 1.2663 26.8382 1.54297C26.9303 1.56431 27.0269 1.55152 27.1102 1.50697C27.1725 1.4667 27.2431 1.4411 27.3167 1.43209C27.3904 1.42309 27.4651 1.43091 27.5352 1.45497C27.605 1.47894 27.6683 1.51863 27.7202 1.57097C27.7718 1.62259 27.8105 1.68562 27.8332 1.75497C27.8699 1.83272 27.9296 1.8973 28.0042 1.93997C29.5769 2.86397 31.1486 3.78964 32.7192 4.71697C32.7898 4.77215 32.8729 4.80892 32.9612 4.82397C33.0499 4.83923 33.1409 4.83236 33.2262 4.80397C33.2785 4.78814 33.3339 4.78607 33.3872 4.79797C33.4401 4.80958 33.489 4.83473 33.5292 4.87097C33.5689 4.90692 33.5983 4.95284 33.6142 5.00397C33.6301 5.05488 33.6318 5.10915 33.6192 5.16097C33.6112 5.2213 33.6177 5.28267 33.6382 5.33997C33.6591 5.39781 33.6934 5.4499 33.7382 5.49197C34.5596 6.44864 35.3772 7.40964 36.1912 8.37497C36.2322 8.44011 36.2966 8.48701 36.3712 8.50597C36.4461 8.52568 36.5256 8.51676 36.5942 8.48097C36.8181 8.39109 37.0605 8.35714 37.3004 8.38206C37.5404 8.40698 37.7706 8.49001 37.9712 8.62397C38.1695 8.75659 38.3314 8.93673 38.4422 9.14797C38.5516 9.35758 38.6056 9.59164 38.5992 9.82797" fill="#34BD6D"/>
<path d="M23.6914 15.4009C23.6923 15.6063 23.7343 15.8094 23.8149 15.9983C23.8954 16.1872 24.0129 16.3581 24.1604 16.5009C24.4639 16.7941 24.8694 16.9579 25.2914 16.9579C25.7134 16.9579 26.1189 16.7941 26.4224 16.5009C26.5705 16.3579 26.6884 16.1866 26.7688 15.9971C26.8493 15.8076 26.8908 15.6038 26.8908 15.3979C26.8908 15.192 26.8493 14.9883 26.7688 14.7988C26.6884 14.6093 26.5705 14.4379 26.4224 14.2949C26.1956 14.0762 25.9102 13.9279 25.6009 13.868C25.2916 13.808 24.9715 13.8389 24.6794 13.9569C24.486 14.0347 24.3097 14.1495 24.1604 14.2949C24.0123 14.4389 23.8944 14.6109 23.8134 14.8009C23.7327 14.9906 23.6912 15.1947 23.6914 15.4009Z" fill="#34BD6D"/>
<path d="M23.54 21.2609C23.5402 21.3309 23.5543 21.4001 23.5816 21.4645C23.6089 21.5289 23.6488 21.5872 23.699 21.6359C23.802 21.7356 23.9398 21.7912 24.083 21.7909C24.1543 21.7911 24.2249 21.7775 24.291 21.7509C24.357 21.7245 24.4171 21.6854 24.468 21.6359C24.5184 21.587 24.5585 21.5285 24.586 21.4639C24.6134 21.3997 24.6275 21.3307 24.6275 21.2609C24.6275 21.1912 24.6134 21.1221 24.586 21.0579C24.5585 20.9933 24.5184 20.9349 24.468 20.8859C24.4171 20.8364 24.357 20.7973 24.291 20.7709C24.1916 20.7309 24.0828 20.7205 23.9776 20.7409C23.8724 20.7613 23.7753 20.8117 23.698 20.8859C23.648 20.9347 23.6083 20.9931 23.5812 21.0575C23.554 21.1219 23.54 21.1911 23.54 21.2609Z" fill="#34BD6D"/>
<path d="M30.2998 20.153C30.3 20.2302 30.3157 20.3066 30.346 20.3777C30.3762 20.4488 30.4203 20.5132 30.4758 20.567C30.5897 20.677 30.7419 20.7385 30.9003 20.7385C31.0587 20.7385 31.2109 20.677 31.3248 20.567C31.3805 20.5132 31.4248 20.4488 31.455 20.3776C31.4853 20.3064 31.5009 20.2298 31.5009 20.1525C31.5009 20.0751 31.4853 19.9985 31.455 19.9273C31.4248 19.8561 31.3805 19.7917 31.3248 19.738C31.2109 19.6279 31.0587 19.5664 30.9003 19.5664C30.7419 19.5664 30.5897 19.6279 30.4758 19.738C30.4202 19.7918 30.376 19.8563 30.3458 19.9276C30.3155 19.9989 30.2999 20.0755 30.2998 20.153Z" fill="#34BD6D"/>
<path d="M34.875 17.202C34.8752 17.3115 34.8973 17.4198 34.9401 17.5206C34.9829 17.6215 35.0454 17.7127 35.124 17.789C35.2852 17.9442 35.5002 18.0309 35.724 18.0309C35.9478 18.0309 36.1628 17.9442 36.324 17.789C36.4026 17.713 36.4652 17.622 36.508 17.5215C36.5508 17.4209 36.573 17.3127 36.5731 17.2034C36.5733 17.0941 36.5515 16.9858 36.5091 16.8851C36.4666 16.7843 36.4044 16.6932 36.326 16.617C36.2054 16.5006 36.0537 16.4216 35.8892 16.3897C35.7246 16.3577 35.5544 16.3742 35.399 16.437C35.2972 16.4788 35.2045 16.5399 35.126 16.617C35.0473 16.6928 34.9845 16.7836 34.9414 16.8841C34.8983 16.9846 34.8757 17.0926 34.875 17.202Z" fill="#34BD6D"/>
<path d="M20.0361 25.6591C20.0363 25.729 20.0504 25.7983 20.0777 25.8627C20.105 25.9271 20.1449 25.9854 20.1951 26.0341C20.2724 26.1084 20.3694 26.1587 20.4747 26.1791C20.5799 26.1995 20.6887 26.1891 20.7881 26.1491C20.8541 26.1226 20.9142 26.0836 20.9651 26.0341C21.0155 25.9851 21.0556 25.9267 21.0831 25.8621C21.1105 25.7979 21.1246 25.7288 21.1246 25.6591C21.1246 25.5893 21.1105 25.5203 21.0831 25.4561C21.0556 25.3915 21.0155 25.333 20.9651 25.2841C20.9137 25.2352 20.8533 25.1968 20.7871 25.1711C20.6877 25.1311 20.5789 25.1206 20.4737 25.141C20.3684 25.1614 20.2714 25.2118 20.1941 25.2861C20.1444 25.3347 20.1048 25.3927 20.0776 25.4567C20.0505 25.5207 20.0364 25.5895 20.0361 25.6591Z" fill="#34BD6D"/>
<path d="M12.2305 28.3329C12.2312 28.4191 12.2493 28.5042 12.2837 28.5832C12.318 28.6623 12.368 28.7336 12.4305 28.7929C12.5569 28.915 12.7257 28.9832 12.9015 28.9832C13.0772 28.9832 13.2461 28.915 13.3725 28.7929C13.4652 28.7033 13.5286 28.5876 13.5543 28.4613C13.5801 28.3349 13.5668 28.2036 13.5165 28.0849C13.4829 28.0057 13.434 27.934 13.3725 27.8739C13.2461 27.7518 13.0772 27.6836 12.9015 27.6836C12.7257 27.6836 12.5569 27.7518 12.4305 27.8739C12.3681 27.9331 12.3182 28.0043 12.2839 28.0831C12.2495 28.162 12.2314 28.2469 12.2305 28.3329Z" fill="#34BD6D"/>
<path d="M7.25198 23.114C7.2525 23.1721 7.26462 23.2296 7.28763 23.283C7.31064 23.3364 7.34407 23.3846 7.38597 23.425C7.4719 23.5078 7.58661 23.5541 7.70598 23.5541C7.82534 23.5541 7.94005 23.5078 8.02598 23.425C8.06798 23.3845 8.1014 23.3359 8.12422 23.2822C8.14705 23.2286 8.15881 23.1708 8.15881 23.1125C8.15881 23.0541 8.14705 22.9964 8.12422 22.9427C8.1014 22.889 8.06798 22.8404 8.02598 22.8C7.96216 22.7373 7.88151 22.6944 7.79381 22.6767C7.70612 22.6589 7.61516 22.667 7.53198 22.7C7.47685 22.7233 7.42689 22.7572 7.38498 22.8C7.34236 22.8408 7.30836 22.8898 7.28498 22.944C7.26261 22.9978 7.25139 23.0557 7.25198 23.114Z" fill="#34BD6D"/>
<path d="M8.69824 20.3419C8.6984 20.414 8.71299 20.4852 8.74116 20.5515C8.76933 20.6178 8.8105 20.6778 8.86224 20.7279C8.96851 20.8306 9.11049 20.8879 9.25824 20.8879C9.40599 20.8879 9.54797 20.8306 9.65424 20.7279C9.70602 20.6778 9.74719 20.6179 9.77531 20.5516C9.80343 20.4852 9.81792 20.4139 9.81792 20.3419C9.81792 20.2699 9.80343 20.1986 9.77531 20.1323C9.74719 20.066 9.70602 20.006 9.65424 19.9559C9.54797 19.8533 9.40599 19.7959 9.25824 19.7959C9.11049 19.7959 8.96851 19.8533 8.86224 19.9559C8.8105 20.006 8.76933 20.066 8.74116 20.1323C8.71299 20.1986 8.6984 20.2699 8.69824 20.3419Z" fill="#34BD6D"/>
<path d="M12.999 18.9949C13 19.2003 13.0419 19.4034 13.1225 19.5923C13.203 19.7812 13.3205 19.9521 13.468 20.0949C13.7715 20.3881 14.177 20.5519 14.599 20.5519C15.021 20.5519 15.4265 20.3881 15.73 20.0949C15.8782 19.9519 15.996 19.7806 16.0764 19.5911C16.1569 19.4016 16.1984 19.1978 16.1984 18.9919C16.1984 18.786 16.1569 18.5823 16.0764 18.3928C15.996 18.2032 15.8782 18.0319 15.73 17.8889C15.5032 17.6702 15.2179 17.5219 14.9085 17.462C14.5992 17.402 14.2792 17.4329 13.987 17.5509C13.7937 17.6287 13.6174 17.7435 13.468 17.8889C13.32 18.0329 13.202 18.2049 13.121 18.3949C13.0403 18.5846 12.9988 18.7887 12.999 18.9949Z" fill="#34BD6D"/>
<path d="M19.4814 31.9891C19.4824 32.1944 19.5244 32.3975 19.6049 32.5864C19.6854 32.7753 19.8029 32.9462 19.9504 33.0891C20.2539 33.3819 20.6592 33.5456 21.0809 33.5456C21.5027 33.5456 21.908 33.3819 22.2114 33.0891C22.4345 32.8741 22.5871 32.5965 22.649 32.293C22.711 31.9894 22.6794 31.6742 22.5584 31.3891C22.4774 31.1991 22.3595 31.0271 22.2114 30.883C21.9846 30.6644 21.6993 30.5161 21.39 30.4561C21.0807 30.3961 20.7606 30.427 20.4684 30.5451C20.275 30.6231 20.0987 30.7383 19.9494 30.884C19.8013 31.0284 19.6833 31.2007 19.6024 31.391C19.5223 31.5802 19.4811 31.7836 19.4814 31.9891Z" fill="#34BD6D"/>
<path d="M10.0303 32.2531C10.0307 32.3193 10.0442 32.3848 10.0702 32.4457C10.0961 32.5067 10.1338 32.5618 10.1813 32.6081C10.279 32.7027 10.4097 32.7556 10.5458 32.7556C10.6818 32.7556 10.8125 32.7027 10.9103 32.6081C10.958 32.562 10.996 32.5068 11.022 32.4457C11.0479 32.3846 11.0613 32.3189 11.0613 32.2526C11.0613 32.1862 11.0479 32.1205 11.022 32.0594C10.996 31.9984 10.958 31.9431 10.9103 31.8971C10.8125 31.8024 10.6818 31.7495 10.5458 31.7495C10.4097 31.7495 10.279 31.8024 10.1813 31.8971C10.1337 31.9434 10.0959 31.9987 10.07 32.0599C10.044 32.121 10.0305 32.1867 10.0303 32.2531Z" fill="#34BD6D"/>
<path d="M1.51039e-06 15.7679C0.000375437 15.9181 0.0308297 16.0668 0.0895679 16.205C0.148306 16.3433 0.234138 16.4684 0.342002 16.5729C0.563509 16.787 0.859485 16.9066 1.1675 16.9066C1.47552 16.9066 1.77149 16.787 1.993 16.5729C2.1556 16.4158 2.26681 16.2132 2.31197 15.9917C2.35713 15.7701 2.33413 15.5401 2.246 15.3319C2.18703 15.193 2.10103 15.0673 1.993 14.9619C1.88394 14.8557 1.7552 14.7718 1.614 14.7149C1.32723 14.5993 1.00678 14.5993 0.720002 14.7149C0.578802 14.7718 0.450063 14.8557 0.341002 14.9619C0.232953 15.0672 0.146948 15.193 0.0880015 15.3319C0.0296837 15.4699 -0.000244992 15.6182 1.51039e-06 15.7679Z" fill="#34BD6D"/>
<path d="M8.88574 11.9979C8.88599 12.0912 8.90487 12.1834 8.94128 12.2693C8.97768 12.3552 9.03088 12.4329 9.09774 12.4979C9.23515 12.6306 9.41871 12.7048 9.60974 12.7048C9.80077 12.7048 9.98434 12.6306 10.1217 12.4979C10.189 12.4331 10.2425 12.3555 10.2791 12.2696C10.3156 12.1837 10.3345 12.0913 10.3345 11.9979C10.3345 11.9045 10.3156 11.8121 10.2791 11.7262C10.2425 11.6403 10.189 11.5626 10.1217 11.4979C9.98434 11.3652 9.80077 11.291 9.60974 11.291C9.41871 11.291 9.23515 11.3652 9.09774 11.4979C9.03088 11.5629 8.97768 11.6406 8.94128 11.7265C8.90487 11.8124 8.88599 11.9046 8.88574 11.9979Z" fill="#34BD6D"/>
<path d="M16.4307 8.79087C16.4309 8.88413 16.4498 8.9764 16.4862 9.06226C16.5226 9.14813 16.5758 9.22585 16.6427 9.29087C16.7801 9.42358 16.9636 9.49775 17.1547 9.49775C17.3457 9.49775 17.5293 9.42358 17.6667 9.29087C17.7339 9.22612 17.7874 9.14846 17.824 9.06255C17.8605 8.97664 17.8794 8.88423 17.8794 8.79087C17.8794 8.6975 17.8605 8.6051 17.824 8.51918C17.7874 8.43327 17.7339 8.35561 17.6667 8.29087C17.5293 8.15816 17.3457 8.08398 17.1547 8.08398C16.9636 8.08398 16.7801 8.15816 16.6427 8.29087C16.5758 8.35588 16.5226 8.43361 16.4862 8.51947C16.4498 8.60533 16.4309 8.6976 16.4307 8.79087Z" fill="#34BD6D"/>
<path d="M2.86621 9.52499C2.86623 9.58541 2.87837 9.64521 2.9019 9.70086C2.92543 9.75651 2.95988 9.80688 3.00321 9.84899C3.09215 9.93495 3.21101 9.98301 3.33471 9.98301C3.45841 9.98301 3.57727 9.93495 3.66621 9.84899C3.70961 9.80702 3.74412 9.75676 3.76769 9.70118C3.79126 9.64561 3.8034 9.58585 3.8034 9.52549C3.8034 9.46512 3.79126 9.40537 3.76769 9.34979C3.74412 9.29422 3.70961 9.24395 3.66621 9.20199C3.57715 9.11625 3.45833 9.06836 3.33471 9.06836C3.21109 9.06836 3.09227 9.11625 3.00321 9.20199C2.96 9.24398 2.92562 9.29418 2.90209 9.34965C2.87857 9.40512 2.86637 9.46473 2.86621 9.52499Z" fill="#34BD6D"/>
<path d="M0.410156 24.5379C0.410437 24.5985 0.422886 24.6584 0.446764 24.714C0.470642 24.7697 0.505462 24.82 0.549156 24.8619C0.638099 24.9479 0.756959 24.9959 0.880656 24.9959C1.00435 24.9959 1.12321 24.9479 1.21216 24.8619C1.25555 24.82 1.29006 24.7697 1.31363 24.7141C1.3372 24.6585 1.34935 24.5988 1.34935 24.5384C1.34935 24.4781 1.3372 24.4183 1.31363 24.3627C1.29006 24.3072 1.25555 24.2569 1.21216 24.2149C1.12309 24.1292 1.00428 24.0813 0.880656 24.0813C0.757034 24.0813 0.638219 24.1292 0.549156 24.2149C0.505583 24.2567 0.470833 24.3069 0.446958 24.3624C0.423084 24.4178 0.410571 24.4775 0.410156 24.5379Z" fill="#34BD6D"/>
<path d="M39.3447 16.9439C39.3447 17.0043 39.3569 17.0642 39.3804 17.1198C39.4039 17.1755 39.4384 17.2258 39.4817 17.2679C39.5708 17.354 39.6899 17.402 39.8137 17.402C39.9376 17.402 40.0566 17.354 40.1457 17.2679C40.1891 17.226 40.2236 17.1757 40.2472 17.1201C40.2708 17.0645 40.2829 17.0048 40.2829 16.9444C40.2829 16.8841 40.2708 16.8243 40.2472 16.7687C40.2236 16.7132 40.1891 16.6629 40.1457 16.6209C40.0566 16.5349 39.9376 16.4868 39.8137 16.4868C39.6899 16.4868 39.5708 16.5349 39.4817 16.6209C39.4385 16.6629 39.4041 16.7131 39.3806 16.7686C39.3571 16.8241 39.3449 16.8837 39.3447 16.9439Z" fill="#34BD6D"/>
<path d="M32.8398 5.21004C32.8399 5.27046 32.852 5.33026 32.8755 5.38591C32.8991 5.44156 32.9335 5.49193 32.9768 5.53404C33.066 5.62007 33.185 5.66815 33.3088 5.66815C33.4327 5.66815 33.5517 5.62007 33.6408 5.53404C33.6842 5.49208 33.7188 5.44181 33.7423 5.38623C33.7659 5.33066 33.778 5.27091 33.778 5.21054C33.778 5.15017 33.7659 5.09042 33.7423 5.03485C33.7188 4.97927 33.6842 4.929 33.6408 4.88704C33.5517 4.80101 33.4327 4.75293 33.3088 4.75293C33.185 4.75293 33.066 4.80101 32.9768 4.88704C32.9336 4.92903 32.8993 4.97924 32.8757 5.0347C32.8522 5.09017 32.84 5.14979 32.8398 5.21004Z" fill="#34BD6D"/>
<path d="M37.085 29.3231C37.085 29.3835 37.0971 29.4433 37.1206 29.499C37.1442 29.5546 37.1786 29.605 37.222 29.6471C37.3111 29.7331 37.4301 29.7812 37.554 29.7812C37.6778 29.7812 37.7968 29.7331 37.886 29.6471C37.9294 29.6051 37.9639 29.5549 37.9874 29.4993C38.011 29.4437 38.0232 29.3839 38.0232 29.3236C38.0232 29.2632 38.011 29.2035 37.9874 29.1479C37.9639 29.0923 37.9294 29.042 37.886 29.0001C37.7968 28.9141 37.6778 28.866 37.554 28.866C37.4301 28.866 37.3111 28.9141 37.222 29.0001C37.1788 29.0421 37.1444 29.0923 37.1208 29.1477C37.0973 29.2032 37.0851 29.2628 37.085 29.3231Z" fill="#34BD6D"/>
<path d="M30.627 36.3009C30.627 36.3613 30.6391 36.4211 30.6626 36.4767C30.6862 36.5324 30.7206 36.5828 30.764 36.6249C30.8531 36.7109 30.9721 36.759 31.096 36.759C31.2198 36.759 31.3388 36.7109 31.428 36.6249C31.4713 36.5829 31.5059 36.5326 31.5294 36.4771C31.553 36.4215 31.5651 36.3617 31.5651 36.3014C31.5651 36.241 31.553 36.1812 31.5294 36.1257C31.5059 36.0701 31.4713 36.0198 31.428 35.9779C31.3388 35.8918 31.2198 35.8438 31.096 35.8438C30.9721 35.8438 30.8531 35.8918 30.764 35.9779C30.7207 36.0198 30.6864 36.0701 30.6628 36.1255C30.6393 36.181 30.6271 36.2406 30.627 36.3009Z" fill="#34BD6D"/>
<path d="M20.9141 39.441C20.9141 39.5014 20.9262 39.5612 20.9497 39.6169C20.9733 39.6725 21.0077 39.7229 21.0511 39.765C21.1402 39.851 21.2592 39.8991 21.3831 39.8991C21.5069 39.8991 21.626 39.851 21.7151 39.765C21.7585 39.723 21.793 39.6728 21.8165 39.6172C21.8401 39.5616 21.8523 39.5019 21.8523 39.4415C21.8523 39.3811 21.8401 39.3214 21.8165 39.2658C21.793 39.2102 21.7585 39.16 21.7151 39.118C21.626 39.032 21.5069 38.9839 21.3831 38.9839C21.2592 38.9839 21.1402 39.032 21.0511 39.118C21.0079 39.16 20.9735 39.2102 20.9499 39.2657C20.9264 39.3211 20.9142 39.3807 20.9141 39.441Z" fill="#34BD6D"/>
<path d="M6.67969 5.3789C6.67988 5.45893 6.69608 5.53812 6.72734 5.61179C6.75859 5.68547 6.80427 5.75215 6.86169 5.8079C6.97973 5.92203 7.1375 5.98583 7.30169 5.98583C7.46588 5.98583 7.62365 5.92203 7.74169 5.8079C7.79883 5.75202 7.84424 5.68529 7.87524 5.61162C7.90624 5.53795 7.92221 5.45883 7.92221 5.3789C7.92221 5.29898 7.90624 5.21985 7.87524 5.14618C7.84424 5.07251 7.79883 5.00578 7.74169 4.9499C7.62365 4.83577 7.46588 4.77197 7.30169 4.77197C7.1375 4.77197 6.97973 4.83577 6.86169 4.9499C6.80427 5.00566 6.75859 5.07234 6.72734 5.14601C6.69608 5.21969 6.67988 5.29887 6.67969 5.3789Z" fill="#34BD6D"/>
<path d="M10.6494 2.80308C10.6491 2.85803 10.66 2.91246 10.6814 2.96308C10.7027 3.01409 10.734 3.06032 10.7734 3.09908C10.8131 3.13811 10.8599 3.16902 10.9114 3.19008C11.0163 3.2325 11.1335 3.2325 11.2384 3.19008C11.2899 3.16905 11.3368 3.13813 11.3764 3.09908C11.414 3.06115 11.4438 3.01633 11.4644 2.96708C11.4858 2.91646 11.4967 2.86203 11.4964 2.80708C11.4961 2.75238 11.4849 2.69829 11.4635 2.64798C11.442 2.59766 11.4107 2.55214 11.3714 2.51408C11.2908 2.43659 11.1833 2.39331 11.0714 2.39331C10.9596 2.39331 10.8521 2.43659 10.7714 2.51408C10.6941 2.59043 10.6502 2.69438 10.6494 2.80308Z" fill="#34BD6D"/>
<path d="M48.04 35.654V27.593H53.618V28.545H49.135V31.045H53.015V31.993H49.135V35.657L48.04 35.654Z" fill="#34BD6D"/>
<path d="M63.4458 34.9339C63.1227 35.2138 62.7545 35.437 62.3568 35.5939C61.999 35.7246 61.6207 35.7899 61.2398 35.7869C60.6937 35.8231 60.1536 35.6564 59.7228 35.3189C59.5518 35.1701 59.4156 34.9854 59.324 34.778C59.2324 34.5706 59.1876 34.3456 59.1928 34.1189C59.1903 33.8456 59.2592 33.5764 59.3928 33.3379C59.5201 33.1084 59.7 32.9124 59.9178 32.7659C60.1433 32.6194 60.3908 32.5097 60.6508 32.4409C60.9474 32.3729 61.248 32.3231 61.5508 32.2919C62.1641 32.2373 62.7706 32.1231 63.3618 31.9509C63.3658 31.8176 63.3678 31.7313 63.3678 31.6919C63.3841 31.5374 63.3668 31.3812 63.3171 31.2339C63.2674 31.0867 63.1864 30.9519 63.0798 30.8389C62.7472 30.592 62.3369 30.4727 61.9238 30.5029C61.5535 30.4759 61.1837 30.5624 60.8638 30.7509C60.6022 30.9724 60.4255 31.2778 60.3638 31.6149L59.3708 31.4829C59.4386 31.1191 59.5914 30.7765 59.8168 30.4829C60.0548 30.2052 60.367 30.0009 60.7168 29.8939C61.1545 29.7472 61.6142 29.6765 62.0758 29.6849C62.4981 29.6716 62.9196 29.7312 63.3218 29.8609C63.5914 29.946 63.8344 30.0997 64.0268 30.3069C64.1859 30.5011 64.2944 30.7316 64.3428 30.9779C64.3853 31.2803 64.4024 31.5857 64.3938 31.8909V33.2119C64.3789 33.796 64.3996 34.3804 64.4558 34.9619C64.5021 35.2082 64.5896 35.4449 64.7148 35.6619H63.6548C63.5408 35.4342 63.4699 35.1874 63.4458 34.9339ZM63.3608 32.7219C62.8238 32.9081 62.2677 33.0336 61.7028 33.0959C61.4007 33.128 61.1034 33.1951 60.8168 33.2959C60.6538 33.3615 60.5144 33.4748 60.4168 33.6209C60.3232 33.7589 60.274 33.9222 60.2758 34.0889C60.2732 34.2144 60.2988 34.3388 60.3507 34.453C60.4026 34.5673 60.4796 34.6684 60.5758 34.7489C60.8349 34.9411 61.1539 35.0347 61.4758 35.0129C61.8391 35.0196 62.1983 34.9343 62.5198 34.7649C62.8097 34.6111 63.0443 34.3706 63.1908 34.0769C63.3164 33.7627 63.3724 33.4249 63.3548 33.0869L63.3608 32.7219Z" fill="#34BD6D"/>
<path d="M70.5928 28.727V27.593H71.6078V28.732L70.5928 28.727ZM70.5928 35.654V29.811H71.6078V35.654H70.5928Z" fill="#34BD6D"/>
<path d="M81.8797 33.7721L82.9287 33.8991C82.7914 34.4549 82.4669 34.9464 82.0097 35.2911C81.4295 35.6586 80.746 35.8288 80.0612 35.7762C79.3764 35.7235 78.727 35.451 78.2097 34.9991C77.9421 34.6983 77.7366 34.3476 77.605 33.9671C77.4734 33.5866 77.4182 33.1839 77.4427 32.7821C77.3905 31.9464 77.6701 31.1238 78.2207 30.4931C78.4811 30.2231 78.7955 30.011 79.1434 29.8708C79.4913 29.7305 79.8649 29.6652 80.2397 29.6791C80.6048 29.6666 80.9684 29.7315 81.3067 29.8693C81.645 30.0072 81.9503 30.215 82.2027 30.4791C82.7418 31.0982 83.0152 31.9048 82.9637 32.7241C82.9637 32.7827 82.9617 32.8707 82.9577 32.9881H78.4867C78.4856 33.5312 78.6842 34.0558 79.0447 34.4621C79.2066 34.6294 79.4015 34.7613 79.617 34.8495C79.8325 34.9376 80.064 34.98 80.2967 34.9741C80.6369 34.9838 80.9711 34.8835 81.2497 34.6881C81.5464 34.4524 81.7657 34.1334 81.8797 33.7721ZM78.5467 32.1721H81.8867C81.8753 31.7729 81.7416 31.3868 81.5037 31.0661C81.3515 30.8812 81.159 30.7336 80.941 30.6344C80.7229 30.5353 80.4851 30.4873 80.2457 30.4941C80.0288 30.4887 79.8129 30.5263 79.6105 30.6047C79.4082 30.6831 79.2233 30.8009 79.0667 30.9511C78.7435 31.2765 78.5574 31.7135 78.5467 32.1721Z" fill="#34BD6D"/>
<path d="M88.8193 35.655V29.811H89.7333V30.697C89.8863 30.3807 90.1056 30.101 90.3763 29.877C90.5692 29.746 90.7972 29.6763 91.0303 29.677C91.4007 29.6853 91.7616 29.7957 92.0733 29.996L91.7243 30.915C91.4995 30.7785 91.2423 30.7043 90.9793 30.7C90.7627 30.6981 90.5515 30.7685 90.3793 30.9C90.1982 31.0339 90.0656 31.2231 90.0013 31.439C89.885 31.8128 89.8277 32.2025 89.8313 32.594V35.653L88.8193 35.655Z" fill="#34BD6D"/>
<path d="M100.205 34.934C99.8818 35.2139 99.5139 35.4371 99.1166 35.594C98.7588 35.7246 98.3804 35.79 97.9996 35.787C97.4535 35.8231 96.9133 35.6564 96.4826 35.319C96.3115 35.1702 96.1753 34.9855 96.0837 34.7781C95.9921 34.5707 95.9473 34.3456 95.9526 34.119C95.9502 33.8457 96.0191 33.5765 96.1526 33.338C96.2802 33.1087 96.46 32.9127 96.6776 32.766C96.903 32.6193 97.1505 32.5096 97.4106 32.441C97.7072 32.3729 98.0078 32.3231 98.3106 32.292C98.9235 32.2372 99.5297 32.123 100.121 31.951C100.121 31.815 100.127 31.729 100.127 31.692C100.143 31.5374 100.126 31.3812 100.076 31.2339C100.026 31.0867 99.9453 30.9519 99.8386 30.8389C99.5059 30.5921 99.0957 30.4729 98.6826 30.503C98.3119 30.4757 97.9417 30.5622 97.6216 30.751C97.3601 30.9725 97.1834 31.2778 97.1216 31.615L96.1286 31.483C96.1965 31.1192 96.3493 30.7765 96.5746 30.483C96.8125 30.205 97.1247 30.0007 97.4746 29.8939C97.9123 29.7472 98.372 29.6765 98.8336 29.685C99.2559 29.6716 99.6774 29.7311 100.08 29.861C100.35 29.9459 100.593 30.0996 100.786 30.307C100.945 30.5011 101.053 30.7316 101.101 30.9779C101.143 31.2803 101.16 31.5857 101.152 31.891V33.212C101.137 33.796 101.158 34.3804 101.214 34.962C101.26 35.2082 101.347 35.4449 101.473 35.662H100.413C100.299 35.4343 100.228 35.1874 100.205 34.934ZM100.121 32.722C99.5836 32.9081 99.0275 33.0335 98.4626 33.0959C98.1605 33.1281 97.8632 33.1952 97.5766 33.296C97.4136 33.3617 97.2742 33.4749 97.1766 33.621C97.0829 33.7589 97.0337 33.9222 97.0356 34.0889C97.0329 34.2144 97.0585 34.3389 97.1104 34.4531C97.1623 34.5674 97.2393 34.6685 97.3356 34.7489C97.5946 34.9412 97.9137 35.0348 98.2356 35.013C98.5989 35.0196 98.958 34.9343 99.2796 34.765C99.5695 34.6112 99.8041 34.3707 99.9506 34.077C100.076 33.7627 100.132 33.4249 100.114 33.087L100.121 32.722Z" fill="#34BD6D"/>
<path d="M50.6962 17.071H48.0762V2.28296H50.6962V17.071Z" fill="#34BD6D"/>
<path d="M53.4433 21.035C53.2404 21.0117 53.0398 20.9723 52.8433 20.917L52.6562 18.364C52.8718 18.4185 53.0901 18.4612 53.3103 18.492C53.5023 18.5165 53.6957 18.5285 53.8893 18.528C54.0926 18.55 54.2983 18.5232 54.4893 18.45C54.6787 18.3774 54.8479 18.26 54.9823 18.108C55.2216 17.6939 55.329 17.2167 55.2903 16.74V6.80396H57.9043V14.518H59.9272V17.071H57.8863C57.9178 18.175 57.569 19.2564 56.8983 20.134C56.5367 20.474 56.1073 20.7337 55.6383 20.896C55.1665 21.0596 54.6659 21.1229 54.1683 21.082C53.9258 21.0816 53.6837 21.0659 53.4433 21.035Z" fill="#34BD6D"/>
<path d="M63.2346 17.0711H59.5566V14.5181H63.2386L63.2346 17.0711Z" fill="#34BD6D"/>
<path d="M66.5404 17.0711H62.8604V14.5181H66.5404V17.0711Z" fill="#34BD6D"/>
<path d="M69.8509 17.0711H66.1689V14.5181H69.8509V17.0711Z" fill="#34BD6D"/>
<path d="M73.1586 17.0711H69.4766V14.5181H73.1586V17.0711Z" fill="#34BD6D"/>
<path d="M70.4793 20.626C70.3345 20.5106 70.2196 20.3621 70.1443 20.193C70.0679 20.0258 70.0336 19.8424 70.0443 19.659C70.0378 19.4803 70.072 19.3025 70.1443 19.139C70.2174 18.9743 70.3264 18.8281 70.4633 18.711C70.7592 18.4747 71.1266 18.346 71.5053 18.346C71.8839 18.346 72.2514 18.4747 72.5473 18.711C72.6819 18.8296 72.7888 18.9764 72.8603 19.141C72.9316 19.3041 72.9658 19.481 72.9603 19.659C72.9709 19.8424 72.9366 20.0258 72.8603 20.193C72.7849 20.362 72.67 20.5105 72.5253 20.626C72.225 20.8391 71.866 20.9536 71.4978 20.9536C71.1296 20.9536 70.7705 20.8391 70.4703 20.626H70.4793ZM66.4223 20.626C66.2775 20.5106 66.1626 20.3621 66.0873 20.193C66.0109 20.0258 65.9766 19.8424 65.9873 19.659C65.9807 19.48 66.0149 19.3018 66.0873 19.138C66.161 18.9731 66.2706 18.8269 66.4083 18.71C66.7023 18.4738 67.0681 18.3451 67.4453 18.3451C67.8224 18.3451 68.1882 18.4738 68.4823 18.71C68.6192 18.8271 68.7281 18.9733 68.8013 19.138C68.8735 19.3015 68.9077 19.4793 68.9013 19.658C68.9119 19.8414 68.8776 20.0248 68.8013 20.192C68.7259 20.361 68.611 20.5095 68.4663 20.625C68.1658 20.838 67.8066 20.9525 67.4383 20.9525C67.0699 20.9525 66.7107 20.838 66.4103 20.625M76.7133 14.518V6.80396H79.3293V17.07H72.8053V14.517L76.7133 14.518Z" fill="#34BD6D"/>
<path d="M85.7928 2.28296V14.518H88.1858V17.071H83.1758V2.28296H85.7928Z" fill="#34BD6D"/>
<path d="M91.4965 17.0711H87.8115V14.5181H91.4935L91.4965 17.0711Z" fill="#34BD6D"/>
<path d="M97.5242 4.90908C97.3706 4.78785 97.2485 4.63144 97.1682 4.45308C97.0892 4.27574 97.0548 4.08175 97.0682 3.88808C97.0622 3.70335 97.0984 3.51969 97.1742 3.35108C97.251 3.18144 97.3652 3.03136 97.5082 2.91208C97.8214 2.66979 98.2062 2.53833 98.6022 2.53833C98.9982 2.53833 99.3829 2.66979 99.6962 2.91208C99.8382 3.03159 99.9513 3.18166 100.027 3.35108C100.103 3.51922 100.14 3.70264 100.133 3.88708C100.146 4.08073 100.112 4.2746 100.033 4.45208C99.9528 4.63044 99.8307 4.78685 99.6772 4.90808C99.364 5.13349 98.988 5.25477 98.6022 5.25477C98.2163 5.25477 97.8403 5.13349 97.5272 4.90808L97.5242 4.90908ZM96.1022 13.4241C96.3603 13.8623 96.7158 14.2353 97.1412 14.5141H99.8512V9.35908H98.7512C98.3745 9.35962 97.9999 9.41487 97.6392 9.52308C97.2872 9.62478 96.9575 9.79168 96.6672 10.0151C96.3858 10.235 96.1535 10.5112 95.9852 10.8261C95.8067 11.1648 95.7169 11.5433 95.7242 11.9261C95.7129 12.4508 95.8439 12.9688 96.1032 13.4251L96.1022 13.4241ZM94.0022 14.5141C93.7271 14.1592 93.5072 13.7647 93.3502 13.3441C93.1829 12.8889 93.1006 12.4069 93.1072 11.9221C93.0943 11.1796 93.2509 10.4439 93.5652 9.77108C93.8669 9.14571 94.3046 8.59565 94.8462 8.16108C95.434 7.697 96.1075 7.35313 96.8282 7.14908C97.6605 6.9097 98.5232 6.79281 99.3892 6.80208H102.473V17.0711H91.4932V14.5151L94.0022 14.5141Z" fill="#34BD6D"/>
</g>
</svg>
