<svg id="visa" xmlns="http://www.w3.org/2000/svg" width="66.117" height="20.045" viewBox="0 0 66.117 20.045">
  <path id="Path_161" data-name="Path 161" d="M184.8,199.291l3.358-18.891h5.247l-3.253,18.891Z" transform="translate(-160.557 -179.77)" fill="#fff"/>
  <path id="Path_162" data-name="Path 162" d="M184.8,199.291l4.3-18.891h4.3l-3.253,18.891Z" transform="translate(-160.557 -179.77)" fill="#fff"/>
  <path id="Path_163" data-name="Path 163" d="M264.057,176.44a13.312,13.312,0,0,0-4.828-.84c-5.247,0-9.026,2.624-9.026,6.4,0,2.834,2.624,4.3,4.723,5.247s2.729,1.574,2.729,2.414c0,1.259-1.679,1.889-3.148,1.889a11.407,11.407,0,0,1-5.038-1.05l-.735-.315-.735,4.3a17.016,17.016,0,0,0,5.982,1.049c5.562,0,9.235-2.624,9.235-6.612,0-2.2-1.364-3.883-4.513-5.247-1.889-.945-3.044-1.469-3.044-2.414,0-.84.945-1.679,3.044-1.679a9.625,9.625,0,0,1,3.988.735l.525.21.84-4.093Z" transform="translate(-215.466 -175.6)" fill="#fff"/>
  <path id="Path_164" data-name="Path 164" d="M264.057,176.44a13.312,13.312,0,0,0-4.828-.84c-5.247,0-8.081,2.624-8.081,6.4,0,2.834,1.679,4.3,3.778,5.247s2.729,1.574,2.729,2.414c0,1.259-1.679,1.889-3.148,1.889a11.407,11.407,0,0,1-5.038-1.05l-.735-.315-.735,4.3a17.016,17.016,0,0,0,5.982,1.049c5.562,0,9.235-2.624,9.235-6.612,0-2.2-1.364-3.883-4.513-5.247-1.889-.945-3.044-1.469-3.044-2.414,0-.84.945-1.679,3.044-1.679a9.625,9.625,0,0,1,3.988.735l.525.21.84-4.093Z" transform="translate(-215.466 -175.6)" fill="#fff"/>
  <path id="Path_165" data-name="Path 165" d="M369,180.4c-1.259,0-2.2.1-2.729,1.364L358.4,199.291h5.667l1.049-3.148h6.717l.63,3.148H377.5L373.093,180.4Zm-2.414,12.594c.315-.945,2.1-5.562,2.1-5.562s.42-1.154.735-1.889l.315,1.784s1.049,4.723,1.259,5.772h-4.408Z" transform="translate(-311.383 -179.77)" fill="#fff"/>
  <path id="Path_166" data-name="Path 166" d="M370.259,180.4c-1.259,0-2.2.1-2.729,1.364l-9.13,17.526h5.667l1.049-3.148h6.717l.63,3.148H377.5L373.093,180.4Zm-3.673,12.594c.42-1.049,2.1-5.562,2.1-5.562s.42-1.154.735-1.889l.315,1.784s1.049,4.723,1.259,5.772h-4.408Z" transform="translate(-311.383 -179.77)" fill="#fff"/>
  <path id="Path_167" data-name="Path 167" d="M59.071,194.319l-.525-2.729A15.213,15.213,0,0,0,51.2,183.3l4.723,16.792H61.59l8.5-18.891H64.423Z" transform="translate(-44.483 -180.465)" fill="#fff"/>
  <path id="Path_168" data-name="Path 168" d="M59.071,194.319l-.525-2.729A15.213,15.213,0,0,0,51.2,183.3l4.723,16.792H61.59l8.5-18.891H65.473Z" transform="translate(-44.483 -180.465)" fill="#fff"/>
  <path id="Path_169" data-name="Path 169" d="M0,180.4l.945.21c6.717,1.574,11.334,5.562,13.119,10.285l-1.889-8.921c-.315-1.259-1.259-1.574-2.414-1.574Z" transform="translate(0 -179.77)" fill="#eee"/>
  <path id="Path_170" data-name="Path 170" d="M0,180.4H0c6.717,1.574,12.279,5.667,14.063,10.39l-1.784-7.451a2.562,2.562,0,0,0-2.519-1.994Z" transform="translate(0 -179.77)" fill="#eee"/>
  <path id="Path_171" data-name="Path 171" d="M0,180.4H0c6.717,1.574,12.279,5.667,14.063,10.39L12.8,186.7c-.315-1.259-.735-2.519-2.2-3.043Z" transform="translate(0 -179.77)" fill="#fff"/>
  <g id="Group_273" data-name="Group 273" transform="translate(6.822 2.729)">
    <path id="Path_172" data-name="Path 172" d="M65.014,206.895l-3.568-3.568-1.679,3.988-.42-2.624A15.214,15.214,0,0,0,52,196.4l4.723,16.792H62.39Z" transform="translate(-52 -196.4)" fill="#fff"/>
    <path id="Path_173" data-name="Path 173" d="M190.152,293.818,185.64,289.2l-.84,4.618Z" transform="translate(-167.379 -277.026)" fill="#fff"/>
    <path id="Path_174" data-name="Path 174" d="M257.13,274.8h0c.42.42.63.735.525,1.154,0,1.259-1.679,1.889-3.148,1.889a11.407,11.407,0,0,1-5.038-1.05l-.735-.315-.735,4.3a17.017,17.017,0,0,0,5.982,1.049c3.358,0,6.087-.945,7.661-2.624Z" transform="translate(-222.288 -264.515)" fill="#fff"/>
    <path id="Path_175" data-name="Path 175" d="M364,233.348h4.933l1.049-3.148H376.7l.63,3.148h5.038l-1.784-7.661-6.3-6.087.315,1.679s1.049,4.723,1.259,5.772h-4.408c.42-1.049,2.1-5.562,2.1-5.562s.42-1.154.735-1.889" transform="translate(-323.07 -216.556)" fill="#fff"/>
  </g>
</svg>
