<svg xmlns="http://www.w3.org/2000/svg" width="150.81" height="36.74" viewBox="0 0 150.81 36.74">
  <path id="Path_2" data-name="Path 2" d="M12.562-.462q-.22-.374-.418-.77t-.352-.792Q8.954-9.5,6.138-16.852T.484-31.68a.561.561,0,0,0-.033-.2.5.5,0,0,1-.033-.176q0-.616.814-.616H8.316a1.14,1.14,0,0,1,1.144.836l6.732,20.042,6.226-20.042a1.183,1.183,0,0,1,1.21-.836h7.15a1.072,1.072,0,0,1,.715.187.632.632,0,0,1,.209.495.886.886,0,0,1-.022.242v.066L27.764-20.46l2.948,8.646,7.128-20.02a1.183,1.183,0,0,1,1.21-.836h6.93a1.072,1.072,0,0,1,.715.187.632.632,0,0,1,.209.495.885.885,0,0,1-.022.242v.066q-1.5,3.872-3.058,7.722t-3.135,7.7q-1.573,3.85-3.124,7.711T34.54-.836a1.538,1.538,0,0,1-.4.539A1.038,1.038,0,0,1,33.4,0h-5.39a1.228,1.228,0,0,1-.737-.187,1.031,1.031,0,0,1-.363-.5L23.43-9.834q-.748,2-1.474,3.927T20.5-1.98q-.11.308-.253.649a3.787,3.787,0,0,1-.341.638,2.1,2.1,0,0,1-.451.5.92.92,0,0,1-.583.2h-5.39A.918.918,0,0,1,12.562-.462ZM74.47-1.628a1.963,1.963,0,0,1-.132.715,1.1,1.1,0,0,1-.44.539,1.1,1.1,0,0,1-.572.308A2.975,2.975,0,0,1,72.754,0H68.42a1.944,1.944,0,0,1-.748-.121,1.155,1.155,0,0,1-.462-.341,1.981,1.981,0,0,1-.3-.539q-.121-.319-.253-.693l-.286-.99a12.828,12.828,0,0,1-1.353,1.166A10.484,10.484,0,0,1,63.349-.5a10.362,10.362,0,0,1-1.958.726,8.48,8.48,0,0,1-2.167.275A14.392,14.392,0,0,1,55.385,0a14.22,14.22,0,0,1-3.432-1.441A14.1,14.1,0,0,1,49.06-3.685,14.44,14.44,0,0,1,46.827-6.6a14.336,14.336,0,0,1-1.441-3.465,14.72,14.72,0,0,1-.506-3.883A14.335,14.335,0,0,1,46-19.635a14.477,14.477,0,0,1,3.058-4.576,14.139,14.139,0,0,1,4.554-3.058,14.21,14.21,0,0,1,5.61-1.111,10.012,10.012,0,0,1,2.541.308,9.692,9.692,0,0,1,2.156.836,8.53,8.53,0,0,1,1.771,1.265,9.785,9.785,0,0,1,1.386,1.595l.638-2q.22-.55.363-.891a1.583,1.583,0,0,1,.308-.506.819.819,0,0,1,.407-.22,3.252,3.252,0,0,1,.682-.055h3.278a2.975,2.975,0,0,1,.572.066,1.1,1.1,0,0,1,.572.308,1.408,1.408,0,0,1,.44.55,1.773,1.773,0,0,1,.132.7ZM52.8-13.948a8.032,8.032,0,0,0,.451,2.717,6.449,6.449,0,0,0,1.287,2.189,6.112,6.112,0,0,0,2.013,1.463,6.188,6.188,0,0,0,2.607.539A6.914,6.914,0,0,0,61.9-7.579a7,7,0,0,0,2.2-1.463,6.631,6.631,0,0,0,1.463-2.189,6.982,6.982,0,0,0,.528-2.717,6.951,6.951,0,0,0-.528-2.684A7.11,7.11,0,0,0,64.1-18.876a6.933,6.933,0,0,0-2.2-1.529,6.68,6.68,0,0,0-2.739-.561,5.981,5.981,0,0,0-2.607.561,6.09,6.09,0,0,0-2.013,1.529,6.927,6.927,0,0,0-1.287,2.244A7.994,7.994,0,0,0,52.8-13.948ZM79.75-34.562A1.965,1.965,0,0,1,80.1-35.75a1.4,1.4,0,0,1,1.21-.484H86.7a1.034,1.034,0,0,1,.462.121,1.628,1.628,0,0,1,.451.341,1.952,1.952,0,0,1,.352.528,1.6,1.6,0,0,1,.143.682V-1.694a1.622,1.622,0,0,1-.473,1.265A1.747,1.747,0,0,1,86.416,0h-5.1A1.487,1.487,0,0,1,80.1-.429a1.956,1.956,0,0,1-.352-1.265Zm13.64,0a1.965,1.965,0,0,1,.352-1.188,1.4,1.4,0,0,1,1.21-.484h5.39a1.034,1.034,0,0,1,.462.121,1.628,1.628,0,0,1,.451.341,1.952,1.952,0,0,1,.352.528,1.6,1.6,0,0,1,.143.682V-1.694a1.622,1.622,0,0,1-.473,1.265A1.747,1.747,0,0,1,100.056,0h-5.1a1.487,1.487,0,0,1-1.21-.429,1.956,1.956,0,0,1-.352-1.265ZM130.438-3.344a14.657,14.657,0,0,1-4.356,2.783,13.278,13.278,0,0,1-5.126,1,14.878,14.878,0,0,1-5.7-1.1,14.833,14.833,0,0,1-4.708-3.047,14.621,14.621,0,0,1-3.212-4.587,13.829,13.829,0,0,1-1.188-5.742,14.813,14.813,0,0,1,.473-3.751,14.79,14.79,0,0,1,1.342-3.4,14.412,14.412,0,0,1,2.112-2.915,13.362,13.362,0,0,1,2.783-2.277,13.716,13.716,0,0,1,3.344-1.474,13.483,13.483,0,0,1,3.806-.528,12.985,12.985,0,0,1,3.542.484,13.782,13.782,0,0,1,3.223,1.364,14,14,0,0,1,2.761,2.112,14.26,14.26,0,0,1,2.156,2.695,13,13,0,0,1,1.4,3.124,11.914,11.914,0,0,1,.495,3.421q0,1.144-.033,1.87a2.113,2.113,0,0,1-.341,1.155,1.658,1.658,0,0,1-1.023.594,10.013,10.013,0,0,1-2.1.165h-15.84a5.469,5.469,0,0,0,.891,2.354,5.593,5.593,0,0,0,1.551,1.507,6.2,6.2,0,0,0,1.87.8,7.888,7.888,0,0,0,1.87.242,8.4,8.4,0,0,0,1.628-.165,11.659,11.659,0,0,0,1.617-.44,9.149,9.149,0,0,0,1.43-.638,4.753,4.753,0,0,0,1.045-.759,4.583,4.583,0,0,1,.6-.429,1.078,1.078,0,0,1,.539-.143,1.05,1.05,0,0,1,.583.2,4.6,4.6,0,0,1,.671.572l2.332,2.64a1.468,1.468,0,0,1,.308.517,1.714,1.714,0,0,1,.066.473,1.22,1.22,0,0,1-.242.759A2.767,2.767,0,0,1,130.438-3.344ZM119.856-21.67a4.209,4.209,0,0,0-1.661.341,6.268,6.268,0,0,0-1.507.913,7.851,7.851,0,0,0-1.265,1.3,7.96,7.96,0,0,0-.913,1.474h11.242a12.958,12.958,0,0,0-1-1.584,6.779,6.779,0,0,0-1.232-1.276,5.321,5.321,0,0,0-1.584-.858A6.364,6.364,0,0,0,119.856-21.67ZM138.16-32.3a1.2,1.2,0,0,1,.451-1.023,5.081,5.081,0,0,1,1.287-.649l4.994-1.738a1.067,1.067,0,0,1,.209-.022h.187a1.152,1.152,0,0,1,1.089.473,2.458,2.458,0,0,1,.275,1.243l-.022,6.05h3.014a1.593,1.593,0,0,1,1.144.418,1.652,1.652,0,0,1,.44,1.254v4.246a1.82,1.82,0,0,1-.44,1.353,1.569,1.569,0,0,1-1.144.429H146.63l.022,18.568a1.6,1.6,0,0,1-.484,1.265A1.953,1.953,0,0,1,144.826,0h-4.972a1.5,1.5,0,0,1-1.694-1.694l-.022-18.568h-2.266q-1.694,0-1.694-1.782V-26.29a1.488,1.488,0,0,1,1.694-1.672h2.266Z" transform="translate(-0.418 36.234)" fill="#68687a"/>
</svg>
