<svg xmlns="http://www.w3.org/2000/svg" xmlns:xlink="http://www.w3.org/1999/xlink" width="209.114" height="191.258" viewBox="0 0 209.114 191.258">
  <defs>
    <clipPath id="clip-path">
      <path id="Path_8626" data-name="Path 8626" d="M38.267,23.965S26.234-21.027,71.629-28.769,105.81,23.965,105.81,23.965h67.939c19.531,0,35.365,18.676,35.365,41.714v54.41c0,23.038-15.833,41.714-35.365,41.714H35.365C15.833,161.8,0,143.128,0,120.09V65.68C0,42.642,18.735,23.965,38.267,23.965Z" transform="translate(70.33 440.584)" fill="#88daa9"/>
    </clipPath>
    <clipPath id="clip-path-2">
      <rect id="Rectangle_4354" data-name="Rectangle 4354" width="209.113" height="289.308" fill="none"/>
    </clipPath>
  </defs>
  <g id="Mask_Group_75" data-name="Mask Group 75" transform="translate(-70.33 -411.13)" clip-path="url(#clip-path)">
    <g id="Group_22567" data-name="Group 22567" transform="translate(70.329 411.13)">
      <g id="Group_22566" data-name="Group 22566" clip-path="url(#clip-path-2)">
        <path id="Path_8496" data-name="Path 8496" d="M72.213,260.628a8.38,8.38,0,0,1-2.29,8.016,15,15,0,0,1-7.063,4.008l-8.207.573L47.21,271.7l-.571-5.725-3.628-3.626L41.1,259.483l7.634-28.247,4.008-12.4s.191-19.276.764-26.148,2.1-22.711,2.1-22.711l1.527-8.78-1.718-9.542s-14.5-1.337-20.8-5.535-4.008-6.679-4.008-6.679l.571-4.581,2.482-5.534s4.008-11.644,4.772-16.6a78.081,78.081,0,0,1,2.48-10.307l5.916-8.778L49.883,90.2l.762-5.916s3.437-11.451,4.008-16.223a74.478,74.478,0,0,0,.573-8.016s-.953-10.5.764-14.7S60,35.8,60,35.8l5.154-7.825.953-8.207s.764-6.488,8.971-13.168S94.73.113,94.733.113C99.751.2,105.071,1.5,108.215,5.561c1.73,2.234,1.548,5.806,1.024,8.486l4.77,2.671,2.1,1.909,4.008,1.335a12.276,12.276,0,0,1-2.862,4.39,7.167,7.167,0,0,1-3.055,1.909l-.762,3.244.762,13.551s1.146,9.542,1.146,12.4-1.146,12.6-.573,17.177S116.3,82.753,116.3,82.753l2.29,6.3s3.817,0,5.917,2.48,5.152,6.49,5.152,6.49l5.154,6.107,11.833,9.924,12.024-2.671,14.886-5.726L181,102.029l2.673,5.535-2.864,2.671.382,10.116,4.008-2.482-.382,7.636-1.717.571s-9.543-.571-12.215.191-19.658,3.817-19.658,3.817l-9.925.573-5.534-.573-10.5-7.634-7.443-4.39s.382,15.077-2.1,26.53-4.39,17.749-4.39,17.749-1.909,11.26-1.337,16.6,1.146,10.878,1.146,10.878,1.909,21.376,2.291,25.384.189,14.7.189,14.7l1.146,15.841s.382,4.581-.955,6.107-6.107,2.864-6.107,2.864l-8.589.38L87.672,254.9s-12.6,2.864-15.459,5.726" transform="translate(-27.115 0.078)" fill="#fff"/>
        <path id="Path_8497" data-name="Path 8497" d="M116.829,13.816a16.356,16.356,0,0,1-.066,5.488,9.7,9.7,0,0,1-1.7,3.526s-2.874,2.94-3.4,5.226a33.084,33.084,0,0,0-.458,6.14l1.372,6.206s-7.9-1.828-9.538-2.156a24.742,24.742,0,0,0-3.4-.392,9.747,9.747,0,0,1-2.808.262,12.883,12.883,0,0,0-2.092-.066l-8.231,1.894-4.246,1.308a58.74,58.74,0,0,1-5.748-4.9c-1.046-1.306-3.592-4.572-3.592-4.572l-.98-1.634.914-6.793s2.744-3.4,5.292-4.442a37.29,37.29,0,0,0,4.506-2.222l3.854-3.92s2.548-2.286,3.658-2.154,2.614.392,2.614.392l2.678,1.436a4.024,4.024,0,0,0,3.592.326c1.764-.848,3.462-1.958,4.7-1.762s3.134,1.958,3.134,1.958a5.027,5.027,0,0,0,4.508,2.026,22.637,22.637,0,0,0,5.422-1.176" transform="translate(-29.504 7.317)" fill="#f4d2af"/>
        <path id="Path_8498" data-name="Path 8498" d="M120.115,74.342s-5.154-4.581-8.4-6.3-7.443-3.437-7.443-3.437l-3.817,7.063L96.64,78.732l-1.718,5.534.382,2.1,13.742,5.154Z" transform="translate(-71.391 44.56)" fill="#b93724"/>
        <path id="Path_8499" data-name="Path 8499" d="M128.839,61.64,121.205,58.4l-1.337,3.626h-4.39L117.2,75.192l-1.718,11.642,5.917,2.29s3.435-6.679,4.2-12.6,2.29-12.977,3.244-14.886" transform="translate(-114.85 40.275)" fill="#b93724"/>
        <path id="Path_8500" data-name="Path 8500" d="M86.593,151.795c.333.095.671.2,1.012.333,6.341,2.386,12.5,5.225,18.717,7.9a2.631,2.631,0,0,1,1.527,1.909c.382,1.528-.382,5.154-.382,5.154S98.115,169,93.725,169,81.7,167.095,81.7,167.095l-8.4-4.008-3.055-.382-5.725.953a14.894,14.894,0,0,1-.955-4.006v-1.527c1.08-2.406,1.7-3.589,1.725-6.3a.47.47,0,0,1,.571-.578c3.128.007,6.379-.429,9.537-.569a41.76,41.76,0,0,1,4.552.4,31.39,31.39,0,0,1,6.637.718" transform="translate(-6.258 103.918)" fill="#1a3337"/>
        <path id="Path_8501" data-name="Path 8501" d="M127.4,159.94l1.146,6.87.953,5.154a4.157,4.157,0,0,1,.191,2.671,5.952,5.952,0,0,1-1.717,2.673s-14.315,1.144-17.177.762a76.993,76.993,0,0,1-9.542-2.671l-2.864-1.527-.382-5.343,4.772-3.435,3.626-3.626a25.809,25.809,0,0,0,11.262,1.144,28.781,28.781,0,0,0,9.733-2.671" transform="translate(-86.31 110.31)" fill="#1a3337"/>
        <path id="Path_8502" data-name="Path 8502" d="M72.525,25.58a18.5,18.5,0,0,0-.313-2.835,7.167,7.167,0,0,1,.7-4.234c.563-1.137,11.853-7.619,11.853-7.619L91.4,7.5a74.832,74.832,0,0,1,11.711-3.386,42.919,42.919,0,0,1,9.734-.422l5.5,1.833,1.693,3.952s1.693,2.115,1.693,3.386-.353,1.451-.353,1.451L119.336,14s-8.183-2.964-13.827-2.964a34.693,34.693,0,0,0-10.158,1.551s-8.607,2.823-11.287,4.233S72.525,25.58,72.525,25.58" transform="translate(-34.488 2.476)" fill="#1a3337"/>
        <path id="Path_8503" data-name="Path 8503" d="M86.028,16.558l-2.117,2.257L75.447,14.3l-2.823.422,1.553-1.551s10.158,1.551,11.852,3.386" transform="translate(0.373 9.085)" fill="#1a3337"/>
        <path id="Path_8504" data-name="Path 8504" d="M95.033,13.172l1.08,2.964-9.878,1.411s7.563-3.951,8.8-4.375" transform="translate(-32.71 9.085)" fill="#1a3337"/>
        <path id="Path_8505" data-name="Path 8505" d="M74.657,22.173a53.948,53.948,0,0,0,6.27,7.446c2.744,2.418,4.378,3.658,4.378,3.658l12.739-3.134h5.094l8.82,1.5,3.658,1.046s1.632,1.306,1.894,2.154a4.974,4.974,0,0,1-.132,2.222l-2.938,9.276-.588,3.134s-1.308,3.594-3.136,4.834a32.23,32.23,0,0,1-4.638,2.418l-7.054,3.854s-3.854.98-5.618-.066A86.045,86.045,0,0,1,86.482,54.9l-5.422-4.964s-2.614-3.528-2.744-5.88a31.515,31.515,0,0,0-1.11-5.682L74.983,32.3l-1.568-3Z" transform="translate(-32.536 15.293)" fill="#1a3337"/>
        <path id="Path_8506" data-name="Path 8506" d="M99.635,33.389s1.568-.718,1.764.458a9.936,9.936,0,0,1-.262,3.07l-3.658,6.074L90.621,48.74l-1.7-3.07a2.472,2.472,0,0,0-2.352.916c-1.11,1.24-1.5,1.632-1.5,1.632s-3.724-4.964-5.03-8.362-2.81-9.6-2.81-9.6a62.327,62.327,0,0,0,13.981,2.81c6.793.392,8.427.326,8.427.326" transform="translate(-22.827 20.865)" fill="#f4d2af"/>
        <path id="Path_8507" data-name="Path 8507" d="M84.115,18.649l.326,2.94s-.064,2.09-1.632,2.678a6.008,6.008,0,0,1-3.266.13s-2.156-.848-2.614-2.416a13.981,13.981,0,0,1-.522-2.874l.326-1.046s4.182-.85,7.382.588" transform="translate(-4.433 12.284)" fill="#e2f6ff"/>
        <path id="Path_8508" data-name="Path 8508" d="M95.776,18.463a5.82,5.82,0,0,1,.85,1.894,10.221,10.221,0,0,1-.328,2.286,4.181,4.181,0,0,1-2.94,2.548,3.453,3.453,0,0,1-3.592-.588,6.848,6.848,0,0,1-1.306-2.286,4.119,4.119,0,0,1,.066-1.828s4.637-2.156,7.25-2.026" transform="translate(-36.866 12.73)" fill="#e2f6ff"/>
        <path id="Path_8509" data-name="Path 8509" d="M103.191,44.521l-.286,6.585-2.673.286-12.022.287L80,50.627s.858-4.294.858-5.248.191-5.057.191-5.057l4.486,4.3,4.006,3.148s2.768,1.24,4.772.667,8.589-4.294,8.874-3.912" transform="translate(-29.258 27.81)" fill="#f4d2af"/>
        <path id="Path_8510" data-name="Path 8510" d="M16.2,73.5l2.741-2.165,2.415-8.315s1.788-4.471,3.4-4.827a17.986,17.986,0,0,1,4.114-.179,5.355,5.355,0,0,0,3.755-2.95c1.431-2.683,2.235-1.342,2.235-1.342a2.5,2.5,0,0,1,1.877,2.056c.358,1.788-.09,1.967-.09,1.967l4.023-1.431s2.415-.983,3.131,1.252a8.031,8.031,0,0,1,.357,3.846L42.9,63.375l-1.7,1.073a5.825,5.825,0,0,1-.8,4.023,4.185,4.185,0,0,0-.515,1.637,5.325,5.325,0,0,1-1.561,3.258c-.385.329-.863.6-1.054,1.066-.308.752.286,1.59.191,2.4a2.888,2.888,0,0,1-1.044,1.607l-1.24,1.195a3.78,3.78,0,0,1-2.192,1.3,3.222,3.222,0,0,1-1.825-.586,7.363,7.363,0,0,0-1.72-.9,10,10,0,0,0-2.513-.041,16.435,16.435,0,0,0-1.992.162l-1.913.181c-.181.015-.711-.032-.862.079l-5.275,3.935Z" transform="translate(137.494 36.818)" fill="#f4d2af"/>
        <path id="Path_8511" data-name="Path 8511" d="M35.228,40.15,3.756,66.257.179,67.6l.983-1.431L35.049,39.613s.627-.088.179.537" transform="translate(173.423 27.318)" fill="#ae7651"/>
        <path id="Path_8512" data-name="Path 8512" d="M27.69,61.446,25.1,63.412s-.715.269-.983-.09-.8-.715-.536-1.342a22.639,22.639,0,0,1,3.04-2.95s-.269,1.163.269,1.7a6.265,6.265,0,0,0,.8.715" transform="translate(141.709 40.713)" fill="#ae7651"/>
        <path id="Path_8513" data-name="Path 8513" d="M107.973,158.344c.025,4.9-11.3,4.522-14.393,4.212a31.73,31.73,0,0,1-8.122-1.955s-7.07-3.761-9.476-4.062a40.688,40.688,0,0,0-6.318,0l-5.721-1.457a2.677,2.677,0,0,0-.145,2.81c.752,1.806,1.1,2.725,1.1,2.725l5.97-.318c.15-.752,5.716,1.353,5.716,1.353s7.37,3.459,12.034,3.912,9.175.451,9.175.451l10.047-1.963c1.179-.3.328-5.035.133-5.709" transform="translate(-6.63 106.96)" fill="#bfafae"/>
        <path id="Path_8514" data-name="Path 8514" d="M129.867,169.54s-.15,2.707-1.5,3.912-5.716,1.2-5.716,1.2-8.574.752-13.538.15a24.46,24.46,0,0,1-8.876-3.009l-1.916-1.43-.38-5.343s1.544,3.163,6.509,3.915,10.831,1.5,10.831,1.5l9.927-.15Z" transform="translate(-86.238 113.815)" fill="#bfafae"/>
        <path id="Path_8515" data-name="Path 8515" d="M93.1,151l-4.062,2.557-2.707,2.859-2.707-3.31-3.229-2.2s7.289-.056,12.7.095" transform="translate(-19.84 104.073)" fill="#f9cea6"/>
        <path id="Path_8516" data-name="Path 8516" d="M92.055,117.944s6.921-19.856,9.479-18.5-6.167,21.209-6.468,38.809c-.225,13.08-.99,27.762,3.724,40.2.882,2.325,1.908,4.794,4,6.144,3.041,1.963,7.1.835,10.6,1.752-.429-.113-2.06.8-2.673.852a5.657,5.657,0,0,1-2.284-.365,24.772,24.772,0,0,0-5.268-.828c-2.925-.194-7.225-.924-9.976.433-3.239,1.6-15.459,5.726-15.459,5.726a239.8,239.8,0,0,1-1.769-24.284c0-10.228.6-25.269,1.8-16.245s5.716-3.158,5.716-3.158Z" transform="translate(-32.631 68.539)" fill="#e7e2c8"/>
        <path id="Path_8517" data-name="Path 8517" d="M118.31,129.861s-3.611,20.908-5.566,26.324-4.964,14.44-4.964,14.44l2.859,3.761s2.256,1.955,2.256,1.5a145.079,145.079,0,0,1,2.256-15.645c1.2-4.963,1.806-13.839,3.009-6.619s2.557,13.991,1.8,6.921-.752-14.141-.752-14.141Z" transform="translate(-93.183 89.564)" fill="#e7e2c8"/>
        <path id="Path_8518" data-name="Path 8518" d="M95.462,26.779s3.411,7.862,3.709,9.347.889,5.635.889,5.635a7.486,7.486,0,0,0,1.632,3.856,41.015,41.015,0,0,0,4.2,4.047l-.34,8.266-.711,2.039-1.811-2.039a9.922,9.922,0,0,0-.89,3.114c-.147,1.632-1.186,4-3.114,4.451s-5.786.889-5.786.889-.3-10.976,0-19.281,1.632-19.431,2.225-20.324" transform="translate(-54.095 18.469)" fill="#d9d7b8"/>
        <path id="Path_8519" data-name="Path 8519" d="M68.717,12.966l.323,2.607V17.65a10.952,10.952,0,0,0,4-3.263,13.185,13.185,0,0,0,1.35-2.514s-4.221-.326-5.677,1.093" transform="translate(18.608 8.167)" fill="#d9d7b8"/>
        <path id="Path_8520" data-name="Path 8520" d="M82.121,17.508s-3.56,2.741-4.158,5.792a29.447,29.447,0,0,0-.458,6.14l.6,3.881.771,2.585s2.2.828,1.9,2.756-2.67,9.641-2.67,9.641l-.89,5.488L74.546,57.5,69.34,59.948l.162,4.969,2.374.89s-.89,5.339,3.263,7.418A49.512,49.512,0,0,0,83,76.34l4.746.3s-3.412-5.192-4.3-14.834,1.037-15.871.889-19.58S83,30.059,83,30.059s-.426-11.9-.88-12.551" transform="translate(4.202 12.075)" fill="#d9d7b8"/>
        <path id="Path_8521" data-name="Path 8521" d="M111.735,4.557S114,6.5,113.679,7.255s-1.619.647-1.619.647-9.283-1.08-16.191.863-18.348,7.34-18.348,7.34-3.56.215-1.941-1.3S83.942,9.66,88.5,7.539s16.649-5.789,23.232-2.982" transform="translate(-31.59 2.442)" fill="#425053"/>
        <path id="Path_8522" data-name="Path 8522" d="M110.66,6.986s1.835,1.4.972,2.374-4.1.541-4.1.541a37.034,37.034,0,0,0-14.356.215C86.16,11.843,74.72,17.239,74.72,17.239a5.4,5.4,0,0,1,2.374-3.021c2.051-1.4,16.3-6.8,19.318-7.34a87.723,87.723,0,0,1,8.851-.755Z" transform="translate(-29.004 4.223)" fill="#425053"/>
        <path id="Path_8523" data-name="Path 8523" d="M31.355,62.24c-.063,1.132,5.764,6.176,6.75,7.352,3.525,4.2,7.43,8.149,11.355,12a1.238,1.238,0,0,0,.73.436,1.251,1.251,0,0,0,.857-.449q1.128-1.059,2.256-2.121a22.97,22.97,0,0,0-1.11,3.756c14.234-1.759,27.745-5.8,41.33-10.371l.963,5.784,2.78,4.54s-9.525-.928-15.55.277S58.825,87.3,58.825,87.3l-10.24-.063L36.9,78.627l-6.254-3.415s.71-12.95.711-12.972" transform="translate(60.069 42.927)" fill="#ededf2"/>
        <path id="Path_8524" data-name="Path 8524" d="M99.657,12.329l-1.446,7.229s-2.891,2.41-2.891,1.686,1.446-7.229,1.446-7.229Z" transform="translate(-51.606 8.503)" fill="#d9d7b8"/>
        <path id="Path_8525" data-name="Path 8525" d="M114.351,65.968,107.294,84.5l3.234,5.292-3.02-1.472c-1.017-.5-3.062-1.027-3.829-1.867-1.277-1.4.265-5.257.911-6.853a74.088,74.088,0,0,1,3.687-7.166q2.1-3.911,4.2-7.822Z" transform="translate(-79.594 44.56)" fill="#5c1501"/>
        <path id="Path_8526" data-name="Path 8526" d="M69.589,16.9c.794,4.506.394,9.009.82,13.54.515,5.493,1.609,10.37,1.257,15.963-.326,5.2-1.357,10.387-.911,15.609.455,5.307,2.222,10.3,4.152,15.216.044.115-.14.166-.184.052-3.655-9.253-4.5-16.986-3.575-26.842.595-6.338.078-11.733-.676-18.032-.617-5.159-.152-10.327-1-15.473-.012-.074.1-.106.115-.032" transform="translate(16.812 11.626)" fill="#b6b7c1"/>
        <path id="Path_8527" data-name="Path 8527" d="M85.941,18.626A14.36,14.36,0,0,0,75.4,17.114a.213.213,0,0,1-.115-.411A12.615,12.615,0,0,1,86.056,18.43c.12.079.012.27-.115.2" transform="translate(-3.947 11.143)" fill="#8d5d4b"/>
        <path id="Path_8528" data-name="Path 8528" d="M84.639,21.063c.525,2.685-2.32,4.407-4.706,3.694a5.264,5.264,0,0,1-3.209-6.852c.054-.127.252-.056.252.069-.02,2.176-.221,4.312,1.821,5.735,2.126,1.482,6.13.716,5.6-2.578-.024-.157.211-.228.243-.068" transform="translate(-4.609 12.303)" fill="#afb7a6"/>
        <path id="Path_8529" data-name="Path 8529" d="M97.381,17.1a22.325,22.325,0,0,0-4.942.3,30.887,30.887,0,0,0-4.128,1.465c-.188.069-.275-.2-.128-.3a12.95,12.95,0,0,1,9.236-1.735c.154.032.117.272-.037.272" transform="translate(-37.28 11.454)" fill="#8d5d4b"/>
        <path id="Path_8530" data-name="Path 8530" d="M96.36,18.54c2,2.634-.26,6.607-3.241,7.1-2.7.441-6.02-2.489-4.427-5.284.069-.122.3-.078.28.076a4.47,4.47,0,0,0,.507,3.283,3.612,3.612,0,0,0,3.94,1.406A4.183,4.183,0,0,0,96.394,22.3a6.994,6.994,0,0,0-.194-3.692.088.088,0,0,1,.161-.068" transform="translate(-37.165 12.759)" fill="#afb7a6"/>
        <path id="Path_8531" data-name="Path 8531" d="M78.061,12.368c.282,3.771.492,6.632-1.965,9.521-4.219,4.963-4.148,11.194-2.151,17.314.056.174-.225.3-.3.127-1.734-4.028-2.712-10.289-.625-14.445.787-1.573,2.278-2.582,3.27-4.108,1.685-2.59,1.531-5.314,1.4-8.41-.01-.24.353-.235.37,0" transform="translate(9.501 8.407)" fill="#b97a64"/>
        <path id="Path_8532" data-name="Path 8532" d="M101.9,15.73c-.052.667-.093,1.335-.127,2-.024.515-.83.519-.8,0,.034-.667.074-1.335.127-2,.039-.514.845-.517.8,0" transform="translate(-63.399 10.582)"/>
        <path id="Path_8533" data-name="Path 8533" d="M72.813,6.494c5.505-.98,12.255-1.386,17.313,1.414.323.179.1.743-.257.608C84.092,6.355,78.879,6.63,72.832,6.636c-.078,0-.1-.127-.019-.142" transform="translate(-4.113 3.971)" fill="#001a1e"/>
        <path id="Path_8534" data-name="Path 8534" d="M73.5,26.9a77.7,77.7,0,0,1,3.217,8.161c.99,3.263.865,6.945,2.6,9.961,1.553,2.705,4.314,4.642,6.644,6.619,1.967,1.668,3.78,3.624,6.076,4.849s4.767.2,7.048-.7A64.865,64.865,0,0,0,109.145,51a8.78,8.78,0,0,0,2.678-2.164c1.095-1.514,1.58-3.925,2.048-5.711.649-2.491,1.478-4.936,2.148-7.418.59-2.18,1.345-4.449-1.132-5.735a10.019,10.019,0,0,0-2.384-.764c-3.692-.841-7.376-1.639-11.076-2.448,4.444-.465,8.862.831,13.142,2.115a4.674,4.674,0,0,1,1.8.838c1.857,1.632.123,5.274-.433,7.114Q114.981,40,114.133,43.2c-.387,1.472-.5,4.483-1.262,5.667-1.911,2.979-8.261,5.461-11.307,7.058a16.226,16.226,0,0,1-4.909,1.828,10.563,10.563,0,0,1-1.473.162c-4.672.157-6.931-4.006-10.121-6.713-2.489-2.112-5.208-4.153-6.541-7.23-.956-2.208-.985-4.68-1.524-7a60.08,60.08,0,0,0-3.7-9.959c-.061-.139.145-.26.206-.122" transform="translate(-31.927 18.393)" fill="#001a1e"/>
        <path id="Path_8535" data-name="Path 8535" d="M102.307,32.387q-2.7.765-5.405,1.533a1.707,1.707,0,0,1-.789.093,1.674,1.674,0,0,1-.664-.362,39.4,39.4,0,0,1-10.73-11.689c-.135-.237.2-.421.358-.21a63.867,63.867,0,0,0,5.385,6.73c1.686,1.752,3.572,3.222,5.4,4.8a31.423,31.423,0,0,1,6.181-1.843,34.582,34.582,0,0,1,6.857-1.372.171.171,0,0,1,.086.316,35.992,35.992,0,0,1-5.63,1.71l-1.051.3" transform="translate(-43.055 14.938)" fill="#001a1e"/>
        <path id="Path_8536" data-name="Path 8536" d="M69.072,9.775a11.466,11.466,0,0,0,5.8,3.158c.444.083.259.769-.186.679a9.186,9.186,0,0,1-5.934-3.591c-.127-.2.154-.4.321-.247" transform="translate(17.873 6.705)" fill="#798e84"/>
        <path id="Path_8537" data-name="Path 8537" d="M74.079,12.113a5.376,5.376,0,0,1-1.762,3.246,8.518,8.518,0,0,1-3.332,2.354.174.174,0,0,1-.133-.316c1.892-1.181,4.682-2.886,5.1-5.3.014-.073.137-.057.13.017" transform="translate(18.832 8.31)" fill="#b6b7c1"/>
        <path id="Path_8538" data-name="Path 8538" d="M69.559,25.722c.422-2.682,2.908-4.6,4.919-5.733.649-.367,1.315-.706,1.98-1.046a19.871,19.871,0,0,0,5.064-3.268c.453-.444.9-.95,1.331-1.438,1.83-2.072,3.559-4.032,6.426-2.631.3.145.6.3.9.461,1.725.9,3.675,1.919,5.769,1.19a14.9,14.9,0,0,0,1.56-.688c1.457-.708,2.83-1.377,4.141-.5a13.973,13.973,0,0,1,1.561,1.294,7.506,7.506,0,0,0,3.64,2.2,10.79,10.79,0,0,0,5.508-.894c.329-.115.657-.23.983-.335.181-.059.406-.14.657-.228,1.235-.439,3.805-1.348,4.643-.7l.492-.637c-1.1-.843-3.271-.174-5.4.583-.245.086-.461.164-.639.221-.329.108-.662.223-1,.34a10.17,10.17,0,0,1-5.1.863,6.787,6.787,0,0,1-3.243-2.006,14.832,14.832,0,0,0-1.656-1.367c-1.695-1.141-3.422-.3-4.944.439a14.42,14.42,0,0,1-1.472.651c-1.762.617-3.474-.279-5.132-1.144-.309-.162-.615-.321-.916-.468-3.412-1.669-5.522.715-7.384,2.82-.441.5-.858.972-1.293,1.4a19.278,19.278,0,0,1-4.865,3.126c-.678.345-1.353.689-2.011,1.061-3.106,1.754-4.944,3.937-5.317,6.309Z" transform="translate(-26.212 7.12)" fill="#b6b7c1"/>
        <path id="Path_8539" data-name="Path 8539" d="M77.076,30.142c.243-.346,4.506,1.318,5.253,1.5a52.047,52.047,0,0,0,5.922,1.034c1.99.238,3.989.382,5.992.448,1,.032,2,.078,3,.039.936-.035,1.842-.333,2.78-.417a3.069,3.069,0,0,1,.816,0c.154.032.583.292.681.287a.135.135,0,0,1,.13.167c.615.972.041,3.232-.287,4.229a19.253,19.253,0,0,1-4.407,6.946,28.772,28.772,0,0,1-3.2,2.933c-.632.5-2.352,2.173-3.229,1.9a9.456,9.456,0,0,0-.909-1.98,5.271,5.271,0,0,0-.662-1.132c-.323-.155-.825.191-1.068.348A10.133,10.133,0,0,0,85.25,48.8c-.206.279-2.482-2.768-2.639-3.008a28.326,28.326,0,0,1-2.227-4.158,46.576,46.576,0,0,1-2.825-8.893.275.275,0,0,1-.017-.03,7.64,7.64,0,0,1-.547-1.769,1.065,1.065,0,0,1,.081-.8m8.051,17.733a7.926,7.926,0,0,1,3-2.256c.485-.2.752-.321,1.141.027a5.666,5.666,0,0,1,.868,1.524c.215.406.414.816.615,1.227a29.907,29.907,0,0,0,7.617-7.168,13.776,13.776,0,0,0,2.32-4.346,6.15,6.15,0,0,0,.407-2.5.974.974,0,0,0-.865-.909,2.392,2.392,0,0,0-.644-.014c-.931.088-1.783.279-2.737.286a51.87,51.87,0,0,1-7.34-.583c-2.573-.348-5.179-.493-7.727-1.017a15.088,15.088,0,0,1-3.611-1.105c-.48-.235-.573-.532-.645.078,1.653,5.8,3.673,12.054,7.6,16.757" transform="translate(-22.84 20.756)" fill="#001a1e"/>
        <path id="Path_8540" data-name="Path 8540" d="M86.2,22.17a54.694,54.694,0,0,1,6.434-4.3.325.325,0,0,1,.231-.3c.218-.076.446-.144.669-.215a78.5,78.5,0,0,1,8.656-4.1c.073-.029.125.093.054.127-2.328,1.053-4.566,2.21-6.76,3.433a28.717,28.717,0,0,1,7.673-.776,9.467,9.467,0,0,1-.373-1.277,11.019,11.019,0,0,1-.512-1.561c-.008-.052.052-.1.095-.056a3.789,3.789,0,0,1,.743,1.419,3.466,3.466,0,0,1,.341,1.582c0,.012-.012.017-.015.027a.134.134,0,0,1-.108.159c-3.388.821-6.843.843-10.223,1.849-2.273,1.337-4.511,2.737-6.76,4.182-.113.073-.253-.1-.145-.188" transform="translate(-39.934 9.051)" fill="#001a1e"/>
        <path id="Path_8541" data-name="Path 8541" d="M75.58,14.222c.01,0,.015-.008.025-.007.029,0,.056.01.084.014.051,0,.106.005.155.01.019,0,.03.017.047.024a15.126,15.126,0,0,1,4.081,1.6,45.393,45.393,0,0,1,4.76,2.641,14.944,14.944,0,0,1,1.617-2.034,47.591,47.591,0,0,0-11.887-3.161c-.081-.012-.063-.149.019-.142a35.214,35.214,0,0,1,12.09,3.116c.145-.046.319.1.22.255-.539.847-1.208,1.671-1.827,2.465-.166.213-.526-.066-.375-.289l.024-.034a35.3,35.3,0,0,1-4.059-1.9c-1.585-.792-3.305-1.325-4.865-2.141-.483.079-.968.137-1.451.228a8.719,8.719,0,0,1-1.5.286.253.253,0,0,1-.12-.463,6.072,6.072,0,0,1,2.964-.47" transform="translate(-0.211 9.082)" fill="#001a1e"/>
        <path id="Path_8542" data-name="Path 8542" d="M80.531,42.888c0,1.129-.1,2.257-.1,3.388s.118,2.269.035,3.388c-.01.135-.226.188-.253.035a21.483,21.483,0,0,1,.15-6.835c.017-.1.172-.073.172.024" transform="translate(-6.59 29.52)" fill="#b97a64"/>
        <path id="Path_8543" data-name="Path 8543" d="M94.134,40.52a22.493,22.493,0,0,1-.875,10.256c-.054.145-.3.14-.289-.039.1-1.7.514-3.361.661-5.059s.076-3.413.194-5.116c.012-.164.28-.228.309-.042" transform="translate(-42.34 27.869)" fill="#b97a64"/>
        <path id="Path_8544" data-name="Path 8544" d="M103.977,45.521c1.191-.02,2.335.14,2.423,1.531.152,2.426-10.946,2.195-11.987,2.217-2.685.057-13.752.953-15.417-2.08a1.593,1.593,0,0,1,1.093-2.555.415.415,0,0,1,.221.8q.677,2.714,3.288,2.335,1.931.3,3.881.439c1.975.159,3.961.225,5.943.226s3.964-.076,5.941-.226q.986-.086,1.974-.176,2.717.608,2.6-2.232c-.162-.027-.117-.275.037-.279" transform="translate(-30.247 30.774)" fill="#b6b7c1"/>
        <path id="Path_8545" data-name="Path 8545" d="M85.848,54.025c.054-1.117.051-2.249.03-3.366a10.026,10.026,0,0,1,.142-3,.432.432,0,0,1,.845.115,9.131,9.131,0,0,1-.3,2.739c-.216,1.157-.409,2.342-.541,3.513-.012.11-.181.115-.176,0" transform="translate(-22.817 32.657)" fill="#b6b7c1"/>
        <path id="Path_8546" data-name="Path 8546" d="M.181,66.8Q17.347,52.853,34.9,39.395c.073-.056.172.073.1.128Q17.458,53.154.249,67.205A1.043,1.043,0,0,0,.181,66.8" transform="translate(173.78 27.161)" fill="#603913"/>
        <path id="Path_8547" data-name="Path 8547" d="M.8,65.883a1.092,1.092,0,0,0-.723.252.331.331,0,0,1,.056-.473q15.4-13.131,31.124-25.879c.4-.324.972.242.569.568Q16.292,52.947,1.073,65.914a1.285,1.285,0,0,0-.275-.03" transform="translate(177.153 27.371)" fill="#603913"/>
        <path id="Path_8548" data-name="Path 8548" d="M27.748,60.733a7.288,7.288,0,0,1-2.687,1.911c-.59.193-.742-.071-1.083-.482a2.218,2.218,0,0,1-.478-.769.76.76,0,0,1,.223-.828c.049-.034.133-.052.159,0a.113.113,0,0,1-.005.081c-.267.919.544,2.1,1.485,1.375a12.764,12.764,0,0,1,2.176-1.565.174.174,0,0,1,.21.272" transform="translate(141.671 41.686)" fill="#603913"/>
        <path id="Path_8549" data-name="Path 8549" d="M27.556,58.74a8.4,8.4,0,0,1-1.686,2.016,5.639,5.639,0,0,1-1.894,1.492.116.116,0,0,1-.13-.171,10.159,10.159,0,0,1,1.771-1.751,21.694,21.694,0,0,1,1.772-1.754c.1-.081.216.069.167.167" transform="translate(141.28 40.381)" fill="#603913"/>
        <path id="Path_8550" data-name="Path 8550" d="M55.989,72.554c.005-.115.008-.23.014-.345a.019.019,0,0,1,.037,0c0,.115.008.23.012.345a.031.031,0,0,1-.063,0" transform="translate(58.458 49.79)"/>
        <path id="Path_8551" data-name="Path 8551" d="M63.9,150.979c7.168,3.515,14.95,5.86,21.947,9.67.257.14.025.51-.235.372-7.041-3.743-14.9-5.938-21.824-9.866-.12-.068-.014-.237.112-.176" transform="translate(15.455 104.12)" fill="#2d0d00"/>
        <path id="Path_8552" data-name="Path 8552" d="M63.827,156.9a6.985,6.985,0,0,1-.167,5.7.129.129,0,0,1-.235-.1,18.775,18.775,0,0,0,.514-2.753,11.471,11.471,0,0,0-.324-2.786.111.111,0,0,1,.213-.059" transform="translate(37.599 108.162)" fill="#ac988e"/>
        <path id="Path_8553" data-name="Path 8553" d="M101,162.755c-6.083,1.772-13.283,1.774-19.521,1.078-6.355-.71-11.277-4.8-17.345-5.824-.237-.041-.182-.453.057-.438,5.483.375,10.062,4.52,15.6,5.434a54.642,54.642,0,0,0,21.126-.559.16.16,0,0,1,.081.309" transform="translate(-0.115 108.676)" fill="#5e4439"/>
        <path id="Path_8554" data-name="Path 8554" d="M91.972,158.245a43.69,43.69,0,0,1-6.211.466c-.189,0-.248-.319-.046-.346a43.8,43.8,0,0,1,6.225-.355c.13,0,.169.215.032.235" transform="translate(-27.562 108.977)" fill="#5e4439"/>
        <path id="Path_8555" data-name="Path 8555" d="M90.426,160.78c-.711-1.59-1.637-3.956-1.135-5.715a.12.12,0,0,1,.23,0,25.861,25.861,0,0,1,.36,2.624,13.915,13.915,0,0,0,.914,2.874c.112.25-.255.468-.368.216" transform="translate(-32.334 106.889)" fill="#ac988e"/>
        <path id="Path_8556" data-name="Path 8556" d="M88.453,157.868c.385-1.058.835-2.087,1.169-3.163s.509-2.205.88-3.263c.084-.242.5-.225.475.064a16.784,16.784,0,0,1-2.185,6.505c-.1.177-.414.057-.34-.144" transform="translate(-31.304 104.333)" fill="#2d0d00"/>
        <path id="Path_8557" data-name="Path 8557" d="M107.506,159.866c-3.626,4.635-15.337,3.531-20.205,1.859-4.287-1.473-8.041-4.145-12.624-4.721-3.746-.471-7.244.294-10.654-1.607-.243-.135-.03-.485.216-.37,3.711,1.754,6.711.889,10.5,1.387a23.913,23.913,0,0,1,6.907,2.284c3.846,1.783,7.4,3.486,11.721,3.755,3.8.235,11.226.274,14-2.726.088-.095.213.042.139.139" transform="translate(-6.413 106.905)" fill="#2d0d00"/>
        <path id="Path_8558" data-name="Path 8558" d="M88.328,151.362c-3.469.926-5.885,3.264-8.736,5.184-.189.127-.431-.161-.252-.3,2.4-1.9,5.633-4.925,8.952-5.121a.122.122,0,0,1,.035.24" transform="translate(-13.264 104.228)" fill="#2d0d00"/>
        <path id="Path_8559" data-name="Path 8559" d="M89.91,156.655a19.643,19.643,0,0,0-5.561-5.12c-.272-.166-.03-.6.245-.449a15.76,15.76,0,0,1,5.6,5.336c.112.179-.152.4-.282.233" transform="translate(-23.429 104.181)" fill="#2d0d00"/>
        <path id="Path_8560" data-name="Path 8560" d="M116.784,165.074a7.58,7.58,0,0,1,.532,2.651,11.922,11.922,0,0,1,.03,3.16c-.035.2-.3.12-.321-.044-.125-.953-.063-1.935-.139-2.894a18.425,18.425,0,0,1-.262-2.83c.007-.076.118-.123.159-.042" transform="translate(-105.37 113.821)" fill="#ac988e"/>
        <path id="Path_8561" data-name="Path 8561" d="M100.068,167.621a7.907,7.907,0,0,1-.625,2.964c-.287.659-.627,1.436-1.429,1.5-.157.014-.23-.24-.083-.3,1.379-.6,1.7-2.847,1.772-4.163.014-.233.373-.237.365,0" transform="translate(-56.293 115.486)" fill="#ac988e"/>
        <path id="Path_8562" data-name="Path 8562" d="M129.18,171.617c-9.788,2.622-21.483,3.013-30.141-3.06a.289.289,0,0,1,.287-.5c9.968,5.451,18.98,4.7,29.823,3.337.127-.015.149.191.03.223" transform="translate(-87.267 115.88)" fill="#6e5043"/>
        <path id="Path_8563" data-name="Path 8563" d="M100.432,172.817c-1.465-3.923-2.753-8.666-2.555-12.9.008-.177.291-.238.328-.044.848,4.353,1.272,8.565,2.6,12.838.074.238-.286.33-.37.1" transform="translate(-57.047 110.183)" fill="#2d0d00"/>
        <path id="Path_8564" data-name="Path 8564" d="M120.757,161.121c-.946,1.548-2.763,2.808-4.229,3.923a19.592,19.592,0,0,1-4.628,2.921c-.161.061-.292-.167-.169-.269,1.516-1.233,3.344-2.141,4.907-3.341,1.37-1.051,2.536-2.425,3.991-3.356a.092.092,0,0,1,.128.12" transform="translate(-100.364 111.031)" fill="#2d0d00"/>
        <path id="Path_8565" data-name="Path 8565" d="M111.174,74.1A149.524,149.524,0,0,0,95.112,65.02c-.2-.095-.056-.434.15-.357A58.131,58.131,0,0,1,111.326,73.9c.11.091-.032.274-.152.2" transform="translate(-62.803 44.59)" fill="#470c00"/>
        <path id="Path_8566" data-name="Path 8566" d="M94.854,87.179c3.312-5.721,7.181-11.236,10.828-16.733.149-.225.509-.02.363.211-3.508,5.593-6.938,11.394-10.787,16.775a1.22,1.22,0,0,0-.4-.253" transform="translate(-57.24 48.519)" fill="#470c00"/>
        <path id="Path_8567" data-name="Path 8567" d="M123.471,61.944c-2.636-1.088-5.721-1.7-8.154-3.2-.181-.112-.066-.427.15-.357A55.606,55.606,0,0,1,123.6,61.64c.164.084.047.377-.128.3" transform="translate(-109.264 40.262)" fill="#470c00"/>
        <path id="Path_8568" data-name="Path 8568" d="M125.836,58.587c-2.648,8.947-3.817,18.245-5.312,27.434-.051.318-.537.184-.483-.133,1.519-9.178,2.783-18.462,5.493-27.383a.157.157,0,0,1,.3.083" transform="translate(-119.553 40.274)" fill="#470c00"/>
        <path id="Path_8569" data-name="Path 8569" d="M126.554,77.845a16.4,16.4,0,0,1-6.962-2.817c-.112-.084.01-.292.142-.24,1.009.412,1.943.99,2.943,1.431,1.282.566,2.609.98,3.923,1.457a.088.088,0,0,1-.047.169" transform="translate(-119.55 51.575)" fill="#470c00"/>
        <path id="Path_8570" data-name="Path 8570" d="M125.209,60.88a24.338,24.338,0,0,1-4.657-.078.145.145,0,0,1,0-.279,24.478,24.478,0,0,1,4.657-.078.217.217,0,0,1,0,.434" transform="translate(-119.826 41.636)" fill="#470c00"/>
        <path id="Path_8571" data-name="Path 8571" d="M122.64,60.53a98.342,98.342,0,0,1,1.781,13.877c.02.309-.451.3-.478,0-.4-4.62-1.026-9.185-1.673-13.776-.034-.237.318-.348.37-.1" transform="translate(-121.903 41.651)" fill="#470c00"/>
        <path id="Path_8572" data-name="Path 8572" d="M130.1,169.662a60.616,60.616,0,0,1-19.07.348c-4.273-.544-10.038-.907-12.838-4.62-.176-.233.226-.547.411-.316,3.212,4.062,11.351,4.488,16.128,4.907a88.491,88.491,0,0,0,15.358-.406c.049-.005.061.076.012.086" transform="translate(-86.867 113.795)" fill="#ac988e"/>
        <path id="Path_8573" data-name="Path 8573" d="M58.225,71l.277.014a.025.025,0,1,1,0,.049l-.277.014a.038.038,0,0,1,0-.076" transform="translate(52.266 48.965)"/>
        <path id="Path_8574" data-name="Path 8574" d="M88.852,21.017c-.208,1.509.5,2.852,1.576,3s2.122-.955,2.33-2.464-.5-2.852-1.576-3-2.122.955-2.33,2.464" transform="translate(-33.752 12.787)"/>
        <path id="Path_8575" data-name="Path 8575" d="M90.642,21.178c.661.446,2.1.24,2.288-.449.15-.542-.7-1.269-1.184-1.249a.5.5,0,0,0-.233.1c-.329.218-.657.434-.988.651a.467.467,0,0,0-.189.186.476.476,0,0,0-.022.208.7.7,0,0,0,.329.556" transform="translate(-36.431 13.435)" fill="#fff"/>
        <path id="Path_8576" data-name="Path 8576" d="M91.615,21.605a2.3,2.3,0,0,0,.794-.137,1.049,1.049,0,0,0,.7-.649.918.918,0,0,0-.235-.794,1.59,1.59,0,0,0-1.061-.625h-.024a.611.611,0,0,0-.3.122l-.988.651a.478.478,0,0,0-.272.51.829.829,0,0,0,.389.662,1.822,1.822,0,0,0,.994.26m.2-1.936a1.349,1.349,0,0,1,.85.524.665.665,0,0,1,.186.556.794.794,0,0,1-.537.468,1.868,1.868,0,0,1-1.546-.095.56.56,0,0,1-.27-.451.361.361,0,0,1,.01-.147.373.373,0,0,1,.14-.127l.988-.651a.386.386,0,0,1,.166-.078h.014" transform="translate(-36.485 13.38)"/>
        <path id="Path_8577" data-name="Path 8577" d="M76.831,20.428c-.208,1.509.5,2.852,1.576,3s2.122-.953,2.33-2.464-.5-2.852-1.576-3-2.122.955-2.33,2.464" transform="translate(-1.42 12.381)"/>
        <path id="Path_8578" data-name="Path 8578" d="M78.621,20.59c.661.446,2.1.24,2.288-.449.15-.542-.7-1.269-1.184-1.249a.5.5,0,0,0-.233.1l-.987.651a.471.471,0,0,0-.191.186.476.476,0,0,0-.022.208.7.7,0,0,0,.329.556" transform="translate(-4.099 13.03)" fill="#fff"/>
        <path id="Path_8579" data-name="Path 8579" d="M79.594,21.017a2.3,2.3,0,0,0,.794-.137,1.049,1.049,0,0,0,.7-.649.918.918,0,0,0-.235-.794,1.59,1.59,0,0,0-1.061-.625l-.024,0a.6.6,0,0,0-.3.12l-.988.651a.478.478,0,0,0-.272.51.829.829,0,0,0,.389.662,1.808,1.808,0,0,0,.994.26m.2-1.936a1.349,1.349,0,0,1,.85.524.665.665,0,0,1,.186.556.794.794,0,0,1-.539.468,1.864,1.864,0,0,1-1.544-.095.56.56,0,0,1-.27-.451.361.361,0,0,1,.01-.147.373.373,0,0,1,.14-.127l.988-.651a.407.407,0,0,1,.166-.078H79.8" transform="translate(-4.153 12.975)"/>
        <path id="Path_8580" data-name="Path 8580" d="M104.139,13.694c-1.4,10.375-3.557,20.553-4.5,31.009-.879,9.741-.041,19.737-1.163,29.4-.035.3-.519.438-.581.078-1.683-9.731-.265-20.714.7-30.484.992-10.023,2.259-20.44,5.312-30.063a.119.119,0,0,1,.23.064" transform="translate(-59.12 9.342)" fill="#b6b7c1"/>
        <path id="Path_8581" data-name="Path 8581" d="M93.183,33.646l-2.22,3.528a12.414,12.414,0,0,1-5.226.718,37.257,37.257,0,0,1-6.468-1.438,15.031,15.031,0,0,0,1.83,3.2,10.582,10.582,0,0,0,2.808,1.764s3.594.588,5.488-1.438,3-3.07,3-3.07l1.96-3.528Z" transform="translate(-19.184 23.025)" fill="#561a00"/>
        <path id="Path_8582" data-name="Path 8582" d="M92.463,34.111l-1.5,3.658a36.5,36.5,0,0,1-4.442.326,28.284,28.284,0,0,1-4.312-.848L81.162,32.8a64.233,64.233,0,0,0,7.446,1.306c2.024.066,3.854,0,3.854,0" transform="translate(-20.488 22.625)" fill="#eae0c7"/>
        <path id="Path_8583" data-name="Path 8583" d="M100.019,34.231C93.149,36.237,84.281,35.546,78,31.987c-.235-.133-.076-.539.189-.448a48.21,48.21,0,0,0,21.8,2.469c.13-.012.149.188.029.223" transform="translate(-22.591 21.743)" fill="#bb9d70"/>
        <path id="Path_8584" data-name="Path 8584" d="M93.391,36.321a15.66,15.66,0,0,1-12.2-.918c-.252-.133-.076-.581.2-.471a20.071,20.071,0,0,0,11.96,1.225.085.085,0,0,1,.046.164" transform="translate(-21.312 24.081)" fill="#340300"/>
        <path id="Path_8585" data-name="Path 8585" d="M95.853,33.663c-2.043,3.9-5.324,9.243-10.567,8.318-4.221-.742-5.539-5.525-6.242-9.106-.029-.142.182-.2.218-.061.9,3.673,2.271,8.742,6.95,8.886,4.74.144,7.387-4.667,9.293-8.241.123-.23.468-.027.348.2" transform="translate(-20.32 22.577)" fill="#bb9d70"/>
        <path id="Path_8586" data-name="Path 8586" d="M85.908,19.1a17.758,17.758,0,0,0-9.778-.5c-.3.074-.421-.385-.125-.455a15.448,15.448,0,0,1,9.971.8c.091.041.027.189-.068.161" transform="translate(-5.046 12.191)" fill="#b97a64"/>
        <path id="Path_8587" data-name="Path 8587" d="M97.987,18.677a25.843,25.843,0,0,0-9.67,2.849c-.171.081-.384-.139-.218-.28,2.546-2.183,6.617-3.023,9.888-2.97a.2.2,0,0,1,0,.4" transform="translate(-37.827 12.603)" fill="#b97a64"/>
        <path id="Path_8588" data-name="Path 8588" d="M80.541,33.487c1.25-.269,2.884,1.737,4.023,2.188a6.674,6.674,0,0,0,4.555.177c3.281-1.092,1.478-4.28.882-6.585-.656-2.538-.525-5.067-.938-7.592a8.953,8.953,0,0,1,3.574-8.126,1.35,1.35,0,0,1,1.519-.247c-1.056,1.255-2.687,1.84-3.538,3.364a9.145,9.145,0,0,0-1.24,3.94c-.177,3.834.938,7.881,2.144,11.49.541,1.617,1.086,2.994-.607,3.972A8.184,8.184,0,0,1,82.1,34.949c-.368-.353-.921-.651-1.365-.4a1.28,1.28,0,0,0-.357.338,7.963,7.963,0,0,0-.953,1.519c-.03-.667.257-2.734,1.112-2.918" transform="translate(-19.251 9.073)" fill="#b97a64"/>
        <path id="Path_8589" data-name="Path 8589" d="M27.394,54.907c2.781-.161,3.006,4.16,2.161,6-1.338,2.918-5.333,4.011-8.263,4.125-1.674.066-5.537-.272-5.2-2.763.228-1.715,2.4-3.165,3.675-4.079a20.452,20.452,0,0,1,7.587-3.315c.208-.047.3.275.088.321a20.007,20.007,0,0,0-8.715,4.207c-1.345,1.142-3.2,3.129-1.294,4.626a6.384,6.384,0,0,0,3.356.713A12.253,12.253,0,0,0,26.9,63.22a5.157,5.157,0,0,0,2.7-3.45c.291-1.423.037-4.723-2.2-4.6-.171.01-.169-.253,0-.264" transform="translate(151.974 37.846)" fill="#b97a64"/>
        <path id="Path_8590" data-name="Path 8590" d="M21.09,61.964a6.933,6.933,0,0,0-1.9,1.129,3.606,3.606,0,0,0-.58.622,1.6,1.6,0,0,0,.63,2.511,6.608,6.608,0,0,0,3.437.487,6.337,6.337,0,0,0,4.167-1.8,5.919,5.919,0,0,0,1.465-2.333c.166-.514.608-2.063.242-2.342a.183.183,0,0,1,.184-.316c1.149.588-.514,3.912-.946,4.506a6.6,6.6,0,0,1-5.111,2.682c-1.56.086-3.641.309-4.554-1.1-1.218-1.881,1.031-3.5,2.533-4.243a2.676,2.676,0,0,1,1.62-.407,6.883,6.883,0,0,1-1.188.6" transform="translate(149.945 41.309)" fill="#b97a64"/>
        <path id="Path_8591" data-name="Path 8591" d="M20.4,66.975A3.671,3.671,0,0,1,21.336,66a1.144,1.144,0,0,0,.326.221,2.283,2.283,0,0,0-.509,3.281C22.28,71.4,25.1,73.147,27,71.363c.5-.47.872-1.029,1.4-1.485a3.512,3.512,0,0,0,1.161-3.614c-.015-.1-.035-.189-.054-.282a1.824,1.824,0,0,0,.193-.167,6.064,6.064,0,0,1,.358,2.465c-.242,1.159-1.23,1.6-2.012,2.377-.86.862-1.384,1.811-2.729,1.9a3.981,3.981,0,0,1-2.518-.926c-1.276-.938-3.557-2.92-2.4-4.653" transform="translate(145.078 45.391)" fill="#b97a64"/>
        <path id="Path_8592" data-name="Path 8592" d="M31.2,60.28a15.4,15.4,0,0,1,1.666,3.232,11.89,11.89,0,0,1,.833,2.374,1.282,1.282,0,0,0-.27.4c-.487-.906-.727-2.043-1.124-2.97a12.476,12.476,0,0,0-1.281-2.462.455.455,0,0,1-.088-.164c-.037-.167.122-.309.264-.409" transform="translate(123.15 41.575)" fill="#92949c"/>
        <path id="Path_8593" data-name="Path 8593" d="M99.861,84.862l.049.02c-.091-1.193-1.849-5.285-3.435-3.433a12.872,12.872,0,0,0-2.105,4.963,32.381,32.381,0,0,0-.6,6.318c.193,1.151.3,2.313.414,3.474a13.7,13.7,0,0,0,.231,1.48c.068.321-.005.811.28,1.041s.7.051.955-.2a3.9,3.9,0,0,0,.59-.831c.095-.164.792-1.624.975-1.622a5.553,5.553,0,0,1-1.144-.125,1.113,1.113,0,0,1-.448-.177c-.505-.389-.372-1.517-.392-2.065a18.976,18.976,0,0,1,.355-4.437,10.452,10.452,0,0,1,1.046-3.439c.5-.828.98-1.453,2.024-1.321a4.671,4.671,0,0,1,1.206.357" transform="translate(-49.236 55.848)" fill="#93959e"/>
        <path id="Path_8594" data-name="Path 8594" d="M33.965,65.964l-1.01-3.188-1.661-2.347L31.1,68.636s2.945-1.931,2.862-2.671" transform="translate(122.592 41.677)" fill="#93959e"/>
        <path id="Path_8595" data-name="Path 8595" d="M33.329,69.886l.2,4.368s.265,4.037-.595,3.64a3.265,3.265,0,0,1-2.251-2.317,10.034,10.034,0,0,1-.4-3.374Z" transform="translate(124.403 48.2)" fill="#93959e"/>
        <path id="Path_8596" data-name="Path 8596" d="M114.6,2.03s.762,1.306-1.85.98A43.676,43.676,0,0,0,91.085,7.582a123.18,123.18,0,0,0-15.567,9.579L75.084,18.8A133.819,133.819,0,0,1,90,9.868,86.488,86.488,0,0,1,105.02,4.86l7.4-.108,5.77,1.2A8.325,8.325,0,0,0,114.6,2.03" transform="translate(-35.949 1.4)" fill="#93959e"/>
        <path id="Path_8597" data-name="Path 8597" d="M67.345,60.523c-10.258,5.775-22.826,11.5-34.681,12.5-.313.025-.336-.426-.071-.519,5.485-1.916,11.309-2.916,16.843-4.768a109.789,109.789,0,0,0,17.688-7.588c.248-.135.468.242.221.38" transform="translate(86.898 41.46)" fill="#93959e"/>
        <path id="Path_8598" data-name="Path 8598" d="M79.131,75.112C63,73.333,47.6,81.605,31.5,78.9c-.264-.044-.149-.439.11-.4,16.113,2.428,31.427-5.767,47.524-3.749.225.029.231.384,0,.358" transform="translate(76.845 51.335)" fill="#93959e"/>
        <path id="Path_8599" data-name="Path 8599" d="M96.694,82.745A108.48,108.48,0,0,1,81.23,68.888c-2.276-2.55-4.133-5.539-6.61-7.908-2.78-2.658-5.659-3.2-9.248-3.907-5.522-1.085-14.53-3.393-12.4-10.855a.308.308,0,0,1,.593.164C51.633,57.156,67.682,54.938,73.359,59c3.89,2.786,6.374,7.4,9.641,10.838A125.246,125.246,0,0,0,97,82.35c.223.174-.076.568-.3.4" transform="translate(23.068 31.725)" fill="#93959e"/>
        <path id="Path_8600" data-name="Path 8600" d="M77.907,81.957C71.8,77.733,66.4,72.99,59.61,69.83c-.084-.039-.025-.181.061-.15,6.936,2.462,12.565,7.739,18.311,12.152.073.056.005.179-.074.125" transform="translate(30.448 48.055)" fill="#93959e"/>
        <path id="Path_8601" data-name="Path 8601" d="M118.567,7.33c-5.618-8.77-17.992-8.036-26.5-4.746-8.592,3.325-14.514,8.927-16.78,17.982a.166.166,0,0,1-.319-.088C77.35,10.693,84.274,4.83,93.652,1.662c8.019-2.709,20.237-2.915,24.984,5.628a.04.04,0,0,1-.069.041" transform="translate(-36.194 -0.001)" fill="#93959e"/>
        <path id="Path_8602" data-name="Path 8602" d="M118.435,45.775c-.358,4.589-.1,6.345-4.691,7.254-6.093,1.21-12.156,2.768-18.252,3.891a.327.327,0,0,1-.174-.63,66.146,66.146,0,0,1,13.408-3.411c1.749-.259,3.516-.389,5.253-.747,3.337-.688,3.812-3.067,4.167-6.357.019-.182.3-.188.289,0" transform="translate(-69.995 31.475)" fill="#93959e"/>
        <path id="Path_8603" data-name="Path 8603" d="M99.432,102.849a368.853,368.853,0,0,0-13.359,44.527c-.039.162-.28.093-.248-.068a244.725,244.725,0,0,1,13.364-44.527c.061-.147.3-.084.243.068" transform="translate(-35.34 70.83)" fill="#93959e"/>
        <path id="Path_8604" data-name="Path 8604" d="M106.643,175.65a319.621,319.621,0,0,1,3.829-80.33c.086-.471.776-.264.71.2a435.527,435.527,0,0,0-4.236,80.134c.008.2-.287.191-.3,0" transform="translate(-80.64 65.557)" fill="#93959e"/>
        <path id="Path_8605" data-name="Path 8605" d="M120.272,129.227c-3.57,13.688-7.477,27.311-11.282,40.936a.148.148,0,0,1-.286-.079c3.516-13.692,7.173-27.41,11.355-40.916a.111.111,0,0,1,.213.059" transform="translate(-94.83 89.034)" fill="#93959e"/>
        <path id="Path_8606" data-name="Path 8606" d="M112.422,153.619a26.336,26.336,0,0,0,2.7,3.364c.906.945,2.05,1.7,2.9,2.673a.171.171,0,0,1-.206.267,11.52,11.52,0,0,1-3.175-2.756,21.709,21.709,0,0,1-2.521-3.371c-.118-.2.177-.362.3-.177" transform="translate(-98.354 105.895)" fill="#93959e"/>
        <path id="Path_8607" data-name="Path 8607" d="M113.182,150.175a126.406,126.406,0,0,0-1.5,17.608.167.167,0,0,1-.333,0,47.277,47.277,0,0,1,1.629-17.664c.037-.13.221-.073.2.056" transform="translate(-91.816 103.485)" fill="#93959e"/>
        <path id="Path_8608" data-name="Path 8608" d="M110.369,81.39a21.019,21.019,0,0,1,9.864-4.419c.245-.034.358.308.1.382a40.357,40.357,0,0,0-9.851,4.19c-.093.056-.206-.083-.118-.154" transform="translate(-97.804 53.085)" fill="#93959e"/>
        <path id="Path_8609" data-name="Path 8609" d="M107.638,99.576a23.062,23.062,0,0,1-1.259-4.947,16.024,16.024,0,0,1-.544-4.424.294.294,0,0,1,.568-.073,31.267,31.267,0,0,1,.862,5.02,41.251,41.251,0,0,1,.757,4.375c.014.223-.308.225-.384.049" transform="translate(-77.69 62.031)" fill="#93959e"/>
        <path id="Path_8610" data-name="Path 8610" d="M55.464,68.037a40.057,40.057,0,0,1-2.208,5,.145.145,0,0,1-.264-.112,40.906,40.906,0,0,1,2.173-5.062c.09-.2.385-.027.3.174" transform="translate(64.104 46.742)" fill="#93959e"/>
        <path id="Path_8611" data-name="Path 8611" d="M135.9,11.6c-9.859-4.735-21.378-3.788-31.192.654-8.525,3.858-15.28,8.548-20,16.787a46.158,46.158,0,0,0-5.858,15.037c-.841,4.963-.186,9.907-.177,14.9.015,8.508-3.761,16.111-5.116,24.4-.064.39-.713.3-.691-.095.255-4.819,2.078-9.216,3.427-13.8,1.94-6.6,1.215-12.8,1.252-19.519.057-9.962,4.623-20.624,11.061-28.209,4.711-5.552,13.371-9.557,20.131-11.769,8.954-2.928,18.869-3.1,27.37,1.255.237.122.029.466-.206.353" transform="translate(-50.217 5.43)" fill="#93959e"/>
        <path id="Path_8612" data-name="Path 8612" d="M120.288,52.393c-6.24,6.463-11.7,12.456-13.384,21.567a95.615,95.615,0,0,1-6.306,21.68c-1.948,4.356-4.65,9.209-.357,13.232,2.656,2.491,6.5,3.584,9.962,4.419,3.68.887,7.419,1.568,11.132,2.312,5.951,1.193,11.923,3.161,18.046,2.213.161.4.338.794.537,1.178-2.4-.527-4.9-.211-7.338-.51-2.5-.306-4.954-.835-7.43-1.264-5.439-.939-10.971-1.887-16.319-3.281-4.893-1.274-11.813-3.915-12.037-9.944-.132-3.567,2.148-6.951,3.488-10.114a87.761,87.761,0,0,0,5.181-17.451c.956-5.015,1.713-9.347,4.606-13.644a48.8,48.8,0,0,1,9.723-10.89c.346-.277.821.164.5.5" transform="translate(-94.349 35.731)" fill="#93959e"/>
        <path id="Path_8613" data-name="Path 8613" d="M96.437,86.753c.139-.284.181-.591.318-.916.836-2,1.517-4.013,2.4-6,1.291-2.883,2.685-5.72,4.087-8.55,1.193-2.4,2.413-4.789,3.574-7.207a13.564,13.564,0,0,0,.926-2.105.265.265,0,0,1,.51.14c-1.485,9.038-9.848,16.556-10.13,25.812a.721.721,0,0,1-.025.12,93.882,93.882,0,0,0,16.3,5.311c2.528.541,5.189.63,7.681,1.3a5.355,5.355,0,0,0-1.09.706,3.171,3.171,0,0,0-.8,1.178c-.035-1.186-1.533-1.244-2.394-1.4-1.9-.348-3.773-.8-5.649-1.242a58.983,58.983,0,0,1-7.173-2.036c-1.6-.6-3.241-1.114-4.807-1.808A20.134,20.134,0,0,1,97.754,88.7a8.321,8.321,0,0,0-2.556-.945,4.226,4.226,0,0,0,.933-.595,1.335,1.335,0,0,0,.306-.407" transform="translate(-73.825 42.617)" fill="#93959e"/>
        <path id="Path_8614" data-name="Path 8614" d="M116.574,61.875c-.117,16.758.262,32.993-4.025,49.3-2.313,8.8-4.331,17.189-3.874,26.373.426,8.58,2.124,17.032,2.884,25.58.767,8.612.465,17.289,1.105,25.923.3,4.038.615,8.078.64,12.13.014,2.214.667,6.461-.524,8.46-.808,1.353-4.5,2.518-6.144,3.009-3.371,1.014-6.725.537-10.182.275a44.374,44.374,0,0,0-26.192,5.856.352.352,0,0,1-.355-.607,42.3,42.3,0,0,1,18.315-6.3c6.036-.61,21.263,3.268,23.659-4.67,1.058-3.5.12-8.426-.086-12.081-.228-4.052-.6-8.094-.852-12.144-.509-8.288-.193-16.5-1.174-24.773-.968-8.16-2.41-16.321-2.377-24.563.029-7.239,1.715-13.957,3.619-20.9,2.156-7.86,4.02-15.555,4.331-23.739.341-9.043.629-18.088,1.031-27.13a.1.1,0,0,1,.2,0" transform="translate(-25.302 42.608)" fill="#93959e"/>
        <path id="Path_8615" data-name="Path 8615" d="M120.61,141.77c.23,6.194.488,12.391,1.183,18.553.377,3.349,1.979,7.335-.536,10.145-5.4,6.032-17.38,6.48-24.418,4.2a.233.233,0,0,1,.123-.449c7.691,1.669,26.349,1.82,24.708-10.177a156.617,156.617,0,0,1-1.413-22.273.176.176,0,0,1,.351,0" transform="translate(-76.881 97.661)" fill="#93959e"/>
        <path id="Path_8616" data-name="Path 8616" d="M83.9,83.428a3.017,3.017,0,0,0,1.024.1c.968-.13,1.952-.527,2.906-.745a9.341,9.341,0,0,1,6.12.973,1.611,1.611,0,0,0,.451.166A1.5,1.5,0,0,0,95.1,83.8c1.95-.673,4.53-1.629,6.419-.363a4.723,4.723,0,0,1,.645.544c.678.657,1.159,1.435,1.764,2.114.539.6,1.392.825,1.9,1.477a1.875,1.875,0,0,1,.36.652c.377,1.4,2.354,2.5,2.264,4.3l-.039.784-.936,1.034.9,1.615a1.477,1.477,0,0,1,.519,1.4,5.557,5.557,0,0,1-.965,1.62l-1.1.436s-5.289-2.23-6.862-2.212a11.347,11.347,0,0,1-3.874-1.078s.836,2.891.372,4.341a3.886,3.886,0,0,1-1.279,2l-.887.054a10.394,10.394,0,0,0-2.688-3.18c-1.7-1.264-5.138-3.3-5.138-3.3L79.81,95.6c-1.085-.071-.338-4.608-.26-5.24.294-2.408.537-5.375,2.687-6.872a2.044,2.044,0,0,1,1.666-.056" transform="translate(-33.695 56.971)" fill="#f4d2af"/>
        <path id="Path_8617" data-name="Path 8617" d="M79.884,95.4a49.42,49.42,0,0,1,6.01.568c.556-.367.787-1.227,1.108-1.779a4.136,4.136,0,0,0-.274,1,.584.584,0,0,0,.008.27.629.629,0,0,0,.321.3,25.475,25.475,0,0,1,6.149,4.466c.421.446.943,1.646,1.4,1.979.684.492,1.477-.625,1.776-1.284A4.528,4.528,0,0,0,96.6,98.3a5.415,5.415,0,0,0-2.119-3.439c-.291-.215-.634-.351-.923-.558-.357-.257-.367-.471-.509-.911-1-3.094-4.027-5.344-7.041-6.3.88.267,1.783.275,2.656.615a8.512,8.512,0,0,1,2.195,1.25,7.721,7.721,0,0,1,2.7,4.324.268.268,0,0,0,.012.034l.008.046a.246.246,0,0,1,.008.046,1.339,1.339,0,0,0,.083.316c.215.48.831.5,1.215.8A5.437,5.437,0,0,1,95.9,95.576c.084.112.155.233.231.35,1.95.448,3.918.821,5.856,1.328a30.531,30.531,0,0,1,3.052.955,7.517,7.517,0,0,1,1.429.618c.355.23.5.446.994.3a1.721,1.721,0,0,0,.727-.476,1.968,1.968,0,0,0,.348-2.656,10.758,10.758,0,0,0-4.834-3.15c-.948-.333-1.916-.541-2.886-.786a8.982,8.982,0,0,0-3.246-.6,11.366,11.366,0,0,1,3.809.438c.823.147,1.647.3,2.452.52a9.986,9.986,0,0,1,3.832,1.96,7.94,7.94,0,0,0,.8-.806A3.536,3.536,0,0,0,108.1,91.4a4.3,4.3,0,0,0-1.331-1.8,7.166,7.166,0,0,0-3.433-1.139,31.675,31.675,0,0,0-6.978.335,2.5,2.5,0,0,1,.82-.2c1.37-.159,2.653-.635,4.06-.7a9.616,9.616,0,0,1,5.213.945c-1.761-3.775-5.873-2.842-9.3-2.609a5.979,5.979,0,0,1-1.254-.044c.936,1.745.331,3.047-.26,5.084a9.723,9.723,0,0,0-.014-5.118l-.029,0,.027,0c-.061-.243-.132-.483-.208-.722a6.231,6.231,0,0,1,.473.74,9.329,9.329,0,0,0,1.676-.228,14.328,14.328,0,0,1,1.73-.253,20.239,20.239,0,0,1,3.02-.035,6.169,6.169,0,0,1,1.622.4c-1.01-1.838-2.31-3.058-4.609-3a10.786,10.786,0,0,0-4.633,1.389,9.356,9.356,0,0,0-3.183-1.335,14.605,14.605,0,0,0-2.029-.274,15.839,15.839,0,0,0-3.8.777,3.719,3.719,0,0,1-1.206.161c.167-.071.338-.139.51-.2a11.19,11.19,0,0,1,1.49-.429c.449-.095.85-.338,1.321-.434a7.834,7.834,0,0,1,1.695-.177,13.818,13.818,0,0,1,4.976,1.281c.014.005.015.019.027.027a.134.134,0,0,1,.064-.052c2-.563,4.288-1.463,6.385-.911,1.69.446,2.627,1.808,3.4,3.283a.126.126,0,0,1,.007.078,5.142,5.142,0,0,1,2.491,2.717.143.143,0,0,1-.014.137,4.239,4.239,0,0,1,1.424,1.81,5.2,5.2,0,0,1,.625,2.644,1.483,1.483,0,0,1-.291.5,1.529,1.529,0,0,1-.7.527,9.41,9.41,0,0,1,.874.885,2.144,2.144,0,0,1,.76,1.647,3.656,3.656,0,0,1-.9,1.843,2,2,0,0,1-2.688.468c-2.987-1.632-6.4-1.872-9.552-3.072a6.4,6.4,0,0,1,.689,1.938A4.7,4.7,0,0,1,96.7,101.2c-.362.722-1.384,2.051-2.323,1.5-.439-.259-.468-.838-.74-1.235A10.653,10.653,0,0,0,92.418,100a13.921,13.921,0,0,0-3.033-2.29c-.417-.237-.875-.512-1.348-.767l.1.071a3.274,3.274,0,0,0-1.147-.482,6.483,6.483,0,0,0-1.1-.1c-1.267-.047-2.551-.145-3.805-.287a9.787,9.787,0,0,1-3.041-.8c.279.02.558.039.838.056" transform="translate(-33.984 56.924)" fill="#b97a64"/>
        <path id="Path_8618" data-name="Path 8618" d="M20.431,72.926c.742-.792,2.122-1.347,2.4-2.482.135-.541.237-1.095.37-1.637.279-1.137.578-2.268.926-3.384a20.066,20.066,0,0,1,2.83-6.107,3.627,3.627,0,0,1,1.712-1.33c1.7-.858,4.251.282,6.091-1.059,1.085-.791,1.654-3.292,2.546-3.516,1.326-.333,2.609.764,3.21,1.847.549.987.669,2.82-.826,3.06.14-.625.341-1.239.421-1.876a1.948,1.948,0,0,0-.5-1.592,1.985,1.985,0,0,0-.742-.639,1.78,1.78,0,0,0-1.889.615c-.427.4-.769,1.249-1.2,1.707a7.046,7.046,0,0,1-4.714,2.039c-1.864.213-3.168-.269-4.217,1.588a23.226,23.226,0,0,0-1.277,3.153q-.72,1.876-1.375,3.778-.332.968-.645,1.943c-.172.542-.213,1.078-.373,1.622a2.893,2.893,0,0,1-1.164,1.428,13.259,13.259,0,0,1-1.377,1.1.168.168,0,0,1-.2-.262" transform="translate(133.769 36.795)" fill="#b97a64"/>
        <path id="Path_8619" data-name="Path 8619" d="M24.963,72.566a5.651,5.651,0,0,0,1.054-.735c.377-.26.762-.51,1.141-.77.537-.367,1.073-.738,1.615-1.1a5.966,5.966,0,0,1,1.416-.948,5.72,5.72,0,0,1,1.328,0c.872-.012,1.745-.052,2.614-.125s1.742-.177,2.606-.314a1.2,1.2,0,0,0,.372.4,30.417,30.417,0,0,1-6.75.519.2.2,0,0,1-.025.03c-.813.647-1.7,1.213-2.546,1.808A28.608,28.608,0,0,1,25.04,73.21l-.014-.024a1.074,1.074,0,0,1-.064-.62" transform="translate(129.854 47.292)" fill="#b97a64"/>
        <path id="Path_8620" data-name="Path 8620" d="M30.036,62.712a4.258,4.258,0,0,1-.732,3.381,7.009,7.009,0,0,1-4.19,3.188,7.4,7.4,0,0,1-5.211-.537,2.2,2.2,0,0,1-1.237-1.213,1.934,1.934,0,0,1,.517-1.717,3.81,3.81,0,0,1,2.039-1.242,6.679,6.679,0,0,0-1.5,1.4,1.649,1.649,0,0,0-.223,1.84,2.147,2.147,0,0,0,.771.689,6.444,6.444,0,0,0,3.662.5,6.476,6.476,0,0,0,4.405-2.32,7.14,7.14,0,0,0,1.137-1.794,4.886,4.886,0,0,0,.367-1.958.248.248,0,0,1,.071-.2c.057-.044.169,0,.149.073Z" transform="translate(147.501 43.252)" fill="#b97a64"/>
        <path id="Path_8621" data-name="Path 8621" d="M74.036,13.312c2.465.585.8-2.653.556-3.134C74.256,9.5,73.9,8.833,73.56,8.16c-.546-1.066-1.124-2.124-1.571-3.236-.057-.14.161-.218.235-.1.8,1.274,1.44,2.658,2.124,4a12.02,12.02,0,0,1,1.414,3.065c.218,1.25-.539,2.1-1.806,1.722a.154.154,0,0,1,.081-.3" transform="translate(11.692 3.288)" fill="#001a1e"/>
        <path id="Path_8622" data-name="Path 8622" d="M120.755,5.823C111.9,2.081,100.667,5.095,92.32,8.9a77.225,77.225,0,0,0-9.41,5.172,41.125,41.125,0,0,0-4.474,3.006c-2.95,2.486-3.574,3.837-2.649,7.017a.377.377,0,0,1-.727.2c-.933-3-1.576-4.147.8-6.318,4.43-4.045,10.677-7.249,16.094-9.7C100.077,4.6,112.5.849,120.9,5.578c.162.093.019.314-.144.245" transform="translate(-37.263 2.316)" fill="#001a1e"/>
        <path id="Path_8623" data-name="Path 8623" d="M31.124,60.33a141.08,141.08,0,0,0,.3,15.05c.12,1.245.025,9.324,2.954,7.98.51-.235.042-5.978.032-6.674a.183.183,0,0,1,.365,0,71.537,71.537,0,0,1-.052,8.34.223.223,0,0,1-.162.211c-5.889,1.3-4.258-22.061-3.876-24.908.035-.27.443-.292.438,0" transform="translate(123.227 41.464)" fill="#92949c"/>
        <path id="Path_8624" data-name="Path 8624" d="M96.155,82.253c.2-.292.348-.6.245-.845a.518.518,0,0,0-.546-.3,3.589,3.589,0,0,1,2.3.084,3.382,3.382,0,0,1,1.457,1.757,7.517,7.517,0,0,1,.434,2.279c-.3-.071-.421-.417-.512-.71-.313-1.019-1.127-3.474-2.614-2.548-1.005.627-1.431,2.413-1.756,3.454a20.044,20.044,0,0,0-.794,4.135,32.359,32.359,0,0,0-.034,4.772c.037.629-.051,4.152.879,4.033a.9.9,0,0,0,.439-.231,5.47,5.47,0,0,0,1-1.075A3.22,3.22,0,0,1,95.569,98.8a.9.9,0,0,1-.684.174c-.389-.091-.574-.529-.674-.916a22.766,22.766,0,0,1-.414-4.591,29.341,29.341,0,0,1,.137-4.827,16.872,16.872,0,0,1,.917-3.907,13.054,13.054,0,0,1,.841-1.82c.1-.169.294-.407.463-.659" transform="translate(-49.353 55.839)" fill="#92949c"/>
        <path id="Path_8625" data-name="Path 8625" d="M112.521,73.856l-8.17,13.786-6.382-1.788-1.277-3.063,4.851-16.084s10.723,5.361,10.978,7.149" transform="translate(-66.788 46.007)" fill="#c66344"/>
      </g>
    </g>
  </g>
</svg>
