<svg xmlns="http://www.w3.org/2000/svg" xmlns:xlink="http://www.w3.org/1999/xlink" width="18.008" height="18.036" viewBox="0 0 18.008 18.036">
  <defs>
    <linearGradient id="linear-gradient" x1="0.129" y1="0.12" x2="0.821" y2="0.926" gradientUnits="objectBoundingBox">
      <stop offset="0" stop-color="#a22eb4"/>
      <stop offset="1" stop-color="#e1b02b"/>
    </linearGradient>
  </defs>
  <path id="brand_instagram" data-name="brand / instagram" d="M9,18.036c-2.46,0-2.75-.013-3.71-.055a6.584,6.584,0,0,1-2.185-.45A4.619,4.619,0,0,1,.475,14.9a6.591,6.591,0,0,1-.419-2.187C0,11.755,0,11.441,0,9c0-2.467.013-2.755.056-3.71A6.59,6.59,0,0,1,.475,3.106,4.61,4.61,0,0,1,3.108.474,6.533,6.533,0,0,1,5.292.054C6.247,0,6.561,0,9,0c2.48,0,2.765.013,3.71.054A6.574,6.574,0,0,1,14.9.474a4.615,4.615,0,0,1,2.633,2.632,6.571,6.571,0,0,1,.421,2.217c.056.958.056,1.271.056,3.711s-.014,2.76-.056,3.707a6.6,6.6,0,0,1-.42,2.189A4.624,4.624,0,0,1,14.9,17.562a6.612,6.612,0,0,1-2.186.419C11.759,18.036,11.446,18.036,9,18.036ZM8.966,1.583c-2.446,0-2.7.012-3.655.055a4.989,4.989,0,0,0-1.669.311A2.989,2.989,0,0,0,1.923,3.661a5.015,5.015,0,0,0-.311,1.687C1.559,6.317,1.559,6.571,1.559,9c0,2.4.009,2.691.053,3.654a5.067,5.067,0,0,0,.311,1.67,2.991,2.991,0,0,0,1.719,1.711,4.921,4.921,0,0,0,1.669.311c.968.056,1.223.056,3.655.056,2.453,0,2.707-.012,3.654-.056a4.964,4.964,0,0,0,1.67-.311A3,3,0,0,0,16,14.326a5.041,5.041,0,0,0,.311-1.688h.011c.043-.956.043-1.211.043-3.654s-.011-2.7-.054-3.655A5.056,5.056,0,0,0,16,3.661,3,3,0,0,0,14.29,1.949a4.943,4.943,0,0,0-1.67-.311C11.653,1.583,11.4,1.583,8.966,1.583ZM9,13.619A4.623,4.623,0,1,1,13.62,8.995,4.629,4.629,0,0,1,9,13.619ZM9,5.993a3,3,0,1,0,3,3A3.007,3.007,0,0,0,9,5.993ZM13.8,5.28A1.078,1.078,0,1,1,14.882,4.2,1.079,1.079,0,0,1,13.8,5.28Z" fill="url(#linear-gradient)"/>
</svg>
