<svg xmlns="http://www.w3.org/2000/svg" width="17.075" height="15.238" viewBox="0 0 17.075 15.238">
  <g id="Group_17748" data-name="Group 17748" transform="translate(13.516 -12999.441)">
    <g id="_dc46e1ff" data-name="#dc46e1ff" transform="translate(-10.763 12999.456)">
      <path id="Path_16358" data-name="Path 16358" d="M271.43,79.5a4.873,4.873,0,0,1,2.628-.457,4.815,4.815,0,0,1,2.346.9,6.276,6.276,0,0,1,.818.738c-.2.218-.419.422-.627.634L274.921,83a2.576,2.576,0,0,0-.23-.242L271.639,79.7A2.554,2.554,0,0,0,271.43,79.5Z" transform="translate(-271.43 -79.019)" fill="#dc46e1"/>
    </g>
    <g id="_ff2373ff" data-name="#ff2373ff" transform="translate(-11.846 12999.441)">
      <path id="Path_16359" data-name="Path 16359" d="M233.637,79.28a4.837,4.837,0,0,1,2.639-.838,4.785,4.785,0,0,1,2.172.465q-5.187,5.188-10.374,10.375c-.757-.76-1.519-1.516-2.274-2.277q1.147-1.144,2.291-2.29t2.283-2.283l1.674-1.675c.208-.213.426-.416.627-.635A5.611,5.611,0,0,1,233.637,79.28Z" transform="translate(-225.8 -78.441)" fill="#ff2373"/>
    </g>
    <g id="_ff784bff" data-name="#ff784bff" transform="translate(-9.572 12999.907)">
      <path id="Path_16360" data-name="Path 16360" d="M331.944,98.07a4.809,4.809,0,0,1,2.289,2.287l-10.376,10.376q-1.143-1.144-2.288-2.288Q326.756,103.256,331.944,98.07Z" transform="translate(-321.57 -98.07)" fill="#ff784b"/>
    </g>
    <g id="_be3cfaff" data-name="#be3cfaff" transform="translate(-13.042 12999.938)">
      <path id="Path_16361" data-name="Path 16361" d="M175.44,101.677a4.886,4.886,0,0,1,2.279-2.287,2.541,2.541,0,0,1,.209.2l3.052,3.052a2.579,2.579,0,0,1,.23.242q-1.143,1.141-2.283,2.283Q177.189,103.417,175.44,101.677Z" transform="translate(-175.44 -99.39)" fill="#be3cfa"/>
    </g>
    <g id="_ffbe0aff" data-name="#ffbe0aff" transform="translate(-7.285 13002.194)">
      <path id="Path_16362" data-name="Path 16362" d="M417.9,204.756l10.376-10.376a4.862,4.862,0,0,1-.758,5.307c-.232.259-.487.5-.73.744q-3.158,3.158-6.316,6.316a.416.416,0,0,1-.566.013Q418.9,205.758,417.9,204.756Z" transform="translate(-417.9 -194.38)" fill="#ffbe0a"/>
    </g>
    <g id="_964bffff" data-name="#964bffff" transform="translate(-13.516 13002.227)">
      <path id="Path_16363" data-name="Path 16363" d="M155.592,198.829a4.887,4.887,0,0,1,.366-3.119q1.744,1.744,3.487,3.49-1.147,1.143-2.291,2.29c-.152-.163-.319-.312-.464-.481A4.806,4.806,0,0,1,155.592,198.829Z" transform="translate(-155.484 -195.71)" fill="#964bff"/>
    </g>
  </g>
</svg>
