<svg xmlns="http://www.w3.org/2000/svg" width="15.635" height="15.635" viewBox="0 0 15.635 15.635">
  <path id="linkedin" d="M14.22,0H1.414A1.414,1.414,0,0,0,0,1.414V14.22a1.414,1.414,0,0,0,1.414,1.414H14.22a1.414,1.414,0,0,0,1.414-1.414V1.414A1.414,1.414,0,0,0,14.22,0ZM4.838,13.5a.412.412,0,0,1-.412.412H2.674a.412.412,0,0,1-.412-.412V6.156a.412.412,0,0,1,.412-.412H4.426a.412.412,0,0,1,.412.412ZM3.55,5.052A1.664,1.664,0,1,1,5.215,3.388,1.664,1.664,0,0,1,3.55,5.052Zm10.443,8.481a.378.378,0,0,1-.378.378h-1.88a.378.378,0,0,1-.378-.378V10.088c0-.514.151-2.252-1.343-2.252-1.159,0-1.394,1.19-1.441,1.724v3.973a.378.378,0,0,1-.378.378H6.376A.378.378,0,0,1,6,13.533V6.123a.378.378,0,0,1,.378-.378H8.195a.378.378,0,0,1,.378.378v.641A2.581,2.581,0,0,1,11,5.621c3.01,0,2.993,2.812,2.993,4.358v3.554Z" fill="#0077b7"/>
</svg>
