<svg xmlns="http://www.w3.org/2000/svg" width="16.181" height="18.327" viewBox="0 0 16.181 18.327">
  <g id="tik-tok" transform="translate(0 0)">
    <g id="Group_1961" data-name="Group 1961" transform="translate(2.121 0.827)">
      <path id="Path_882" data-name="Path 882" d="M111.909,211.8a2.58,2.58,0,0,0-1.341,4.806,2.54,2.54,0,0,1-.413-1.355,2.6,2.6,0,0,1,2.617-2.624,2.7,2.7,0,0,1,.823.129v-2.893a5.69,5.69,0,0,0-.823-.061h-.04v2.128A2.7,2.7,0,0,0,111.909,211.8Z" transform="translate(-108.555 -203.122)" fill="#f00044"/>
      <path id="Path_883" data-name="Path 883" d="M336.969,24H336.2a4.42,4.42,0,0,0,1.671,2.663A4.452,4.452,0,0,1,336.969,24Z" transform="translate(-327.308 -24)" fill="#f00044"/>
      <path id="Path_884" data-name="Path 884" d="M102.861,144.379a4.476,4.476,0,0,1-.827-.079v2.074a7.129,7.129,0,0,1-2.818-.572,7.361,7.361,0,0,1-1.6-.935l.014,6.394a5.349,5.349,0,0,1-1.6,3.8,5.452,5.452,0,0,1-3.048,1.524,5.69,5.69,0,0,1-.823.061,5.459,5.459,0,0,1-3.353-1.136,4.868,4.868,0,0,0,.349.377,5.478,5.478,0,0,0,3.871,1.585,5.688,5.688,0,0,0,.823-.061,5.452,5.452,0,0,0,3.048-1.524,5.349,5.349,0,0,0,1.6-3.8l-.054-6.394a7.061,7.061,0,0,0,1.6.935,7.219,7.219,0,0,0,2.818.571" transform="translate(-88.8 -139.976)" fill="#f00044"/>
    </g>
    <path id="Path_885" data-name="Path 885" d="M32.258,189.219a5.47,5.47,0,0,1,3.839-1.592v-.766a5.69,5.69,0,0,0-.823-.061,5.465,5.465,0,0,0-3.878,1.592,5.372,5.372,0,0,0,.007,7.649,5.471,5.471,0,0,0,.514.449,5.354,5.354,0,0,1-1.258-3.447A5.419,5.419,0,0,1,32.258,189.219Z" transform="translate(-29.8 -180.122)" fill="#08fff9"/>
    <path id="Path_886" data-name="Path 886" d="M385.467,99.761v-.769h-.007a4.387,4.387,0,0,1-2.66-.891A4.391,4.391,0,0,0,385.467,99.761Z" transform="translate(-370.112 -94.61)" fill="#08fff9"/>
    <path id="Path_887" data-name="Path 887" d="M146.856,16.5a2.7,2.7,0,0,0,.97-.126,2.59,2.59,0,0,0,1.794-2.455l0-4.277V1.827h2.056A4.476,4.476,0,0,1,151.593,1h-2.832V8.81l0,4.277a2.59,2.59,0,0,1-1.794,2.455,2.551,2.551,0,0,1-.97.126,2.637,2.637,0,0,1-1.193-.363A2.622,2.622,0,0,0,146.856,16.5Z" transform="translate(-140.667 -1)" fill="#08fff9"/>
    <path id="Path_888" data-name="Path 888" d="M59.234,40.613a5.452,5.452,0,0,0,3.048-1.524,5.349,5.349,0,0,0,1.6-3.8l-.014-6.394a7.061,7.061,0,0,0,1.6.935,7.219,7.219,0,0,0,2.818.571V28.324a4.391,4.391,0,0,1-2.667-1.661A4.4,4.4,0,0,1,63.953,24h-2.06v7.81l0,4.277A2.59,2.59,0,0,1,60.1,38.542a2.551,2.551,0,0,1-.97.126,2.622,2.622,0,0,1-2.056-1.19,2.58,2.58,0,0,1,1.341-4.806,2.7,2.7,0,0,1,.823.129V30.675A5.47,5.47,0,0,0,55.4,32.267a5.383,5.383,0,0,0-1.6,3.821,5.315,5.315,0,0,0,1.258,3.447,5.467,5.467,0,0,0,3.353,1.136,5.222,5.222,0,0,0,.823-.058Z" transform="translate(-52.937 -23.173)"/>
  </g>
</svg>
