<svg xmlns="http://www.w3.org/2000/svg" width="24" height="24" viewBox="0 0 24 24">
  <path id="whatsapp" d="M12.031,6.172a5.777,5.777,0,0,0-4.749,9.053L6.7,17.353l2.182-.573A5.773,5.773,0,0,0,17.8,11.943,5.764,5.764,0,0,0,12.031,6.172Zm3.392,8.244a1.784,1.784,0,0,1-1.17.824,2.371,2.371,0,0,1-1.092-.069,10.063,10.063,0,0,1-.988-.365,7.735,7.735,0,0,1-2.961-2.617A3.37,3.37,0,0,1,8.5,10.4,1.943,1.943,0,0,1,9.111,8.95a.638.638,0,0,1,.462-.217l.332.006c.106.005.249-.04.39.3s.491,1.2.534,1.287a.32.32,0,0,1,.014.3,1.2,1.2,0,0,1-.173.289l-.26.3c-.087.086-.177.18-.076.354a5.223,5.223,0,0,0,.964,1.2,4.7,4.7,0,0,0,1.394.86c.173.086.274.072.376-.043s.433-.506.549-.68.231-.145.39-.087,1.011.477,1.184.564.289.13.332.2a1.423,1.423,0,0,1-.1.824ZM12,0A12,12,0,1,0,24,12,12,12,0,0,0,12,0Zm.029,18.88a6.944,6.944,0,0,1-3.318-.844L5.034,19l.984-3.6a6.937,6.937,0,1,1,6.011,3.475Z" fill="#25d366"/>
</svg>
