<svg xmlns="http://www.w3.org/2000/svg" xmlns:xlink="http://www.w3.org/1999/xlink" width="192.988" height="162.991" viewBox="0 0 192.988 162.991">
  <defs>
    <clipPath id="clip-path">
      <rect id="Rectangle_107" data-name="Rectangle 107" width="192.988" height="162.991" fill="#34bf6c"/>
    </clipPath>
  </defs>
  <g id="Group_4839" data-name="Group 4839" clip-path="url(#clip-path)">
    <path id="Path_6475" data-name="Path 6475" d="M51.8,24.465c1.928-1.668,5.214.116,5.041,2.6.152,2.492-3.157,4.218-5.071,2.564a3.18,3.18,0,0,1,.03-5.165" transform="translate(-14.011 -6.613)" fill="#34bf6c"/>
    <path id="Path_6476" data-name="Path 6476" d="M118.809,28.965c1.929-1.669,5.215.116,5.042,2.6.152,2.492-3.157,4.218-5.071,2.564a3.179,3.179,0,0,1,.029-5.165" transform="translate(-32.619 -7.862)" fill="#34bf6c"/>
    <path id="Path_6477" data-name="Path 6477" d="M77.163,47.592c5.6-2.463,12.626,2.239,12.5,8.343.383,5.035-4.168,9.592-9.145,9.52a9.242,9.242,0,0,1-3.352-17.863" transform="translate(-19.781 -13.03)" fill="#34bf6c"/>
    <path id="Path_6478" data-name="Path 6478" d="M34.279,63.038c5.006-1.076,9.614,4.364,7.794,9.138-1.466,4.9-8.48,6.4-11.788,2.47-3.807-3.741-1.307-11,3.994-11.608" transform="translate(-7.9 -17.466)" fill="#34bf6c"/>
    <path id="Path_6479" data-name="Path 6479" d="M92.89.137C97.9-.939,102.5,4.5,100.684,9.274c-1.466,4.9-8.48,6.4-11.788,2.47C85.089,8,87.588.744,92.89.137" transform="translate(-24.175 0)" fill="#34bf6c"/>
    <path id="Path_6480" data-name="Path 6480" d="M18.824,23.225c5.006-1.076,9.614,4.363,7.794,9.137-1.466,4.9-8.48,6.4-11.788,2.47-3.807-3.742-1.307-11,3.994-11.608" transform="translate(-3.609 -6.411)" fill="#34bf6c"/>
    <path id="Path_6481" data-name="Path 6481" d="M76.514,87.887a3.2,3.2,0,1,1,.571,5.584,3.227,3.227,0,0,1-.571-5.584" transform="translate(-20.864 -24.249)" fill="#34bf6c"/>
    <path id="Path_6482" data-name="Path 6482" d="M8.6,92.156a3.192,3.192,0,0,1,4.746,2.767c.181,2.333-2.781,4.161-4.738,2.817A3.2,3.2,0,0,1,8.6,92.156" transform="translate(-1.936 -25.469)" fill="#34bf6c"/>
    <path id="Path_6483" data-name="Path 6483" d="M118.427,58.117c5.121-4.348,11.709-6.32,17.1-10.264,3.5-2.456,6.884-5.526,8.372-9.657,1.148-3.178.831-6.6.585-9.9-1.062,3.814-1.6,8.076-4.536,11.015-6.234,6.5-15.6,8.162-22.688,13.406a34.431,34.431,0,0,0-13.276,33.061c1.726-10.4,6.082-20.875,14.439-27.658" transform="translate(-28.743 -7.856)" fill="#34bf6c"/>
    <path id="Path_6484" data-name="Path 6484" d="M108.819,80.562c-2.485,5.129-2.579,11.015-1.734,16.548,1.358-5.389,2.99-10.906,6.616-15.262,4.507-5.685,11.449-8.452,18.073-10.828,8.415-3.28,17.639-6.118,23.837-13.081a16.833,16.833,0,0,0,3.547-15.588c-.679,2.665-1.206,5.432-2.687,7.793-2.34,3.951-6.421,6.436-10.531,8.22-7.888,3.381-16.3,5.439-23.988,9.3a27.92,27.92,0,0,0-13.132,12.9" transform="translate(-29.602 -11.76)" fill="#34bf6c"/>
    <path id="Path_6485" data-name="Path 6485" d="M173.906,85.041c-3.59,3.027-8.473,3.641-13.009,3.669-9.636-.195-19.257-1.661-28.9-.888-6.588.65-13.363,3.287-17.408,8.747-4.081,5.345-4.673,12.489-3.713,18.932,2.051-4.074,2.882-8.8,5.829-12.431,3.308-4.63,9.051-6.7,14.555-6.992,9.621-.368,19.264.9,28.871-.123,5.049-.578,10.257-2.051,14.085-5.555a19.04,19.04,0,0,0,5.692-12.619c-1.755,2.6-3.511,5.28-6,7.259" transform="translate(-30.676 -21.598)" fill="#34bf6c"/>
    <path id="Path_6486" data-name="Path 6486" d="M63.073,107.986a33.8,33.8,0,0,0-28.041,2.405c-7.714,4.442-14.613,10.192-22.457,14.4-3.828,2.116-8.278,2.5-12.576,2.3a17.736,17.736,0,0,0,11.687,5.331c6.963.34,13.652-2.261,19.9-5.07,5.634-2.464,10.654-6.3,16.664-7.866,10.864-3.013,22.638-.477,32.324,4.918-2.759-7.909-9.787-13.652-17.5-16.418" transform="translate(0 -29.433)" fill="#34bf6c"/>
    <path id="Path_6487" data-name="Path 6487" d="M188.873,143.924h-8.383v-5.007a13.8,13.8,0,0,0-.536-3.973,9.222,9.222,0,0,0-1.55-3.078,6.74,6.74,0,0,0-2.522-1.986,8.288,8.288,0,0,0-3.5-.7,11.644,11.644,0,0,0-3.893.617,7.9,7.9,0,0,0-3,1.867,8.291,8.291,0,0,0-1.926,3.179,13.757,13.757,0,0,0-.675,4.548,6.786,6.786,0,0,1-.2,1.609,5.614,5.614,0,0,1-.576,1.47,3.163,3.163,0,0,1-.954,1.052,2.285,2.285,0,0,1-1.331.4h-11.4a6.532,6.532,0,0,1-2.423-.4,16.853,16.853,0,0,1-2.106-1.032,13.378,13.378,0,0,0,2.781-3.219,6.608,6.608,0,0,0,.993-3.417,7.239,7.239,0,0,0-.536-2.8,6,6,0,0,0-1.63-2.244,8,8,0,0,0-2.721-1.51,11.8,11.8,0,0,0-3.814-.557,14.611,14.611,0,0,0-5.284.993,23.181,23.181,0,0,0-4.966,2.662l-.556,4.332a16.973,16.973,0,0,1,2.662,1.19,15.806,15.806,0,0,1,2.006,1.352,20.744,20.744,0,0,1,1.689,1.51q.8.8,1.669,1.629a18.1,18.1,0,0,1-7.469,1.51H114.384V119.333H109.3v24.592H73.029v-5.007a13.725,13.725,0,0,0-.6-4.249,8.492,8.492,0,0,0-1.669-3.04A6.908,6.908,0,0,0,68.2,129.8a8.489,8.489,0,0,0-3.277-.617,10.239,10.239,0,0,0-4.707.953,8.1,8.1,0,0,0-2.92,2.444,9.066,9.066,0,0,0-1.489,3.336,16.648,16.648,0,0,0-.418,3.675v8.3q0,3.057-1.291,4.369a5.094,5.094,0,0,1-3.794,1.31l-.318,4.331a13.917,13.917,0,0,0,3.854-.536,8.965,8.965,0,0,0,3.3-1.728,8.548,8.548,0,0,0,2.3-3.159,11.991,11.991,0,0,0,.874-4.867,2.73,2.73,0,0,0-.04-.436,2.122,2.122,0,0,0-.119-.437q-.08-.238-.159-.517a2.629,2.629,0,0,0,.855.735,6.508,6.508,0,0,0,1.311.576,10.757,10.757,0,0,0,1.569.378,9.537,9.537,0,0,0,1.589.139h63.92a20.663,20.663,0,0,0,5.343-.715,23.743,23.743,0,0,0,5.066-1.986,14.256,14.256,0,0,0,3.754,1.966,14.48,14.48,0,0,0,4.827.735h10.807v0a6.969,6.969,0,0,0,3.773-.871,4.678,4.678,0,0,0,1.907-2.543,4.163,4.163,0,0,0,.814,1.172,5.535,5.535,0,0,0,1.55,1.113,10.226,10.226,0,0,0,2.363.815,14.766,14.766,0,0,0,3.258.317h21.254V119.333h-5.085Zm-120.929,0H65.918a5.458,5.458,0,0,1-4.013-1.251q-1.232-1.254-1.232-4.55a6.754,6.754,0,0,1,.259-1.887,4.688,4.688,0,0,1,.754-1.549,3.942,3.942,0,0,1,1.193-1.053,3.038,3.038,0,0,1,1.529-.4,3.115,3.115,0,0,1,1.669.417,3.245,3.245,0,0,1,1.093,1.113,4.941,4.941,0,0,1,.6,1.588,9.358,9.358,0,0,1,.179,1.848Zm73.991-5.8a6.768,6.768,0,0,1-1.609,1.907q-.953-.953-1.729-1.748t-1.55-1.449a16.221,16.221,0,0,0-1.589-1.193,9.634,9.634,0,0,0-1.846-.934A13.009,13.009,0,0,1,135.9,133.5a7.23,7.23,0,0,1,2.761-.5,4.168,4.168,0,0,1,2.782.873,2.916,2.916,0,0,1,1.032,2.345,4.017,4.017,0,0,1-.536,1.906m33.47,5.8h-2.026q-2.941,0-4.092-1.331t-1.152-4.47a5.535,5.535,0,0,1,1.073-3.516,3.259,3.259,0,0,1,2.662-1.37,3.144,3.144,0,0,1,2.543,1.211,5.869,5.869,0,0,1,.993,3.755Z" transform="translate(-13.88 -33.136)" fill="#34bf6c"/>
    <path id="Path_6488" data-name="Path 6488" d="M259.464,119.457q-2.2.158-4.112.437v3.179q.872.078,1.807.138t1.649.14v24.71h5.085V119.379a40.957,40.957,0,0,0-4.43.079" transform="translate(-70.905 -33.141)" fill="#34bf6c"/>
    <path id="Path_6489" data-name="Path 6489" d="M104.321,212.9a5.99,5.99,0,0,1-2.244-1.271,4.4,4.4,0,0,1-1.172-1.809,6.418,6.418,0,0,1-.337-2.046,5.012,5.012,0,0,1,.4-2.025,4.481,4.481,0,0,1,1.092-1.549,4.937,4.937,0,0,1,1.57-.974,5.016,5.016,0,0,1,1.827-.338,8,8,0,0,1,2.046.238,14.921,14.921,0,0,1,1.688.557l.795-4.371a13.062,13.062,0,0,0-2.065-.5,14.175,14.175,0,0,0-2.265-.179,11.44,11.44,0,0,0-3.893.656,10.116,10.116,0,0,0-3.178,1.807,8.528,8.528,0,0,0-2.145,2.781,7.95,7.95,0,0,0-.8,3.536,9.942,9.942,0,0,0,.537,3.157,6.685,6.685,0,0,0,1.808,2.8H71.566v-.12a17.983,17.983,0,0,0-.735-5.006,13.864,13.864,0,0,0-2.4-4.688,14.9,14.9,0,0,0-4.39-3.714,18.006,18.006,0,0,0-6.734-2.085l-.4,4.33a14.922,14.922,0,0,1,4.986,2.146,11.307,11.307,0,0,1,2.92,2.92,9.228,9.228,0,0,1,1.37,3.2,14.977,14.977,0,0,1,.337,3.02H54.881v4.131H111.89v-4.131h-4.052a11.127,11.127,0,0,1-3.516-.477" transform="translate(-15.239 -54.914)" fill="#34bf6c"/>
    <path id="Path_6490" data-name="Path 6490" d="M213.063,209.924h-8.383v-5.007a13.8,13.8,0,0,0-.536-3.973,9.214,9.214,0,0,0-1.55-3.078,6.739,6.739,0,0,0-2.522-1.986,8.287,8.287,0,0,0-3.5-.7,11.663,11.663,0,0,0-3.893.616,7.9,7.9,0,0,0-3,1.866,8.3,8.3,0,0,0-1.927,3.179,13.76,13.76,0,0,0-.675,4.548,6.79,6.79,0,0,1-.2,1.609,5.626,5.626,0,0,1-.576,1.47,3.177,3.177,0,0,1-.954,1.052,2.284,2.284,0,0,1-1.33.4h-4.132v-6.755q0-2.621-.178-5.084t-.5-4.29l-5.126.675q.318,1.946.537,4.25t.217,5.165v6.039h-2.423q-2.821,0-2.821-3.1V195.781H164.6v7.9a14.107,14.107,0,0,1-.636,4.988,2.361,2.361,0,0,1-2.384,1.529,2.29,2.29,0,0,1-1.966-.954,5.35,5.35,0,0,1-.7-3.1V195.781h-5.085v7.9a10.745,10.745,0,0,1-.259,2.4,6.7,6.7,0,0,1-.774,1.986,4.021,4.021,0,0,1-1.311,1.352,3.452,3.452,0,0,1-1.867.5h-3.972V185.373a41.15,41.15,0,0,0-4.43.079q-2.2.159-4.112.438v3.178q.873.078,1.807.138t1.65.14v24.71h9.454a6.821,6.821,0,0,0,2.722-.536,4.7,4.7,0,0,0,2.166-2.245,6.078,6.078,0,0,0,2.444,2.4,6.75,6.75,0,0,0,3.158.775,5.943,5.943,0,0,0,3.258-.836,7.515,7.515,0,0,0,2.3-2.422,4.715,4.715,0,0,0,2.205,2.164,9.042,9.042,0,0,0,3.873.7h11.084v0a6.978,6.978,0,0,0,3.774-.871,4.68,4.68,0,0,0,1.907-2.544,4.16,4.16,0,0,0,.814,1.172,5.534,5.534,0,0,0,1.55,1.113,10.191,10.191,0,0,0,2.363.814,14.758,14.758,0,0,0,3.258.318h21.254V185.333h-5.085Zm-13.468,0H197.57q-2.941,0-4.092-1.332t-1.152-4.469a5.533,5.533,0,0,1,1.073-3.516,3.257,3.257,0,0,1,2.662-1.37,3.144,3.144,0,0,1,2.543,1.211,5.869,5.869,0,0,1,.993,3.755Z" transform="translate(-38.071 -51.463)" fill="#34bf6c"/>
    <path id="Path_6491" data-name="Path 6491" d="M259.464,185.457q-2.2.158-4.112.437v3.179q.872.078,1.807.138t1.649.14v24.71h5.085V185.379a40.945,40.945,0,0,0-4.43.079" transform="translate(-70.905 -51.468)" fill="#34bf6c"/>
  </g>
</svg>
