<?xml version="1.0" encoding="UTF-8"?>
<svg id="Layer_2" data-name="Layer 2" xmlns="http://www.w3.org/2000/svg" viewBox="0 0 280.02 117.96">
  <defs>
    <style>
      .cls-1 {
        fill: #34be6c;
      }
    </style>
  </defs>
  <g id="Layer_1-2" data-name="Layer 1">
    <g>
      <g>
        <g>
          <path class="cls-1" d="m95.12,65.73h-3.42v-2.96h3.42v-2.15c0-3.49,1.65-5.15,5.15-5.15h3.49v2.88h-3.11c-1.46,0-2.07.58-2.07,2.07v2.34h5.57v2.96h-5.53v17.78h-3.49v-17.78Z"/>
          <path class="cls-1" d="m107.6,78.52v-15.74h3.49v15.63c0,1.54.58,2.11,2.69,2.11,3.03,0,4.61-.69,6.64-2.07v-15.67h3.53v20.73h-3.53v-2.88c-1.8,1.8-3.34,3.07-7.03,3.07-4.15,0-5.8-1.65-5.8-5.18Z"/>
          <path class="cls-1" d="m130.79,78.36v-12.63h-3.07v-2.96h3.11v-4.99h3.46v4.99h4.95v2.96h-4.91v12.67c0,1.46.58,2.07,2.07,2.07h2.84v3.03h-3.3c-3.49,0-5.14-1.65-5.14-5.14Z"/>
          <path class="cls-1" d="m143.03,78.52v-15.74h3.49v15.63c0,1.54.58,2.11,2.69,2.11,3.03,0,4.61-.69,6.64-2.07v-15.67h3.53v20.73h-3.53v-2.88c-1.8,1.8-3.34,3.07-7.03,3.07-4.15,0-5.8-1.65-5.8-5.18Z"/>
          <path class="cls-1" d="m165.03,62.77h3.49v3.07c1.69-1.65,3.3-3.07,6.37-3.07h1.54v3.34h-1.84c-2.46,0-4.19.88-6.07,2.04v15.36h-3.49v-20.73Z"/>
          <path class="cls-1" d="m182.77,73.99v4.49c0,1.46.61,2.07,2.07,2.07h5.18c1.46,0,2.07-.61,2.07-2.07v-1.54h3.49v1.42c0,3.49-1.65,5.14-5.15,5.14h-6.03c-3.49,0-5.15-1.65-5.15-5.14v-10.44c0-3.5,1.65-5.15,5.15-5.15h6.03c3.49,0,5.15,1.65,5.15,5.15v6.07h-12.83Zm0-6.18v3.57h9.33v-3.57c0-1.46-.58-2.07-2.07-2.07h-5.18c-1.46,0-2.07.61-2.07,2.07Z"/>
          <path class="cls-1" d="m198.93,81.17l10.68-15.44h-10.21v-2.96h14.48v2.3l-10.67,15.47h10.67v2.96h-14.94v-2.34Z"/>
          <path class="cls-1" d="m217.47,78.36v-10.44c0-3.5,1.65-5.15,5.15-5.15h6.3c3.49,0,5.15,1.65,5.15,5.15v10.44c0,3.49-1.65,5.14-5.15,5.14h-6.3c-3.49,0-5.15-1.65-5.15-5.14Zm10.98,2.03c1.5,0,2.07-.61,2.07-2.07v-10.37c0-1.46-.58-2.07-2.07-2.07h-5.41c-1.46,0-2.07.61-2.07,2.07v10.37c0,1.46.61,2.07,2.07,2.07h5.41Z"/>
          <path class="cls-1" d="m238.82,78.36v-10.44c0-3.5,1.65-5.15,5.15-5.15h6.3c3.49,0,5.15,1.65,5.15,5.15v10.44c0,3.49-1.65,5.14-5.15,5.14h-6.3c-3.49,0-5.15-1.65-5.15-5.14Zm10.98,2.03c1.5,0,2.07-.61,2.07-2.07v-10.37c0-1.46-.58-2.07-2.07-2.07h-5.41c-1.46,0-2.07.61-2.07,2.07v10.37c0,1.46.61,2.07,2.07,2.07h5.41Z"/>
          <path class="cls-1" d="m260.62,62.77h3.49v2.88c1.8-1.8,3.34-3.07,7.03-3.07,4.19,0,5.84,1.65,5.84,5.18v15.74h-3.53v-15.63c0-1.54-.54-2.11-2.65-2.11-3.07,0-4.65.69-6.68,2.07v15.67h-3.49v-20.73Z"/>
        </g>
        <g>
          <path class="cls-1" d="m112.74,26.91c.44,2.41.66,4.65.66,6.75,0,1.86-.18,3.53-.54,5.01-.36,1.48-.96,2.74-1.81,3.77-.85,1.03-1.97,1.83-3.36,2.39-1.39.56-3.11.84-5.17.84-1.77,0-3.25-.22-4.44-.67-1.19-.45-2.15-1.09-2.87-1.91-.72-.83-1.23-1.83-1.54-3.02-.31-1.19-.46-2.53-.46-4.01,0-.83.05-1.69.15-2.58.1-.89.24-1.84.42-2.86h2.94c-.14.98-.25,1.88-.33,2.7-.08.83-.12,1.61-.12,2.35,0,1.24.12,2.28.35,3.14.23.86.61,1.55,1.12,2.08.51.53,1.18.91,2,1.14.82.23,1.81.35,2.98.35,1.37,0,2.53-.16,3.49-.48.96-.32,1.75-.84,2.36-1.55.61-.71,1.06-1.65,1.34-2.82.28-1.16.42-2.58.42-4.26,0-.9-.06-1.86-.17-2.88-.11-1.02-.27-2.18-.48-3.48h3.04Zm-7.65-4.49h-3.61v-3.53h3.61v3.53Z"/>
          <path class="cls-1" d="m116.88,40.79c1.4.57,2.67.97,3.79,1.2,1.12.23,2.22.34,3.29.34,1.3,0,2.35-.22,3.15-.64.8-.43,1.42-.98,1.87-1.66.45-.68.76-1.44.93-2.28s.27-1.69.29-2.53c-1.08.48-2.2.72-3.35.72-.86,0-1.69-.13-2.49-.4-.8-.27-1.51-.66-2.12-1.17-.61-.51-1.1-1.14-1.47-1.88s-.56-1.59-.56-2.56c0-.83.16-1.71.47-2.62.31-.92.74-1.76,1.3-2.54.55-.77,1.21-1.41,1.96-1.91.75-.5,1.57-.75,2.46-.75.94,0,1.79.27,2.56.82s1.51,1.37,2.21,2.48c.7,1.11,1.23,2.43,1.58,3.97.35,1.54.53,3.17.53,4.89,0,1.51-.17,2.95-.51,4.32-.34,1.37-.88,2.58-1.62,3.64-.74,1.05-1.7,1.89-2.89,2.52-1.18.62-2.62.94-4.31.94-1.18,0-2.33-.12-3.45-.37-1.12-.25-2.33-.67-3.63-1.27v-3.24Zm13.28-8.74c-.01-.33-.07-.71-.18-1.16-.1-.45-.24-.92-.42-1.41-.18-.49-.38-.97-.61-1.44-.23-.47-.5-.9-.79-1.29-.29-.38-.6-.69-.93-.93-.32-.23-.66-.35-1.01-.35-.38,0-.74.12-1.1.37-.36.25-.68.57-.97.96-.29.39-.52.83-.69,1.33-.18.49-.26.99-.26,1.48s.11.91.33,1.3c.22.38.52.71.89.96.37.26.8.46,1.28.61.48.14.98.21,1.5.21s1.01-.04,1.52-.13c.51-.08.99-.26,1.44-.52Z"/>
          <path class="cls-1" d="m133.55,41.57c1.61.51,3,.76,4.15.76s2.03-.2,2.79-.6c.75-.4,1.36-.95,1.8-1.65.45-.7.77-1.53.97-2.48s.29-1.98.29-3.1c0-.98-.06-1.93-.19-2.85s-.29-1.83-.49-2.71-.44-1.75-.7-2.6c-.27-.85-.54-1.69-.83-2.51h3.14c.34.85.64,1.73.9,2.65.26.92.48,1.85.66,2.78s.32,1.85.42,2.75c.1.9.15,1.76.15,2.56,0,1.79-.22,3.38-.66,4.76-.44,1.38-1.06,2.53-1.84,3.47s-1.72,1.65-2.81,2.13c-1.09.48-2.27.72-3.54.72-.66,0-1.35-.07-2.05-.22-.7-.14-1.42-.36-2.17-.66v-3.22Zm9.81-22.49h-3.61v-3.53h3.61v3.53Z"/>
          <path class="cls-1" d="m183.49,15.55v3.53h3.6v-3.53h-3.6Zm3.13-5.45v3.53h3.61v-3.53h-3.61Zm3.15,5.45v3.53h3.6v-3.53h-3.6Z"/>
          <path class="cls-1" d="m219.64,12.22v3.53h3.61v-3.53h-3.61Zm-6.28,0v3.53h3.61v-3.53h-3.61Z"/>
          <path class="cls-1" d="m219.98,20.4v8.8c0,.97-.09,1.82-.28,2.53-.17.72-.43,1.32-.75,1.82-.33.49-.7.9-1.13,1.21-.44.33-.91.57-1.42.73-.52.17-1.06.29-1.62.35-.57.07-1.14.1-1.74.1h-9.88c-1.21,0-2.18-.17-2.91-.54-.72-.35-1.29-.89-1.69-1.63h-.12c-.3.43-.64.78-1.01,1.05-.38.28-.78.5-1.21.66-.43.17-.87.29-1.34.35-.47.07-.92.1-1.4.1-.57,0-1.11-.05-1.62-.13-.52-.08-.99-.22-1.42-.41-.43-.17-.82-.42-1.15-.72-.34-.3-.62-.69-.85-1.14h-.08c-.34.45-.72.84-1.15,1.14-.42.3-.87.55-1.33.73-.47.2-.93.33-1.4.41-.47.07-.92.12-1.35.12-1.29,0-2.33-.21-3.11-.62-.77-.41-1.35-1-1.74-1.78h-.08c-.34.45-.72.84-1.14,1.14-.42.3-.86.55-1.32.73-.45.2-.91.33-1.37.41-.47.07-.91.12-1.34.12h-9.88c-.83,0-1.48-.12-1.96-.35-.48-.23-.89-.57-1.21-1l-.09.02c0,1.82-.22,3.43-.66,4.81-.44,1.37-1.05,2.53-1.83,3.46-.78.92-1.71,1.62-2.78,2.09-1.07.47-2.24.7-3.5.7-.66,0-1.35-.07-2.05-.21-.7-.15-1.42-.37-2.17-.66v-3.23c1.61.51,2.99.77,4.16.77,1.1,0,2.03-.2,2.78-.59.76-.4,1.35-.96,1.81-1.65.44-.7.77-1.53.97-2.47.2-.96.29-1.98.29-3.1,0-.98-.06-1.93-.19-2.85-.13-.92-.29-1.83-.49-2.71-.2-.87-.43-1.75-.7-2.6s-.55-1.69-.83-2.5h3.13c.38.97.71,1.98,1,3.02.28,1.05.51,2.09.7,3.15.08.45.21.85.38,1.19.19.34.43.62.75.84.31.22.7.38,1.18.49s1.05.15,1.72.15h9.66c.37,0,.78-.06,1.22-.17.43-.12.83-.31,1.2-.61.36-.28.66-.65.9-1.12.24-.47.36-1.04.36-1.72v-5.21h3.05v3.91c0,.85.03,1.58.1,2.2.07.62.22,1.12.45,1.53.23.41.57.7,1.01.9.44.2,1.04.29,1.78.29.47,0,.91-.05,1.35-.15.43-.1.82-.29,1.15-.57.33-.27.59-.64.79-1.11.21-.47.3-1.07.3-1.79v-5.21h3.04v3.86c0,.87.03,1.62.12,2.25.07.62.23,1.13.48,1.54.26.41.62.7,1.08.9.48.2,1.11.29,1.91.29.5,0,.96-.05,1.37-.14.41-.1.77-.29,1.07-.56.29-.28.52-.64.69-1.12.16-.47.24-1.07.24-1.81v-8.66h3.04v7.19c0,.87.05,1.63.12,2.26.08.64.24,1.18.5,1.6.26.42.62.73,1.1.93.47.21,1.11.3,1.92.3h9.65c.61,0,1.13-.05,1.6-.14.45-.1.84-.29,1.15-.56.31-.28.55-.64.71-1.12.15-.47.23-1.07.23-1.81v-8.66h3.04Z"/>
          <path class="cls-1" d="m251.4,38.88v3.53h3.6v-3.53h-3.6Zm-6.28,0v3.53h3.6v-3.53h-3.6Z"/>
          <path class="cls-1" d="m270.97,10v3.53h3.61v-3.53h-3.61Z"/>
          <path class="cls-1" d="m279.85,26.66c-.12-.58-.27-1.14-.45-1.68-.19-.54-.41-1.04-.65-1.53-.26-.48-.5-.93-.77-1.36-.7-1.14-1.43-1.98-2.21-2.52-.77-.54-1.62-.79-2.56-.79-.89,0-1.7.24-2.46.75-.75.5-1.41,1.14-1.96,1.91s-.98,1.62-1.29,2.54c-.31.91-.47,1.78-.47,2.62,0,.61.06,1.19.2,1.75.14.55.38,1.07.76,1.57.36.5.85.98,1.48,1.42.62.44,1.41.85,2.38,1.25l-.03.14c-.71-.02-1.43-.02-2.2-.03-.76-.01-1.44-.01-2.07-.01h-10.57c-.79,0-1.43-.09-1.91-.29-.49-.2-.85-.49-1.11-.9-.26-.41-.42-.92-.5-1.54-.07-.63-.12-1.37-.12-2.25v-7.3h-3.04v8.66c0,.69-.12,1.26-.36,1.72-.23.47-.54.84-.91,1.12-.36.29-.76.49-1.2.61-.43.12-.84.17-1.21.17h-6.65c-.09-1.41-.31-2.75-.65-3.98-.35-1.25-.82-2.33-1.4-3.27-.7-1.12-1.43-1.95-2.21-2.49-.77-.55-1.63-.82-2.56-.82s-1.7.24-2.46.75c-.76.5-1.41,1.14-1.96,1.91-.56.78-.99,1.62-1.29,2.54-.31.92-.48,1.79-.48,2.62,0,.97.17,1.82.54,2.55.35.75.85,1.37,1.51,1.89.66.51,1.47.9,2.42,1.17.94.27,2.02.41,3.22.41h2.28c-.06.49-.12.93-.19,1.33-.07.4-.14.72-.21.97-.15.57-.37,1.11-.66,1.6-.28.5-.66.93-1.13,1.3-.47.37-1.03.66-1.69.87-.66.22-1.44.33-2.34.33-1.07,0-2.17-.12-3.29-.34-1.13-.23-2.39-.63-3.8-1.21v3.24c1.3.61,2.5,1.03,3.62,1.27,1.12.24,2.27.37,3.46.37,1.51,0,2.83-.26,3.95-.78,1.11-.52,2.04-1.22,2.8-2.11.76-.89,1.33-1.91,1.74-3.09.41-1.18.65-2.42.76-3.75h6.48c.43,0,.87-.05,1.34-.12.45-.08.92-.21,1.37-.41.45-.19.89-.43,1.32-.73.42-.3.8-.69,1.14-1.14h.07c.4.78.98,1.37,1.76,1.78.78.41,1.82.62,3.12.62h10.82c.92,0,1.88-.01,2.85-.05.99-.02,1.95-.1,2.89-.24.94-.13,1.83-.35,2.67-.65.84-.29,1.57-.72,2.21-1.27.63-.56,1.13-1.26,1.49-2.11.37-.85.56-1.9.56-3.16,0-.62-.06-1.22-.17-1.81Zm-44.88,6.02c-1.76,0-3.04-.27-3.84-.8-.8-.52-1.21-1.28-1.21-2.26,0-.49.09-.98.27-1.48.17-.49.41-.93.7-1.33.28-.38.61-.71.96-.96.36-.24.73-.37,1.11-.37s.71.13,1.05.37.65.57.94.97c.28.4.55.85.79,1.35.23.5.44.99.61,1.49.17.49.3.99.4,1.5.09.5.16,1.01.21,1.51h-1.97Zm41.71-2.21c-.19.5-.5.91-.92,1.22-1.18-.55-2.13-1.06-2.88-1.54-.76-.49-1.34-.94-1.76-1.37-.42-.42-.71-.85-.87-1.26s-.24-.82-.24-1.23c0-.49.08-.99.26-1.48.17-.5.41-.94.7-1.33.28-.4.61-.71.97-.96.35-.24.72-.37,1.1-.37.34,0,.68.1,1,.31.31.21.63.49.92.84s.56.75.82,1.2c.24.44.45.91.64,1.39.17.47.31.94.42,1.4.09.47.14.89.14,1.26,0,.78-.09,1.42-.28,1.92Z"/>
        </g>
      </g>
      <g>
        <g>
          <g>
            <path class="cls-1" d="m31,22.37c-.28-.24-.62-.38-.96-.4-.57.37-1.14.75-1.7,1.14-.21.62-.03,1.33.49,1.78.69.6,1.74.52,2.34-.17.6-.69.52-1.74-.17-2.34Zm2.25,3.02c-.7-.6-1.74-.52-2.34.17-.6.69-.52,1.74.17,2.34.69.6,1.74.52,2.34-.17.6-.69.52-1.74-.17-2.34Zm1.48-5.23c-.29-.25-.67-.36-1.03-.32-.29.15-.58.31-.87.47-.47.56-.41,1.4.15,1.88.56.48,1.41.42,1.89-.14.48-.56.42-1.41-.14-1.89Zm1.04,8.51c-.69-.6-1.74-.52-2.34.17-.6.69-.52,1.74.17,2.34.69.6,1.74.52,2.34-.17.6-.7.52-1.74-.17-2.34Zm1.1-5.43c-.56-.48-1.41-.42-1.89.14-.48.56-.42,1.41.14,1.89.56.48,1.41.42,1.89-.14s.42-1.41-.14-1.89Zm1.34-4.71c-.4-.35-1.02-.3-1.36.1-.35.4-.3,1.01.1,1.36.4.35,1.02.3,1.36-.1.35-.4.3-1.01-.1-1.36Zm.54,8.46c-.56-.48-1.41-.42-1.89.14s-.42,1.41.14,1.89,1.41.42,1.89-.14.42-1.41-.14-1.89Zm1.22-4.66c-.4-.35-1.01-.3-1.36.1s-.3,1.01.1,1.36c.4.35,1.01.3,1.36-.1.35-.4.3-1.01-.1-1.36Zm1.1-4.74c-.33-.29-.84-.25-1.12.08-.29.33-.25.83.08,1.12.33.29.84.25,1.12-.08.29-.33.25-.83-.08-1.12Zm.33,8.59c-.4-.35-1.01-.3-1.36.1-.35.4-.3,1.02.1,1.36s1.01.3,1.36-.1.3-1.02-.1-1.36Zm.99-4.71c-.33-.29-.83-.25-1.12.08-.29.33-.25.83.08,1.12.33.29.83.25,1.12-.08.29-.33.25-.83-.08-1.12Zm.86-4.31c-.24-.21-.61-.19-.83.06-.21.24-.19.61.06.83.24.21.61.19.83-.06.21-.24.19-.61-.06-.83Zm.44,8.24c-.33-.29-.84-.25-1.12.08-.29.33-.25.83.08,1.12.33.29.84.25,1.12-.08.29-.33.25-.83-.08-1.12Zm.49-4.22c-.24-.21-.61-.19-.83.06-.21.24-.18.61.06.83.25.21.61.18.83-.06.21-.25.19-.61-.06-.83Zm.9-4.35c-.2-.17-.5-.15-.68.05-.17.2-.15.5.05.68.2.17.5.15.68-.05.17-.2.15-.5-.05-.68Zm.4,8.21c-.25-.21-.61-.19-.83.06-.21.24-.19.61.06.83.24.21.61.18.83-.06.21-.25.18-.61-.06-.83Zm.52-4.24c-.2-.17-.5-.15-.68.05-.17.2-.15.5.05.68.2.17.5.15.68-.05.17-.2.15-.5-.05-.68Zm.63-4.11c-.17-.15-.42-.13-.57.04-.15.17-.13.42.04.57.17.15.42.13.57-.04.15-.17.13-.42-.04-.57Zm.29,8.04c-.2-.17-.5-.15-.68.05-.17.2-.15.5.05.68.2.17.5.15.68-.05.17-.2.15-.5-.05-.68Zm.92-8.11c-.13-.11-.32-.09-.43.03-.11.13-.09.32.03.43.13.11.32.09.43-.03.11-.13.09-.32-.03-.43Zm.03,3.98c-.17-.15-.42-.13-.57.04-.15.17-.13.42.04.57.17.15.42.13.57-.04.15-.17.13-.42-.04-.57Zm.87-4.03c-.09-.08-.23-.07-.31.02-.08.09-.07.23.02.31.09.08.23.07.31-.02.08-.09.07-.23-.02-.31Zm-.56,7.87c-.17-.15-.42-.13-.57.04-.15.17-.13.42.04.57.17.15.42.13.57-.04.15-.17.13-.42-.04-.57Zm.85-3.98c-.13-.11-.32-.09-.43.03-.11.13-.09.32.03.43.13.11.32.1.43-.03.11-.13.09-.32-.03-.43Zm.47-3.9c-.07-.06-.18-.05-.24.02-.06.07-.05.18.02.24.07.06.18.05.24-.02.06-.07.05-.18-.02-.25Zm-.31,7.8c-.13-.11-.32-.1-.43.03-.11.13-.09.32.03.43.13.11.32.09.43-.03.11-.13.09-.32-.03-.43Zm1.01-7.81c-.05-.05-.14-.04-.19.01-.05.06-.04.14.01.19s.14.04.19-.01c.05-.06.04-.14-.01-.19Zm-.33,3.86c-.09-.08-.23-.07-.31.02-.08.09-.07.23.02.31.09.08.23.07.31-.02.08-.09.07-.23-.02-.31Zm.17,3.92c-.09-.08-.23-.07-.31.02-.08.09-.07.23.02.31.09.08.23.07.31-.02.08-.09.07-.23-.02-.31Zm.77-7.76s-.11-.04-.16.01c-.04.05-.03.11.01.16.04.04.11.03.16-.01.04-.04.03-.11-.01-.15Zm-.28,3.79c-.07-.06-.18-.05-.25.02-.06.07-.05.18.02.24.07.06.18.05.25-.02.06-.07.05-.18-.02-.25Zm.66-3.83s-.08.04-.08.08c0,.05.04.08.08.08s.08-.04.08-.08c0-.05-.04-.08-.08-.08Zm-.48,7.73c-.07-.06-.18-.05-.24.02-.06.07-.05.18.02.24.07.06.18.05.24-.02.06-.07.05-.18-.02-.24Zm.47-3.83c-.05-.05-.14-.04-.19.01-.05.05-.04.14.01.19.06.05.14.04.19-.01.05-.06.04-.14-.01-.19Zm.43-3.8s-.07.03-.07.07c0,.04.03.07.07.07.04,0,.07-.03.07-.07s-.03-.07-.06-.07Zm-.34,7.67c-.06-.05-.14-.04-.19.01-.05.05-.04.14.01.19.05.05.14.04.19-.01.05-.05.04-.14-.01-.19Zm.35-3.79s-.11-.04-.16.01c-.04.05-.03.11.01.16.04.04.11.03.15-.01.04-.05.04-.12-.01-.16Zm.44-3.84s-.05-.02-.07,0c-.02.02-.02.05,0,.07.02.02.05.02.07,0,.02-.02.02-.05,0-.07Zm-.17,3.85s-.08.04-.08.08c0,.04.04.08.08.08.05,0,.08-.04.08-.08,0-.05-.04-.08-.08-.08Zm-.25,3.77s-.12-.03-.16.01c-.04.04-.03.11.01.15.05.04.12.04.16-.01.04-.04.03-.11-.01-.16Zm.74-7.61s-.04-.01-.05,0c-.01.02-.01.04,0,.05.02.01.04.01.05,0,.01-.02.01-.04,0-.05Zm-.19,3.85s-.07.03-.07.07.03.07.07.07c.04,0,.07-.03.07-.07,0-.04-.03-.07-.07-.07Zm-.23,3.73s-.08.04-.08.08c0,.05.04.08.08.08s.08-.04.08-.08c0-.05-.04-.08-.08-.08Zm.57-3.7s-.05-.02-.07,0c-.02.02-.02.05,0,.07.02.02.05.02.07,0,.02-.02.02-.05,0-.07Zm-.25,3.7s-.07.03-.07.07c0,.04.03.07.07.07.04,0,.07-.03.07-.07s-.03-.07-.07-.07Zm.53-3.68s-.04-.01-.05,0c-.01.02-.01.04,0,.05.02.01.04.01.05,0,.01-.02.01-.04,0-.05Zm-.22,3.71s-.05-.02-.07,0c-.02.02-.02.05,0,.07.02.02.05.02.07,0,.02-.02.02-.05,0-.07Zm.23-.03s-.04-.01-.05,0c-.01.02-.01.04,0,.05.02.01.04.01.05,0,.01-.02.01-.04,0-.05Zm-27.29.94c-.22.18-.45.37-.67.56-9.56,8.07-15.5,19.3-16.77,31.71l10.83.92c1.1-10.13,6.22-18.9,13.63-24.87l-7.02-8.32Z"/>
            <g>
              <path class="cls-1" d="m68.55,81.48c-6.98,3.94-15.28,5.66-23.79,4.35-2.02-.31-3.98-.78-5.86-1.39l-2.69,10.55c2.24.69,4.54,1.22,6.9,1.58,11.18,1.72,22.35-.5,31.92-6.26l-6.47-8.82Z"/>
              <path class="cls-1" d="m36.59,83.6h0c-.39-.15-.76-.32-1.14-.48-.86-.01-1.59.63-1.68,1.49-.09.91.58,1.72,1.49,1.81.91.09,1.72-.57,1.81-1.49.05-.52-.14-1-.48-1.34Z"/>
              <path class="cls-1" d="m34.35,87.08c-.91-.09-1.72.58-1.81,1.49-.09.91.57,1.72,1.49,1.81.91.09,1.73-.57,1.82-1.49.09-.91-.58-1.73-1.49-1.82Z"/>
              <path class="cls-1" d="m33.17,90.66c-.91-.09-1.72.57-1.81,1.49-.05.46.1.89.37,1.21.49.21.99.4,1.49.59h0c.75-.09,1.37-.7,1.45-1.48.09-.91-.58-1.72-1.49-1.81Z"/>
              <path class="cls-1" d="m33.35,83.42c.07-.74-.47-1.39-1.2-1.47-.74-.07-1.39.46-1.47,1.2-.07.74.47,1.39,1.2,1.47.74.07,1.39-.46,1.47-1.2Z"/>
              <path class="cls-1" d="m30.16,85.64c-.74-.07-1.39.47-1.47,1.2-.07.74.47,1.4,1.2,1.47.74.07,1.4-.47,1.47-1.2.07-.74-.46-1.39-1.2-1.47Z"/>
              <path class="cls-1" d="m28.87,89.16c-.74-.07-1.39.47-1.47,1.2-.05.48.16.93.52,1.2t0,0c.13.07.25.13.38.2t0,0c.09.03.19.05.29.06.74.07,1.39-.47,1.47-1.2.07-.74-.47-1.39-1.2-1.47Z"/>
              <path class="cls-1" d="m29.35,82.51c.53.05,1.01-.33,1.06-.87.05-.53-.34-1-.87-1.06-.53-.05-1,.34-1.06.87-.05.53.34,1.01.87,1.06Z"/>
              <path class="cls-1" d="m27.22,83.97c-.53-.05-1,.34-1.06.87s.34,1.01.87,1.06c.53.05,1.01-.34,1.06-.87.05-.53-.33-1-.87-1.06Z"/>
              <path class="cls-1" d="m27.24,80.89c.44.04.83-.28.87-.72.04-.44-.28-.82-.71-.87s-.83.28-.87.71.28.83.71.87Z"/>
              <path class="cls-1" d="m25.13,87.6c-.53-.05-1.01.34-1.06.87-.05.53.33,1.01.87,1.06.53.05,1-.34,1.06-.87.05-.53-.34-1-.87-1.06Z"/>
              <path class="cls-1" d="m25.73,79.4c.32.03.61-.2.64-.52.03-.32-.2-.61-.53-.64-.32-.03-.61.2-.64.53-.03.32.2.61.52.64Z"/>
              <path class="cls-1" d="m25.65,83.5c.04-.44-.28-.83-.71-.87-.44-.04-.83.28-.87.71-.04.44.28.83.71.87.44.04.83-.28.87-.71Z"/>
              <path class="cls-1" d="m25.09,77.85c.02-.26-.17-.5-.43-.52-.26-.03-.5.17-.53.43-.03.26.17.5.43.53.26.02.5-.17.52-.43Z"/>
              <path class="cls-1" d="m23.43,81.52c-.32-.03-.61.2-.64.53-.03.32.2.61.53.64.32.03.61-.2.64-.52.03-.32-.2-.61-.52-.64Z"/>
              <path class="cls-1" d="m22.52,85.96c-.44-.04-.82.28-.87.71-.04.44.28.83.72.87.43.04.82-.28.87-.71.04-.44-.28-.82-.71-.87Z"/>
              <path class="cls-1" d="m23.53,77.33c.22.02.42-.14.44-.36.02-.22-.14-.42-.36-.44-.22-.02-.42.14-.44.36-.02.22.14.42.36.44Z"/>
              <path class="cls-1" d="m22.85,75.85c-.17-.02-.32.11-.33.27s.11.32.27.33c.17.02.32-.11.33-.27s-.11-.32-.27-.33Z"/>
              <path class="cls-1" d="m21.97,80.34c-.26-.03-.5.17-.53.43-.02.26.17.5.43.52.26.03.5-.17.53-.43.03-.26-.17-.5-.43-.53Z"/>
              <path class="cls-1" d="m20.68,84.6c-.32-.03-.61.2-.64.53-.03.32.2.61.52.64.32.03.61-.2.64-.52.03-.32-.2-.61-.53-.64Z"/>
              <path class="cls-1" d="m22.2,75.67c.12.01.23-.08.24-.2s-.08-.23-.2-.24c-.12-.01-.23.08-.24.2s.08.23.2.24Z"/>
              <path class="cls-1" d="m21.73,75.12c.1.01.18-.06.19-.16,0-.1-.06-.18-.16-.19-.1-.01-.18.06-.19.16s.06.18.16.19Z"/>
              <path class="cls-1" d="m20.65,79c-.22-.02-.42.14-.44.36-.02.22.14.42.36.44.22.02.42-.14.44-.36.02-.22-.14-.42-.36-.44Z"/>
              <path class="cls-1" d="m21.4,74.59c.07,0,.14-.04.15-.12,0-.07-.05-.14-.12-.15-.07,0-.14.04-.15.12,0,.07.05.14.12.15Z"/>
              <path class="cls-1" d="m21.16,74.27c.06,0,.11-.04.12-.1,0-.06-.04-.11-.1-.12-.06,0-.12.04-.12.1,0,.06.04.12.1.12Z"/>
              <path class="cls-1" d="m19.24,83.38c-.26-.03-.5.17-.52.43-.03.26.17.5.43.53.26.03.5-.17.52-.43.03-.26-.17-.5-.43-.52Z"/>
              <path class="cls-1" d="m20.97,73.93s.04-.08.02-.11c-.03-.04-.08-.04-.11-.02-.04.03-.04.08-.02.11.03.04.08.04.11.02Z"/>
              <path class="cls-1" d="m20.69,73.55s-.04.06-.02.09c.02.03.06.04.09.02.03-.02.04-.06.02-.09-.02-.03-.06-.04-.09-.02Z"/>
              <path class="cls-1" d="m20.03,78.55c.01-.17-.11-.32-.27-.33-.17-.02-.32.11-.33.27-.02.17.11.32.27.33.17.02.32-.11.33-.27Z"/>
              <path class="cls-1" d="m20.52,73.37s.02.05.04.06c.03,0,.05-.02.06-.04,0-.03-.02-.05-.04-.06s-.05.02-.06.04Z"/>
              <path class="cls-1" d="m20.37,73.2s.01.04.04.04c.02,0,.04-.01.04-.04,0-.02-.01-.04-.04-.04-.02,0-.04.01-.04.03Z"/>
              <path class="cls-1" d="m19.14,77.64c-.12-.01-.23.08-.24.2s.07.23.2.24c.12.01.23-.08.24-.2s-.07-.23-.2-.24Z"/>
              <path class="cls-1" d="m18.17,82.26c-.22-.02-.42.14-.44.36-.02.22.14.42.36.44.22.02.42-.14.44-.36.02-.22-.14-.42-.36-.44Z"/>
              <path class="cls-1" d="m18.82,77.35c.01-.1-.06-.18-.16-.19s-.18.06-.19.16c-.01.1.06.18.16.19.1.01.18-.06.19-.16Z"/>
              <path class="cls-1" d="m18.32,76.63c-.07,0-.14.05-.15.12,0,.07.05.14.12.15.07,0,.14-.05.15-.12s-.05-.14-.12-.15Z"/>
              <path class="cls-1" d="m17.3,81.4c-.17-.02-.32.11-.33.27-.02.17.11.32.27.33s.32-.11.33-.27-.11-.32-.27-.33Z"/>
              <path class="cls-1" d="m18.2,76.36c0-.06-.04-.12-.1-.12-.06,0-.12.04-.12.1,0,.06.04.12.1.12.06,0,.11-.04.12-.1Z"/>
              <path class="cls-1" d="m17.95,76.13s.05-.08.02-.12c-.03-.04-.08-.04-.11-.02-.04.03-.05.08-.02.12.03.04.08.05.12.02Z"/>
              <path class="cls-1" d="m17.69,75.77s-.04.06-.02.09c.02.03.06.04.09.02.03-.02.04-.06.02-.09-.02-.03-.06-.04-.09-.02Z"/>
              <path class="cls-1" d="m16.65,80.77c-.12-.01-.23.08-.24.2-.01.12.08.23.2.24.12.01.23-.08.24-.2s-.08-.23-.2-.24Z"/>
              <path class="cls-1" d="m17.61,75.58s-.02-.05-.04-.06c-.03,0-.05.02-.06.04,0,.03.02.05.04.06.03,0,.05-.02.06-.04Z"/>
              <path class="cls-1" d="m17.43,75.34s-.01-.04-.03-.04c-.02,0-.04.01-.04.04,0,.02.01.04.04.04.02,0,.04-.01.04-.04Z"/>
              <path class="cls-1" d="m16.15,80.2c-.1-.01-.18.06-.19.16,0,.1.06.18.16.19.1.01.18-.06.19-.16,0-.1-.06-.18-.16-.19Z"/>
              <path class="cls-1" d="m15.69,79.67c-.07,0-.14.05-.15.12,0,.07.04.14.12.15.07,0,.14-.05.15-.12,0-.07-.04-.14-.12-.15Z"/>
              <path class="cls-1" d="m15.34,79.17c-.06,0-.12.04-.12.1,0,.06.04.11.1.12.06,0,.12-.04.12-.1,0-.06-.04-.11-.1-.12Z"/>
              <path class="cls-1" d="m14.99,78.87s-.05.08-.02.11c.03.04.08.05.12.02.04-.03.05-.08.02-.12-.03-.04-.08-.05-.11-.02Z"/>
              <path class="cls-1" d="m14.84,78.5s-.04.06-.02.09c.02.03.06.04.09.02.03-.02.04-.06.02-.09-.02-.03-.06-.04-.09-.02Z"/>
              <path class="cls-1" d="m14.64,78.15s-.05.02-.06.04c0,.03.02.05.05.06.03,0,.05-.02.05-.04,0-.03-.02-.05-.04-.06Z"/>
              <path class="cls-1" d="m14.46,77.89s-.04.01-.04.04c0,.02.01.04.04.04.02,0,.04-.01.04-.04,0-.02-.01-.04-.04-.04Z"/>
            </g>
          </g>
          <g>
            <path class="cls-1" d="m10.36,18.21c.74-.49.95-1.49.46-2.24-.37-.56-1.03-.82-1.65-.7-.45.49-.88.99-1.31,1.5-.02.34.07.68.27.98.49.74,1.49.95,2.23.46Zm2.64,2.54c.74-.49.95-1.49.46-2.24-.49-.74-1.49-.95-2.24-.46-.74.49-.95,1.49-.46,2.24.49.74,1.49.95,2.24.46Zm-5.65.69c.6-.4.76-1.21.37-1.81-.4-.6-1.2-.76-1.79-.38-.19.26-.38.52-.56.79-.08.34-.03.71.18,1.03.4.6,1.21.76,1.81.37Zm8.51,2.15c.74-.49.95-1.49.46-2.24-.49-.74-1.49-.95-2.23-.46-.74.49-.95,1.49-.46,2.23.49.74,1.49.95,2.24.46Zm-5.8.29c.6-.4.77-1.21.37-1.81-.4-.6-1.21-.77-1.81-.37-.6.4-.76,1.21-.37,1.81.4.6,1.21.77,1.81.37Zm-5.22.6c.43-.29.55-.87.27-1.3-.29-.43-.87-.55-1.3-.27-.43.29-.55.87-.27,1.3.29.43.87.55,1.3.27Zm8.6,1.67c.6-.4.77-1.21.37-1.81s-1.21-.77-1.81-.37-.77,1.21-.37,1.81,1.21.76,1.81.37Zm-5.15.5c.43-.29.55-.87.27-1.3-.29-.43-.87-.55-1.3-.27s-.55.87-.27,1.3c.29.43.87.55,1.3.27Zm-4.94.42c.36-.23.45-.71.22-1.07-.24-.35-.72-.45-1.07-.22-.36.23-.45.71-.22,1.07.24.35.71.45,1.07.22Zm8.48,1.43c.43-.29.55-.87.27-1.3s-.87-.55-1.3-.27c-.43.29-.55.87-.27,1.3.29.43.87.55,1.3.27Zm-4.89.33c.36-.24.46-.71.22-1.07-.24-.36-.71-.45-1.07-.22-.36.24-.45.72-.22,1.07.24.36.72.46,1.07.22Zm-4.55.24c.26-.17.34-.53.16-.79-.17-.26-.53-.33-.79-.16-.26.17-.33.53-.16.79.17.26.53.33.79.16Zm8.17,1.51c.36-.23.46-.71.22-1.07-.24-.35-.71-.45-1.07-.22-.36.23-.45.71-.22,1.07.24.35.72.45,1.07.22Zm-4.41-.1c.26-.17.33-.52.16-.79-.17-.26-.53-.33-.79-.16-.26.17-.34.53-.16.79.17.26.52.34.79.16Zm-4.45.3c.21-.14.27-.43.13-.65-.14-.22-.43-.27-.65-.13-.22.14-.27.43-.13.65.14.21.43.27.65.13Zm8.01,1.43c.26-.17.33-.53.16-.79-.17-.26-.53-.34-.79-.16-.26.17-.34.52-.16.79.17.26.52.33.79.16Zm-4.29-.05c.22-.14.27-.43.13-.65-.14-.21-.43-.27-.65-.13-.21.14-.27.43-.13.65.14.22.43.27.65.13Zm-4.14.07c.18-.12.23-.36.11-.54-.12-.18-.36-.23-.54-.11-.18.12-.23.36-.11.54.12.18.36.23.55.11Zm7.82,1.3c.22-.14.27-.43.13-.65-.14-.22-.43-.27-.65-.13-.22.14-.27.43-.13.65.14.22.43.27.65.13Zm-8.18-.17c.14-.09.17-.27.09-.41-.09-.14-.27-.17-.41-.08-.14.09-.17.27-.08.41.09.14.27.17.41.09Zm3.97.55c.18-.12.23-.36.11-.54-.12-.18-.36-.23-.54-.11-.18.12-.23.36-.11.54.12.18.36.23.54.11Zm-4.24.29c.1-.07.12-.2.06-.3-.07-.1-.2-.12-.3-.06-.1.07-.12.2-.06.3.07.1.2.12.3.06Zm7.9.49c.18-.12.23-.36.11-.54-.12-.18-.36-.23-.54-.11-.18.12-.23.36-.11.54.12.18.36.23.54.11Zm-4.08.3c.14-.09.17-.27.08-.41-.09-.13-.27-.17-.41-.08-.14.09-.17.27-.08.41.09.14.27.17.41.09Zm-3.99-.07c.08-.05.1-.16.05-.23-.05-.08-.15-.1-.23-.05-.08.05-.1.16-.05.23.05.08.16.1.23.05Zm7.73.71c.14-.09.17-.27.08-.41-.09-.13-.27-.17-.41-.08-.14.09-.17.27-.08.41.09.14.27.17.41.09Zm-7.89-.04c.06-.04.07-.12.04-.18s-.12-.08-.18-.04c-.06.04-.08.12-.04.18.04.06.12.08.18.04Zm3.88.18c.1-.07.13-.2.06-.3-.07-.1-.2-.12-.3-.06-.1.07-.12.2-.06.3.06.1.2.12.3.06Zm3.77.66c.1-.07.12-.2.06-.3-.07-.1-.2-.13-.3-.06-.1.07-.12.2-.06.3s.2.13.3.06Zm-7.73-.25c.05-.03.06-.1.03-.15-.03-.05-.1-.06-.15-.03-.05.03-.06.1-.03.15.03.05.1.06.15.03Zm3.78.22c.08-.05.1-.16.05-.23-.05-.08-.15-.1-.23-.05-.08.05-.1.16-.05.23.05.08.16.1.23.05Zm-3.94.2s.09-.02.09-.07-.02-.08-.07-.09c-.04,0-.09.02-.09.07s.02.09.07.09Zm7.68.45c.08-.05.1-.16.05-.23-.05-.08-.16-.1-.23-.05-.08.05-.1.16-.05.23.05.08.16.1.23.05Zm-3.81-.03c.06-.04.07-.12.04-.18-.04-.06-.12-.08-.18-.04-.06.04-.08.12-.04.18.04.06.12.08.18.04Zm-3.84-.03s.07-.02.07-.06c0-.04-.02-.07-.06-.07-.04,0-.07.02-.07.06,0,.04.02.07.06.07Zm7.56.6c.06-.04.08-.12.04-.18-.04-.06-.12-.08-.18-.04-.06.04-.08.12-.04.18.04.06.12.08.18.04Zm-3.73-.14s.06-.1.03-.15c-.03-.05-.1-.06-.15-.03-.05.03-.06.1-.03.15.03.05.1.06.15.03Zm-3.84-.06s.03-.05.01-.07c-.01-.02-.04-.03-.07-.01-.02.01-.03.04-.01.07.02.02.05.03.07.01Zm3.74.39s.08-.02.09-.07c0-.04-.02-.08-.07-.09-.04,0-.09.02-.09.07,0,.04.02.08.07.09Zm3.75.17c.05-.03.06-.1.03-.15-.03-.05-.1-.06-.15-.03-.05.03-.06.1-.03.15.03.05.1.06.15.03Zm-7.53-.25s.02-.03.01-.05c-.01-.02-.04-.02-.05-.01-.02.01-.02.04-.01.05.01.02.03.02.05.01Zm3.74.35s.07-.02.07-.06c0-.04-.02-.07-.06-.07s-.07.02-.07.06c0,.04.02.07.06.07Zm3.64.26s.09-.02.09-.07-.02-.08-.07-.09c-.04,0-.09.02-.09.07s.02.09.07.09Zm-3.64.01s.03-.05.01-.07c-.01-.02-.05-.03-.07-.02-.02.02-.03.05-.01.07.01.02.05.03.07.01Zm3.59.28s.07-.02.07-.06c0-.04-.02-.07-.06-.07-.04,0-.07.02-.07.06,0,.04.02.07.06.07Zm-3.62,0s.02-.04.01-.05c-.01-.02-.03-.02-.05-.01-.02.01-.02.03-.01.05s.03.02.05.01Zm3.62.25s.03-.04.01-.07c-.01-.02-.05-.03-.07-.01-.02.02-.03.05-.01.07.01.02.05.03.07.01Zm-.07.21s.02-.03.01-.05c-.01-.02-.03-.02-.05-.01-.02,0-.02.04-.01.05,0,.02.04.02.05,0Zm11.39-18.41c6.67-6.41,15.77-10.26,25.67-10.06L44.84.02c-12.13-.31-23.7,4.02-32.66,12.24-.21.19-.41.38-.62.58l7.15,7.8Z"/>
            <path class="cls-1" d="m9.09,33.54c.22-.14.27-.43.13-.65-.14-.22-.43-.27-.65-.13-.22.14-.27.43-.13.65.14.22.43.27.65.13Z"/>
            <path class="cls-1" d="m9.7,32.22c.26-.17.33-.53.16-.79-.17-.26-.53-.34-.79-.16-.26.17-.34.52-.16.79.17.26.52.33.79.16Z"/>
            <path class="cls-1" d="m10.54,30.6c.36-.23.46-.71.22-1.07-.24-.35-.71-.45-1.07-.22-.36.23-.45.71-.22,1.07.24.35.72.45,1.07.22Z"/>
            <path class="cls-1" d="m11.81,28.52c.43-.29.55-.87.27-1.3s-.87-.55-1.3-.27c-.43.29-.55.87-.27,1.3.29.43.87.55,1.3.27Z"/>
            <path class="cls-1" d="m13.43,26.16c.6-.4.77-1.21.37-1.81s-1.21-.77-1.81-.37-.77,1.21-.37,1.81,1.21.76,1.81.37Z"/>
            <path class="cls-1" d="m10.05,23.89c.6-.4.77-1.21.37-1.81-.4-.6-1.21-.77-1.81-.37-.6.4-.76,1.21-.37,1.81.4.6,1.21.77,1.81.37Z"/>
            <path class="cls-1" d="m15.85,23.6c.74-.49.95-1.49.46-2.24-.49-.74-1.49-.95-2.23-.46-.74.49-.95,1.49-.46,2.23.49.74,1.49.95,2.24.46Z"/>
            <path class="cls-1" d="m13,20.76c.74-.49.95-1.49.46-2.24-.49-.74-1.49-.95-2.24-.46-.74.49-.95,1.49-.46,2.24.49.74,1.49.95,2.24.46Z"/>
            <path class="cls-1" d="m10.36,18.21c.74-.49.95-1.49.46-2.24-.37-.56-1.03-.82-1.65-.7-.2.04-.4.12-.58.24-.44.29-.7.77-.72,1.26-.02.34.07.68.27.98.49.74,1.49.95,2.23.46Z"/>
            <line class="cls-1" x1="11.56" y1="12.83" x2="18.71" y2="20.63"/>
          </g>
          <g>
            <path class="cls-1" d="m19.42,109.15c10.87,7.01,23.72,9.98,36.71,8.39,2.74-.33,5.42-.86,8.04-1.58l-2.73-12.31c-2.2.64-4.48,1.11-6.83,1.4-9.9,1.21-19.44-1.08-27.38-5.89l-7.81,9.98Z"/>
            <path class="cls-1" d="m63.53,104.3c.07,1.06.99,1.86,2.05,1.79,1.06-.07,1.86-.99,1.79-2.05-.07-1-.9-1.78-1.89-1.79-.44.18-.89.35-1.34.52h0c-.41.38-.65.93-.6,1.53Z"/>
            <path class="cls-1" d="m64.82,108.93c.07,1.06.99,1.86,2.05,1.79,1.06-.07,1.86-.99,1.79-2.04-.07-1.06-.99-1.86-2.05-1.79s-1.86.99-1.79,2.05Z"/>
            <path class="cls-1" d="m66.05,113.11c.06.91.75,1.63,1.62,1.77h0c.59-.2,1.17-.41,1.74-.63.32-.37.51-.86.47-1.39-.07-1.06-.99-1.86-2.04-1.79-1.06.07-1.86.99-1.79,2.05Z"/>
            <path class="cls-1" d="m69.54,104.12c.85-.06,1.5-.8,1.45-1.65-.06-.86-.8-1.5-1.66-1.45-.85.06-1.5.8-1.44,1.65.06.86.8,1.5,1.65,1.45Z"/>
            <path class="cls-1" d="m70.05,107.02c.06.85.8,1.5,1.65,1.45.85-.06,1.5-.8,1.45-1.66-.06-.85-.8-1.5-1.65-1.44-.86.06-1.5.8-1.45,1.65Z"/>
            <path class="cls-1" d="m71.42,111.14c.06.86.8,1.5,1.65,1.45.12,0,.23-.03.34-.06t0,0c.15-.07.3-.15.45-.22t0,0c.42-.3.69-.81.65-1.37-.06-.86-.8-1.5-1.65-1.45-.86.06-1.5.8-1.45,1.65Z"/>
            <path class="cls-1" d="m73.59,100.58c-.04-.62-.58-1.08-1.19-1.04-.62.04-1.08.58-1.04,1.19.04.62.58,1.08,1.19,1.04.62-.04,1.08-.57,1.04-1.19Z"/>
            <path class="cls-1" d="m73.92,104.73c.04.62.57,1.08,1.19,1.04.62-.04,1.08-.58,1.04-1.19s-.58-1.08-1.19-1.04c-.62.04-1.08.58-1.04,1.19Z"/>
            <path class="cls-1" d="m75.91,98.99c-.03-.51-.47-.89-.98-.86s-.89.47-.86.98c.03.51.47.89.98.86.51-.04.89-.47.86-.98Z"/>
            <path class="cls-1" d="m76.21,109c.04.62.58,1.08,1.19,1.04.62-.04,1.08-.58,1.04-1.19-.04-.62-.57-1.08-1.19-1.04-.62.04-1.08.58-1.04,1.19Z"/>
            <path class="cls-1" d="m77.48,97.58c-.03-.37-.35-.66-.72-.63-.37.03-.66.35-.63.72.03.37.35.65.72.63.37-.03.65-.35.63-.72Z"/>
            <path class="cls-1" d="m77.78,103.91c.51-.03.89-.47.86-.98-.03-.51-.47-.89-.98-.86-.51.03-.89.47-.86.98.03.51.47.89.98.86Z"/>
            <path class="cls-1" d="m78.24,97.05c.31-.02.54-.29.52-.59-.02-.3-.29-.54-.59-.52-.3.02-.54.29-.52.59.02.31.29.54.59.52Z"/>
            <path class="cls-1" d="m78.81,101.56c.03.37.35.65.72.63.37-.03.66-.35.63-.72-.03-.37-.35-.66-.72-.63-.37.03-.65.35-.63.72Z"/>
            <path class="cls-1" d="m79.47,106.98c.03.51.47.89.98.86.51-.03.89-.47.86-.98-.04-.51-.47-.89-.98-.86s-.89.47-.86.98Z"/>
            <path class="cls-1" d="m79.91,95.49c-.02-.26-.24-.45-.5-.43-.26.02-.45.24-.43.5.02.26.24.45.5.43.26-.02.45-.24.44-.5Z"/>
            <path class="cls-1" d="m79.99,94.67c.01.19.18.34.37.33.19-.01.34-.18.33-.37s-.18-.34-.37-.33c-.19.01-.34.18-.33.37Z"/>
            <path class="cls-1" d="m80.66,100.12c.02.3.29.54.59.52.3-.02.54-.29.52-.59-.02-.31-.29-.54-.59-.52-.3.02-.54.29-.52.59Z"/>
            <path class="cls-1" d="m81.87,105.22c.03.37.35.65.72.63.37-.03.65-.35.63-.72-.03-.37-.35-.66-.72-.63-.37.03-.66.35-.63.72Z"/>
            <path class="cls-1" d="m81.3,93.84c0-.14-.13-.25-.27-.24-.14,0-.25.13-.24.27s.13.25.27.24.25-.13.24-.27Z"/>
            <path class="cls-1" d="m81.82,93.28c0-.11-.1-.2-.21-.19-.11,0-.2.1-.19.21,0,.11.1.2.22.19s.2-.1.19-.21Z"/>
            <path class="cls-1" d="m82.31,98.52c.02.26.24.45.5.43.26-.02.45-.24.43-.5-.02-.26-.24-.45-.5-.43-.26.02-.45.24-.43.5Z"/>
            <path class="cls-1" d="m82.18,92.73c0-.09-.08-.15-.16-.14-.09,0-.15.08-.14.16,0,.09.08.15.16.14.09,0,.15-.08.14-.16Z"/>
            <path class="cls-1" d="m82.44,92.39c0-.07-.07-.12-.14-.12-.07,0-.12.07-.12.14,0,.07.07.12.14.12.07,0,.12-.07.12-.14Z"/>
            <path class="cls-1" d="m83.7,103.73c.02.31.28.54.59.52.31-.02.54-.29.52-.59-.02-.3-.28-.54-.59-.52-.31.02-.54.29-.52.59Z"/>
            <path class="cls-1" d="m82.69,92.12s.03-.1-.02-.13c-.04-.03-.1-.03-.13.02-.03.04-.03.1.02.13.04.03.1.03.13-.02Z"/>
            <path class="cls-1" d="m82.78,91.73s-.02.08.02.11c.04.03.08.02.11-.02.02-.03.02-.08-.02-.11-.04-.03-.08-.02-.11.02Z"/>
            <path class="cls-1" d="m83.86,97.85c.19-.01.34-.18.33-.37-.01-.19-.18-.34-.37-.33-.19.01-.34.18-.33.37.01.19.18.34.38.33Z"/>
            <path class="cls-1" d="m83.03,91.46s-.05.03-.05.06c0,.03.03.05.06.05.03,0,.05-.03.05-.06,0-.03-.03-.05-.06-.05Z"/>
            <path class="cls-1" d="m83.23,91.28s-.04.02-.04.05c0,.02.02.05.05.04.03,0,.04-.02.04-.05,0-.02-.02-.04-.05-.04Z"/>
            <path class="cls-1" d="m84.31,96.77c0,.14.13.25.27.24.14,0,.25-.13.24-.27s-.13-.25-.27-.24-.25.13-.24.27Z"/>
            <path class="cls-1" d="m85.07,102.38c.02.26.24.45.5.43.26-.02.45-.24.43-.5-.02-.26-.24-.45-.5-.44-.26.02-.45.24-.44.5Z"/>
            <path class="cls-1" d="m85.13,96.37c.11,0,.2-.1.19-.21,0-.11-.1-.2-.21-.19s-.2.1-.19.21c0,.11.1.2.21.19Z"/>
            <path class="cls-1" d="m85.39,95.52c0,.09.08.15.16.14.09,0,.15-.08.14-.16,0-.09-.08-.15-.17-.14-.08,0-.15.08-.14.16Z"/>
            <path class="cls-1" d="m86.2,101.29c.01.19.18.34.37.33s.34-.18.33-.37c-.01-.19-.18-.34-.37-.33-.19.01-.34.18-.33.37Z"/>
            <path class="cls-1" d="m85.81,95.18c.07,0,.12-.07.12-.14,0-.07-.07-.12-.14-.12-.07,0-.12.07-.12.14,0,.07.07.12.14.12Z"/>
            <path class="cls-1" d="m86.11,94.79s.02-.1-.02-.13c-.04-.03-.1-.02-.13.02-.03.04-.03.1.02.13.04.03.1.03.13-.02Z"/>
            <path class="cls-1" d="m86.18,94.41s-.02.08.02.11c.04.03.08.02.11-.02.02-.03.02-.08-.02-.11-.04-.03-.08-.02-.11.02Z"/>
            <path class="cls-1" d="m87.07,100.48c0,.14.13.25.27.24.14,0,.25-.13.24-.27,0-.14-.13-.25-.27-.24-.14,0-.25.13-.24.27Z"/>
            <path class="cls-1" d="m86.45,94.23s.05-.03.05-.06c0-.03-.03-.05-.06-.05-.03,0-.05.03-.05.06,0,.03.03.05.06.05Z"/>
            <path class="cls-1" d="m86.65,93.94s.05-.02.04-.05c0-.03-.02-.04-.05-.04-.02,0-.04.02-.04.05,0,.03.02.04.05.04Z"/>
            <path class="cls-1" d="m87.72,99.78c0,.11.1.19.22.19.11,0,.19-.1.19-.21,0-.11-.1-.19-.22-.19-.11,0-.19.1-.19.21Z"/>
            <path class="cls-1" d="m88.31,99.14c0,.08.08.15.16.14.09,0,.15-.08.14-.16,0-.09-.08-.15-.16-.14-.09,0-.15.08-.14.17Z"/>
            <path class="cls-1" d="m88.77,98.55c0,.07.07.12.14.12.07,0,.12-.07.12-.14,0-.07-.07-.12-.14-.12-.07,0-.12.07-.12.14Z"/>
            <path class="cls-1" d="m89.17,98.09s-.03.1.02.13c.04.03.1.02.13-.02.03-.04.02-.1-.02-.13-.04-.03-.1-.03-.13.02Z"/>
            <path class="cls-1" d="m89.39,97.66s-.02.08.02.11c.03.03.08.02.11-.02.03-.03.02-.08-.02-.11-.03-.02-.08-.02-.11.02Z"/>
            <path class="cls-1" d="m89.68,97.31s.03.05.06.05c.03,0,.06-.03.06-.06,0-.03-.03-.05-.06-.05-.03,0-.06.03-.05.06Z"/>
            <path class="cls-1" d="m89.91,97s.02.05.05.04c.03,0,.04-.02.04-.05,0-.02-.02-.04-.05-.04-.02,0-.04.02-.04.05Z"/>
          </g>
        </g>
        <path class="cls-1" d="m45.71,39.31h21.9v6.54h-14.36v6.18h11.49v6.45h-11.49v12.63h-7.54v-31.8Z"/>
      </g>
    </g>
  </g>
</svg>