<svg width="25" height="25" viewBox="0 0 25 25" fill="none" xmlns="http://www.w3.org/2000/svg">
<path d="M12.5 2.5C9.88 2.5 7.75 4.63 7.75 7.25C7.75 9.82 9.76 11.9 12.38 11.99C12.46 11.98 12.54 11.98 12.6 11.99C12.62 11.99 12.63 11.99 12.65 11.99C12.66 11.99 12.66 11.99 12.67 11.99C15.23 11.9 17.24 9.82 17.25 7.25C17.25 4.63 15.12 2.5 12.5 2.5Z" fill="#1D4787"/>
<path d="M17.58 14.6499C14.79 12.7899 10.24 12.7899 7.42996 14.6499C6.15996 15.4999 5.45996 16.6499 5.45996 17.8799C5.45996 19.1099 6.15996 20.2499 7.41996 21.0899C8.81996 22.0299 10.66 22.4999 12.5 22.4999C14.34 22.4999 16.18 22.0299 17.58 21.0899C18.84 20.2399 19.54 19.0999 19.54 17.8599C19.53 16.6299 18.84 15.4899 17.58 14.6499Z" fill="#1D4787"/>
</svg>
