<svg width="29" height="29" viewBox="0 0 29 29" fill="none" xmlns="http://www.w3.org/2000/svg">
<path fill-rule="evenodd" clip-rule="evenodd" d="M0.341797 14.3394C0.341797 8.85206 0.341797 6.1084 1.69447 4.13222C2.2985 3.24976 3.08031 2.49402 3.9932 1.91012C6.03752 0.602539 8.87579 0.602539 14.5523 0.602539C20.2289 0.602539 23.0671 0.602539 25.1115 1.91012C26.0243 2.49402 26.8061 3.24976 27.4102 4.13222C28.7628 6.1084 28.7628 8.85206 28.7628 14.3394C28.7628 19.8267 28.7628 22.5704 27.4102 24.5465C26.8061 25.429 26.0243 26.1847 25.1115 26.7686C23.0671 28.0762 20.2289 28.0762 14.5523 28.0762H14.5523H14.5523C8.87578 28.0762 6.03752 28.0762 3.9932 26.7686C3.08031 26.1847 2.2985 25.429 1.69447 24.5465C0.341797 22.5704 0.341797 19.8267 0.341797 14.3394ZM21.9092 14.3393C21.9092 18.267 18.6154 21.451 14.5522 21.451C10.4891 21.451 7.19527 18.267 7.19527 14.3393C7.19527 10.4116 10.4891 7.22756 14.5522 7.22756C18.6154 7.22756 21.9092 10.4116 21.9092 14.3393ZM14.5522 19.0449C17.2407 19.0449 19.4201 16.9381 19.4201 14.3393C19.4201 11.7404 17.2407 9.63366 14.5522 9.63366C11.8638 9.63366 9.68433 11.7404 9.68433 14.3393C9.68433 16.9381 11.8638 19.0449 14.5522 19.0449ZM22.1994 8.54131C23.1541 8.54131 23.928 7.79316 23.928 6.87027C23.928 5.94737 23.1541 5.19922 22.1994 5.19922C21.2447 5.19922 20.4707 5.94737 20.4707 6.87027C20.4707 7.79316 21.2447 8.54131 22.1994 8.54131Z" fill="#1D4787"/>
</svg>
