<svg width="15" height="15" viewBox="0 0 15 15" fill="none" xmlns="http://www.w3.org/2000/svg">
<path d="M13.0511 10.9285C13.6989 9.87312 14.041 8.65866 14.0393 7.42037C14.041 6.18203 13.6989 4.96737 13.0511 3.91198L13.0475 3.90609C12.4465 2.92653 11.6044 2.11746 10.6015 1.55619C9.59868 0.994913 8.46865 0.700195 7.31943 0.700195C6.1702 0.700195 5.04018 0.994913 4.03734 1.55619C3.03449 2.11746 2.19234 2.92653 1.59136 3.90609L1.58774 3.91198C0.941557 4.96808 0.599609 6.18212 0.599609 7.42022C0.599609 8.65832 0.941557 9.87236 1.58774 10.9285L1.59151 10.9345C2.19252 11.914 3.03467 12.723 4.0375 13.2843C5.04034 13.8455 6.17034 14.1402 7.31954 14.1402C8.46875 14.1402 9.59874 13.8455 10.6016 13.2842C11.6044 12.7229 12.4465 11.9139 13.0475 10.9343L13.0511 10.9285ZM8.17836 12.9884C8.05029 13.1119 7.90287 13.2138 7.74195 13.2898C7.6099 13.3525 7.46554 13.3851 7.31935 13.3851C7.17316 13.3851 7.0288 13.3525 6.89675 13.2898C6.59059 13.1334 6.32851 12.9028 6.13446 12.619C5.73819 12.0463 5.44453 11.4091 5.26661 10.7358C5.95018 10.6937 6.63445 10.6722 7.31943 10.6714C8.0041 10.6714 8.68842 10.6929 9.37239 10.7358C9.27389 11.0819 9.15086 11.4206 9.00423 11.7493C8.81115 12.2116 8.53074 12.6323 8.17836 12.9884ZM1.36772 7.79774H4.07818C4.09584 8.55405 4.17783 9.30748 4.32326 10.0499C3.58231 10.1151 2.84328 10.2047 2.10615 10.3187C1.67445 9.54422 1.42211 8.68273 1.36772 7.79774ZM2.10615 4.52191C2.84297 4.63607 3.58226 4.72567 4.32402 4.7907C4.17833 5.53303 4.09618 6.28642 4.07848 7.0427H1.36772C1.42213 6.15776 1.67448 5.29633 2.10615 4.52191ZM6.46049 1.85207C6.58856 1.72848 6.73598 1.62667 6.8969 1.55066C7.02895 1.48792 7.17331 1.45537 7.3195 1.45537C7.4657 1.45537 7.61005 1.48792 7.7421 1.55066C8.04826 1.70704 8.31034 1.93766 8.50439 2.22144C8.90067 2.79412 9.19432 3.43136 9.37224 4.10467C8.68867 4.14675 8.0044 4.16819 7.31943 4.169C6.63475 4.169 5.95043 4.14756 5.26646 4.10467C5.36496 3.7585 5.48799 3.41979 5.63462 3.0911C5.8277 2.62884 6.10811 2.20815 6.46049 1.85207ZM13.2711 7.0427H10.5607C10.543 6.28639 10.461 5.53296 10.3156 4.79055C11.0565 4.72532 11.7956 4.63572 12.5327 4.52176C12.9644 5.29622 13.2167 6.15771 13.2711 7.0427ZM5.08269 9.99114C4.93504 9.2688 4.85166 8.5348 4.83352 7.79774H9.80548C9.78751 8.53483 9.70428 9.26889 9.55677 9.99129C8.8118 9.94237 8.06601 9.9174 7.31943 9.91639C6.57344 9.91639 5.82786 9.94131 5.08269 9.99114ZM9.55617 4.84929C9.7038 5.57164 9.78719 6.30564 9.80533 7.0427H4.83352C4.85149 6.3056 4.93472 5.57155 5.08223 4.84914C5.82721 4.89807 6.57299 4.92304 7.31958 4.92404C8.06556 4.92404 8.81114 4.89908 9.55632 4.84914L9.55617 4.84929ZM10.5604 7.79774H13.2711C13.2167 8.68267 12.9644 9.54411 12.5327 10.3185C11.7958 10.2044 11.0565 10.1148 10.3148 10.0497C10.4605 9.30741 10.5427 8.55402 10.5604 7.79774ZM12.08 3.82696C11.4357 3.91989 10.7895 3.99348 10.1415 4.04774C10.025 3.61405 9.87481 3.19013 9.69223 2.77987C9.5255 2.40236 9.31572 2.04537 9.06705 1.71601C10.2687 2.08457 11.3232 2.82339 12.08 3.82696ZM3.10175 3.20239C3.7911 2.51239 4.63918 2.00202 5.57165 1.71601C5.55746 1.73444 5.54296 1.75195 5.52907 1.77053C5.04976 2.46047 4.70063 3.23223 4.49889 4.04774C3.85076 3.99287 3.20414 3.91928 2.55903 3.82696C2.72538 3.60656 2.90672 3.39788 3.10175 3.20239ZM2.55903 11.0135C3.20323 10.9206 3.8494 10.847 4.49753 10.7927C4.61399 11.2264 4.76419 11.6503 4.94678 12.0606C5.11351 12.4381 5.32329 12.7951 5.57195 13.1244C4.37028 12.7559 3.31578 12.017 2.55903 11.0135ZM11.5374 11.638C10.8481 12.3281 9.99998 12.8384 9.0675 13.1244C9.0817 13.106 9.0962 13.0885 9.11009 13.0699C9.58939 12.38 9.93853 11.6082 10.1403 10.7927C10.7884 10.8476 11.435 10.9212 12.0801 11.0135C11.9138 11.2339 11.7324 11.4426 11.5374 11.638Z" fill="#BABEC6"/>
</svg>
