<svg width="16" height="17" viewBox="0 0 16 17" fill="none" xmlns="http://www.w3.org/2000/svg">
<path d="M7.99992 9.9463C6.57992 9.9463 5.41992 8.79297 5.41992 7.3663C5.41992 5.93964 6.57992 4.79297 7.99992 4.79297C9.41992 4.79297 10.5799 5.9463 10.5799 7.37297C10.5799 8.79964 9.41992 9.9463 7.99992 9.9463ZM7.99992 5.79297C7.13326 5.79297 6.41992 6.49964 6.41992 7.37297C6.41992 8.2463 7.12659 8.95297 7.99992 8.95297C8.87326 8.95297 9.57992 8.2463 9.57992 7.37297C9.57992 6.49964 8.86659 5.79297 7.99992 5.79297Z" fill="#BABEC6"/>
<path d="M8.00012 15.673C7.01345 15.673 6.02012 15.2997 5.24678 14.5597C3.28012 12.6663 1.10678 9.64634 1.92678 6.05301C2.66678 2.79301 5.51345 1.33301 8.00012 1.33301C8.00012 1.33301 8.00012 1.33301 8.00678 1.33301C10.4935 1.33301 13.3401 2.79301 14.0801 6.05967C14.8934 9.65301 12.7201 12.6663 10.7534 14.5597C9.98012 15.2997 8.98678 15.673 8.00012 15.673ZM8.00012 2.33301C6.06012 2.33301 3.56678 3.36634 2.90678 6.27301C2.18678 9.41301 4.16012 12.1197 5.94678 13.833C7.10012 14.9463 8.90678 14.9463 10.0601 13.833C11.8401 12.1197 13.8134 9.41301 13.1068 6.27301C12.4401 3.36634 9.94012 2.33301 8.00012 2.33301Z" fill="#BABEC6"/>
</svg>
