<svg width="143" height="120" viewBox="0 0 143 120" fill="none" xmlns="http://www.w3.org/2000/svg">
<path d="M18.5315 32.0271C18.5554 32.8293 19.1775 34.6252 18.352 35.1759L0 44.6344V41.7609L18.5195 32.0271H18.5315Z" fill="#171A44"/>
<path d="M18.5315 61.8748C18.5315 62.8087 18.5315 63.9102 18.5315 64.844L0 74.2905V71.3213L18.5195 61.8628L18.5315 61.8748Z" fill="#171A44"/>
<path d="M18.5315 42.0361C18.5435 42.994 18.5435 44.0356 18.5315 45.0054L0 54.4518V51.4826L18.5195 42.0242L18.5315 42.0361Z" fill="#171A44"/>
<path d="M18.5315 47.0408C18.5435 48.0106 18.5435 49.0283 18.5315 50.01L0 59.4565V56.4872L18.5195 47.0288L18.5315 47.0408Z" fill="#171A44"/>
<path d="M18.5315 40.0007L0 49.4472V46.7533L18.5195 37.0195C18.6152 38.2647 18.5315 38.8394 18.5195 39.9887L18.5315 40.0007Z" fill="#171A44"/>
<path d="M18.5315 56.8705C18.6272 58.0678 18.5195 58.7981 18.5315 59.8397L0 69.2862V66.5923L18.5195 56.8585L18.5315 56.8705Z" fill="#171A44"/>
<path d="M18.3401 55.0147L0 64.4611V61.5877L18.5195 51.8539C18.5195 51.8539 18.699 52.0574 18.711 52.2969C18.7349 52.9554 18.8665 54.6196 18.3281 55.0027L18.3401 55.0147Z" fill="#171A44"/>
<path d="M18.5318 12.3796C18.5318 13.3614 18.5318 14.3551 18.5318 15.3489L3.15869 23.1311V20.4373L18.5318 12.3677V12.3796Z" fill="#171A44"/>
<path d="M18.5318 25.1668L3.15869 32.949V30.2551L18.5318 22.1855C18.5318 23.1673 18.5318 24.161 18.5318 25.1548V25.1668Z" fill="#171A44"/>
<path d="M18.5318 27.2019C18.5318 28.1837 18.5199 29.1774 18.5318 30.1711L3.15869 37.9534V35.2595L18.5318 27.1899V27.2019Z" fill="#171A44"/>
<path d="M18.3402 17.3843C18.3402 18.2942 18.3402 19.4316 18.3402 20.3535L3.14648 27.9562V25.1785L18.3402 17.3962V17.3843Z" fill="#171A44"/>
<path d="M20.3739 72.6262V73.7397L20.3021 73.7038H20.2782V75.368C19.692 75.2124 19.1297 74.5898 18.5315 74.6616C18.4956 74.6856 18.4717 74.6975 18.4358 74.7095C18.4358 74.7095 18.4238 74.7215 18.4238 74.7334C13.5188 77.6907 8.19501 80.5282 2.41663 83.1024C1.639 83.4376 0.873337 83.7728 0.107672 84.0961C0.0717811 83.2101 0.0358906 82.3241 0 81.4262C0 81.3184 12.8249 74.7574 18.2324 71.86C18.2803 71.8241 18.3281 71.7762 18.364 71.7283C18.3879 71.6804 18.4119 71.6445 18.4358 71.5966C18.6392 71.1775 18.5794 70.4951 18.5315 70.112C18.5076 69.9204 18.5794 69.8246 18.4358 69.8246C18.4119 69.8246 18.3879 69.8246 18.364 69.8366C18.3401 69.8366 18.2922 69.8366 18.2563 69.8486L0 79.295V76.4216L18.364 66.9632L18.4358 66.9272L18.5315 66.8793C18.5315 66.8793 18.711 67.0949 18.7229 67.3223V68.5076C18.711 69.5373 18.687 70.555 18.7468 71.5726C18.7588 71.6205 18.8067 71.6684 18.8784 71.7283C18.9024 71.7403 18.9263 71.7522 18.9502 71.7762C19.2852 72.0516 19.9791 72.4107 20.2782 72.5784C20.3021 72.5903 20.326 72.6023 20.35 72.6143C20.3619 72.6143 20.3739 72.6262 20.3739 72.6262Z" fill="#171A44"/>
<path d="M109.167 27.8128C108.725 28.0523 108.39 28.3756 108.15 28.7946C107.911 29.2136 107.792 29.6806 107.792 30.1954C107.792 30.7102 107.911 31.2011 108.138 31.6082C108.366 32.0153 108.677 32.3266 109.084 32.554C109.478 32.7695 109.933 32.8893 110.423 32.8893H110.639L111.213 31.6082H110.663C110.244 31.6082 109.921 31.4885 109.694 31.237C109.466 30.9856 109.359 30.6504 109.359 30.2313C109.359 29.2496 109.789 28.7707 110.663 28.7707C110.866 28.7707 111.081 28.7946 111.333 28.8425V30.83C111.333 31.4645 111.488 31.9674 111.811 32.3385C112.134 32.7097 112.601 32.8893 113.199 32.8893H113.857C113.857 32.8893 113.929 32.8773 113.941 32.8534C113.953 32.8294 113.965 32.8055 113.965 32.7815V31.7159C113.965 31.7159 113.965 31.6681 113.941 31.6441C113.929 31.6202 113.893 31.6082 113.857 31.6082H113.642C113.367 31.6082 113.163 31.5364 113.032 31.3807C112.888 31.2251 112.828 30.9617 112.828 30.5905V27.6931C111.907 27.5494 111.201 27.4776 110.711 27.4776C110.136 27.4776 109.622 27.5973 109.191 27.8248M108.88 26.6635H110.423V25.3105H108.88V26.6635ZM111.01 26.6635H112.553V25.3105H111.01V26.6635Z" fill="#5098C3"/>
<mask id="mask0_2120_6206" style="mask-type:luminance" maskUnits="userSpaceOnUse" x="107" y="25" width="7" height="8">
<path d="M109.167 27.8128C108.725 28.0523 108.39 28.3756 108.15 28.7946C107.911 29.2136 107.792 29.6806 107.792 30.1954C107.792 30.7102 107.911 31.2011 108.138 31.6082C108.366 32.0153 108.677 32.3266 109.084 32.554C109.478 32.7695 109.933 32.8893 110.423 32.8893H110.639L111.213 31.6082H110.663C110.244 31.6082 109.921 31.4885 109.694 31.237C109.466 30.9856 109.359 30.6504 109.359 30.2313C109.359 29.2496 109.789 28.7707 110.663 28.7707C110.866 28.7707 111.081 28.7946 111.333 28.8425V30.83C111.333 31.4645 111.488 31.9674 111.811 32.3385C112.134 32.7097 112.601 32.8893 113.199 32.8893H113.857C113.857 32.8893 113.929 32.8773 113.941 32.8534C113.953 32.8294 113.965 32.8055 113.965 32.7815V31.7159C113.965 31.7159 113.965 31.6681 113.941 31.6441C113.929 31.6202 113.893 31.6082 113.857 31.6082H113.642C113.367 31.6082 113.163 31.5364 113.032 31.3807C112.888 31.2251 112.828 30.9617 112.828 30.5905V27.6931C111.907 27.5494 111.201 27.4776 110.711 27.4776C110.136 27.4776 109.622 27.5973 109.191 27.8248M108.88 26.6635H110.423V25.3105H108.88V26.6635ZM111.01 26.6635H112.553V25.3105H111.01V26.6635Z" fill="white"/>
</mask>
<g mask="url(#mask0_2120_6206)">
<path d="M113.953 25.3104H107.78V32.8772H113.953V25.3104Z" fill="#5098C3"/>
</g>
<path d="M113.845 31.5962C113.845 31.5962 113.773 31.6082 113.761 31.6321C113.749 31.6561 113.737 31.68 113.737 31.7039V32.7695C113.737 32.7695 113.737 32.8174 113.761 32.8414C113.773 32.8653 113.809 32.8773 113.845 32.8773H115.233C115.233 32.8773 115.305 32.8653 115.316 32.8414C115.328 32.8174 115.34 32.7935 115.34 32.7695V31.7039C115.34 31.7039 115.34 31.6561 115.316 31.6321C115.305 31.6082 115.269 31.5962 115.233 31.5962H113.845Z" fill="#5098C3"/>
<mask id="mask1_2120_6206" style="mask-type:luminance" maskUnits="userSpaceOnUse" x="113" y="31" width="3" height="2">
<path d="M113.845 31.5962C113.845 31.5962 113.773 31.6082 113.761 31.6321C113.749 31.6561 113.737 31.68 113.737 31.7039V32.7695C113.737 32.7695 113.737 32.8174 113.761 32.8414C113.773 32.8653 113.809 32.8773 113.845 32.8773H115.233C115.233 32.8773 115.305 32.8653 115.316 32.8414C115.328 32.8174 115.34 32.7935 115.34 32.7695V31.7039C115.34 31.7039 115.34 31.6561 115.316 31.6321C115.305 31.6082 115.269 31.5962 115.233 31.5962H113.845Z" fill="white"/>
</mask>
<g mask="url(#mask1_2120_6206)">
<path d="M115.34 31.5962H113.737V32.8773H115.34V31.5962Z" fill="#5098C3"/>
</g>
<path d="M115.233 31.5962C115.233 31.5962 115.161 31.6082 115.149 31.6321C115.137 31.6561 115.125 31.68 115.125 31.7039V32.7695C115.125 32.7695 115.125 32.8174 115.149 32.8414C115.161 32.8653 115.197 32.8773 115.233 32.8773H116.62C116.62 32.8773 116.692 32.8653 116.704 32.8414C116.716 32.8174 116.728 32.7935 116.728 32.7695V31.7039C116.728 31.7039 116.728 31.6561 116.704 31.6321C116.692 31.6082 116.656 31.5962 116.62 31.5962H115.233Z" fill="#5098C3"/>
<mask id="mask2_2120_6206" style="mask-type:luminance" maskUnits="userSpaceOnUse" x="115" y="31" width="2" height="2">
<path d="M115.233 31.5962C115.233 31.5962 115.161 31.6082 115.149 31.6321C115.137 31.6561 115.125 31.68 115.125 31.7039V32.7695C115.125 32.7695 115.125 32.8174 115.149 32.8414C115.161 32.8653 115.197 32.8773 115.233 32.8773H116.62C116.62 32.8773 116.692 32.8653 116.704 32.8414C116.716 32.8174 116.728 32.7935 116.728 32.7695V31.7039C116.728 31.7039 116.728 31.6561 116.704 31.6321C116.692 31.6082 116.656 31.5962 116.62 31.5962H115.233Z" fill="white"/>
</mask>
<g mask="url(#mask2_2120_6206)">
<path d="M116.728 31.5962H115.125V32.8773H116.728V31.5962Z" fill="#5098C3"/>
</g>
<path d="M116.621 31.5962C116.621 31.5962 116.549 31.6082 116.537 31.6321C116.525 31.6561 116.513 31.68 116.513 31.7039V32.7695C116.513 32.7695 116.513 32.8174 116.537 32.8414C116.549 32.8653 116.585 32.8773 116.621 32.8773H118.009C118.009 32.8773 118.08 32.8653 118.092 32.8414C118.104 32.8174 118.116 32.7935 118.116 32.7695V31.7039C118.116 31.7039 118.116 31.6561 118.092 31.6321C118.08 31.6082 118.045 31.5962 118.009 31.5962H116.621Z" fill="#5098C3"/>
<mask id="mask3_2120_6206" style="mask-type:luminance" maskUnits="userSpaceOnUse" x="116" y="31" width="3" height="2">
<path d="M116.621 31.5962C116.621 31.5962 116.549 31.6082 116.537 31.6321C116.525 31.6561 116.513 31.68 116.513 31.7039V32.7695C116.513 32.7695 116.513 32.8174 116.537 32.8414C116.549 32.8653 116.585 32.8773 116.621 32.8773H118.009C118.009 32.8773 118.08 32.8653 118.092 32.8414C118.104 32.8174 118.116 32.7935 118.116 32.7695V31.7039C118.116 31.7039 118.116 31.6561 118.092 31.6321C118.08 31.6082 118.045 31.5962 118.009 31.5962H116.621Z" fill="white"/>
</mask>
<g mask="url(#mask3_2120_6206)">
<path d="M118.128 31.5959H116.525V32.877H118.128V31.5959Z" fill="#5098C3"/>
</g>
<path d="M121.478 24.6878L118.475 28.0042L119.049 29.2853H121.693C122.231 29.2853 122.638 29.3811 122.913 29.5846C123.189 29.7881 123.332 30.1234 123.332 30.5903C123.332 30.8657 123.26 31.189 123.129 31.584H118.02C118.02 31.584 117.948 31.596 117.937 31.62C117.925 31.6439 117.913 31.6679 117.913 31.6918V32.7574C117.913 32.7574 117.913 32.8053 117.937 32.8292C117.948 32.8532 117.984 32.8651 118.02 32.8651H124.205C124.361 32.5538 124.493 32.1707 124.636 31.7158C124.768 31.2608 124.839 30.8537 124.839 30.4706C124.839 29.6684 124.6 29.0458 124.11 28.6148C123.619 28.1838 122.913 27.9683 121.968 27.9683H120.018L123.308 24.6519H121.478V24.6878Z" fill="#5098C3"/>
<mask id="mask4_2120_6206" style="mask-type:luminance" maskUnits="userSpaceOnUse" x="117" y="24" width="8" height="9">
<path d="M121.478 24.6878L118.475 28.0042L119.049 29.2853H121.693C122.231 29.2853 122.638 29.3811 122.913 29.5846C123.189 29.7881 123.332 30.1234 123.332 30.5903C123.332 30.8657 123.26 31.189 123.129 31.584H118.02C118.02 31.584 117.948 31.596 117.937 31.62C117.925 31.6439 117.913 31.6679 117.913 31.6918V32.7574C117.913 32.7574 117.913 32.8053 117.937 32.8292C117.948 32.8532 117.984 32.8651 118.02 32.8651H124.205C124.361 32.5538 124.493 32.1707 124.636 31.7158C124.768 31.2608 124.839 30.8537 124.839 30.4706C124.839 29.6684 124.6 29.0458 124.11 28.6148C123.619 28.1838 122.913 27.9683 121.968 27.9683H120.018L123.308 24.6519H121.478V24.6878Z" fill="white"/>
</mask>
<g mask="url(#mask4_2120_6206)">
<path d="M124.828 24.6878H117.913V32.8891H124.828V24.6878Z" fill="#5098C3"/>
</g>
<path d="M126.407 27.5732V32.6018C126.407 32.949 126.359 33.2244 126.251 33.4159C126.144 33.6075 126 33.7512 125.797 33.835C125.593 33.9188 125.318 33.9906 124.971 34.0385L125.569 35.3794C126.251 35.2956 126.814 35.0442 127.244 34.6012C127.675 34.1582 127.89 33.4758 127.89 32.5539C128.261 32.7694 128.62 32.8771 128.967 32.8771C129.015 32.8771 129.039 32.8652 129.051 32.8412C129.063 32.8173 129.075 32.7933 129.075 32.7694V31.7038C129.075 31.7038 129.075 31.6679 129.051 31.644C129.039 31.62 129.003 31.5961 128.967 31.5961C128.477 31.5961 128.118 31.4404 127.89 31.1411V27.5732H126.395H126.407Z" fill="#5098C3"/>
<mask id="mask5_2120_6206" style="mask-type:luminance" maskUnits="userSpaceOnUse" x="124" y="27" width="6" height="9">
<path d="M126.407 27.5732V32.6018C126.407 32.949 126.359 33.2244 126.251 33.4159C126.144 33.6075 126 33.7512 125.797 33.835C125.593 33.9188 125.318 33.9906 124.971 34.0385L125.569 35.3794C126.251 35.2956 126.814 35.0442 127.244 34.6012C127.675 34.1582 127.89 33.4758 127.89 32.5539C128.261 32.7694 128.62 32.8771 128.967 32.8771C129.015 32.8771 129.039 32.8652 129.051 32.8412C129.063 32.8173 129.075 32.7933 129.075 32.7694V31.7038C129.075 31.7038 129.075 31.6679 129.051 31.644C129.039 31.62 129.003 31.5961 128.967 31.5961C128.477 31.5961 128.118 31.4404 127.89 31.1411V27.5732H126.395H126.407Z" fill="white"/>
</mask>
<g mask="url(#mask5_2120_6206)">
<path d="M129.086 27.5732H124.983V35.3794H129.086V27.5732Z" fill="#5098C3"/>
</g>
<path d="M128.99 31.5962C128.99 31.5962 128.919 31.6082 128.907 31.6321C128.895 31.6561 128.883 31.68 128.883 31.7039V32.7695C128.883 32.7695 128.883 32.8174 128.907 32.8414C128.919 32.8653 128.955 32.8773 128.99 32.8773H130.378C130.378 32.8773 130.45 32.8653 130.462 32.8414C130.474 32.8174 130.486 32.7935 130.486 32.7695V31.7039C130.486 31.7039 130.486 31.6561 130.462 31.6321C130.45 31.6082 130.414 31.5962 130.378 31.5962H128.99Z" fill="#5098C3"/>
<mask id="mask6_2120_6206" style="mask-type:luminance" maskUnits="userSpaceOnUse" x="128" y="31" width="3" height="2">
<path d="M128.99 31.5962C128.99 31.5962 128.919 31.6082 128.907 31.6321C128.895 31.6561 128.883 31.68 128.883 31.7039V32.7695C128.883 32.7695 128.883 32.8174 128.907 32.8414C128.919 32.8653 128.955 32.8773 128.99 32.8773H130.378C130.378 32.8773 130.45 32.8653 130.462 32.8414C130.474 32.8174 130.486 32.7935 130.486 32.7695V31.7039C130.486 31.7039 130.486 31.6561 130.462 31.6321C130.45 31.6082 130.414 31.5962 130.378 31.5962H128.99Z" fill="white"/>
</mask>
<g mask="url(#mask6_2120_6206)">
<path d="M130.486 31.5962H128.883V32.8773H130.486V31.5962Z" fill="#5098C3"/>
</g>
<path d="M130.378 31.5962C130.378 31.5962 130.306 31.6082 130.294 31.6321C130.282 31.6561 130.271 31.68 130.271 31.7039V32.7695C130.271 32.7695 130.271 32.8174 130.294 32.8414C130.306 32.8653 130.342 32.8773 130.378 32.8773H131.766C131.766 32.8773 131.838 32.8653 131.85 32.8414C131.862 32.8174 131.874 32.7935 131.874 32.7695V31.7039C131.874 31.7039 131.874 31.6561 131.85 31.6321C131.838 31.6082 131.802 31.5962 131.766 31.5962H130.378Z" fill="#5098C3"/>
<mask id="mask7_2120_6206" style="mask-type:luminance" maskUnits="userSpaceOnUse" x="130" y="31" width="2" height="2">
<path d="M130.378 31.5962C130.378 31.5962 130.306 31.6082 130.294 31.6321C130.282 31.6561 130.271 31.68 130.271 31.7039V32.7695C130.271 32.7695 130.271 32.8174 130.294 32.8414C130.306 32.8653 130.342 32.8773 130.378 32.8773H131.766C131.766 32.8773 131.838 32.8653 131.85 32.8414C131.862 32.8174 131.874 32.7935 131.874 32.7695V31.7039C131.874 31.7039 131.874 31.6561 131.85 31.6321C131.838 31.6082 131.802 31.5962 131.766 31.5962H130.378Z" fill="white"/>
</mask>
<g mask="url(#mask7_2120_6206)">
<path d="M131.874 31.5962H130.271V32.8773H131.874V31.5962Z" fill="#5098C3"/>
</g>
<path d="M131.766 31.5962C131.766 31.5962 131.694 31.6082 131.682 31.6321C131.67 31.6561 131.658 31.68 131.658 31.7039V32.7695C131.658 32.7695 131.658 32.8174 131.682 32.8414C131.694 32.8653 131.73 32.8773 131.766 32.8773H133.154C133.154 32.8773 133.225 32.8653 133.237 32.8414C133.249 32.8174 133.261 32.7935 133.261 32.7695V31.7039C133.261 31.7039 133.261 31.6561 133.237 31.6321C133.225 31.6082 133.19 31.5962 133.154 31.5962H131.766Z" fill="#5098C3"/>
<mask id="mask8_2120_6206" style="mask-type:luminance" maskUnits="userSpaceOnUse" x="131" y="31" width="3" height="2">
<path d="M131.766 31.5962C131.766 31.5962 131.694 31.6082 131.682 31.6321C131.67 31.6561 131.658 31.68 131.658 31.7039V32.7695C131.658 32.7695 131.658 32.8174 131.682 32.8414C131.694 32.8653 131.73 32.8773 131.766 32.8773H133.154C133.154 32.8773 133.225 32.8653 133.237 32.8414C133.249 32.8174 133.261 32.7935 133.261 32.7695V31.7039C133.261 31.7039 133.261 31.6561 133.237 31.6321C133.225 31.6082 133.19 31.5962 133.154 31.5962H131.766Z" fill="white"/>
</mask>
<g mask="url(#mask8_2120_6206)">
<path d="M133.261 31.5962H131.658V32.8773H133.261V31.5962Z" fill="#5098C3"/>
</g>
<path d="M141.062 27.1183V31.5961H140.404C140.045 31.5961 139.71 31.5123 139.411 31.3567C139.112 31.201 138.956 30.9735 138.932 30.6622V27.5733H137.437V30.3629C137.437 30.7341 137.341 31.0334 137.138 31.2609C136.934 31.4884 136.695 31.5961 136.408 31.5961H135.75V27.5733H134.254V31.5961H133.19C133.19 31.5961 133.118 31.6081 133.106 31.632C133.094 31.656 133.082 31.6799 133.082 31.7039V32.7694C133.082 32.7694 133.082 32.8173 133.106 32.8413C133.118 32.8652 133.154 32.8772 133.19 32.8772H136.863C137.509 32.8772 138.023 32.6377 138.418 32.1708C138.813 32.6377 139.399 32.8772 140.164 32.8772H142.593V27.1183H141.098H141.062ZM136.348 26.6634H137.891V25.3104H136.348V26.6634ZM138.49 26.6634H140.033V25.3104H138.49V26.6634ZM137.485 24.8794H138.872V23.6582H137.485V24.8794Z" fill="#5098C3"/>
<mask id="mask9_2120_6206" style="mask-type:luminance" maskUnits="userSpaceOnUse" x="133" y="23" width="10" height="10">
<path d="M141.062 27.1183V31.5961H140.404C140.045 31.5961 139.71 31.5123 139.411 31.3567C139.112 31.201 138.956 30.9735 138.932 30.6622V27.5733H137.437V30.3629C137.437 30.7341 137.341 31.0334 137.138 31.2609C136.934 31.4884 136.695 31.5961 136.408 31.5961H135.75V27.5733H134.254V31.5961H133.19C133.19 31.5961 133.118 31.6081 133.106 31.632C133.094 31.656 133.082 31.6799 133.082 31.7039V32.7694C133.082 32.7694 133.082 32.8173 133.106 32.8413C133.118 32.8652 133.154 32.8772 133.19 32.8772H136.863C137.509 32.8772 138.023 32.6377 138.418 32.1708C138.813 32.6377 139.399 32.8772 140.164 32.8772H142.593V27.1183H141.098H141.062ZM136.348 26.6634H137.891V25.3104H136.348V26.6634ZM138.49 26.6634H140.033V25.3104H138.49V26.6634ZM137.485 24.8794H138.872V23.6582H137.485V24.8794Z" fill="white"/>
</mask>
<g mask="url(#mask9_2120_6206)">
<path d="M142.557 23.6582H133.046V32.8772H142.557V23.6582Z" fill="#5098C3"/>
</g>
<path fill-rule="evenodd" clip-rule="evenodd" d="M20.2784 0V76.8169L18.4241 74.7336L18.3643 74.6618V5.54336L20.2784 0Z" fill="#4C9AC1"/>
<path fill-rule="evenodd" clip-rule="evenodd" d="M21.666 9.49405V78.6005L23.5802 80.7676V3.95068L21.666 9.49405Z" fill="#4C9AC1"/>
<path fill-rule="evenodd" clip-rule="evenodd" d="M24.9443 13.1342V82.2406L26.8585 84.4077V7.59082L24.9443 13.1342Z" fill="#4C9AC1"/>
<path fill-rule="evenodd" clip-rule="evenodd" d="M28.1265 16.5824V85.6889L30.0406 87.8559V11.0391L28.1265 16.5824Z" fill="#4C9AC1"/>
<path fill-rule="evenodd" clip-rule="evenodd" d="M31.8472 20.0424V89.1488L33.6895 91.3159V14.499L31.8472 20.0424Z" fill="#4C9AC1"/>
<path fill-rule="evenodd" clip-rule="evenodd" d="M36.9076 17.3486V94.1655L36.8837 94.1416L34.5029 91.9985V22.892L36.9076 17.3486Z" fill="#4C9AC1"/>
<path d="M36.5053 21.2935L19.8452 13.3374L18.856 15.4121L35.5161 23.3682L36.5053 21.2935Z" fill="#4C9AC1"/>
<path d="M36.2126 26.3537L19.7793 18.5059L18.7901 20.5805L35.2234 28.4284L36.2126 26.3537Z" fill="#4C9AC1"/>
<path d="M36.154 30.8962L19.3535 22.873L18.3643 24.9477L35.1647 32.9709L36.154 30.8962Z" fill="#4C9AC1"/>
<path d="M35.9412 35.4308L19.7778 27.7119L18.7886 29.7866L34.952 37.5055L35.9412 35.4308Z" fill="#4C9AC1"/>
<path d="M35.8387 40.4269L19.7725 32.7544L18.7832 34.829L34.8495 42.5016L35.8387 40.4269Z" fill="#4C9AC1"/>
<path d="M36.0282 44.9616L19.7676 37.1963L18.7783 39.2709L35.0389 47.0363L36.0282 44.9616Z" fill="#4C9AC1"/>
<path d="M36.0771 49.4783L19.9893 41.7954L19 43.8701L35.0878 51.5529L36.0771 49.4783Z" fill="#4C9AC1"/>
<path d="M35.9766 54.3194L19.7808 46.585L18.7915 48.6596L34.9873 56.394L35.9766 54.3194Z" fill="#4C9AC1"/>
<path d="M35.9844 59.1019L19.7778 51.3623L18.7886 53.437L34.9952 61.1765L35.9844 59.1019Z" fill="#4C9AC1"/>
<path d="M36.0316 64.446L19.771 56.6807L18.7818 58.7553L35.0423 66.5207L36.0316 64.446Z" fill="#4C9AC1"/>
<path d="M36.1435 69.2734L19.7749 61.4565L18.7857 63.5312L35.1542 71.3481L36.1435 69.2734Z" fill="#4C9AC1"/>
<path d="M35.9959 74.1914L19.3574 66.2456L18.3682 68.3203L35.0067 76.2661L35.9959 74.1914Z" fill="#4C9AC1"/>
<path fill-rule="evenodd" clip-rule="evenodd" d="M36.1181 78.7087L35.1252 80.792L34.5031 80.4926L33.6895 80.1095L33.6417 80.0856L33.4862 80.0018L31.8471 79.2235L31.7993 79.1996L31.7275 79.1637L30.0407 78.3615L28.1265 77.4516L26.8584 76.841L24.9442 75.931L23.5804 75.2725H23.5684L21.6662 74.3506H21.6542L20.3741 73.74L20.3023 73.7041L20.2784 73.6921L18.3643 72.7822L18.8787 71.7286V71.7166L19.3572 70.7109L20.2784 71.1539L21.6542 71.8124H21.6662L23.5684 72.7224H23.5804L24.9442 73.3809L26.8584 74.2908L28.1265 74.8894L30.0407 75.8113L31.7275 76.6135L31.8471 76.6733L33.6417 77.5234L33.6895 77.5473L34.5031 77.9424L35.1252 78.2298L36.1181 78.7087Z" fill="#4C9AC1"/>
<path d="M15.5649 112.855V117.668H20.7571V112.855H15.5649Z" fill="#FEFEFE"/>
<path d="M135.078 68.9149V104.785C135.078 105.671 134.576 107.443 134.049 108.197C133.523 108.952 132.147 109.874 131.286 109.874H109.704C109.644 109.874 109.751 108.748 109.704 108.581C109.201 109.095 107.897 109.874 107.203 109.874H97.4769C97.3812 109.874 97.6205 108.03 97.3812 108.018C96.7471 109.323 95.2158 109.706 93.8639 109.886H41.9781C40.6861 109.886 40.04 108.76 40.04 107.563L40.2315 69.0945H45.4236V104.689H76.7322V87.8198H58.4878C58.0691 87.8198 57.8178 89.1129 58.3083 89.1129H66.7307V94.309H57.7461C57.6025 94.309 56.4899 94.0217 56.2506 93.9499C51.4413 92.4054 51.6805 83.3421 57.9255 82.8153C64.1705 82.2885 77.9165 82.8392 77.9165 82.8392C77.9165 82.8392 80.8476 83.785 81.4936 85.1859C81.6372 85.4852 82.1038 86.9339 82.1038 87.1733V104.51H93.0385V82.6357H98.4101V104.51H105.636V82.911C105.636 82.911 105.899 82.6357 105.911 82.6357H110.541C110.541 82.6357 110.816 82.8991 110.816 82.911V104.51H117.671V82.6357H122.576C122.576 82.6357 122.852 82.8991 122.852 82.911V104.881H129.886V68.7354L135.078 68.9149Z" fill="#171A44"/>
<path d="M128.189 48.2499C127.962 46.2385 126.634 45.5321 124.767 45.3645C122.291 45.149 112.541 45.0293 110.507 45.568C109.418 45.8554 108.653 46.466 108.15 47.4717L106.882 51.6741V35.5469H103.269L103.185 60.941H96.8805V47.8788C96.8805 47.795 96.5096 47.0048 96.4139 46.8611C95.8396 45.9751 94.6433 45.5082 93.6264 45.3884C90.48 45.0293 83.7086 45.1131 80.4785 45.3645C78.4088 45.5321 76.7937 46.4061 76.5305 48.633C76.3271 50.2613 76.5903 52.2488 78.1576 53.0749C78.337 53.1707 79.2821 53.5299 79.3778 53.5299H86.1372V49.8183H80.0239C79.9521 49.6028 80.1076 49.076 80.299 49.076H93.1718V60.941H71.135V35.7384H67.4263V63.6348C67.4263 64.006 68.5389 64.8082 68.9935 64.6645C77.2005 64.8321 85.4792 64.4729 93.6623 64.4849C103.401 64.4969 114.192 65.2871 123.846 64.6645C126.143 64.5088 127.866 63.9821 128.189 61.4079C127.842 57.2294 128.644 52.3326 128.189 48.2499ZM124.672 60.941H106.882V58.7141C107.301 58.6422 109.107 58.8458 109.275 58.7021C109.669 58.3669 110.746 49.974 111.608 48.8964H124.672V60.941Z" fill="#171A44"/>
<path d="M37.0392 106.258C36.6683 108.293 35.2327 109.538 33.2109 109.838C24.2023 109.347 14.1769 110.652 5.27604 109.886C2.39283 109.646 1.16059 107.922 0.933285 105.156C0.538489 100.427 1.18452 95.1591 0.981139 90.3701L1.67502 88.4664C2.50051 87.9516 6.92701 82.8153 7.32181 82.8153C7.32181 82.8153 13.83 82.8991 13.7103 82.8153C13.5907 82.7315 6.72363 89.1009 6.35276 90.5616C6.04171 91.7589 6.12545 96.9311 6.11349 97.3621C6.06564 99.8045 6.16135 102.259 6.11349 104.689H32.0504C32.0265 98.3199 31.871 91.9505 31.859 85.581V83.5935H36.9315C37.0153 89.3643 37.099 102.546 37.0392 106.258Z" fill="#171A44"/>
<path d="M143 69.1064H137.449V109.885H143V69.1064Z" fill="#171A44"/>
<path d="M48.7159 45.3767C48.7996 45.7 48.5843 45.7479 48.4407 45.9394C47.1008 47.6875 44.7799 49.1481 43.5357 51.0398V60.9532H61.6843V45.3767H65.1059C65.1059 45.3767 65.3811 45.6401 65.3811 45.6521V61.4082C65.3811 61.48 65.082 62.5695 65.0222 62.7132C64.412 64.2337 62.8807 64.533 61.3972 64.6528C56.6238 65.0239 48.5723 65.0239 43.7989 64.6528C41.5258 64.4852 40.0782 63.8985 39.827 61.3962C39.48 57.972 40.0423 53.9851 39.8629 50.501C39.8629 49.5791 44.1937 45.3647 44.5406 45.3647H48.7039L48.7159 45.3767Z" fill="#171A44"/>
<path d="M133.931 35.7388V60.9533H139.123V45.3768H142.832V61.7794C142.832 61.8752 142.473 62.821 142.377 63.0006C141.636 64.4134 140.14 64.569 138.669 64.6648C136.934 64.7845 133.465 64.8564 131.802 64.6648C131.335 64.605 130.234 64.15 130.234 63.6352V36.0141C130.234 36.0141 130.498 35.7388 130.51 35.7388H133.931Z" fill="#171A44"/>
<path d="M20.7571 114.488H15.5649V119.313H20.7571V114.488Z" fill="#171A44"/>
<path d="M52.0534 39.6299H48.3447V43.1499H52.0534V39.6299Z" fill="#171A44"/>
<path d="M56.5036 43.1499H52.7949V39.9053C52.7949 39.9053 53.0581 39.6299 53.0701 39.6299H56.2165C56.2165 39.6299 56.4917 39.8933 56.4917 39.9053V43.1499H56.5036Z" fill="#171A44"/>
<path d="M140.966 39.8096H137.449V43.15H140.966V39.8096Z" fill="#171A44"/>
<path d="M40.04 114.342V114.16H41.9916C42.4439 114.16 42.7929 114.262 43.0384 114.464C43.284 114.667 43.4068 114.939 43.4068 115.279V115.428C43.4068 115.687 43.3357 115.907 43.1935 116.088C43.0514 116.269 42.8467 116.398 42.5796 116.476L43.3874 118.015C43.4391 118.11 43.4779 118.179 43.5037 118.222C43.5296 118.265 43.5533 118.293 43.5748 118.306C43.6006 118.314 43.6351 118.323 43.6782 118.332L43.969 118.377V118.558H42.7606L41.7848 116.553H41.3131V118.015C41.3131 118.161 41.3195 118.25 41.3325 118.28C41.3454 118.306 41.3863 118.323 41.4552 118.332L41.8106 118.377V118.558H40.04V118.377L40.3955 118.332C40.4644 118.323 40.5053 118.306 40.5182 118.28C40.5312 118.25 40.5376 118.161 40.5376 118.015V114.704C40.5376 114.557 40.5312 114.471 40.5182 114.445C40.5053 114.415 40.4644 114.395 40.3955 114.387L40.04 114.342ZM41.9916 114.387H41.3131V116.327H41.9916C42.1811 116.327 42.3255 116.269 42.4245 116.152C42.5279 116.032 42.5796 115.812 42.5796 115.493V115.215C42.5796 114.896 42.5279 114.678 42.4245 114.561C42.3255 114.445 42.1811 114.387 41.9916 114.387Z" fill="#5098C3"/>
<path d="M47.0344 117.788C46.9568 118.09 46.8125 118.306 46.6014 118.435C46.3903 118.56 46.1448 118.623 45.8647 118.623C45.3478 118.623 44.96 118.474 44.7016 118.177C44.4431 117.875 44.3138 117.476 44.3138 116.98V116.851C44.3138 116.355 44.4345 115.958 44.6757 115.661C44.9213 115.363 45.2745 115.215 45.7355 115.215C45.994 115.215 46.2223 115.266 46.4205 115.37C46.623 115.469 46.7802 115.613 46.8922 115.803C47.0085 115.993 47.0667 116.223 47.0667 116.495C47.0667 116.56 47.0624 116.629 47.0538 116.702C47.0495 116.775 47.0387 116.849 47.0215 116.922H45.1087V117.109C45.1087 117.566 45.1733 117.896 45.3025 118.099C45.4318 118.297 45.6407 118.396 45.9294 118.396C46.1146 118.396 46.2719 118.342 46.4011 118.235C46.5303 118.123 46.6036 117.935 46.6208 117.672L47.0344 117.788ZM45.7355 115.441C45.5244 115.441 45.3672 115.538 45.2638 115.732C45.1604 115.926 45.1087 116.247 45.1087 116.696H46.2783C46.2955 116.609 46.3063 116.53 46.3106 116.456C46.3192 116.379 46.3235 116.308 46.3235 116.243C46.3235 115.967 46.2697 115.764 46.162 115.635C46.0543 115.506 45.9121 115.441 45.7355 115.441Z" fill="#5098C3"/>
<path d="M50.836 118.396C50.7671 118.461 50.6831 118.515 50.584 118.558C50.4892 118.601 50.3729 118.623 50.235 118.623C50.0584 118.623 49.9098 118.584 49.7891 118.506C49.6728 118.429 49.5953 118.319 49.5565 118.177C49.4143 118.332 49.2571 118.446 49.0848 118.519C48.9168 118.588 48.7444 118.623 48.5678 118.623C48.2705 118.623 48.0487 118.541 47.9022 118.377C47.7557 118.209 47.6825 118 47.6825 117.75C47.6825 117.495 47.7751 117.291 47.9604 117.135C48.1456 116.976 48.473 116.896 48.9426 116.896H49.5307V116.372C49.5307 116.014 49.4833 115.771 49.3885 115.641C49.298 115.508 49.1709 115.441 49.0072 115.441C48.8995 115.441 48.8004 115.469 48.71 115.525C48.6195 115.577 48.5549 115.676 48.5161 115.823C48.4816 115.965 48.4881 116.172 48.5355 116.443L47.8247 116.34C47.7902 116.142 47.8117 115.958 47.8893 115.79C47.9711 115.618 48.1068 115.48 48.2964 115.376C48.486 115.269 48.7272 115.215 49.0202 115.215C49.3519 115.215 49.6082 115.269 49.7891 115.376C49.9701 115.484 50.095 115.626 50.1639 115.803C50.2372 115.98 50.2738 116.17 50.2738 116.372V117.866C50.2738 118.086 50.2932 118.224 50.332 118.28C50.3707 118.336 50.4138 118.364 50.4612 118.364C50.5387 118.364 50.6249 118.319 50.7197 118.228L50.836 118.396ZM48.8521 118.28C48.9641 118.28 49.074 118.252 49.1817 118.196C49.2937 118.136 49.41 118.026 49.5307 117.866V117.122H49.046C48.8349 117.122 48.682 117.172 48.5872 117.271C48.4924 117.37 48.445 117.525 48.445 117.737C48.445 117.909 48.4795 118.043 48.5484 118.138C48.6173 118.233 48.7186 118.28 48.8521 118.28Z" fill="#5098C3"/>
<path d="M50.9723 113.954V113.772H52.213V118.015C52.213 118.161 52.2194 118.25 52.2324 118.28C52.2453 118.306 52.2862 118.323 52.3551 118.332L52.7105 118.377V118.558H50.9723V118.377L51.3277 118.332C51.3966 118.323 51.4375 118.306 51.4504 118.28C51.4634 118.25 51.4698 118.161 51.4698 118.015V114.316C51.4698 114.169 51.4634 114.083 51.4504 114.057C51.4375 114.027 51.3966 114.007 51.3277 113.999L50.9723 113.954Z" fill="#5098C3"/>
<path d="M57.5533 117.446H57.7343V118.558H54.5355V118.377L54.8909 118.332C54.9599 118.323 55.0008 118.306 55.0137 118.28C55.0266 118.25 55.0331 118.161 55.0331 118.015V114.704C55.0331 114.557 55.0266 114.471 55.0137 114.445C55.0008 114.415 54.9599 114.395 54.8909 114.387L54.5355 114.342V114.16H57.6696V115.273H57.4887L57.2819 114.555C57.269 114.503 57.2539 114.467 57.2367 114.445C57.2238 114.419 57.1957 114.404 57.1527 114.4C57.1096 114.391 57.0364 114.387 56.933 114.387H55.8086V116.223H56.5452C56.6486 116.223 56.7219 116.221 56.7649 116.217C56.808 116.208 56.836 116.193 56.849 116.172C56.8662 116.146 56.8813 116.107 56.8942 116.055L57.0364 115.531H57.2173V117.142H57.0364L56.8942 116.618C56.8813 116.566 56.8662 116.53 56.849 116.508C56.836 116.482 56.808 116.467 56.7649 116.463C56.7219 116.454 56.6486 116.45 56.5452 116.45H55.8086V118.332H56.9976C57.101 118.332 57.1742 118.33 57.2173 118.325C57.2604 118.317 57.2884 118.302 57.3013 118.28C57.3185 118.254 57.3336 118.215 57.3465 118.164L57.5533 117.446Z" fill="#5098C3"/>
<path d="M59.7733 117.336L59.3274 117.232C59.0388 117.163 58.8234 117.04 58.6812 116.864C58.5433 116.683 58.4744 116.469 58.4744 116.223C58.4744 116.042 58.5132 115.876 58.5907 115.726C58.6726 115.57 58.7997 115.447 58.972 115.357C59.1443 115.262 59.3683 115.215 59.6441 115.215C59.9413 115.215 60.1826 115.262 60.3678 115.357C60.553 115.452 60.6844 115.577 60.762 115.732C60.8395 115.887 60.8632 116.053 60.8331 116.23L60.1222 116.359C60.1826 116.066 60.1653 115.84 60.0705 115.68C59.9801 115.521 59.8271 115.441 59.6117 115.441C59.461 115.441 59.336 115.486 59.2369 115.577C59.1379 115.663 59.0883 115.788 59.0883 115.952C59.0883 116.103 59.1314 116.236 59.2176 116.353C59.3037 116.465 59.4308 116.54 59.5988 116.579L60.0447 116.683C60.3635 116.756 60.594 116.872 60.7361 117.032C60.8783 117.187 60.9494 117.381 60.9494 117.614C60.9494 117.903 60.8417 118.144 60.6263 118.338C60.4152 118.528 60.0985 118.623 59.6764 118.623C59.5299 118.623 59.3683 118.601 59.1917 118.558C59.0194 118.511 58.86 118.427 58.7135 118.306C58.5713 118.185 58.468 118.013 58.4033 117.788L58.8234 117.62C58.8535 117.905 58.9505 118.105 59.1142 118.222C59.2822 118.338 59.4696 118.396 59.6764 118.396C59.8702 118.396 60.0275 118.353 60.1481 118.267C60.273 118.177 60.3355 118.047 60.3355 117.879C60.3355 117.763 60.2946 117.657 60.2127 117.562C60.1352 117.463 59.9887 117.388 59.7733 117.336Z" fill="#5098C3"/>
<path d="M63.7053 117.885C63.6493 118.148 63.5416 118.338 63.3822 118.455C63.2271 118.567 63.0375 118.623 62.8135 118.623C62.5852 118.623 62.3978 118.573 62.2513 118.474C62.1048 118.371 61.9971 118.235 61.9282 118.067C61.8593 117.898 61.8248 117.72 61.8248 117.53V115.823C61.8248 115.676 61.8183 115.59 61.8054 115.564C61.7925 115.534 61.7516 115.514 61.6826 115.506L61.3272 115.46V115.279H61.8248V114.529L62.5679 114.38V115.279H63.6019V115.506H62.5679V117.659C62.5679 117.935 62.6024 118.127 62.6713 118.235C62.7403 118.338 62.8286 118.39 62.9363 118.39C63.0483 118.39 63.1344 118.347 63.1948 118.261C63.2594 118.174 63.3003 118.017 63.3175 117.788L63.7053 117.885Z" fill="#5098C3"/>
<path d="M67.2499 118.396C67.181 118.461 67.097 118.515 66.9979 118.558C66.9031 118.601 66.7868 118.623 66.6489 118.623C66.4723 118.623 66.3237 118.584 66.2031 118.506C66.0867 118.429 66.0092 118.319 65.9704 118.177C65.8283 118.332 65.671 118.446 65.4987 118.519C65.3307 118.588 65.1584 118.623 64.9817 118.623C64.6845 118.623 64.4626 118.541 64.3161 118.377C64.1697 118.209 64.0964 118 64.0964 117.75C64.0964 117.495 64.189 117.291 64.3743 117.135C64.5595 116.976 64.8869 116.896 65.3565 116.896H65.9446V116.372C65.9446 116.014 65.8972 115.771 65.8024 115.641C65.7119 115.508 65.5848 115.441 65.4211 115.441C65.3134 115.441 65.2144 115.469 65.1239 115.525C65.0334 115.577 64.9688 115.676 64.93 115.823C64.8956 115.965 64.902 116.172 64.9494 116.443L64.2386 116.34C64.2041 116.142 64.2257 115.958 64.3032 115.79C64.3851 115.618 64.5208 115.48 64.7103 115.376C64.8999 115.269 65.1411 115.215 65.4341 115.215C65.7658 115.215 66.0221 115.269 66.2031 115.376C66.384 115.484 66.5089 115.626 66.5779 115.803C66.6511 115.98 66.6877 116.17 66.6877 116.372V117.866C66.6877 118.086 66.7071 118.224 66.7459 118.28C66.7846 118.336 66.8277 118.364 66.8751 118.364C66.9527 118.364 67.0388 118.319 67.1336 118.228L67.2499 118.396ZM65.2661 118.28C65.3781 118.28 65.4879 118.252 65.5956 118.196C65.7076 118.136 65.8239 118.026 65.9446 117.866V117.122H65.4599C65.2488 117.122 65.0959 117.172 65.0011 117.271C64.9063 117.37 64.8589 117.525 64.8589 117.737C64.8589 117.909 64.8934 118.043 64.9623 118.138C65.0313 118.233 65.1325 118.28 65.2661 118.28Z" fill="#5098C3"/>
<path d="M69.7319 117.885C69.6759 118.148 69.5682 118.338 69.4088 118.455C69.2537 118.567 69.0642 118.623 68.8401 118.623C68.6118 118.623 68.4244 118.573 68.2779 118.474C68.1315 118.371 68.0238 118.235 67.9548 118.067C67.8859 117.898 67.8514 117.72 67.8514 117.53V115.823C67.8514 115.676 67.845 115.59 67.8321 115.564C67.8191 115.534 67.7782 115.514 67.7093 115.506L67.3539 115.46V115.279H67.8514V114.529L68.5946 114.38V115.279H69.6285V115.506H68.5946V117.659C68.5946 117.935 68.629 118.127 68.698 118.235C68.7669 118.338 68.8552 118.39 68.9629 118.39C69.0749 118.39 69.1611 118.347 69.2214 118.261C69.286 118.174 69.3269 118.017 69.3442 117.788L69.7319 117.885Z" fill="#5098C3"/>
<path d="M72.8953 117.788C72.8177 118.09 72.6734 118.306 72.4623 118.435C72.2512 118.56 72.0057 118.623 71.7257 118.623C71.2087 118.623 70.821 118.474 70.5625 118.177C70.304 117.875 70.1748 117.476 70.1748 116.98V116.851C70.1748 116.355 70.2954 115.958 70.5366 115.661C70.7822 115.363 71.1355 115.215 71.5964 115.215C71.8549 115.215 72.0832 115.266 72.2814 115.37C72.4839 115.469 72.6411 115.613 72.7531 115.803C72.8694 115.993 72.9276 116.223 72.9276 116.495C72.9276 116.56 72.9233 116.629 72.9147 116.702C72.9104 116.775 72.8996 116.849 72.8824 116.922H70.9696V117.109C70.9696 117.566 71.0342 117.896 71.1635 118.099C71.2927 118.297 71.5016 118.396 71.7903 118.396C71.9755 118.396 72.1328 118.342 72.262 118.235C72.3912 118.123 72.4645 117.935 72.4817 117.672L72.8953 117.788ZM71.5964 115.441C71.3853 115.441 71.2281 115.538 71.1247 115.732C71.0213 115.926 70.9696 116.247 70.9696 116.696H72.1392C72.1565 116.609 72.1672 116.53 72.1715 116.456C72.1802 116.379 72.1845 116.308 72.1845 116.243C72.1845 115.967 72.1306 115.764 72.0229 115.635C71.9152 115.506 71.773 115.441 71.5964 115.441Z" fill="#5098C3"/>
<path d="M76.4748 118.396C76.7333 118.396 76.9466 118.336 77.1146 118.215C77.2869 118.09 77.3731 117.896 77.3731 117.633C77.3731 117.439 77.3149 117.278 77.1986 117.148C77.0866 117.019 76.8841 116.911 76.5911 116.825L75.9902 116.644C75.6886 116.553 75.456 116.398 75.2923 116.178C75.1329 115.954 75.0532 115.676 75.0532 115.344C75.0532 115.124 75.1027 114.919 75.2018 114.73C75.3052 114.54 75.4603 114.387 75.6671 114.27C75.8782 114.154 76.1431 114.096 76.4619 114.096C76.8108 114.096 77.093 114.16 77.3084 114.29C77.5238 114.415 77.6746 114.579 77.7608 114.781C77.8469 114.984 77.8685 115.202 77.8254 115.434L77.0823 115.57C77.1512 115.169 77.121 114.861 76.9918 114.646C76.8669 114.43 76.6622 114.322 76.3779 114.322C76.1582 114.322 75.9815 114.387 75.848 114.516C75.7188 114.646 75.6541 114.831 75.6541 115.072C75.6541 115.271 75.7101 115.445 75.8222 115.596C75.9385 115.747 76.128 115.863 76.3908 115.945L76.9918 116.126C77.3192 116.221 77.5648 116.366 77.7285 116.56C77.8922 116.749 77.974 117.015 77.974 117.355C77.974 117.597 77.918 117.814 77.806 118.008C77.6983 118.198 77.5324 118.349 77.3084 118.461C77.0887 118.569 76.813 118.623 76.4813 118.623C76.24 118.623 76.0117 118.588 75.7963 118.519C75.5809 118.446 75.4 118.327 75.2535 118.164C75.1113 118 75.0209 117.778 74.9821 117.497L75.415 117.342C75.4366 117.618 75.4969 117.834 75.596 117.989C75.6994 118.14 75.8265 118.245 75.9772 118.306C76.1323 118.366 76.2982 118.396 76.4748 118.396Z" fill="#5098C3"/>
<path d="M78.4298 113.954V113.772H79.6705V116.909L80.8078 115.823C80.9586 115.68 81.0383 115.594 81.0469 115.564C81.0598 115.534 81.0297 115.514 80.9564 115.506L80.601 115.46V115.279H81.9257V115.46L81.5703 115.506C81.5315 115.51 81.4992 115.519 81.4734 115.531C81.4475 115.544 81.4109 115.572 81.3635 115.616C81.3161 115.654 81.2408 115.723 81.1374 115.823L80.517 116.417L81.4346 118.015C81.4949 118.114 81.5402 118.185 81.5703 118.228C81.6005 118.267 81.6285 118.293 81.6543 118.306C81.6845 118.314 81.7211 118.323 81.7642 118.332L82.1196 118.377V118.558H80.8853L79.9871 116.922L79.6705 117.226V118.015C79.6705 118.161 79.6769 118.25 79.6899 118.28C79.7028 118.306 79.7437 118.323 79.8126 118.332L80.168 118.377V118.558H78.4298V118.377L78.7852 118.332C78.8541 118.323 78.895 118.306 78.9079 118.28C78.9209 118.25 78.9273 118.161 78.9273 118.015V114.316C78.9273 114.169 78.9209 114.083 78.9079 114.057C78.895 114.027 78.8541 114.007 78.7852 113.999L78.4298 113.954Z" fill="#5098C3"/>
<path d="M84.0834 118.881C83.9843 119.153 83.8744 119.371 83.7538 119.535C83.6375 119.698 83.4932 119.817 83.3208 119.89C83.1485 119.964 82.9331 120 82.6746 120V119.289C82.9374 119.289 83.1485 119.269 83.3079 119.231C83.4716 119.196 83.5965 119.138 83.6827 119.056C83.7732 118.978 83.84 118.877 83.883 118.752L83.9477 118.558H83.6116L82.694 115.823C82.6639 115.723 82.638 115.654 82.6165 115.616C82.5992 115.572 82.5777 115.544 82.5518 115.531C82.5303 115.519 82.4958 115.51 82.4485 115.506L82.093 115.46V115.279H83.8378V115.46L83.4824 115.506C83.4307 115.51 83.3984 115.527 83.3855 115.557C83.3768 115.583 83.3962 115.672 83.4436 115.823L84.148 117.957L84.8782 115.797C84.9256 115.659 84.945 115.579 84.9364 115.557C84.932 115.531 84.8976 115.514 84.833 115.506L84.4775 115.46V115.279H85.7118V115.46L85.3564 115.506C85.2918 115.514 85.2487 115.531 85.2271 115.557C85.2056 115.583 85.1711 115.663 85.1237 115.797L84.0834 118.881Z" fill="#5098C3"/>
<path d="M87.2687 117.336L86.8228 117.232C86.5341 117.163 86.3187 117.04 86.1766 116.864C86.0387 116.683 85.9698 116.469 85.9698 116.223C85.9698 116.042 86.0085 115.876 86.0861 115.726C86.1679 115.57 86.295 115.447 86.4674 115.357C86.6397 115.262 86.8637 115.215 87.1394 115.215C87.4367 115.215 87.6779 115.262 87.8632 115.357C88.0484 115.452 88.1798 115.577 88.2574 115.732C88.3349 115.887 88.3586 116.053 88.3284 116.23L87.6176 116.359C87.6779 116.066 87.6607 115.84 87.5659 115.68C87.4754 115.521 87.3225 115.441 87.1071 115.441C86.9563 115.441 86.8314 115.486 86.7323 115.577C86.6332 115.663 86.5837 115.788 86.5837 115.952C86.5837 116.103 86.6268 116.236 86.7129 116.353C86.7991 116.465 86.9262 116.54 87.0942 116.579L87.5401 116.683C87.8589 116.756 88.0893 116.872 88.2315 117.032C88.3737 117.187 88.4448 117.381 88.4448 117.614C88.4448 117.903 88.337 118.144 88.1216 118.338C87.9106 118.528 87.5939 118.623 87.1717 118.623C87.0252 118.623 86.8637 118.601 86.6871 118.558C86.5147 118.511 86.3553 118.427 86.2089 118.306C86.0667 118.185 85.9633 118.013 85.8987 117.788L86.3187 117.62C86.3489 117.905 86.4458 118.105 86.6095 118.222C86.7775 118.338 86.9649 118.396 87.1717 118.396C87.3656 118.396 87.5228 118.353 87.6435 118.267C87.7684 118.177 87.8309 118.047 87.8309 117.879C87.8309 117.763 87.7899 117.657 87.7081 117.562C87.6305 117.463 87.4841 117.388 87.2687 117.336Z" fill="#5098C3"/>
<path d="M90.5027 115.441C90.2959 115.441 90.1408 115.54 90.0374 115.738C89.9384 115.932 89.8888 116.26 89.8888 116.721V117.109C89.8888 117.566 89.947 117.896 90.0633 118.099C90.1796 118.297 90.3692 118.396 90.632 118.396C90.8258 118.396 90.9831 118.342 91.1037 118.235C91.2286 118.123 91.2997 117.935 91.3169 117.672L91.7305 117.788C91.653 118.09 91.5108 118.306 91.304 118.435C91.1015 118.56 90.8624 118.623 90.5867 118.623C90.0913 118.623 89.7187 118.474 89.4688 118.177C89.2189 117.875 89.094 117.476 89.094 116.98V116.851C89.094 116.355 89.2146 115.958 89.4559 115.661C89.6971 115.363 90.0461 115.215 90.5027 115.215C90.8043 115.215 91.0498 115.275 91.2394 115.396C91.4333 115.512 91.569 115.667 91.6465 115.861C91.7284 116.051 91.7499 116.256 91.7111 116.476L91.0003 116.579C91.0477 116.217 91.0283 115.937 90.9421 115.738C90.856 115.54 90.7095 115.441 90.5027 115.441Z" fill="#5098C3"/>
<path d="M92.1501 115.46V115.279H93.352V115.81C93.6148 115.413 93.9272 115.215 94.289 115.215C94.4226 115.215 94.5518 115.258 94.6768 115.344C94.8017 115.426 94.9051 115.581 94.9869 115.81L94.4118 116.12C94.3515 115.943 94.2804 115.825 94.1986 115.764C94.121 115.7 94.037 115.667 93.9466 115.667C93.8518 115.667 93.7591 115.697 93.6687 115.758C93.5782 115.818 93.4856 115.93 93.3908 116.094V118.015C93.3908 118.161 93.3973 118.25 93.4102 118.28C93.4231 118.306 93.4641 118.323 93.533 118.332L94.0176 118.377V118.558H92.1501V118.377L92.5055 118.332C92.5744 118.323 92.6154 118.306 92.6283 118.28C92.6412 118.25 92.6477 118.161 92.6477 118.015V115.823C92.6477 115.676 92.6412 115.59 92.6283 115.564C92.6154 115.534 92.5744 115.514 92.5055 115.506L92.1501 115.46Z" fill="#5098C3"/>
<path d="M98.3991 118.396C98.3302 118.461 98.2462 118.515 98.1471 118.558C98.0523 118.601 97.936 118.623 97.7981 118.623C97.6215 118.623 97.4729 118.584 97.3523 118.506C97.2359 118.429 97.1584 118.319 97.1196 118.177C96.9775 118.332 96.8202 118.446 96.6479 118.519C96.4799 118.588 96.3076 118.623 96.1309 118.623C95.8337 118.623 95.6118 118.541 95.4653 118.377C95.3189 118.209 95.2456 118 95.2456 117.75C95.2456 117.495 95.3383 117.291 95.5235 117.135C95.7087 116.976 96.0362 116.896 96.5057 116.896H97.0938V116.372C97.0938 116.014 97.0464 115.771 96.9516 115.641C96.8611 115.508 96.7341 115.441 96.5704 115.441C96.4627 115.441 96.3636 115.469 96.2731 115.525C96.1826 115.577 96.118 115.676 96.0792 115.823C96.0448 115.965 96.0512 116.172 96.0986 116.443L95.3878 116.34C95.3533 116.142 95.3749 115.958 95.4524 115.79C95.5343 115.618 95.67 115.48 95.8595 115.376C96.0491 115.269 96.2903 115.215 96.5833 115.215C96.915 115.215 97.1713 115.269 97.3523 115.376C97.5332 115.484 97.6581 115.626 97.7271 115.803C97.8003 115.98 97.8369 116.17 97.8369 116.372V117.866C97.8369 118.086 97.8563 118.224 97.8951 118.28C97.9339 118.336 97.9769 118.364 98.0243 118.364C98.1019 118.364 98.188 118.319 98.2828 118.228L98.3991 118.396ZM96.4153 118.28C96.5273 118.28 96.6371 118.252 96.7448 118.196C96.8568 118.136 96.9732 118.026 97.0938 117.866V117.122H96.6091C96.398 117.122 96.2451 117.172 96.1503 117.271C96.0555 117.37 96.0082 117.525 96.0082 117.737C96.0082 117.909 96.0426 118.043 96.1115 118.138C96.1805 118.233 96.2817 118.28 96.4153 118.28Z" fill="#5098C3"/>
<path d="M98.5354 115.46V115.279H99.7373V115.816C99.8623 115.613 99.998 115.463 100.144 115.363C100.291 115.264 100.465 115.215 100.668 115.215C101.03 115.215 101.316 115.359 101.527 115.648C101.743 115.932 101.85 116.333 101.85 116.851V116.98C101.85 117.48 101.728 117.879 101.482 118.177C101.237 118.474 100.896 118.623 100.461 118.623C100.203 118.623 99.9743 118.558 99.7761 118.429V119.392C99.7761 119.539 99.7826 119.625 99.7955 119.651C99.8084 119.681 99.8493 119.701 99.9183 119.709L100.403 119.754V119.936H98.5354V119.754L98.8908 119.709C98.9597 119.701 99.0006 119.681 99.0136 119.651C99.0265 119.625 99.033 119.539 99.033 119.392V115.823C99.033 115.676 99.0265 115.59 99.0136 115.564C99.0006 115.534 98.9597 115.514 98.8908 115.506L98.5354 115.46ZM100.5 115.499C100.392 115.499 100.278 115.544 100.157 115.635C100.041 115.721 99.914 115.9 99.7761 116.172V118.125C99.9398 118.289 100.14 118.371 100.377 118.371C100.618 118.371 100.791 118.265 100.894 118.054C101.002 117.838 101.056 117.545 101.056 117.174V116.657C101.056 116.256 101.006 115.963 100.907 115.777C100.808 115.592 100.672 115.499 100.5 115.499Z" fill="#5098C3"/>
<path d="M105.275 117.788C105.198 118.09 105.053 118.306 104.842 118.435C104.631 118.56 104.385 118.623 104.105 118.623C103.588 118.623 103.201 118.474 102.942 118.177C102.684 117.875 102.555 117.476 102.555 116.98V116.851C102.555 116.355 102.675 115.958 102.916 115.661C103.162 115.363 103.515 115.215 103.976 115.215C104.235 115.215 104.463 115.266 104.661 115.37C104.864 115.469 105.021 115.613 105.133 115.803C105.249 115.993 105.307 116.223 105.307 116.495C105.307 116.56 105.303 116.629 105.294 116.702C105.29 116.775 105.279 116.849 105.262 116.922H103.349V117.109C103.349 117.566 103.414 117.896 103.543 118.099C103.672 118.297 103.881 118.396 104.17 118.396C104.355 118.396 104.513 118.342 104.642 118.235C104.771 118.123 104.844 117.935 104.861 117.672L105.275 117.788ZM103.976 115.441C103.765 115.441 103.608 115.538 103.504 115.732C103.401 115.926 103.349 116.247 103.349 116.696H104.519C104.536 116.609 104.547 116.53 104.551 116.456C104.56 116.379 104.564 116.308 104.564 116.243C104.564 115.967 104.51 115.764 104.403 115.635C104.295 115.506 104.153 115.441 103.976 115.441Z" fill="#5098C3"/>
<path d="M105.781 115.46V115.279H106.983V115.81C107.246 115.413 107.558 115.215 107.92 115.215C108.054 115.215 108.183 115.258 108.308 115.344C108.433 115.426 108.536 115.581 108.618 115.81L108.043 116.12C107.982 115.943 107.911 115.825 107.83 115.764C107.752 115.7 107.668 115.667 107.577 115.667C107.483 115.667 107.39 115.697 107.3 115.758C107.209 115.818 107.117 115.93 107.022 116.094V118.015C107.022 118.161 107.028 118.25 107.041 118.28C107.054 118.306 107.095 118.323 107.164 118.332L107.649 118.377V118.558H105.781V118.377L106.136 118.332C106.205 118.323 106.246 118.306 106.259 118.28C106.272 118.25 106.279 118.161 106.279 118.015V115.823C106.279 115.676 106.272 115.59 106.259 115.564C106.246 115.534 106.205 115.514 106.136 115.506L105.781 115.46Z" fill="#5098C3"/>
<path d="M112.337 118.623C111.941 118.623 111.605 118.539 111.329 118.371C111.053 118.198 110.844 117.957 110.702 117.646C110.56 117.336 110.489 116.974 110.489 116.56V116.152C110.489 115.738 110.551 115.378 110.676 115.072C110.806 114.762 110.997 114.523 111.251 114.354C111.506 114.182 111.824 114.096 112.208 114.096C112.535 114.096 112.809 114.16 113.029 114.29C113.248 114.415 113.41 114.583 113.513 114.794C113.621 115.001 113.666 115.228 113.649 115.473L112.893 115.661C112.936 115.23 112.891 114.9 112.757 114.671C112.628 114.439 112.434 114.322 112.176 114.322C111.9 114.322 111.687 114.439 111.536 114.671C111.389 114.904 111.316 115.29 111.316 115.829V116.883C111.316 117.418 111.4 117.804 111.568 118.041C111.736 118.278 111.992 118.396 112.337 118.396C112.479 118.396 112.611 118.371 112.731 118.319C112.856 118.267 112.96 118.179 113.041 118.054C113.128 117.924 113.181 117.743 113.203 117.51L113.668 117.633C113.608 117.875 113.511 118.069 113.378 118.215C113.244 118.362 113.087 118.468 112.906 118.532C112.729 118.593 112.54 118.623 112.337 118.623Z" fill="#5098C3"/>
<path d="M117.214 116.851V116.98C117.214 117.476 117.085 117.875 116.826 118.177C116.572 118.474 116.208 118.623 115.734 118.623C115.26 118.623 114.894 118.474 114.636 118.177C114.381 117.875 114.254 117.476 114.254 116.98V116.851C114.254 116.355 114.381 115.958 114.636 115.661C114.894 115.363 115.26 115.215 115.734 115.215C116.208 115.215 116.572 115.363 116.826 115.661C117.085 115.958 117.214 116.355 117.214 116.851ZM116.419 116.721C116.419 116.26 116.361 115.932 116.245 115.738C116.128 115.54 115.958 115.441 115.734 115.441C115.514 115.441 115.344 115.54 115.224 115.738C115.107 115.932 115.049 116.26 115.049 116.721V117.109C115.049 117.566 115.107 117.896 115.224 118.099C115.344 118.297 115.514 118.396 115.734 118.396C115.958 118.396 116.128 118.297 116.245 118.099C116.361 117.896 116.419 117.566 116.419 117.109V116.721Z" fill="#5098C3"/>
<path d="M121.437 118.377V118.558H119.699V118.377L120.054 118.332C120.123 118.323 120.164 118.306 120.177 118.28C120.19 118.25 120.196 118.161 120.196 118.015V116.385C120.196 116.088 120.155 115.872 120.074 115.738C119.992 115.6 119.869 115.531 119.705 115.531C119.636 115.531 119.554 115.551 119.46 115.59C119.365 115.624 119.27 115.689 119.175 115.784C119.085 115.879 119.005 116.019 118.936 116.204V118.015C118.936 118.161 118.943 118.25 118.956 118.28C118.968 118.306 119.009 118.323 119.078 118.332L119.434 118.377V118.558H117.695V118.377L118.051 118.332C118.12 118.323 118.161 118.306 118.174 118.28C118.187 118.25 118.193 118.161 118.193 118.015V115.823C118.193 115.676 118.187 115.59 118.174 115.564C118.161 115.534 118.12 115.514 118.051 115.506L117.695 115.46V115.279H118.897V115.848C119.018 115.628 119.173 115.469 119.363 115.37C119.552 115.266 119.744 115.215 119.938 115.215C120.17 115.215 120.366 115.275 120.526 115.396C120.69 115.512 120.806 115.68 120.875 115.9C120.991 115.659 121.148 115.484 121.347 115.376C121.545 115.269 121.743 115.215 121.941 115.215C122.247 115.215 122.49 115.316 122.671 115.519C122.852 115.721 122.943 116.008 122.943 116.379V118.015C122.943 118.161 122.949 118.25 122.962 118.28C122.975 118.306 123.016 118.323 123.085 118.332L123.44 118.377V118.558H121.702V118.377L122.057 118.332C122.126 118.323 122.167 118.306 122.18 118.28C122.193 118.25 122.2 118.161 122.2 118.015V116.385C122.2 116.088 122.159 115.872 122.077 115.738C121.995 115.6 121.872 115.531 121.708 115.531C121.639 115.531 121.558 115.551 121.463 115.59C121.368 115.624 121.273 115.691 121.179 115.79C121.084 115.889 121.002 116.034 120.933 116.223C120.937 116.245 120.939 116.271 120.939 116.301C120.939 116.327 120.939 116.353 120.939 116.379V118.015C120.939 118.161 120.946 118.25 120.959 118.28C120.972 118.306 121.013 118.323 121.082 118.332L121.437 118.377Z" fill="#5098C3"/>
<path d="M123.614 115.46V115.279H124.816V115.816C124.941 115.613 125.076 115.463 125.223 115.363C125.369 115.264 125.544 115.215 125.746 115.215C126.108 115.215 126.395 115.359 126.606 115.648C126.821 115.932 126.929 116.333 126.929 116.851V116.98C126.929 117.48 126.806 117.879 126.56 118.177C126.315 118.474 125.975 118.623 125.539 118.623C125.281 118.623 125.053 118.558 124.854 118.429V119.392C124.854 119.539 124.861 119.625 124.874 119.651C124.887 119.681 124.928 119.701 124.997 119.709L125.481 119.754V119.936H123.614V119.754L123.969 119.709C124.038 119.701 124.079 119.681 124.092 119.651C124.105 119.625 124.111 119.539 124.111 119.392V115.823C124.111 115.676 124.105 115.59 124.092 115.564C124.079 115.534 124.038 115.514 123.969 115.506L123.614 115.46ZM125.578 115.499C125.471 115.499 125.356 115.544 125.236 115.635C125.119 115.721 124.992 115.9 124.854 116.172V118.125C125.018 118.289 125.219 118.371 125.455 118.371C125.697 118.371 125.869 118.265 125.972 118.054C126.08 117.838 126.134 117.545 126.134 117.174V116.657C126.134 116.256 126.084 115.963 125.985 115.777C125.886 115.592 125.751 115.499 125.578 115.499Z" fill="#5098C3"/>
<path d="M130.735 118.396C130.666 118.461 130.582 118.515 130.483 118.558C130.388 118.601 130.272 118.623 130.134 118.623C129.957 118.623 129.809 118.584 129.688 118.506C129.572 118.429 129.494 118.319 129.455 118.177C129.313 118.332 129.156 118.446 128.984 118.519C128.815 118.588 128.643 118.623 128.467 118.623C128.169 118.623 127.947 118.541 127.801 118.377C127.654 118.209 127.581 118 127.581 117.75C127.581 117.495 127.674 117.291 127.859 117.135C128.044 116.976 128.372 116.896 128.841 116.896H129.429V116.372C129.429 116.014 129.382 115.771 129.287 115.641C129.197 115.508 129.07 115.441 128.906 115.441C128.798 115.441 128.699 115.469 128.609 115.525C128.518 115.577 128.454 115.676 128.415 115.823C128.38 115.965 128.387 116.172 128.434 116.443L127.723 116.34C127.689 116.142 127.71 115.958 127.788 115.79C127.87 115.618 128.006 115.48 128.195 115.376C128.385 115.269 128.626 115.215 128.919 115.215C129.251 115.215 129.507 115.269 129.688 115.376C129.869 115.484 129.994 115.626 130.063 115.803C130.136 115.98 130.173 116.17 130.173 116.372V117.866C130.173 118.086 130.192 118.224 130.231 118.28C130.269 118.336 130.313 118.364 130.36 118.364C130.437 118.364 130.524 118.319 130.618 118.228L130.735 118.396ZM128.751 118.28C128.863 118.28 128.973 118.252 129.08 118.196C129.192 118.136 129.309 118.026 129.429 117.866V117.122H128.945C128.734 117.122 128.581 117.172 128.486 117.271C128.391 117.37 128.344 117.525 128.344 117.737C128.344 117.909 128.378 118.043 128.447 118.138C128.516 118.233 128.617 118.28 128.751 118.28Z" fill="#5098C3"/>
<path d="M134.722 118.377V118.558H132.984V118.377L133.34 118.332C133.408 118.323 133.449 118.306 133.462 118.28C133.475 118.25 133.482 118.161 133.482 118.015V116.385C133.482 116.088 133.436 115.872 133.346 115.738C133.26 115.6 133.131 115.531 132.958 115.531C132.885 115.531 132.799 115.551 132.7 115.59C132.605 115.624 132.508 115.689 132.409 115.784C132.314 115.879 132.23 116.019 132.157 116.204V118.015C132.157 118.161 132.163 118.25 132.176 118.28C132.189 118.306 132.23 118.323 132.299 118.332L132.655 118.377V118.558H130.916V118.377L131.272 118.332C131.341 118.323 131.381 118.306 131.394 118.28C131.407 118.25 131.414 118.161 131.414 118.015V115.823C131.414 115.676 131.407 115.59 131.394 115.564C131.381 115.534 131.341 115.514 131.272 115.506L130.916 115.46V115.279H132.118V115.848C132.243 115.628 132.402 115.469 132.596 115.37C132.795 115.266 132.993 115.215 133.191 115.215C133.51 115.215 133.762 115.316 133.947 115.519C134.132 115.721 134.225 116.008 134.225 116.379V118.015C134.225 118.161 134.231 118.25 134.244 118.28C134.257 118.306 134.298 118.323 134.367 118.332L134.722 118.377Z" fill="#5098C3"/>
<path d="M135.808 114.723C135.675 114.723 135.567 114.682 135.485 114.6C135.403 114.514 135.362 114.404 135.362 114.27C135.362 114.137 135.403 114.029 135.485 113.947C135.567 113.865 135.675 113.824 135.808 113.824C135.938 113.824 136.045 113.865 136.131 113.947C136.218 114.029 136.261 114.137 136.261 114.27C136.261 114.404 136.218 114.514 136.131 114.6C136.045 114.682 135.938 114.723 135.808 114.723ZM134.942 115.46V115.279H136.183V118.015C136.183 118.161 136.19 118.25 136.202 118.28C136.215 118.306 136.256 118.323 136.325 118.332L136.681 118.377V118.558H134.942V118.377L135.298 118.332C135.367 118.323 135.408 118.306 135.421 118.28C135.434 118.25 135.44 118.161 135.44 118.015V115.823C135.44 115.676 135.434 115.59 135.421 115.564C135.408 115.534 135.367 115.514 135.298 115.506L134.942 115.46Z" fill="#5098C3"/>
<path d="M139.845 117.788C139.767 118.09 139.623 118.306 139.412 118.435C139.201 118.56 138.955 118.623 138.675 118.623C138.158 118.623 137.77 118.474 137.512 118.177C137.253 117.875 137.124 117.476 137.124 116.98V116.851C137.124 116.355 137.245 115.958 137.486 115.661C137.732 115.363 138.085 115.215 138.546 115.215C138.804 115.215 139.033 115.266 139.231 115.37C139.433 115.469 139.59 115.613 139.702 115.803C139.819 115.993 139.877 116.223 139.877 116.495C139.877 116.56 139.873 116.629 139.864 116.702C139.86 116.775 139.849 116.849 139.832 116.922H137.919V117.109C137.919 117.566 137.984 117.896 138.113 118.099C138.242 118.297 138.451 118.396 138.74 118.396C138.925 118.396 139.082 118.342 139.211 118.235C139.341 118.123 139.414 117.935 139.431 117.672L139.845 117.788ZM138.546 115.441C138.335 115.441 138.177 115.538 138.074 115.732C137.971 115.926 137.919 116.247 137.919 116.696H139.089C139.106 116.609 139.117 116.53 139.121 116.456C139.13 116.379 139.134 116.308 139.134 116.243C139.134 115.967 139.08 115.764 138.972 115.635C138.865 115.506 138.722 115.441 138.546 115.441Z" fill="#5098C3"/>
<path d="M141.824 117.336L141.378 117.232C141.089 117.163 140.874 117.04 140.732 116.864C140.594 116.683 140.525 116.469 140.525 116.223C140.525 116.042 140.564 115.876 140.641 115.726C140.723 115.57 140.85 115.447 141.023 115.357C141.195 115.262 141.419 115.215 141.695 115.215C141.992 115.215 142.233 115.262 142.418 115.357C142.604 115.452 142.735 115.577 142.813 115.732C142.89 115.887 142.914 116.053 142.884 116.23L142.173 116.359C142.233 116.066 142.216 115.84 142.121 115.68C142.031 115.521 141.878 115.441 141.662 115.441C141.512 115.441 141.387 115.486 141.288 115.577C141.189 115.663 141.139 115.788 141.139 115.952C141.139 116.103 141.182 116.236 141.268 116.353C141.354 116.465 141.481 116.54 141.649 116.579L142.095 116.683C142.414 116.756 142.645 116.872 142.787 117.032C142.929 117.187 143 117.381 143 117.614C143 117.903 142.892 118.144 142.677 118.338C142.466 118.528 142.149 118.623 141.727 118.623C141.581 118.623 141.419 118.601 141.242 118.558C141.07 118.511 140.911 118.427 140.764 118.306C140.622 118.185 140.519 118.013 140.454 117.788L140.874 117.62C140.904 117.905 141.001 118.105 141.165 118.222C141.333 118.338 141.52 118.396 141.727 118.396C141.921 118.396 142.078 118.353 142.199 118.267C142.324 118.177 142.386 118.047 142.386 117.879C142.386 117.763 142.345 117.657 142.263 117.562C142.186 117.463 142.039 117.388 141.824 117.336Z" fill="#5098C3"/>
</svg>
