<svg width="25" height="25" viewBox="0 0 25 25" fill="none" xmlns="http://www.w3.org/2000/svg">
<path fill-rule="evenodd" clip-rule="evenodd" d="M19.7071 9.29633C19.7071 10.5523 20.039 11.2925 20.7695 12.1456C21.3231 12.7741 21.5 13.5808 21.5 14.456C21.5 15.3302 21.2128 16.1601 20.6373 16.8339C19.884 17.6417 18.8215 18.1573 17.7372 18.247C16.1659 18.3809 14.5937 18.4937 13.0005 18.4937C11.4063 18.4937 9.83505 18.4263 8.26375 18.247C7.17846 18.1573 6.11602 17.6417 5.36367 16.8339C4.78822 16.1601 4.5 15.3302 4.5 14.456C4.5 13.5808 4.6779 12.7741 5.23049 12.1456C5.98384 11.2925 6.29392 10.5523 6.29392 9.29633V8.8703C6.29392 7.18834 6.71333 6.08852 7.577 5.01186C8.86106 3.4417 10.9194 2.5 12.9558 2.5H13.0452C15.1254 2.5 17.2502 3.48702 18.5125 5.12466C19.3314 6.17916 19.7071 7.23265 19.7071 8.8703V9.29633ZM9.57415 20.5607C9.57415 20.0571 10.0363 19.8265 10.4637 19.7278C10.9636 19.622 14.0098 19.622 14.5097 19.7278C14.937 19.8265 15.3992 20.0571 15.3992 20.5607C15.3743 21.0401 15.0931 21.4652 14.7045 21.7351C14.2006 22.1279 13.6092 22.3766 12.9911 22.4663C12.6492 22.5106 12.3132 22.5116 11.9833 22.4663C11.3641 22.3766 10.7728 22.1279 10.2699 21.7341C9.88026 21.4652 9.599 21.0401 9.57415 20.5607Z" fill="#1D4787"/>
<path d="M22.1711 5.56241C22.1711 7.94783 20.2486 9.87482 17.8854 9.87482C15.5221 9.87482 13.5996 7.94783 13.5996 5.56241C13.5996 3.177 15.5221 1.25 17.8854 1.25C20.2486 1.25 22.1711 3.177 22.1711 5.56241Z" fill="#04AD75" stroke="#FCFBFD" stroke-width="1.5"/>
</svg>
