<svg width="18" height="21" viewBox="0 0 18 21" fill="none" xmlns="http://www.w3.org/2000/svg">
<path fill-rule="evenodd" clip-rule="evenodd" d="M15.7071 7.29633C15.7071 8.55226 16.039 9.29252 16.7695 10.1456C17.3231 10.7741 17.5 11.5808 17.5 12.456C17.5 13.3302 17.2128 14.1601 16.6373 14.8339C15.884 15.6417 14.8215 16.1573 13.7372 16.247C12.1659 16.3809 10.5937 16.4937 9.0005 16.4937C7.40634 16.4937 5.83505 16.4263 4.26375 16.247C3.17846 16.1573 2.11602 15.6417 1.36367 14.8339C0.78822 14.1601 0.5 13.3302 0.5 12.456C0.5 11.5808 0.677901 10.7741 1.23049 10.1456C1.98384 9.29252 2.29392 8.55226 2.29392 7.29633V6.8703C2.29392 5.18834 2.71333 4.08852 3.577 3.01186C4.86106 1.4417 6.91935 0.5 8.95577 0.5H9.04522C11.1254 0.5 13.2502 1.48702 14.5125 3.12466C15.3314 4.17916 15.7071 5.23265 15.7071 6.8703V7.29633ZM5.57415 18.5607C5.57415 18.0571 6.0363 17.8265 6.46366 17.7278C6.96357 17.622 10.0098 17.622 10.5097 17.7278C10.937 17.8265 11.3992 18.0571 11.3992 18.5607C11.3743 19.0401 11.0931 19.4652 10.7045 19.7351C10.2006 20.1279 9.60923 20.3766 8.99105 20.4663C8.64916 20.5106 8.31324 20.5116 7.98327 20.4663C7.3641 20.3766 6.77275 20.1279 6.26986 19.7341C5.88026 19.4652 5.599 19.0401 5.57415 18.5607Z" fill="#1D4787"/>
</svg>
