<svg width="26" height="24" viewBox="0 0 26 24" fill="none" xmlns="http://www.w3.org/2000/svg">
<path d="M21.0001 10.999H23.1001C23.1001 5.869 19.0335 2 13.6396 2V4C17.9047 4 21.0001 6.943 21.0001 10.999Z" fill="white"/>
<path d="M13.6497 7.99999C15.8579 7.99999 16.7997 8.89699 16.7997 11H18.8997C18.8997 7.77499 17.036 5.99999 13.6497 5.99999V7.99999ZM17.2428 13.443C17.041 13.2683 16.7759 13.1752 16.5034 13.1832C16.2309 13.1912 15.9723 13.2998 15.7823 13.486L13.2696 15.947C12.6648 15.837 11.4489 15.476 10.1973 14.287C8.94571 13.094 8.56666 11.933 8.45431 11.361L11.0363 8.96699C11.232 8.78612 11.3462 8.53982 11.3546 8.2802C11.363 8.02059 11.265 7.76804 11.0814 7.57599L7.20166 3.51299C7.01795 3.32035 6.76263 3.2035 6.48992 3.18725C6.21721 3.17101 5.94859 3.25665 5.74111 3.42599L3.46261 5.28699C3.28108 5.46051 3.17273 5.69145 3.15811 5.93599C3.14236 6.18599 2.84206 12.108 7.66366 16.702C11.87 20.707 17.1389 21 18.59 21C18.8021 21 18.9323 20.994 18.9669 20.992C19.2236 20.9783 19.466 20.8747 19.6473 20.701L21.6003 18.53C21.7782 18.3325 21.8684 18.0768 21.8515 17.817C21.8346 17.5573 21.7121 17.3141 21.51 17.139L17.2428 13.443Z" fill="white"/>
</svg>
