<svg width="28" height="23" viewBox="0 0 28 23" fill="none" xmlns="http://www.w3.org/2000/svg">
<path d="M18.654 0.147549V0.142578H19.9422L20.4129 0.237019C20.7267 0.298331 21.0116 0.378681 21.2675 0.478092C21.5236 0.577504 21.7713 0.693492 22.0107 0.826033C22.2502 0.958573 22.4674 1.09362 22.6623 1.23113C22.8555 1.36701 23.029 1.51115 23.1826 1.66358C23.3345 1.81766 23.5715 1.85743 23.8935 1.78287C24.2156 1.70831 24.5624 1.60475 24.934 1.47221C25.3056 1.33967 25.6731 1.19055 26.0364 1.02486C26.3998 0.859162 26.6211 0.753959 26.7004 0.709224C26.778 0.662849 26.8193 0.637996 26.8242 0.634665L26.8292 0.62721L26.8539 0.614783L26.8787 0.602357L26.9035 0.58993L26.9283 0.577504L26.9332 0.570048L26.9407 0.565077L26.9481 0.560107L26.953 0.552651L26.9778 0.545195L27.0026 0.540224L26.9977 0.577504L26.9902 0.614783L26.9778 0.652062L26.9654 0.689342L26.953 0.714195L26.9407 0.739048L26.9283 0.776327C26.92 0.80118 26.9118 0.834309 26.9035 0.875738C26.8952 0.917168 26.8168 1.08284 26.6681 1.3728C26.5195 1.66276 26.3337 1.95684 26.1107 2.25507C25.8878 2.55331 25.688 2.77863 25.5113 2.93107C25.3329 3.08516 25.2148 3.19285 25.157 3.25416C25.0992 3.31711 25.029 3.37509 24.9464 3.42813L24.8225 3.51014L24.7978 3.52257L24.773 3.535L24.7681 3.54245L24.7606 3.54742L24.7532 3.55239L24.7482 3.55985L24.7234 3.57228L24.6987 3.5847L24.6937 3.59216L24.6863 3.59713L24.6788 3.6021L24.6739 3.60956L24.669 3.61701L24.6615 3.62198L24.6541 3.62695L24.6491 3.63441H24.773L25.4666 3.48529C25.9291 3.38588 26.3709 3.26577 26.792 3.12493L27.4609 2.90125L27.5352 2.8764L27.5724 2.86397L27.5971 2.85154L27.6219 2.83912L27.6467 2.82669L27.6715 2.81426L27.721 2.80681L27.7706 2.80184V2.85154L27.7582 2.85651L27.7458 2.86397L27.7409 2.87143L27.7334 2.8764L27.726 2.88137L27.721 2.88882L27.7161 2.89628L27.7086 2.90125L27.7012 2.90622L27.6962 2.91368L27.6913 2.92113L27.6839 2.9261L27.6715 2.95095L27.6591 2.97581L27.6516 2.98078C27.6484 2.98575 27.5435 3.12657 27.337 3.40328C27.1306 3.68163 27.0191 3.82245 27.0026 3.82578C26.9861 3.83075 26.9629 3.8556 26.9332 3.90034C26.9051 3.94671 26.7301 4.13147 26.408 4.45456C26.086 4.77764 25.7706 5.06509 25.4617 5.31695C25.1512 5.57045 24.9943 5.88193 24.991 6.25142C24.9861 6.61924 24.9671 7.03513 24.934 7.49903C24.901 7.96296 24.8391 8.46415 24.7482 9.00263C24.6574 9.54112 24.517 10.15 24.3271 10.8293C24.1371 11.5086 23.9059 12.1714 23.6334 12.8176C23.3609 13.4637 23.076 14.0436 22.7787 14.5573C22.4814 15.0709 22.2089 15.5058 21.9612 15.862C21.7135 16.2182 21.4616 16.5538 21.2056 16.8686C20.9496 17.1834 20.6259 17.538 20.2345 17.9323C19.8414 18.325 19.6268 18.5404 19.5904 18.5785C19.5524 18.6149 19.3906 18.7508 19.1048 18.986C18.8208 19.223 18.5152 19.4599 18.1882 19.6968C17.8629 19.9321 17.5639 20.1285 17.2914 20.2858C17.0189 20.4432 16.6903 20.623 16.3054 20.8252C15.9223 21.0289 15.5077 21.2178 15.0618 21.3918C14.6159 21.5658 14.1452 21.7273 13.6497 21.8764C13.1543 22.0255 12.6753 22.1415 12.2129 22.2244C11.7505 22.3072 11.2261 22.3776 10.6398 22.4356L9.76031 22.5226V22.535H8.15004V22.5226L7.93946 22.5102C7.7991 22.5019 7.68348 22.4936 7.59264 22.4853C7.50182 22.4771 7.1591 22.4315 6.56454 22.3486C5.96998 22.2658 5.50342 22.1829 5.16484 22.1001C4.82629 22.0173 4.32255 21.8599 3.65367 21.6279C2.98479 21.396 2.41252 21.1615 1.93687 20.9246C1.46288 20.6893 1.1656 20.5402 1.04503 20.4772C0.926119 20.4159 0.792343 20.3397 0.643702 20.2486L0.420742 20.1119L0.415812 20.1044L0.408355 20.0995L0.400923 20.0945L0.395969 20.087L0.371195 20.0746L0.346422 20.0622L0.341492 20.0547L0.334035 20.0497L0.326603 20.0448L0.321648 20.0373L0.316718 20.0299L0.309262 20.0249H0.296875V19.9752L0.321648 19.9802L0.346422 19.9876L0.457902 20C0.532222 20.0083 0.734546 20.0207 1.06485 20.0373C1.39518 20.0539 1.74612 20.0539 2.11772 20.0373C2.48932 20.0207 2.86919 19.9835 3.25729 19.9255C3.64542 19.8675 4.10373 19.7681 4.63222 19.6272C5.16073 19.4864 5.64629 19.3191 6.08892 19.1252C6.52988 18.9297 6.84366 18.7839 7.03031 18.6878C7.21526 18.5934 7.49768 18.4177 7.87753 18.1609L8.44732 17.7757L8.45227 17.7682L8.45971 17.7633L8.46716 17.7583L8.47209 17.7509L8.47705 17.7434L8.48448 17.7384L8.49194 17.7335L8.49687 17.726L8.52164 17.7185L8.54641 17.7136L8.55137 17.6887L8.5588 17.6639L8.56626 17.6589L8.57119 17.6514L8.373 17.639C8.24088 17.6307 8.11288 17.6224 7.98901 17.6142C7.86514 17.6059 7.67109 17.5686 7.40684 17.5023C7.1426 17.436 6.85771 17.3366 6.55216 17.2041C6.24662 17.0715 5.94934 16.9141 5.66031 16.7319C5.37131 16.5496 5.16237 16.398 5.03355 16.2771C4.90638 16.1578 4.74122 15.9888 4.53808 15.7701C4.3366 15.5497 4.16152 15.3235 4.01288 15.0916C3.86424 14.8596 3.72222 14.592 3.58681 14.2888L3.38116 13.8365L3.36877 13.7992L3.35639 13.762L3.34896 13.7371L3.344 13.7123L3.38116 13.7172L3.41832 13.7247L3.69083 13.762C3.87252 13.7868 4.15741 13.7951 4.54551 13.7868C4.93364 13.7785 5.20201 13.762 5.35065 13.7371C5.49929 13.7123 5.59013 13.6957 5.62315 13.6874L5.6727 13.675L5.73463 13.6626L5.79657 13.6501L5.80152 13.6427L5.80895 13.6377L5.81641 13.6327L5.82134 13.6253L5.77179 13.6128L5.72225 13.6004L5.6727 13.588L5.62315 13.5756L5.57361 13.5631C5.54058 13.5549 5.48279 13.5383 5.40019 13.5134C5.31762 13.4886 5.09466 13.3974 4.73131 13.2401C4.36798 13.0827 4.07895 12.9294 3.86424 12.7803C3.649 12.6307 3.44377 12.4672 3.24986 12.2907C3.05663 12.1117 2.84442 11.8814 2.61319 11.5998C2.38198 11.3181 2.17554 10.9909 1.99385 10.6181C1.81219 10.2453 1.67594 9.88906 1.58509 9.5494C1.49461 9.21173 1.43492 8.86651 1.40675 8.518L1.36213 7.99609L1.3869 8.00106L1.41168 8.00852L1.43645 8.02095L1.46122 8.03337L1.486 8.0458L1.51077 8.05822L1.89476 8.23219C2.15077 8.34818 2.46868 8.44759 2.84853 8.53043C3.22841 8.61326 3.45548 8.65884 3.5298 8.66712L3.64128 8.67955H3.86424L3.85931 8.67209L3.85186 8.66712L3.84442 8.66215L3.83947 8.65469L3.83454 8.64724L3.82708 8.64227L3.81965 8.6373L3.8147 8.62984L3.78992 8.61741L3.76515 8.60499L3.76022 8.59753L3.75276 8.59256L3.74533 8.58759L3.74038 8.58014L3.7156 8.56771L3.69083 8.55528L3.6859 8.54783C3.68094 8.5445 3.60992 8.49148 3.47282 8.38877C3.33739 8.28439 3.19536 8.14936 3.04672 7.98367C2.89808 7.81797 2.74944 7.644 2.6008 7.46175C2.45189 7.27909 2.31925 7.08366 2.20443 6.87771C2.08883 6.67061 1.9666 6.40715 1.83778 6.08739C1.71062 5.76927 1.614 5.44867 1.54793 5.12558C1.48189 4.8025 1.44473 4.48356 1.43645 4.16875C1.4282 3.85394 1.43645 3.5847 1.46122 3.36103C1.486 3.13735 1.53554 2.88467 1.60986 2.60301C1.68418 2.32136 1.79155 2.02312 1.93192 1.70831L2.14249 1.23611L2.15488 1.19883L2.16727 1.16155L2.17472 1.15658L2.17965 1.14912L2.18461 1.14166L2.19204 1.13669L2.1995 1.14166L2.20443 1.14912L2.20938 1.15658L2.21681 1.16155L2.22427 1.16652L2.2292 1.17397L2.23415 1.18143L2.24159 1.1864L2.25397 1.21125L2.26636 1.23611L2.27382 1.24108L2.27875 1.24853L2.61319 1.62133C2.83615 1.86985 3.1004 2.14739 3.40593 2.4539C3.71149 2.76041 3.88077 2.91947 3.91379 2.93107C3.94684 2.94432 3.98811 2.98242 4.03766 3.0454C4.0872 3.10671 4.25237 3.25334 4.53312 3.48529C4.81391 3.71724 5.18137 3.9865 5.63554 4.29301C6.08973 4.59952 6.59345 4.90191 7.14672 5.20014C7.70001 5.49838 8.29457 5.76761 8.9304 6.00786C9.56626 6.24811 10.0122 6.40551 10.2682 6.48007C10.5242 6.55462 10.9618 6.64989 11.5812 6.76587C12.2005 6.88186 12.6671 6.95642 12.9808 6.98955C13.2947 7.02268 13.5094 7.04174 13.625 7.04671L13.7984 7.05168L13.7934 7.0144L13.786 6.97712L13.7364 6.66646C13.7034 6.45936 13.6869 6.1694 13.6869 5.79661C13.6869 5.42382 13.7158 5.08003 13.7736 4.76522C13.8314 4.4504 13.9181 4.13147 14.0337 3.80838C14.1493 3.48529 14.2625 3.22598 14.3731 3.03048C14.4854 2.83663 14.6324 2.61544 14.8141 2.36691C14.9958 2.11838 15.2311 1.86158 15.5201 1.59647C15.8092 1.33137 16.1395 1.09526 16.5111 0.888165C16.8827 0.681066 17.2254 0.523648 17.5392 0.41596C17.853 0.308272 18.1172 0.237839 18.3319 0.20471C18.5466 0.171581 18.654 0.152519 18.654 0.147549Z" fill="#1D4787"/>
</svg>
