<svg width="32" height="23" viewBox="0 0 32 23" fill="none" xmlns="http://www.w3.org/2000/svg">
<path d="M16.7386 22.0417L10.3552 21.9253C8.28838 21.8847 6.21642 21.9657 4.19013 21.5454C1.10767 20.9175 0.889299 17.8387 0.660796 15.2562C0.345941 11.6255 0.467831 7.92892 1.062 4.32854C1.39743 2.30834 2.71748 1.10288 4.75889 0.971704C11.6502 0.495643 18.5873 0.552061 25.4632 0.774161C26.1894 0.794521 26.9206 0.905804 27.6367 1.03247C31.1713 1.65028 31.2575 5.13922 31.4866 8.07626C31.7151 11.0436 31.6187 14.0262 31.1819 16.9733C30.8315 19.4135 30.1611 21.4598 27.332 21.6573C23.7872 21.9156 20.3238 22.1236 16.769 22.0574C16.7692 22.0417 16.7488 22.0417 16.7386 22.0417ZM12.9858 15.8639C15.6571 14.3345 18.2774 12.8307 20.9334 11.3116C18.2571 9.78218 15.6418 8.27831 12.9858 6.7592V15.8639Z" fill="currentColor"/>
</svg>
