<svg xmlns="http://www.w3.org/2000/svg" width="135.412" height="234.195" viewBox="0 0 135.412 234.195">
  <g id="_000000ff" data-name="#000000ff" transform="translate(0 23.285)">
    <path id="Path_6513" data-name="Path 6513" d="M315.841,118.257c-2.925-1.634-5.741.719-7.657,2.688-2.875,2.892-6.237,5.343-8.825,8.5-1.421,2.247-.067,4.885,1.79,6.421,3.236,3.047,6.152,6.429,9.556,9.288,2.917,2.059,6.2-.368,8.212-2.467,2.732-2.777,5.732-5.31,8.329-8.21,1.707-2.058.749-5.024-1.2-6.568C322.581,124.76,319.564,121.116,315.841,118.257Z" transform="translate(-245.743 -140.995)" fill="rgba(30,30,57,0.15)"/>
    <path id="Path_6515" data-name="Path 6515" d="M219.919,181.417A48.8,48.8,0,0,0,182.706,169.7a50.06,50.06,0,0,0-33.053,18.173c-13.358,15.831-16.387,40.179-7.586,59.249-7.021-.018-13.143,10.266-19.56,26.681s-5.145,29.53-1.044,49.3,12.163,27.546,16.337,31.056c10.641,11.72,26.89,17.309,42.206,17.39a67.239,67.239,0,0,0,43.221-12.914c18.758-13.471,30.58-37.226,30.218-61.322-.017-3.554-5.114-4.846-6.649-1.687-6.455,11.541-13.062,23.567-23.509,31.581-12.733,10.177-29.2,13.372-44.816,12.852-13.864-.781-25.965-13.471-26.893-28.206-1.384-13.776,7.147-27.7,19.518-32.012,8.118-2.97,16.826-1.158,25.205-1.84a7.155,7.155,0,0,0,5.434-4.2c2.067-4.128,3.924-8.373,5.974-12.51,1-2.19,2.278-4.469,2.034-7.009a7.617,7.617,0,0,0-6.05-6.991c-7.291-.763-14.775.8-21.957-1.086-8.059-2.324-14.43-9.971-15.619-18.766-1.333-8.5,2.262-17.563,8.894-22.5a20.764,20.764,0,0,1,24.353-.691c2.135,1.418,4.152,3.59,6.869,3.428,2.489.072,4.447-1.723,6.312-3.2,3.316-2.782,6.767-5.394,10.067-8.2a8.2,8.2,0,0,0,2.439-8.634C224.206,184.908,221.885,183.194,219.919,181.417Z" transform="translate(-118.04 -160.735)" fill="rgba(30,30,57,0.15)"/>
  </g>
</svg>
