<svg xmlns="http://www.w3.org/2000/svg" xmlns:xlink="http://www.w3.org/1999/xlink" width="730" height="174" viewBox="0 0 730 174">
  <defs>
    <clipPath id="clip-path">
      <rect id="Rectangle_3596" data-name="Rectangle 3596" width="730" height="174" rx="16" fill="#000703" stroke="rgba(0,0,0,0)" stroke-miterlimit="10" stroke-width="1"/>
    </clipPath>
  </defs>
  <g id="Mask_Group_57" data-name="Mask Group 57" opacity="0.05" clip-path="url(#clip-path)">
    <path id="Union_18" data-name="Union 18" d="M94.856,479.076C59.036,478.028,25.092,466.165,0,448.14c34.882,1.173,70.995-1.048,102.067-13.329,63.667-24.439,119.655-57.805,182.265-83.585,68.357-27.666,153.715-33.619,227.583-13.958,62.612,16.054,119.655,49.378,142.048,95.279C575.349,401.234,479.789,386.521,391.616,404c-48.776,9.1-89.52,31.355-135.248,45.649-47.7,15.338-98.561,29.6-151.47,29.6Q99.893,479.25,94.856,479.076Zm586.193-162.6c32.83-31.689,87.82-46.99,141.286-50.762,78.266-4.485,156.354,4.024,234.561,5.156,36.816-.169,76.447-3.732,105.583-21.3,20.226-11.485,34.472-27.036,48.719-42.126-3.049,27.162-17.588,54.577-46.2,73.23-31.07,20.33-73.339,28.881-114.318,32.235-45.5,3.473-91.1,2.408-136.7,1.342-32.55-.76-65.1-1.519-97.626-.629-44.672,1.677-91.28,13.707-118.13,40.576-23.918,21.085-30.66,48.5-47.31,72.14C643.118,388.957,647.925,347.5,681.049,316.48Zm-38.106-35.8c21.4-33.2,61.321-58.769,106.58-74.865C811.9,183.428,880.2,171.481,944.218,151.864c33.357-10.353,66.479-24.774,85.474-47.7,12.018-13.707,16.3-29.761,21.81-45.229,11.314,31.229,2.4,66.481-28.785,90.458-50.3,40.409-125.166,56.883-193.464,75.914-53.759,13.791-110.1,29.845-146.68,62.835-29.431,25.277-42.68,57.3-53.7,88.572C622.014,344.6,622.776,310.439,642.943,280.678Zm75.508-138.954c57.513-30.432,133.548-40.073,184.143-77.8,23.8-17.061,28.2-41.792,36.816-63.926,1.993,19.157,4.572,39.026-4.749,57.47-12.077,23.977-39.513,41.792-67.947,56.044-43.792,22.887-97.259,34.33-138.824,59.564-67.83,39.361-103.18,100.142-117.191,160.5C593.229,262.113,636.2,184.523,718.451,141.724Z" transform="translate(976.842 377.99) rotate(180)" fill="#000703" stroke="rgba(0,0,0,0)" stroke-miterlimit="10" stroke-width="1"/>
  </g>
</svg>
