<svg xmlns="http://www.w3.org/2000/svg" xmlns:xlink="http://www.w3.org/1999/xlink" width="438.469" height="198.553" viewBox="0 0 438.469 198.553">
  <defs>
    <clipPath id="clip-path">
      <rect id="Rectangle_75" data-name="Rectangle 75" width="438.469" height="198.553" transform="translate(0.001)" fill="#bdfcd7"/>
    </clipPath>
  </defs>
  <g id="Mask_Group_71" data-name="Mask Group 71" transform="translate(-0.001)" clip-path="url(#clip-path)">
    <path id="Union_25" data-name="Union 25" d="M45.459.128C28.291.9,12.027,9.637,0,22.906c16.717-.861,34.022.777,48.914,9.818,30.51,18,57.341,42.567,87.346,61.552,32.758,20.376,73.662,24.753,109.06,10.279,30-11.822,57.34-36.366,68.072-70.165-37.672,23.058-83.469,33.9-125.724,21.022-23.371-6.7-42.9-23.089-64.81-33.613C100,10.5,75.623,0,50.269,0Q47.869,0,45.459.128ZM326.374,119.863c15.729,23.34,42.081,34.6,67.7,37.379,37.506,3.305,74.929-2.962,112.405-3.8,17.647.125,36.634,2.747,50.6,15.679,9.693,8.459,16.52,19.913,23.346,31.021-1.46-20-8.426-40.187-22.135-53.919-14.895-14.972-35.149-21.274-54.784-23.74-21.8-2.556-43.652-1.769-65.507-.987-15.6.56-31.2,1.118-46.784.463-21.407-1.24-43.746-10.1-56.614-29.88-11.459-15.53-14.69-35.712-22.67-53.126C308.2,66.491,310.5,97.02,326.374,119.863Zm-18.265,26.365c10.254,24.445,29.386,43.274,51.075,55.128,29.9,16.485,62.624,25.279,93.3,39.726,15.985,7.625,31.861,18.248,40.96,35.131,5.757,10.09,7.809,21.917,10.453,33.305,5.417-23,1.149-48.955-13.8-66.615-24.1-29.754-59.98-41.882-92.713-55.9-25.761-10.153-52.757-21.974-70.29-46.272-14.1-18.612-20.451-42.2-25.734-65.222C298.083,99.155,298.445,124.309,308.109,146.228Zm36.186,102.319c27.559,22.414,64,29.515,88.245,57.294,11.408,12.563,13.512,30.777,17.642,47.071.955-14.1,2.192-28.738-2.276-42.317-5.788-17.659-18.934-30.774-32.56-41.272-20.986-16.854-46.608-25.279-66.525-43.863-32.509-28.984-49.448-73.742-56.16-118.194C284.285,159.9,304.878,217.037,344.295,248.547Z" transform="translate(438.47 221.213) rotate(180)" fill="#fff" stroke="rgba(0,0,0,0)" stroke-miterlimit="10" stroke-width="1" opacity="0.1"/>
  </g>
</svg>
