<svg xmlns="http://www.w3.org/2000/svg" xmlns:xlink="http://www.w3.org/1999/xlink" width="438.47" height="198.553" viewBox="0 0 438.47 198.553">
  <defs>
    <clipPath id="clip-path">
      <rect id="Rectangle_75" data-name="Rectangle 75" width="438.47" height="198.553" transform="translate(270.471)" fill="#bdfcd7"/>
    </clipPath>
  </defs>
  <g id="Mask_Group_61" data-name="Mask Group 61" transform="translate(-270.471)" clip-path="url(#clip-path)">
    <path id="Union_21" data-name="Union 21" d="M45.459,352.784c-17.168-.77-33.433-9.509-45.459-22.778,16.717.861,34.022-.777,48.914-9.818,30.51-18,57.342-42.567,87.346-61.552,32.758-20.376,73.662-24.753,109.06-10.279,30,11.822,57.34,36.366,68.072,70.165-37.672-23.058-83.469-33.9-125.724-21.022-23.371,6.7-42.9,23.089-64.81,33.613-22.86,11.3-47.234,21.8-72.588,21.8Q47.869,352.912,45.459,352.784ZM326.375,233.049c15.729-23.34,42.081-34.6,67.7-37.379,37.506-3.305,74.929,2.962,112.406,3.8,17.647-.125,36.634-2.747,50.6-15.679,9.693-8.459,16.52-19.913,23.346-31.021-1.46,20-8.426,40.187-22.135,53.919-14.895,14.972-35.149,21.274-54.784,23.74-21.8,2.556-43.652,1.769-65.507.987-15.6-.56-31.2-1.118-46.784-.463-21.407,1.24-43.746,10.1-56.614,29.88-11.46,15.53-14.69,35.712-22.67,53.126C308.2,286.421,310.5,255.892,326.375,233.049Zm-18.265-26.365c10.254-24.445,29.386-43.274,51.075-55.128,29.9-16.485,62.624-25.279,93.3-39.726,15.985-7.625,31.861-18.248,40.96-35.131,5.757-10.09,7.809-21.917,10.453-33.305,5.417,23,1.149,48.955-13.8,66.615-24.1,29.754-59.98,41.882-92.713,55.9-25.761,10.153-52.757,21.974-70.29,46.272-14.1,18.612-20.451,42.2-25.734,65.222C298.083,253.757,298.446,228.6,308.109,206.684ZM344.3,104.365c27.559-22.414,64-29.515,88.245-57.294C443.948,34.508,446.052,16.294,450.182,0c.955,14.1,2.192,28.738-2.276,42.317-5.788,17.659-18.934,30.774-32.561,41.272-20.986,16.854-46.608,25.279-66.525,43.863-32.509,28.984-49.449,73.742-56.16,118.194C284.286,193.015,304.879,135.875,344.3,104.365Z" transform="translate(270.471 -131.699)" fill="#fff" stroke="rgba(0,0,0,0)" stroke-miterlimit="10" stroke-width="1" opacity="0.1"/>
  </g>
</svg>
